<svg width="152" height="44" viewBox="0 0 152 44" fill="none" xmlns="http://www.w3.org/2000/svg">
<path d="M151.005 38.5774C151.005 40.9013 149.083 42.7837 146.706 42.7837H6.03877C3.66309 42.7837 1.73474 40.9013 1.73474 38.5774V5.034C1.73474 2.71123 3.66309 0.822266 6.03877 0.822266H146.705C149.083 0.822266 151.004 2.71123 151.004 5.034L151.005 38.5774Z" fill="black"/>
<path d="M146.253 0.873952C148.841 0.873952 150.948 2.92757 150.948 5.45132V38.1566C150.948 40.6803 148.841 42.7339 146.253 42.7339H6.487C3.89853 42.7339 1.79226 40.6803 1.79226 38.1566V5.45132C1.79226 2.92757 3.89853 0.873952 6.487 0.873952H146.253ZM146.253 0.000451308H6.487C3.41355 0.000451308 0.896362 2.45471 0.896362 5.45132V38.1566C0.896362 41.1532 3.41355 43.6074 6.487 43.6074H146.253C149.326 43.6074 151.844 41.1532 151.844 38.1566V5.45132C151.844 2.45471 149.326 0.000451308 146.253 0.000451308Z" fill="#A6A6A6"/>
<path d="M34.5833 21.5677C34.5509 18.0541 37.534 16.3447 37.6705 16.2651C35.981 13.8635 33.3623 13.5353 32.4421 13.5092C30.2427 13.2835 28.1093 14.7923 26.989 14.7923C25.8463 14.7923 24.121 13.531 22.2615 13.568C19.8687 13.604 17.6303 14.9547 16.4026 17.0522C13.8689 21.329 15.7585 27.6138 18.186 31.0708C19.4003 32.7638 20.8192 34.6542 22.6764 34.5877C24.4933 34.5146 25.172 33.4583 27.3647 33.4583C29.5372 33.4583 30.1745 34.5877 32.0686 34.5452C34.0186 34.5146 35.2464 32.8445 36.4181 31.1362C37.8214 29.1957 38.3849 27.2846 38.4073 27.1865C38.3615 27.1712 34.6202 25.7791 34.5833 21.5677Z" fill="white"/>
<path d="M31.0053 11.2351C31.9825 10.0435 32.6512 8.42242 32.4656 6.77734C31.0511 6.83839 29.2823 7.73125 28.2636 8.89664C27.3624 9.92359 26.5574 11.6068 26.7654 13.1897C28.3542 13.3053 29.9856 12.4081 31.0053 11.2351Z" fill="white"/>
<path d="M60.8786 34.345H58.3393L56.9483 30.0835H52.1136L50.7886 34.345H48.3164L53.1065 19.8369H56.065L60.8786 34.345ZM56.5291 28.2956L55.2712 24.5072C55.1381 24.1202 54.8888 23.2088 54.5209 21.7742H54.4762C54.3297 22.3912 54.0938 23.3026 53.7695 24.5072L52.534 28.2956H56.5291V28.2956Z" fill="white"/>
<path d="M73.1969 28.9857C73.1969 30.7649 72.7038 32.1712 71.7176 33.2036C70.8343 34.1226 69.7374 34.5816 68.4281 34.5816C67.0147 34.5816 65.9995 34.0866 65.3812 33.0968H65.3364V38.6076H62.9526V27.3276C62.9526 26.2091 62.9224 25.0611 62.8643 23.8837H64.9607L65.0938 25.5419H65.1385C65.9335 24.2925 67.14 23.6689 68.759 23.6689C70.0247 23.6689 71.0814 24.1563 71.9267 25.132C72.7742 26.1088 73.1969 27.393 73.1969 28.9857ZM70.7683 29.0708C70.7683 28.0525 70.5335 27.2131 70.0616 26.5525C69.5462 25.8635 68.8541 25.519 67.9864 25.519C67.3983 25.519 66.8638 25.7108 66.3864 26.0891C65.9078 26.4707 65.5947 26.9689 65.4482 27.5859C65.3745 27.8737 65.3376 28.1092 65.3376 28.2946V30.0388C65.3376 30.7998 65.5768 31.4419 66.0554 31.9663C66.534 32.4906 67.1556 32.7523 67.9204 32.7523C68.8183 32.7523 69.5171 32.4143 70.0169 31.7406C70.5178 31.0658 70.7683 30.1762 70.7683 29.0708Z" fill="white"/>
<path d="M85.5377 28.9857C85.5377 30.7649 85.0446 32.1712 84.0573 33.2036C83.1751 34.1226 82.0782 34.5816 80.7689 34.5816C79.3555 34.5816 78.3403 34.0866 77.7231 33.0968H77.6784V38.6076H75.2945V27.3276C75.2945 26.2091 75.2643 25.0611 75.2062 23.8837H77.3027L77.4357 25.5419H77.4804C78.2743 24.2925 79.4808 23.6689 81.1009 23.6689C82.3656 23.6689 83.4222 24.1563 84.2697 25.132C85.1139 26.1088 85.5377 27.393 85.5377 28.9857ZM83.1091 29.0708C83.1091 28.0525 82.8732 27.2131 82.4013 26.5525C81.8859 25.8635 81.196 25.519 80.3272 25.519C79.738 25.519 79.2046 25.7108 78.726 26.0891C78.2475 26.4707 77.9355 26.9689 77.789 27.5859C77.7164 27.8737 77.6784 28.1092 77.6784 28.2946V30.0388C77.6784 30.7998 77.9176 31.4419 78.394 31.9663C78.8725 32.4895 79.4942 32.7523 80.2612 32.7523C81.1591 32.7523 81.8579 32.4143 82.3577 31.7406C82.8586 31.0658 83.1091 30.1762 83.1091 29.0708Z" fill="white"/>
<path d="M99.3353 30.2761C99.3353 31.5102 98.8958 32.5142 98.0136 33.2894C97.0442 34.1364 95.6946 34.5594 93.9604 34.5594C92.3593 34.5594 91.0757 34.2585 90.104 33.6557L90.6564 31.7184C91.7029 32.3355 92.8512 32.6451 94.1024 32.6451C95.0003 32.6451 95.6991 32.4467 96.2012 32.052C96.701 31.6574 96.9503 31.1275 96.9503 30.4669C96.9503 29.8782 96.7446 29.3822 96.332 28.9799C95.9216 28.5776 95.2362 28.2037 94.2791 27.8581C91.6739 26.9107 90.3724 25.523 90.3724 23.698C90.3724 22.5054 90.8286 21.5275 91.7421 20.7665C92.6522 20.0045 93.8665 19.624 95.3849 19.624C96.739 19.624 97.8638 19.8541 98.7617 20.313L98.1657 22.2077C97.3271 21.7629 96.3789 21.5406 95.3178 21.5406C94.4792 21.5406 93.824 21.7422 93.3544 22.1434C92.9575 22.5021 92.7584 22.9392 92.7584 23.4571C92.7584 24.0305 92.9854 24.5047 93.4416 24.8776C93.8385 25.2221 94.5597 25.5949 95.6063 25.9972C96.8866 26.4998 97.8269 27.0874 98.4318 27.7611C99.0345 28.4326 99.3353 29.2732 99.3353 30.2761Z" fill="white"/>
<path d="M107.217 25.6273H104.589V30.7064C104.589 31.9982 105.052 32.6436 105.98 32.6436C106.406 32.6436 106.759 32.6076 107.039 32.5357L107.105 34.3007C106.635 34.4718 106.017 34.558 105.251 34.558C104.31 34.558 103.574 34.2778 103.043 33.7185C102.514 33.1582 102.248 32.2184 102.248 30.8982V25.6251H100.682V23.8808H102.248V21.9654L104.589 21.2764V23.8808H107.217V25.6273Z" fill="white"/>
<path d="M119.073 29.0281C119.073 30.6361 118.601 31.9563 117.659 32.9887C116.672 34.0517 115.362 34.5815 113.728 34.5815C112.154 34.5815 110.9 34.0724 109.965 33.0541C109.031 32.0359 108.563 30.7506 108.563 29.2015C108.563 27.5804 109.044 26.2525 110.009 25.2202C110.972 24.1867 112.271 23.6699 113.905 23.6699C115.479 23.6699 116.746 24.179 117.702 25.1983C118.616 26.1871 119.073 27.4637 119.073 29.0281ZM116.599 29.1033C116.599 28.1385 116.388 27.3111 115.96 26.621C115.46 25.786 114.745 25.3695 113.82 25.3695C112.861 25.3695 112.134 25.787 111.634 26.621C111.205 27.3122 110.994 28.1527 110.994 29.147C110.994 30.1118 111.205 30.9392 111.634 31.6282C112.149 32.4633 112.869 32.8797 113.798 32.8797C114.709 32.8797 115.423 32.4545 115.939 31.6064C116.378 30.9032 116.599 30.0671 116.599 29.1033Z" fill="white"/>
<path d="M126.821 25.9278C126.585 25.8853 126.334 25.8635 126.07 25.8635C125.231 25.8635 124.583 26.172 124.127 26.7901C123.73 27.3352 123.531 28.0242 123.531 28.856V34.345H121.148L121.17 27.1782C121.17 25.9725 121.14 24.8747 121.081 23.8848H123.157L123.244 25.8864H123.31C123.562 25.1985 123.959 24.6447 124.502 24.2293C125.033 23.8554 125.607 23.6689 126.225 23.6689C126.446 23.6689 126.645 23.6842 126.821 23.7115V25.9278Z" fill="white"/>
<path d="M137.483 28.6185C137.483 29.035 137.455 29.386 137.395 29.6727H130.244C130.272 30.7062 130.617 31.4966 131.281 32.0417C131.884 32.529 132.663 32.7732 133.621 32.7732C134.679 32.7732 135.645 32.6086 136.514 32.2783L136.888 33.8917C135.872 34.3234 134.674 34.5382 133.291 34.5382C131.627 34.5382 130.321 34.0607 129.371 33.1068C128.422 32.1529 127.947 30.8719 127.947 29.265C127.947 27.6875 128.389 26.3739 129.273 25.3262C130.199 24.2077 131.45 23.6484 133.025 23.6484C134.571 23.6484 135.742 24.2077 136.537 25.3262C137.166 26.2147 137.483 27.3136 137.483 28.6185ZM135.209 28.0157C135.225 27.3267 135.07 26.7314 134.746 26.2289C134.334 25.5824 133.7 25.2597 132.847 25.2597C132.067 25.2597 131.433 25.5748 130.949 26.2071C130.552 26.7096 130.316 27.3125 130.244 28.0146H135.209V28.0157Z" fill="white"/>
<path d="M55.7411 10.9111C55.7411 12.1942 55.3464 13.1601 54.5581 13.8088C53.828 14.4073 52.7904 14.7071 51.4464 14.7071C50.78 14.7071 50.2097 14.6788 49.7323 14.6221V7.61115C50.3551 7.51304 51.026 7.46289 51.7505 7.46289C53.0308 7.46289 53.9957 7.73434 54.6465 8.27725C55.3755 8.89102 55.7411 9.76861 55.7411 10.9111ZM54.5056 10.9427C54.5056 10.1109 54.2797 9.47317 53.828 9.02838C53.3763 8.58468 52.7166 8.36228 51.8478 8.36228C51.4788 8.36228 51.1646 8.38627 50.9041 8.43642V13.7663C51.0483 13.7881 51.3122 13.7979 51.6957 13.7979C52.5925 13.7979 53.2846 13.5548 53.7721 13.0686C54.2596 12.5823 54.5056 11.8737 54.5056 10.9427Z" fill="white"/>
<path d="M62.292 12.0321C62.292 12.8224 62.0606 13.47 61.5977 13.978C61.1124 14.5002 60.4695 14.7608 59.6667 14.7608C58.8929 14.7608 58.2768 14.5111 57.8173 14.0096C57.3589 13.5093 57.1296 12.878 57.1296 12.1171C57.1296 11.3213 57.3656 10.6683 57.8396 10.1613C58.3137 9.6544 58.9511 9.40039 59.7539 9.40039C60.5276 9.40039 61.1493 9.65004 61.62 10.1504C62.0673 10.6366 62.292 11.2646 62.292 12.0321ZM61.0766 12.0691C61.0766 11.5949 60.9715 11.1883 60.7624 10.8492C60.5164 10.4393 60.1665 10.2344 59.7114 10.2344C59.2407 10.2344 58.8829 10.4393 58.6369 10.8492C58.4267 11.1883 58.3227 11.6015 58.3227 12.0898C58.3227 12.5641 58.4278 12.9707 58.6369 13.3098C58.8907 13.7197 59.244 13.9246 59.7002 13.9246C60.1475 13.9246 60.4986 13.7164 60.7513 13.2989C60.9682 12.9533 61.0766 12.5434 61.0766 12.0691Z" fill="white"/>
<path d="M71.0756 9.50391L69.4264 14.643H68.353L67.6698 12.4114C67.4965 11.8543 67.3556 11.3005 67.2461 10.7511H67.2248C67.1231 11.3158 66.9822 11.8685 66.801 12.4114L66.0754 14.643H64.9897L63.4388 9.50391H64.6431L65.239 11.947C65.3833 12.5248 65.5018 13.0753 65.5968 13.5964H65.6181C65.7053 13.1669 65.8495 12.6196 66.053 11.9579L66.801 9.505H67.7559L68.4726 11.9056C68.646 12.491 68.7868 13.0546 68.8953 13.5975H68.9277C69.0071 13.0688 69.1268 12.5052 69.2855 11.9056L69.9251 9.505H71.0756V9.50391Z" fill="white"/>
<path d="M77.1506 14.6435H75.9788V11.7C75.9788 10.793 75.6255 10.3395 74.9166 10.3395C74.5689 10.3395 74.2882 10.4638 74.0702 10.7134C73.8544 10.9631 73.7448 11.2574 73.7448 11.5943V14.6424H72.573V10.9729C72.573 10.5215 72.5585 10.0321 72.5305 9.50223H73.5603L73.6151 10.3057H73.6475C73.7839 10.056 73.9874 9.85 74.2547 9.68538C74.5722 9.49351 74.9278 9.39648 75.3169 9.39648C75.8089 9.39648 76.2181 9.55129 76.5435 9.86199C76.9482 10.2425 77.1506 10.8104 77.1506 11.5648V14.6435V14.6435Z" fill="white"/>
<path d="M80.382 14.6436H79.2113V7.14648H80.382V14.6436Z" fill="white"/>
<path d="M87.2807 12.0321C87.2807 12.8224 87.0492 13.47 86.5863 13.978C86.1011 14.5002 85.457 14.7608 84.6553 14.7608C83.8805 14.7608 83.2644 14.5111 82.8059 14.0096C82.3475 13.5093 82.1183 12.878 82.1183 12.1171C82.1183 11.3213 82.3542 10.6683 82.8283 10.1613C83.3024 9.6544 83.9397 9.40039 84.7414 9.40039C85.5163 9.40039 86.1368 9.65004 86.6087 10.1504C87.0559 10.6366 87.2807 11.2646 87.2807 12.0321ZM86.0642 12.0691C86.0642 11.5949 85.9591 11.1883 85.75 10.8492C85.5051 10.4393 85.154 10.2344 84.7 10.2344C84.2282 10.2344 83.8704 10.4393 83.6255 10.8492C83.4153 11.1883 83.3113 11.6015 83.3113 12.0898C83.3113 12.5641 83.4164 12.9707 83.6255 13.3098C83.8793 13.7197 84.2327 13.9246 84.6889 13.9246C85.1361 13.9246 85.4861 13.7164 85.7388 13.2989C85.9568 12.9533 86.0642 12.5434 86.0642 12.0691Z" fill="white"/>
<path d="M92.9518 14.6441H91.8996L91.8124 14.0522H91.78C91.4199 14.5242 90.9067 14.7608 90.2403 14.7608C89.7428 14.7608 89.3402 14.6049 89.0372 14.2953C88.7622 14.014 88.6246 13.6641 88.6246 13.2487C88.6246 12.6208 88.893 12.1422 89.433 11.8108C89.972 11.4794 90.7301 11.3169 91.7062 11.3245V11.2286C91.7062 10.5516 91.3417 10.2137 90.6115 10.2137C90.0916 10.2137 89.6332 10.3412 89.2374 10.5941L88.9992 9.84409C89.4889 9.54865 90.0939 9.40039 90.8072 9.40039C92.1848 9.40039 92.8758 10.109 92.8758 11.5262V13.4188C92.8758 13.9322 92.9015 14.3411 92.9518 14.6441ZM91.7353 12.878V12.0855C90.4427 12.0637 89.7964 12.4093 89.7964 13.1212C89.7964 13.3893 89.8702 13.5899 90.0212 13.724C90.1721 13.8581 90.3644 13.9246 90.5937 13.9246C90.8508 13.9246 91.0912 13.845 91.3104 13.687C91.5306 13.5278 91.6659 13.3261 91.7163 13.0786C91.7286 13.023 91.7353 12.9554 91.7353 12.878Z" fill="white"/>
<path d="M99.6104 14.6436H98.5706L98.5158 13.8183H98.4834C98.1513 14.4463 97.5855 14.7603 96.7905 14.7603C96.1554 14.7603 95.6265 14.5172 95.2072 14.0309C94.7879 13.5447 94.5789 12.9135 94.5789 12.1384C94.5789 11.3066 94.8058 10.6329 95.262 10.1183C95.7037 9.63862 96.2449 9.39878 96.8889 9.39878C97.5967 9.39878 98.092 9.63099 98.3738 10.0965H98.3961V7.14648H99.5691V13.2591C99.5691 13.7595 99.5825 14.2206 99.6104 14.6436ZM98.3961 12.4763V11.6195C98.3961 11.4712 98.385 11.3513 98.3637 11.2597C98.2977 10.985 98.1557 10.7539 97.9399 10.5675C97.7219 10.381 97.4591 10.2873 97.1561 10.2873C96.7189 10.2873 96.3768 10.4563 96.1252 10.7953C95.8759 11.1343 95.7495 11.5671 95.7495 12.0959C95.7495 12.6039 95.8692 13.016 96.1096 13.3332C96.3634 13.6712 96.7055 13.8402 97.1338 13.8402C97.5184 13.8402 97.8259 13.6995 98.0596 13.4172C98.2854 13.1566 98.3961 12.8426 98.3961 12.4763Z" fill="white"/>
<path d="M109.632 12.0321C109.632 12.8224 109.401 13.47 108.938 13.978C108.452 14.5002 107.811 14.7608 107.007 14.7608C106.234 14.7608 105.618 14.5111 105.157 14.0096C104.699 13.5093 104.47 12.878 104.47 12.1171C104.47 11.3213 104.706 10.6683 105.18 10.1613C105.654 9.6544 106.291 9.40039 107.095 9.40039C107.868 9.40039 108.491 9.65004 108.96 10.1504C109.407 10.6366 109.632 11.2646 109.632 12.0321ZM108.418 12.0691C108.418 11.5949 108.313 11.1883 108.104 10.8492C107.857 10.4393 107.508 10.2344 107.051 10.2344C106.582 10.2344 106.224 10.4393 105.977 10.8492C105.767 11.1883 105.663 11.6015 105.663 12.0898C105.663 12.5641 105.768 12.9707 105.977 13.3098C106.231 13.7197 106.584 13.9246 107.04 13.9246C107.488 13.9246 107.84 13.7164 108.092 13.2989C108.308 12.9533 108.418 12.5434 108.418 12.0691Z" fill="white"/>
<path d="M115.933 14.6435H114.763V11.7C114.763 10.793 114.409 10.3395 113.699 10.3395C113.351 10.3395 113.071 10.4638 112.854 10.7134C112.637 10.9631 112.528 11.2574 112.528 11.5943V14.6424H111.356V10.9729C111.356 10.5215 111.342 10.0321 111.314 9.50223H112.343L112.398 10.3057H112.43C112.568 10.056 112.771 9.85 113.037 9.68538C113.356 9.49351 113.71 9.39648 114.101 9.39648C114.591 9.39648 115.001 9.55129 115.326 9.86199C115.732 10.2425 115.933 10.8104 115.933 11.5648V14.6435V14.6435Z" fill="white"/>
<path d="M123.819 10.3603H122.528V12.8568C122.528 13.4912 122.757 13.8085 123.211 13.8085C123.422 13.8085 123.596 13.791 123.734 13.7551L123.764 14.6218C123.532 14.7068 123.228 14.7493 122.854 14.7493C122.391 14.7493 122.031 14.6119 121.77 14.3372C121.508 14.0625 121.379 13.6003 121.379 12.9516V10.3603H120.608V9.50447H121.379V8.56256L122.527 8.22461V9.50338H123.817V10.3603H123.819Z" fill="white"/>
<path d="M130.022 14.6436H128.85V11.7219C128.85 10.8007 128.496 10.3396 127.788 10.3396C127.245 10.3396 126.874 10.6067 126.67 11.1409C126.636 11.2532 126.616 11.3905 126.616 11.5519V14.6425H125.445V7.14648H126.616V10.2437H126.638C127.007 9.68005 127.536 9.39878 128.221 9.39878C128.706 9.39878 129.108 9.55359 129.426 9.86429C129.823 10.2513 130.022 10.8269 130.022 11.5879V14.6436V14.6436Z" fill="white"/>
<path d="M136.421 11.8305C136.421 12.0355 136.406 12.2077 136.378 12.3484H132.864C132.879 12.8564 133.047 13.2434 133.372 13.5116C133.67 13.7514 134.053 13.8714 134.523 13.8714C135.043 13.8714 135.517 13.7907 135.944 13.6282L136.127 14.4219C135.628 14.6334 135.039 14.7391 134.358 14.7391C133.542 14.7391 132.899 14.5047 132.434 14.036C131.967 13.5672 131.735 12.9382 131.735 12.1489C131.735 11.3738 131.951 10.7284 132.386 10.2138C132.84 9.66437 133.454 9.38965 134.229 9.38965C134.987 9.38965 135.563 9.66437 135.952 10.2138C136.266 10.6499 136.421 11.1895 136.421 11.8305ZM135.303 11.5351C135.312 11.1961 135.235 10.9039 135.076 10.6575C134.873 10.3403 134.563 10.1811 134.144 10.1811C133.761 10.1811 133.449 10.3359 133.211 10.6466C133.017 10.8941 132.902 11.1895 132.864 11.5351H135.303Z" fill="white"/>
</svg>
