<svg width="141" height="27" viewBox="0 0 141 27" fill="none" xmlns="http://www.w3.org/2000/svg">
<path fill-rule="evenodd" clip-rule="evenodd" d="M24.912 13.1497C25.483 12.2741 26.0309 11.232 26.0309 10.1131V3.33577C26.0309 1.80466 24.7917 0.56543 23.2606 0.56543H0.813644V13.3264L6.82565 19.3397V15.7097V10.5889V4.51308H14.937C18.0171 4.51308 20.5365 7.0325 20.5365 10.1127C20.5365 11.229 20.2011 12.2736 19.6327 13.1493C20.2037 14.0249 20.5365 15.067 20.5365 16.1859C20.5365 19.266 18.0171 21.7855 14.937 21.7855H9.27096L13.2674 25.7827H23.2606C24.7917 25.7827 26.0309 24.5435 26.0309 23.0124V16.1864C26.0309 15.6282 25.949 15.088 25.7928 14.5784C25.6819 14.2166 25.4276 13.8689 25.1877 13.5409C25.0898 13.4071 24.9944 13.2766 24.912 13.1497Z" fill="url(#paint0_linear_6023_12983)"/>
<path d="M0.813599 11.3682L6.83051 12.5357L13.421 21.7864L15.5435 25.7832H13.2673L0.813599 13.3269V11.3682Z" fill="#002C72" fill-opacity="0.5"/>
<path d="M13.2673 25.783L0.813599 13.3267V12.5381H13.421V25.783" fill="#01E3FB"/>
<path d="M13.2673 25.783L0.813599 13.3267V12.5381H13.421V25.783H13.2673Z" fill="#01E3FB"/>
<path d="M13.2673 25.783L0.813599 13.3267V12.5381H13.421V25.783H13.2673Z" fill="url(#paint1_linear_6023_12983)"/>
<path d="M15.083 12.558C16.0544 12.558 16.842 11.7705 16.842 10.799C16.842 9.82757 16.0544 9.04004 15.083 9.04004C14.1115 9.04004 13.324 9.82757 13.324 10.799C13.324 11.7705 14.1115 12.558 15.083 12.558Z" fill="#72D3EE"/>
<path d="M15.083 12.558C16.0544 12.558 16.842 11.7705 16.842 10.799C16.842 9.82757 16.0544 9.04004 15.083 9.04004C14.1115 9.04004 13.324 9.82757 13.324 10.799C13.324 11.7705 14.1115 12.558 15.083 12.558Z" fill="url(#paint2_linear_6023_12983)"/>
<path fill-rule="evenodd" clip-rule="evenodd" d="M76.4955 21.6472H79.3209V18.5416L81.0021 16.7903L84.0143 21.6472H87.2834L82.9869 14.6888L87.3768 10.1121H83.8042L79.3209 14.9456V4.27441H76.4955V21.6472ZM34.5398 19.046H37.736V21.6472H41.4516C44.9775 21.6472 47.009 19.9426 47.009 17.0238C47.009 15.039 46.0983 13.6847 44.3003 13.1009C45.9115 12.4238 46.7521 11.0694 46.7521 9.17803C46.7521 6.32927 44.6973 4.57797 41.3348 4.57797H34.5398V19.046ZM37.5287 7.21659H41.078C42.7592 7.21659 43.6932 8.0105 43.6932 9.48159C43.6932 10.9994 42.7826 11.8633 41.148 11.8633H37.5287V7.21659ZM37.5287 14.3852H41.3348C42.9927 14.3852 43.9501 15.2025 43.9501 16.6502C43.9501 18.1913 43.0161 19.0086 41.3348 19.0086H37.5287V14.3852ZM54.5832 9.78515C51.0105 9.78515 48.4186 12.2603 48.4186 15.8563C48.4186 19.4523 51.0105 21.9274 54.5832 21.9274C58.1558 21.9274 60.7477 19.4523 60.7477 15.8563C60.7477 12.2603 58.1558 9.78515 54.5832 9.78515ZM54.5832 19.3822C52.6217 19.3822 51.2674 17.9578 51.2674 15.8563C51.2674 13.7547 52.6217 12.3304 54.5832 12.3304C56.5446 12.3304 57.8989 13.7547 57.8989 15.8563C57.8989 17.9578 56.5446 19.3822 54.5832 19.3822ZM62.0951 15.8563C62.0951 12.2603 64.687 9.78515 68.2597 9.78515C71.8323 9.78515 74.4242 12.2603 74.4242 15.8563C74.4242 19.4523 71.8323 21.9274 68.2597 21.9274C64.687 21.9274 62.0951 19.4523 62.0951 15.8563ZM64.9439 15.8563C64.9439 17.9578 66.2982 19.3822 68.2597 19.3822C70.2211 19.3822 71.5754 17.9578 71.5754 15.8563C71.5754 13.7547 70.2211 12.3304 68.2597 12.3304C66.2982 12.3304 64.9439 13.7547 64.9439 15.8563ZM93.4159 21.9508C89.9833 21.9508 87.5782 19.4523 87.5782 15.8796C87.5782 12.2603 89.9366 9.7618 93.3225 9.7618C96.7783 9.7618 98.9733 12.0735 98.9733 15.6695V16.5335L90.2869 16.5568C90.497 18.5883 91.5712 19.6157 93.4626 19.6157C95.027 19.6157 96.0545 19.0086 96.3814 17.9111H99.02C98.5296 20.433 96.4281 21.9508 93.4159 21.9508ZM93.3458 12.0969C91.6646 12.0969 90.6371 13.0075 90.3569 14.7355H96.1479C96.1479 13.1476 95.0504 12.0969 93.3458 12.0969ZM100.343 15.9263C100.343 19.499 102.421 21.9508 105.76 21.9508C107.511 21.9508 109.006 21.1802 109.706 19.8492L109.893 21.6472H112.508V4.27441H109.683V11.5831C108.959 10.439 107.535 9.7618 105.923 9.7618C102.444 9.7618 100.343 12.3304 100.343 15.9263ZM109.659 15.8329C109.659 17.9111 108.375 19.3355 106.39 19.3355C104.406 19.3355 103.191 17.8878 103.191 15.8329C103.191 13.7781 104.406 12.307 106.39 12.307C108.375 12.307 109.659 13.7547 109.659 15.8329ZM123.195 21.6472H120.089L126.254 4.57797H129.313L135.477 21.6472H132.325L130.947 17.701H124.573L123.195 21.6472ZM127.398 9.6684L125.46 15.1791H130.084L128.122 9.6684L128.114 9.64367C127.976 9.20576 127.818 8.70453 127.772 8.36076C127.702 8.68767 127.562 9.20138 127.398 9.6684ZM140.373 21.6472V4.57797H137.384V21.6472H140.373Z" fill="white"/>
<defs>
<linearGradient id="paint0_linear_6023_12983" x1="20.2939" y1="4.03424" x2="9.98119" y2="23.9096" gradientUnits="userSpaceOnUse">
<stop stop-color="#014DFE"/>
<stop offset="0.716667" stop-color="#0EAFE1"/>
</linearGradient>
<linearGradient id="paint1_linear_6023_12983" x1="16.4842" y1="13.379" x2="1.29915" y2="17.6803" gradientUnits="userSpaceOnUse">
<stop stop-color="#02589F"/>
<stop offset="0.0416638" stop-color="#0285C7"/>
<stop offset="0.130206" stop-color="#02AADF"/>
<stop offset="0.442708" stop-color="#6CD0F3"/>
<stop offset="0.713543" stop-color="#83D9DC"/>
<stop offset="1" stop-color="#ABE1CC"/>
</linearGradient>
<linearGradient id="paint2_linear_6023_12983" x1="16.0416" y1="9.52396" x2="14.6029" y2="12.2967" gradientUnits="userSpaceOnUse">
<stop stop-color="#014DFE"/>
<stop offset="0.716667" stop-color="#0EAFE1"/>
</linearGradient>
</defs>
</svg>
