<svg width="151" height="44" viewBox="0 0 151 44" fill="none" xmlns="http://www.w3.org/2000/svg">
<path d="M145.313 43.6074H5.73945C2.67022 43.6074 0.156494 41.1532 0.156494 38.1566V5.45133C0.156494 2.45472 2.67022 0.000460756 5.73945 0.000460756H145.313C148.382 0.000460756 150.896 2.45472 150.896 5.45133V38.1566C150.896 41.1532 148.382 43.6074 145.313 43.6074Z" fill="black"/>
<path d="M145.313 0.873961C147.898 0.873961 150.002 2.92758 150.002 5.45133V38.1566C150.002 40.6803 147.898 42.7339 145.313 42.7339H5.73945C3.15454 42.7339 1.05116 40.6803 1.05116 38.1566V5.45133C1.05116 2.92758 3.15454 0.873961 5.73945 0.873961H145.313ZM145.313 0.000460756H5.73945C2.67022 0.000460756 0.156494 2.45472 0.156494 5.45133V38.1566C0.156494 41.1532 2.67022 43.6074 5.73945 43.6074H145.313C148.382 43.6074 150.896 41.1532 150.896 38.1566V5.45133C150.896 2.45472 148.382 0.000460756 145.313 0.000460756Z" fill="#A6A6A6"/>
<path d="M53.1023 11.1678C53.1023 12.0781 52.8232 12.8072 52.2733 13.3509C51.641 13.9954 50.8175 14.3198 49.8084 14.3198C48.8439 14.3198 48.0204 13.99 47.3449 13.34C46.668 12.6804 46.3302 11.871 46.3302 10.9021C46.3302 9.93318 46.668 9.12372 47.3449 8.46962C48.0204 7.81415 48.8439 7.48438 49.8084 7.48438C50.2885 7.48438 50.7463 7.58113 51.1832 7.76101C51.6186 7.94225 51.9732 8.18754 52.23 8.49006L51.6466 9.06513C51.1985 8.54866 50.5886 8.29383 49.8084 8.29383C49.1049 8.29383 48.495 8.53367 47.9772 9.01743C47.4649 9.50256 47.2081 10.1308 47.2081 10.9021C47.2081 11.6734 47.4649 12.307 47.9772 12.7922C48.495 13.2705 49.1049 13.5158 49.8084 13.5158C50.5551 13.5158 51.1832 13.2705 51.6787 12.7867C52.0053 12.4665 52.1909 12.025 52.2398 11.4608H49.8084V10.6731H53.0521C53.0912 10.8435 53.1023 11.0084 53.1023 11.1678V11.1678Z" fill="white" stroke="white" stroke-width="0.118256" stroke-miterlimit="10"/>
<path d="M58.2482 8.43741H55.2013V10.5087H57.9481V11.2964H55.2013V13.3677H58.2482V14.1704H54.3387V7.63477H58.2482V8.43741Z" fill="white" stroke="white" stroke-width="0.118256" stroke-miterlimit="10"/>
<path d="M61.8801 14.1704H61.0176V8.43741H59.1487V7.63477H63.7504V8.43741H61.8801V14.1704V14.1704Z" fill="white" stroke="white" stroke-width="0.118256" stroke-miterlimit="10"/>
<path d="M67.0803 14.1704V7.63477H67.9415V14.1704H67.0803Z" fill="white" stroke="white" stroke-width="0.118256" stroke-miterlimit="10"/>
<path d="M71.7588 14.1704H70.9032V8.43741H69.0273V7.63477H73.6347V8.43741H71.7588V14.1704Z" fill="white" stroke="white" stroke-width="0.118256" stroke-miterlimit="10"/>
<path d="M82.3472 13.3291C81.687 13.99 80.8691 14.3198 79.8935 14.3198C78.9123 14.3198 78.0944 13.99 77.4342 13.3291C76.7754 12.6695 76.4474 11.8601 76.4474 10.9021C76.4474 9.94408 76.7754 9.13463 77.4342 8.47507C78.0944 7.81415 78.9123 7.48438 79.8935 7.48438C80.8635 7.48438 81.6814 7.81415 82.3416 8.48052C83.006 9.14553 83.334 9.94953 83.334 10.9021C83.334 11.8601 83.006 12.6695 82.3472 13.3291ZM78.072 12.7813C78.5689 13.2705 79.1733 13.5158 79.8935 13.5158C80.6081 13.5158 81.218 13.2705 81.7093 12.7813C82.2048 12.292 82.456 11.6638 82.456 10.9021C82.456 10.1403 82.2048 9.5121 81.7093 9.02288C81.218 8.53367 80.6081 8.28838 79.8935 8.28838C79.1733 8.28838 78.5689 8.53367 78.072 9.02288C77.5765 9.5121 77.3253 10.1403 77.3253 10.9021C77.3253 11.6638 77.5765 12.292 78.072 12.7813V12.7813Z" fill="white" stroke="white" stroke-width="0.118256" stroke-miterlimit="10"/>
<path d="M84.5439 14.1704V7.63477H85.5907L88.8456 12.7177H88.8833L88.8456 11.4613V7.63477H89.7068V14.1704H88.8079L85.3995 8.83668H85.3618L85.3995 10.0986V14.1704H84.5439V14.1704Z" fill="white" stroke="white" stroke-width="0.118256" stroke-miterlimit="10"/>
<path d="M76.2356 23.715C73.613 23.715 71.4705 25.6637 71.4705 28.3523C71.4705 31.0191 73.613 32.9883 76.2356 32.9883C78.8637 32.9883 81.0062 31.0191 81.0062 28.3523C81.0062 25.6637 78.8637 23.715 76.2356 23.715ZM76.2356 31.1622C74.7966 31.1622 73.5585 30.0026 73.5585 28.3523C73.5585 26.6802 74.7966 25.541 76.2356 25.541C77.6746 25.541 78.9182 26.6802 78.9182 28.3523C78.9182 30.0026 77.6746 31.1622 76.2356 31.1622V31.1622ZM65.8387 23.715C63.2105 23.715 61.0737 25.6637 61.0737 28.3523C61.0737 31.0191 63.2105 32.9883 65.8387 32.9883C68.4655 32.9883 70.6038 31.0191 70.6038 28.3523C70.6038 25.6637 68.4655 23.715 65.8387 23.715ZM65.8387 31.1622C64.3983 31.1622 63.1561 30.0026 63.1561 28.3523C63.1561 26.6802 64.3983 25.541 65.8387 25.541C67.2777 25.541 68.5158 26.6802 68.5158 28.3523C68.5158 30.0026 67.2777 31.1622 65.8387 31.1622ZM53.4669 25.1363V27.1068H58.2864C58.1454 28.2079 57.7686 29.0173 57.1907 29.5815C56.4873 30.2628 55.3916 31.0191 53.4669 31.0191C50.501 31.0191 48.1785 28.6821 48.1785 25.7863C48.1785 22.8905 50.501 20.5535 53.4669 20.5535C55.0706 20.5535 56.2374 21.1653 57.0986 21.9584L58.5209 20.5698C57.3164 19.4469 55.714 18.5843 53.4669 18.5843C49.3997 18.5843 45.9816 21.8153 45.9816 25.7863C45.9816 29.7573 49.3997 32.9883 53.4669 32.9883C55.6652 32.9883 57.3164 32.2851 58.6144 30.966C59.9445 29.6673 60.3591 27.8413 60.3591 26.3668C60.3591 25.9089 60.32 25.4879 60.2502 25.1363H53.4669ZM104.057 26.6639C103.665 25.6269 102.455 23.715 99.9896 23.715C97.5471 23.715 95.5135 25.5942 95.5135 28.3523C95.5135 30.9496 97.5262 32.9883 100.224 32.9883C102.406 32.9883 103.665 31.6896 104.182 30.9333L102.563 29.8799C102.023 30.6512 101.288 31.1622 100.224 31.1622C99.1675 31.1622 98.4097 30.6894 97.9239 29.7573L104.276 27.1913L104.057 26.6639V26.6639ZM97.5806 28.2079C97.5262 26.42 99.0028 25.5042 100.061 25.5042C100.89 25.5042 101.593 25.909 101.828 26.4881L97.5806 28.2079V28.2079ZM92.4178 32.7062H94.5058V19.079H92.4178V32.7062ZM88.9982 24.7479H88.9284C88.4594 24.2056 87.5648 23.715 86.4314 23.715C84.0531 23.715 81.8785 25.7536 81.8785 28.3673C81.8785 30.966 84.0531 32.9883 86.4314 32.9883C87.5648 32.9883 88.4594 32.4936 88.9284 31.9349H88.9982V32.5999C88.9982 34.3728 88.0282 35.3253 86.4635 35.3253C85.1878 35.3253 84.3965 34.4259 84.0699 33.6696L82.254 34.4096C82.7774 35.6388 84.1634 37.1514 86.4635 37.1514C88.9117 37.1514 90.9774 35.745 90.9774 32.3233V23.9971H88.9982V24.7479V24.7479ZM86.6101 31.1622C85.1711 31.1622 83.9666 29.9862 83.9666 28.3673C83.9666 26.7334 85.1711 25.541 86.6101 25.541C88.0282 25.541 89.1462 26.7334 89.1462 28.3673C89.1462 29.9862 88.0282 31.1622 86.6101 31.1622V31.1622ZM113.833 19.079H108.839V32.7062H110.921V27.5428H113.833C116.145 27.5428 118.413 25.9089 118.413 23.3102C118.413 20.7129 116.14 19.079 113.833 19.079V19.079ZM113.887 25.6473H110.921V20.9746H113.887C115.442 20.9746 116.33 22.2351 116.33 23.3102C116.33 24.365 115.442 25.6473 113.887 25.6473ZM126.76 23.6891C125.255 23.6891 123.691 24.3377 123.047 25.7754L124.895 26.5317C125.293 25.7754 126.024 25.5301 126.798 25.5301C127.878 25.5301 128.974 26.1638 128.99 27.2826V27.4257C128.613 27.2131 127.807 26.8983 126.814 26.8983C124.824 26.8983 122.796 27.968 122.796 29.9644C122.796 31.7904 124.426 32.9665 126.259 32.9665C127.66 32.9665 128.433 32.3492 128.919 31.631H128.99V32.6844H131.002V27.457C131.002 25.0409 129.154 23.6891 126.76 23.6891ZM126.509 31.1568C125.828 31.1568 124.878 30.827 124.878 30.0026C124.878 28.9478 126.062 28.5431 127.086 28.5431C128.003 28.5431 128.433 28.7407 128.99 29.001C128.827 30.2628 127.715 31.1568 126.509 31.1568V31.1568ZM138.329 23.9875L135.935 29.8949H135.864L133.39 23.9875H131.144L134.862 32.2429L132.741 36.8366H134.917L140.646 23.9875H138.329V23.9875ZM119.558 32.7062H121.646V19.079H119.558V32.7062Z" fill="white"/>
<path d="M11.8085 8.21886C11.4805 8.55409 11.2906 9.07601 11.2906 9.75192V33.8611C11.2906 34.537 11.4805 35.059 11.8085 35.3942L11.8894 35.4678L25.7268 21.9632V21.6444L11.8894 8.13983L11.8085 8.21886Z" fill="url(#paint0_linear_6030_12930)"/>
<path d="M30.3338 26.4668L25.7264 21.963V21.6441L30.3394 17.1404L30.4426 17.199L35.9056 20.2337C37.4646 21.095 37.4646 22.5122 35.9056 23.3789L30.4426 26.4082L30.3338 26.4668V26.4668Z" fill="url(#paint1_linear_6030_12930)"/>
<path d="M30.4425 26.4083L25.7263 21.8037L11.808 35.3941C12.3258 35.9256 13.1702 35.9896 14.1305 35.4582L30.4425 26.4083" fill="url(#paint2_linear_6030_12930)"/>
<path d="M30.4425 17.1991L14.1305 8.14928C13.1702 7.62327 12.3258 7.68732 11.808 8.21878L25.7263 21.8037L30.4425 17.1991Z" fill="url(#paint3_linear_6030_12930)"/>
<defs>
<linearGradient id="paint0_linear_6030_12930" x1="24.4982" y1="34.1122" x2="6.20768" y2="15.3785" gradientUnits="userSpaceOnUse">
<stop stop-color="#00A0FF"/>
<stop offset="0.0066" stop-color="#00A1FF"/>
<stop offset="0.2601" stop-color="#00BEFF"/>
<stop offset="0.5122" stop-color="#00D2FF"/>
<stop offset="0.7604" stop-color="#00DFFF"/>
<stop offset="1" stop-color="#00E3FF"/>
</linearGradient>
<linearGradient id="paint1_linear_6030_12930" x1="37.9357" y1="21.8021" x2="10.9177" y2="21.8021" gradientUnits="userSpaceOnUse">
<stop stop-color="#FFE000"/>
<stop offset="0.4087" stop-color="#FFBD00"/>
<stop offset="0.7754" stop-color="#FFA500"/>
<stop offset="1" stop-color="#FF9C00"/>
</linearGradient>
<linearGradient id="paint2_linear_6030_12930" x1="27.878" y1="19.3006" x2="3.07455" y2="-6.10384" gradientUnits="userSpaceOnUse">
<stop stop-color="#FF3A44"/>
<stop offset="1" stop-color="#C31162"/>
</linearGradient>
<linearGradient id="paint3_linear_6030_12930" x1="8.30446" y1="43.4151" x2="19.3803" y2="32.071" gradientUnits="userSpaceOnUse">
<stop stop-color="#32A071"/>
<stop offset="0.0685" stop-color="#2DA771"/>
<stop offset="0.4762" stop-color="#15CF74"/>
<stop offset="0.8009" stop-color="#06E775"/>
<stop offset="1" stop-color="#00F076"/>
</linearGradient>
</defs>
</svg>
