<svg width="168" height="31" viewBox="0 0 168 31" fill="none" xmlns="http://www.w3.org/2000/svg">
<path fill-rule="evenodd" clip-rule="evenodd" d="M29.4471 15.4537C30.1263 14.4119 30.7782 13.1722 30.7782 11.8411V3.77842C30.7782 1.95692 29.3039 0.482666 27.4824 0.482666H0.77832V15.6638L7.93048 22.8175V18.4997V12.4077V5.1796H17.5801C21.2445 5.1796 24.2417 8.17685 24.2417 11.8412C24.2417 13.1692 23.8427 14.412 23.1665 15.4537C23.8457 16.4954 24.2417 17.7351 24.2417 19.0662C24.2417 22.7305 21.2445 25.7278 17.5801 25.7278H10.8402L15.594 30.4825H27.4824C29.3039 30.4825 30.7782 29.0083 30.7782 27.1868V19.0662C30.7782 18.4022 30.6807 17.7595 30.4949 17.1533C30.3629 16.7228 30.0604 16.3092 29.775 15.919C29.6586 15.7598 29.545 15.6046 29.4471 15.4537Z" fill="url(#paint0_linear_804_22181)"/>
<path d="M0.77832 13.334L7.93637 14.723L15.7767 25.7281L18.3018 30.4829H15.594L0.77832 15.6642V13.334Z" fill="#002C72" fill-opacity="0.5"/>
<path d="M15.594 30.4827L0.77832 15.664V14.7258H15.7767V30.4827" fill="#01E3FB"/>
<path d="M15.594 30.4827L0.77832 15.664V14.7258H15.7767V30.4827H15.594Z" fill="#01E3FB"/>
<path d="M15.594 30.4827L0.77832 15.664V14.7258H15.7767V30.4827H15.594Z" fill="url(#paint1_linear_804_22181)"/>
<path d="M17.754 14.7501C18.9097 14.7501 19.8466 13.8132 19.8466 12.6575C19.8466 11.5018 18.9097 10.5649 17.754 10.5649C16.5983 10.5649 15.6614 11.5018 15.6614 12.6575C15.6614 13.8132 16.5983 14.7501 17.754 14.7501Z" fill="#72D3EE"/>
<path d="M17.754 14.7501C18.9097 14.7501 19.8466 13.8132 19.8466 12.6575C19.8466 11.5018 18.9097 10.5649 17.754 10.5649C16.5983 10.5649 15.6614 11.5018 15.6614 12.6575C15.6614 13.8132 16.5983 14.7501 17.754 14.7501Z" fill="url(#paint2_linear_804_22181)"/>
<path fill-rule="evenodd" clip-rule="evenodd" d="M90.8136 25.5629H94.1749V21.8683L96.175 19.7849L99.7585 25.5629H103.648L98.5362 17.2847L103.759 11.84H99.5085L94.1749 17.5903V4.89526H90.8136V25.5629ZM40.9009 22.468H44.7033V25.5629H49.1235C53.3181 25.5629 55.7349 23.535 55.7349 20.0627C55.7349 17.7014 54.6515 16.0902 52.5125 15.3958C54.4293 14.5902 55.4293 12.979 55.4293 10.7289C55.4293 7.33983 52.9848 5.25639 48.9846 5.25639H40.9009V22.468ZM44.4566 8.39543H48.679C50.6791 8.39543 51.7903 9.33992 51.7903 11.09C51.7903 12.8956 50.7069 13.9235 48.7624 13.9235H44.4566V8.39543ZM44.4566 16.9236H48.9846C50.9569 16.9236 52.0959 17.8959 52.0959 19.6182C52.0959 21.4516 50.9847 22.4239 48.9846 22.4239H44.4566V16.9236ZM64.7455 11.4511C60.4953 11.4511 57.4119 14.3957 57.4119 18.6737C57.4119 22.9517 60.4953 25.8963 64.7455 25.8963C68.9958 25.8963 72.0792 22.9517 72.0792 18.6737C72.0792 14.3957 68.9958 11.4511 64.7455 11.4511ZM64.7455 22.8684C62.4121 22.8684 60.8009 21.1738 60.8009 18.6737C60.8009 16.1736 62.4121 14.4791 64.7455 14.4791C67.079 14.4791 68.6902 16.1736 68.6902 18.6737C68.6902 21.1738 67.079 22.8684 64.7455 22.8684ZM73.6822 18.6737C73.6822 14.3957 76.7657 11.4511 81.0159 11.4511C85.2661 11.4511 88.3495 14.3957 88.3495 18.6737C88.3495 22.9517 85.2661 25.8963 81.0159 25.8963C76.7657 25.8963 73.6822 22.9517 73.6822 18.6737ZM77.0712 18.6737C77.0712 21.1738 78.6824 22.8684 81.0159 22.8684C83.3493 22.8684 84.9605 21.1738 84.9605 18.6737C84.9605 16.1736 83.3493 14.4791 81.0159 14.4791C78.6824 14.4791 77.0712 16.1736 77.0712 18.6737ZM110.943 25.9241C106.86 25.9241 103.998 22.9517 103.998 18.7015C103.998 14.3957 106.804 11.4234 110.832 11.4234C114.943 11.4234 117.554 14.1735 117.554 18.4515V19.4793L107.221 19.5071C107.471 21.9239 108.749 23.1461 110.999 23.1461C112.86 23.1461 114.082 22.4239 114.471 21.1183H117.61C117.027 24.1184 114.527 25.9241 110.943 25.9241ZM110.86 14.2013C108.86 14.2013 107.637 15.2847 107.304 17.3403H114.193C114.193 15.4513 112.888 14.2013 110.86 14.2013ZM119.183 18.757C119.183 23.0072 121.656 25.9241 125.628 25.9241C127.712 25.9241 129.49 25.0073 130.323 23.4239L130.545 25.5629H133.656V4.89526H130.295V13.5901C129.434 12.229 127.739 11.4234 125.823 11.4234C121.684 11.4234 119.183 14.4791 119.183 18.757ZM130.267 18.6459C130.267 21.1183 128.739 22.8128 126.378 22.8128C124.017 22.8128 122.573 21.0905 122.573 18.6459C122.573 16.2014 124.017 14.4513 126.378 14.4513C128.739 14.4513 130.267 16.1736 130.267 18.6459ZM146.37 25.5629H142.675L150.009 5.25639H153.648L160.982 25.5629H157.232L155.593 20.8683H148.009L146.37 25.5629ZM151.37 11.3122L149.065 17.8681H154.565L152.231 11.3122L152.222 11.2829C152.058 10.7619 151.869 10.1656 151.815 9.75661C151.731 10.1455 151.565 10.7567 151.37 11.3122ZM166.806 25.5629V5.25639H163.25V25.5629H166.806Z" fill="#1B1564"/>
<defs>
<linearGradient id="paint0_linear_804_22181" x1="23.9531" y1="4.60935" x2="11.6845" y2="28.2541" gradientUnits="userSpaceOnUse">
<stop stop-color="#014DFE"/>
<stop offset="0.716667" stop-color="#0EAFE1"/>
</linearGradient>
<linearGradient id="paint1_linear_804_22181" x1="19.4209" y1="15.7263" x2="1.35595" y2="20.8433" gradientUnits="userSpaceOnUse">
<stop stop-color="#02589F"/>
<stop offset="0.0416638" stop-color="#0285C7"/>
<stop offset="0.130206" stop-color="#02AADF"/>
<stop offset="0.442708" stop-color="#6CD0F3"/>
<stop offset="0.713543" stop-color="#83D9DC"/>
<stop offset="1" stop-color="#ABE1CC"/>
</linearGradient>
<linearGradient id="paint2_linear_804_22181" x1="18.8944" y1="11.1406" x2="17.1829" y2="14.4392" gradientUnits="userSpaceOnUse">
<stop stop-color="#014DFE"/>
<stop offset="0.716667" stop-color="#0EAFE1"/>
</linearGradient>
</defs>
</svg>
