<svg width="256" height="256" viewBox="0 0 256 256" fill="none" xmlns="http://www.w3.org/2000/svg">
<path fill-rule="evenodd" clip-rule="evenodd" d="M244.641 127.752C250.437 118.863 256 108.284 256 96.9255V28.1237C256 12.5803 243.419 0 227.876 0H0V129.546L61.0312 190.589V153.743V101.758V40.0781H143.375C174.644 40.0781 200.221 65.6546 200.221 96.9234C200.221 108.256 196.816 118.861 191.045 127.75C196.842 136.64 200.221 147.219 200.221 158.577C200.221 189.846 174.644 215.422 143.375 215.422H85.8593L126.427 255.999H227.876C243.419 255.999 256 243.418 256 227.875V158.579C256 152.913 255.168 147.429 253.582 142.256C252.456 138.582 249.875 135.053 247.439 131.723C246.446 130.365 245.477 129.04 244.641 127.752Z" fill="url(#paint0_linear_6120_12878)"/>
<path d="M0 109.664L61.0822 121.517L127.987 215.427L149.535 256.001H126.427L0 129.548V109.664Z" fill="#002C72" fill-opacity="0.5"/>
<path d="M126.427 256.001L0 129.549V121.543H127.987V256.001" fill="#01E3FB"/>
<path d="M126.427 256.001L0 129.549V121.543H127.987V256.001H126.427Z" fill="#01E3FB"/>
<path d="M126.427 256.001L0 129.549V121.543H127.987V256.001H126.427Z" fill="url(#paint1_linear_6120_12878)"/>
<path d="M144.857 121.749C154.719 121.749 162.714 113.754 162.714 103.892C162.714 94.0299 154.719 86.0352 144.857 86.0352C134.995 86.0352 127 94.0299 127 103.892C127 113.754 134.995 121.749 144.857 121.749Z" fill="#72D3EE"/>
<path d="M144.857 121.749C154.719 121.749 162.714 113.754 162.714 103.892C162.714 94.0299 154.719 86.0352 144.857 86.0352C134.995 86.0352 127 94.0299 127 103.892C127 113.754 134.995 121.749 144.857 121.749Z" fill="url(#paint2_linear_6120_12878)"/>
<defs>
<linearGradient id="paint0_linear_6120_12878" x1="197.758" y1="35.2143" x2="93.0673" y2="236.983" gradientUnits="userSpaceOnUse">
<stop stop-color="#014DFE"/>
<stop offset="0.716667" stop-color="#0EAFE1"/>
</linearGradient>
<linearGradient id="paint1_linear_6120_12878" x1="159.084" y1="130.08" x2="4.92925" y2="173.746" gradientUnits="userSpaceOnUse">
<stop stop-color="#02589F"/>
<stop offset="0.0416638" stop-color="#0285C7"/>
<stop offset="0.130206" stop-color="#02AADF"/>
<stop offset="0.442708" stop-color="#6CD0F3"/>
<stop offset="0.713543" stop-color="#83D9DC"/>
<stop offset="1" stop-color="#ABE1CC"/>
</linearGradient>
<linearGradient id="paint2_linear_6120_12878" x1="154.589" y1="90.9478" x2="139.984" y2="119.096" gradientUnits="userSpaceOnUse">
<stop stop-color="#014DFE"/>
<stop offset="0.716667" stop-color="#0EAFE1"/>
</linearGradient>
</defs>
</svg>
