<svg width="32" height="32" viewBox="0 0 32 32" fill="none" xmlns="http://www.w3.org/2000/svg">
<path fill-rule="evenodd" clip-rule="evenodd" d="M30.5802 15.9691C31.3047 14.858 32 13.5356 32 12.1157V3.51548C32 1.57255 30.4275 0 28.4845 0H0V16.1933L7.62891 23.8238V19.2178V12.7196V5.00963H17.9219C21.8306 5.00963 25.0276 8.2067 25.0276 12.1153C25.0276 13.5319 24.602 14.8575 23.8807 15.9687C24.6053 17.0799 25.0276 18.4023 25.0276 19.8221C25.0276 23.7307 21.8306 26.9278 17.9219 26.9278H10.7323L15.8034 32H28.4845C30.4275 32 32 30.4274 32 28.4845V19.8225C32 19.1142 31.896 18.4287 31.6978 17.7821C31.5571 17.3229 31.2344 16.8817 30.93 16.4655C30.8058 16.2957 30.6847 16.1301 30.5802 15.9691Z" fill="url(#paint0_linear_6120_12983)"/>
<path d="M0 13.708L7.63529 15.1896L15.9984 26.9284L18.6918 32.0002H15.8034L0 16.1935V13.708Z" fill="#002C72" fill-opacity="0.5"/>
<path d="M15.8034 31.9998L0 16.1931V15.1924H15.9984V31.9998" fill="#01E3FB"/>
<path d="M15.8034 31.9998L0 16.1931V15.1924H15.9984V31.9998H15.8034Z" fill="#01E3FB"/>
<path d="M15.8034 31.9998L0 16.1931V15.1924H15.9984V31.9998H15.8034Z" fill="url(#paint1_linear_6120_12983)"/>
<path d="M18.1071 15.2186C19.3399 15.2186 20.3392 14.2193 20.3392 12.9865C20.3392 11.7537 19.3399 10.7544 18.1071 10.7544C16.8743 10.7544 15.875 11.7537 15.875 12.9865C15.875 14.2193 16.8743 15.2186 18.1071 15.2186Z" fill="#72D3EE"/>
<path d="M18.1071 15.2186C19.3399 15.2186 20.3392 14.2193 20.3392 12.9865C20.3392 11.7537 19.3399 10.7544 18.1071 10.7544C16.8743 10.7544 15.875 11.7537 15.875 12.9865C15.875 14.2193 16.8743 15.2186 18.1071 15.2186Z" fill="url(#paint2_linear_6120_12983)"/>
<defs>
<linearGradient id="paint0_linear_6120_12983" x1="24.7198" y1="4.40181" x2="11.6334" y2="29.623" gradientUnits="userSpaceOnUse">
<stop stop-color="#014DFE"/>
<stop offset="0.716667" stop-color="#0EAFE1"/>
</linearGradient>
<linearGradient id="paint1_linear_6120_12983" x1="19.8855" y1="16.2595" x2="0.616148" y2="21.7177" gradientUnits="userSpaceOnUse">
<stop stop-color="#02589F"/>
<stop offset="0.0416638" stop-color="#0285C7"/>
<stop offset="0.130206" stop-color="#02AADF"/>
<stop offset="0.442708" stop-color="#6CD0F3"/>
<stop offset="0.713543" stop-color="#83D9DC"/>
<stop offset="1" stop-color="#ABE1CC"/>
</linearGradient>
<linearGradient id="paint2_linear_6120_12983" x1="19.3236" y1="11.3685" x2="17.4979" y2="14.887" gradientUnits="userSpaceOnUse">
<stop stop-color="#014DFE"/>
<stop offset="0.716667" stop-color="#0EAFE1"/>
</linearGradient>
</defs>
</svg>
