<svg width="212" height="360" viewBox="0 0 212 360" fill="none" xmlns="http://www.w3.org/2000/svg">
<g clip-path="url(#clip0_804_20112)">
<rect x="0.158691" width="211.635" height="458" rx="10.8531" fill="#F7FBFE"/>
<g opacity="0.8" clip-path="url(#clip1_804_20112)">
<g filter="url(#filter0_f_804_20112)">
<circle cx="37.8731" cy="245.008" r="68.1031" fill="#A282FF"/>
</g>
<g filter="url(#filter1_f_804_20112)">
<circle cx="155.629" cy="164.695" r="68.1031" fill="#54BCF7"/>
</g>
<g filter="url(#filter2_b_804_20112)">
<rect x="0.158691" width="211.635" height="458" fill="white" fill-opacity="0.4"/>
</g>
</g>
<g clip-path="url(#clip2_804_20112)">
<g filter="url(#filter3_b_804_20112)">
<rect x="0.158691" width="211.635" height="458" fill="#F7FBFE"/>
</g>
<g opacity="0.6" filter="url(#filter4_f_804_20112)">
<circle cx="155.629" cy="164.696" r="68.1031" fill="#54BCF7"/>
</g>
<g filter="url(#filter5_b_804_20112)">
<rect x="0.158691" width="211.635" height="458" fill="white" fill-opacity="0.4"/>
</g>
<rect width="211.635" height="59.1493" transform="translate(0.158691)" fill="url(#paint0_linear_804_20112)"/>
<rect x="0.158691" y="0.542664" width="211.635" height="72.7156" fill="url(#paint1_linear_804_20112)"/>
<path d="M59.3081 0H152.645C150.846 0 149.389 1.45773 149.389 3.25592V3.64299C149.389 4.99693 149.389 5.6739 149.335 6.24436C148.786 12.1139 144.138 16.7619 138.268 17.3115C137.698 17.3649 137.021 17.3649 135.667 17.3649H76.286C74.932 17.3649 74.2551 17.3649 73.6846 17.3115C67.8151 16.7619 63.1671 12.1139 62.6174 6.24436C62.564 5.6739 62.564 4.99693 62.564 3.64299V3.25592C62.564 1.45773 61.1063 0 59.3081 0Z" fill="white"/>
<path d="M23.2191 10.8696C24.5248 10.8696 25.661 11.7981 25.661 14.0026V14.0111C25.661 16.0715 24.7326 17.2925 23.1936 17.2925C22.0702 17.2925 21.2307 16.6269 21.0357 15.6899L21.0273 15.6433H22.1041L22.1168 15.6857C22.2779 16.1139 22.6552 16.3937 23.1936 16.3937C24.1645 16.3937 24.5757 15.444 24.6223 14.2739C24.6223 14.2273 24.6266 14.1807 24.6266 14.134H24.5418C24.3171 14.6173 23.7829 15.0455 22.9435 15.0455C21.7692 15.0455 20.9467 14.1892 20.9467 13.0275V13.0191C20.9467 11.7769 21.8921 10.8696 23.2191 10.8696ZM23.2148 14.2061C23.9059 14.2061 24.4358 13.7058 24.4358 13.0148V13.0063C24.4358 12.3068 23.9059 11.7599 23.2275 11.7599C22.5535 11.7599 22.0151 12.2983 22.0151 12.9809V12.9894C22.0151 13.6974 22.5196 14.2061 23.2148 14.2061ZM27.4121 13.1759C27.0263 13.1759 26.738 12.8791 26.738 12.5061C26.738 12.1288 27.0263 11.8362 27.4121 11.8362C27.8021 11.8362 28.0862 12.1288 28.0862 12.5061C28.0862 12.8791 27.8021 13.1759 27.4121 13.1759ZM27.4121 16.3216C27.0263 16.3216 26.738 16.0291 26.738 15.6518C26.738 15.2745 27.0263 14.9819 27.4121 14.9819C27.8021 14.9819 28.0862 15.2745 28.0862 15.6518C28.0862 16.0291 27.8021 16.3216 27.4121 16.3216ZM32.1308 17.1398V15.9655H29.1377V15.071C29.9305 13.6931 30.7996 12.2856 31.6305 11.0223H33.178V15.0625H34.0004V15.9655H33.178V17.1398H32.1308ZM30.1552 15.0879H32.1478V11.8956H32.0842C31.4567 12.8537 30.7487 13.9857 30.1552 15.0243V15.0879ZM36.362 17.1398V12.0991H36.2899L34.7679 13.1759V12.1457L36.3662 11.0223H37.4558V17.1398H36.362Z" fill="black"/>
<path opacity="0.35" d="M182.762 12.481C182.762 11.4321 183.612 10.5818 184.661 10.5818H193.886C194.935 10.5818 195.786 11.4321 195.786 12.481V15.1943C195.786 16.2433 194.935 17.0936 193.886 17.0936H184.661C183.612 17.0936 182.762 16.2433 182.762 15.1943V12.481Z" stroke="black" stroke-width="0.542654"/>
<path opacity="0.4" d="M196.599 13.0237V15.3139C197.06 15.1199 197.36 14.6687 197.36 14.1688C197.36 13.6689 197.06 13.2176 196.599 13.0237Z" fill="black"/>
<path d="M183.576 12.4811C183.576 11.8817 184.062 11.3958 184.661 11.3958H193.886C194.486 11.3958 194.971 11.8817 194.971 12.4811V15.1943C194.971 15.7937 194.486 16.2796 193.886 16.2796H184.661C184.062 16.2796 183.576 15.7937 183.576 15.1943V12.4811Z" fill="black"/>
<path fill-rule="evenodd" clip-rule="evenodd" d="M174.08 12.2572C175.418 12.2573 176.705 12.7823 177.675 13.7236C177.749 13.7963 177.865 13.7954 177.937 13.7216L178.635 13.0022C178.672 12.9648 178.692 12.9141 178.692 12.8613C178.692 12.8086 178.671 12.7581 178.634 12.7211C176.088 10.2304 172.071 10.2304 169.525 12.7211C169.488 12.7581 169.467 12.8085 169.467 12.8613C169.466 12.914 169.487 12.9648 169.523 13.0022L170.222 13.7216C170.294 13.7955 170.41 13.7964 170.483 13.7236C171.454 12.7822 172.741 12.2572 174.08 12.2572ZM174.099 14.4288C174.834 14.4288 175.543 14.7078 176.089 15.2117C176.162 15.2832 176.278 15.2816 176.35 15.2082L177.048 14.4888C177.084 14.4511 177.105 14.3999 177.104 14.3467C177.104 14.2936 177.082 14.2428 177.045 14.2058C175.385 12.6296 172.814 12.6296 171.154 14.2058C171.117 14.2428 171.095 14.2936 171.095 14.3468C171.094 14.4 171.115 14.4512 171.151 14.4888L171.849 15.2082C171.921 15.2816 172.037 15.2832 172.111 15.2117C172.655 14.7081 173.364 14.4291 174.099 14.4288ZM175.517 15.8329C175.518 15.8862 175.498 15.9376 175.46 15.975L174.254 17.2178C174.218 17.2543 174.17 17.2749 174.12 17.2749C174.07 17.2749 174.021 17.2543 173.986 17.2178L172.779 15.975C172.742 15.9376 172.722 15.8862 172.723 15.8328C172.724 15.7795 172.746 15.729 172.785 15.6932C173.556 15.028 174.684 15.028 175.455 15.6932C175.493 15.729 175.516 15.7795 175.517 15.8329Z" fill="black"/>
<path d="M160.784 12.4811C160.784 12.1814 161.027 11.9384 161.327 11.9384H161.87C162.169 11.9384 162.412 12.1814 162.412 12.4811V16.8223C162.412 17.122 162.169 17.3649 161.87 17.3649H161.327C161.027 17.3649 160.784 17.122 160.784 16.8223V12.4811Z" fill="black"/>
<path d="M163.497 11.3957C163.497 11.096 163.74 10.8531 164.04 10.8531H164.583C164.882 10.8531 165.125 11.096 165.125 11.3957V16.8223C165.125 17.122 164.882 17.3649 164.583 17.3649H164.04C163.74 17.3649 163.497 17.122 163.497 16.8223V11.3957Z" fill="black"/>
<path d="M158.071 14.3803C158.071 14.0806 158.314 13.8377 158.614 13.8377H159.156C159.456 13.8377 159.699 14.0806 159.699 14.3803V16.8223C159.699 17.122 159.456 17.3649 159.156 17.3649H158.614C158.314 17.3649 158.071 17.122 158.071 16.8223V14.3803Z" fill="black"/>
<path d="M155.358 15.737C155.358 15.4373 155.601 15.1943 155.9 15.1943H156.443C156.743 15.1943 156.986 15.4373 156.986 15.737V16.8223C156.986 17.122 156.743 17.3649 156.443 17.3649H155.9C155.601 17.3649 155.358 17.122 155.358 16.8223V15.737Z" fill="black"/>
<path d="M24.0897 42.8697H21.4524L20.5733 44.3348H18.8151L17.936 42.8697H15.2987M16.2755 47.7536H23.1129C23.9221 47.7536 24.5781 47.0976 24.5781 46.2884V39.4509C24.5781 38.6418 23.9221 37.9858 23.1129 37.9858H16.2755C15.4663 37.9858 14.8103 38.6418 14.8103 39.4509V46.2884C14.8103 47.0976 15.4663 47.7536 16.2755 47.7536Z" stroke="#021430" stroke-width="1.08531" stroke-linecap="round" stroke-linejoin="round"/>
<g clip-path="url(#clip3_804_20112)">
<path d="M193.197 47.7535C193.102 47.918 192.965 48.0545 192.8 48.1494C192.635 48.2443 192.448 48.2943 192.258 48.2943C192.068 48.2943 191.881 48.2443 191.716 48.1494C191.552 48.0545 191.415 47.918 191.319 47.7535M195.514 40.699C195.514 39.8355 195.171 39.0074 194.56 38.3968C193.95 37.7861 193.122 37.4431 192.258 37.4431C191.395 37.4431 190.566 37.7861 189.956 38.3968C189.345 39.0074 189.002 39.8355 189.002 40.699C189.002 44.4976 187.374 45.5829 187.374 45.5829H197.142C197.142 45.5829 195.514 44.4976 195.514 40.699Z" stroke="#021430" stroke-width="1.08531" stroke-linecap="round" stroke-linejoin="round"/>
</g>
</g>
<path d="M16.3601 76.2696C14.9275 76.2696 14.0245 77.3288 14.0245 78.9177C14.0245 80.5327 14.9796 81.5138 16.3775 81.5138C17.4194 81.5138 18.4352 81.0102 18.4352 79.5168V79.1956H16.1865V78.6399H19.0256V82.0087H18.5307L18.47 81.0189C18.14 81.6353 17.3586 82.1042 16.3514 82.1042C14.5889 82.1042 13.3733 80.8365 13.3733 78.9177C13.3733 77.0163 14.5889 75.6792 16.3688 75.6792C17.6798 75.6792 18.6957 76.4259 18.9388 77.5546H18.2616C18.0011 76.7037 17.2718 76.2696 16.3601 76.2696ZM22.3336 77.7456V78.2839H22.0037C21.231 78.2839 20.7361 78.8049 20.7361 79.6036V82H20.137V77.7977H20.7013L20.7448 78.4489C20.9097 77.9974 21.3525 77.7022 21.9429 77.7022C22.0732 77.7022 22.186 77.7109 22.3336 77.7456ZM24.7315 82.1042C23.4986 82.1042 22.6738 81.2186 22.6738 79.8988C22.6738 78.5878 23.4899 77.6848 24.6881 77.6848C25.8255 77.6848 26.5982 78.4923 26.5982 79.6818V79.977H23.2555C23.2989 81.0015 23.8372 81.5919 24.7402 81.5919C25.4261 81.5919 25.8689 81.2967 26.0252 80.741H26.5982C26.3725 81.6267 25.7213 82.1042 24.7315 82.1042ZM24.6881 78.1971C23.898 78.1971 23.377 78.718 23.2728 79.5429H25.9991C25.9991 78.7354 25.4782 78.1971 24.6881 78.1971ZM28.7206 82.1042C27.8263 82.1042 27.2966 81.6006 27.2966 80.8626C27.2966 80.0899 27.887 79.6036 28.8682 79.5255L30.2573 79.4126V79.2737C30.2573 78.4489 29.7624 78.1884 29.146 78.1884C28.4167 78.1884 27.9825 78.5183 27.9825 79.0827H27.4355C27.4355 78.2318 28.1301 77.6848 29.1634 77.6848C30.1358 77.6848 30.8478 78.171 30.8478 79.2824V82H30.3442L30.266 81.262C30.0056 81.7916 29.4325 82.1042 28.7206 82.1042ZM28.8595 81.618C29.7451 81.618 30.2573 81.0015 30.2573 80.0899V79.8641L29.0158 79.9596C28.2257 80.0291 27.9044 80.3764 27.9044 80.8452C27.9044 81.3575 28.2864 81.618 28.8595 81.618ZM32.9374 82H32.347V78.3013H31.5048V77.7977H32.347V76.4693H32.9374V77.7977H33.7796V78.3013H32.9374V82ZM37.5668 82H36.9677V77.7977H37.4887L37.5755 78.527C37.8534 77.9887 38.409 77.6848 39.0168 77.6848C40.1716 77.6848 40.6491 78.3707 40.6491 79.43V82H40.05V79.5602C40.05 78.5791 39.6072 78.2318 38.9126 78.2318C38.053 78.2318 37.5668 78.8569 37.5668 79.8033V82ZM43.6057 82.1042C42.3728 82.1042 41.5479 81.2186 41.5479 79.8988C41.5479 78.5878 42.3641 77.6848 43.5623 77.6848C44.6997 77.6848 45.4724 78.4923 45.4724 79.6818V79.977H42.1297C42.1731 81.0015 42.7114 81.5919 43.6144 81.5919C44.3003 81.5919 44.7431 81.2967 44.8994 80.741H45.4724C45.2467 81.6267 44.5955 82.1042 43.6057 82.1042ZM43.5623 78.1971C42.7722 78.1971 42.2512 78.718 42.147 79.5429H44.8733C44.8733 78.7354 44.3524 78.1971 43.5623 78.1971ZM47.2057 82L45.8165 77.7977H46.4329L47.2577 80.333C47.3533 80.6108 47.4314 80.8973 47.5182 81.2359C47.5877 80.8973 47.7266 80.4719 47.77 80.333L48.6035 77.7977H49.22L50.0448 80.333C50.123 80.5587 50.2272 80.9234 50.3053 81.2359C50.3921 80.8886 50.4095 80.7845 50.5571 80.333L51.3906 77.7977H52.0157L50.5918 82H50.0101L49.1418 79.3605C49.0377 79.048 48.9682 78.7875 48.9161 78.5357C48.8553 78.7614 48.7859 79.0132 48.673 79.3605L47.8047 82H47.2057ZM52.3826 80.8192H52.9557C52.9557 81.3054 53.3203 81.6093 53.9108 81.6093C54.5619 81.6093 54.944 81.3315 54.944 80.88C54.944 80.5327 54.7703 80.333 54.2754 80.2114L53.5548 80.0291C52.8254 79.8467 52.4695 79.4647 52.4695 78.8917C52.4695 78.1537 53.0859 77.6848 53.9889 77.6848C54.8745 77.6848 55.4475 78.171 55.4736 78.9525H54.8919C54.8745 78.4662 54.5359 78.1797 53.9715 78.1797C53.3811 78.1797 53.0512 78.4315 53.0512 78.883C53.0512 79.2042 53.2769 79.43 53.7371 79.5429L54.4577 79.7252C55.1871 79.9075 55.517 80.2461 55.517 80.8539C55.517 81.6093 54.8745 82.1042 53.9194 82.1042C52.973 82.1042 52.3826 81.6006 52.3826 80.8192ZM57.2673 80.1333H56.8332C56.7638 79.5168 56.729 78.3707 56.729 77.2507V75.7834H57.3802V77.2507C57.3802 78.3794 57.3368 79.5168 57.2673 80.1333ZM57.059 82.1216C56.7551 82.1216 56.512 81.8698 56.512 81.5746C56.512 81.2794 56.7551 81.0362 57.059 81.0362C57.3455 81.0362 57.5973 81.2794 57.5973 81.5746C57.5973 81.8698 57.3455 82.1216 57.059 82.1216ZM62.0238 75.7834V82H61.3987V75.7834H62.0238ZM64.3776 76.339C64.3776 76.886 63.9782 77.3462 63.4399 77.4243V77.1031C63.7438 77.0423 63.9695 76.8253 63.9695 76.5821C63.9174 76.6169 63.8393 76.6342 63.7351 76.6342C63.5094 76.6342 63.3097 76.4693 63.3097 76.1741C63.3097 75.8789 63.518 75.6618 63.8219 75.6618C64.1171 75.6618 64.3776 75.9136 64.3776 76.339ZM66.7055 82L64.9864 77.7977H65.6289L66.7142 80.5066C66.8271 80.8105 66.9399 81.097 67.0181 81.3749C67.0962 81.0883 67.2091 80.8105 67.3307 80.5066L68.4333 77.7977H69.0498L67.3046 82H66.7055ZM71.3319 82.1042C70.099 82.1042 69.2742 81.2186 69.2742 79.8988C69.2742 78.5878 70.0903 77.6848 71.2885 77.6848C72.4259 77.6848 73.1986 78.4923 73.1986 79.6818V79.977H69.8559C69.8993 81.0015 70.4376 81.5919 71.3406 81.5919C72.0265 81.5919 72.4693 81.2967 72.6256 80.741H73.1986C72.9729 81.6267 72.3217 82.1042 71.3319 82.1042ZM71.2885 78.1971C70.4984 78.1971 69.9775 78.718 69.8733 79.5429H72.5996C72.5996 78.7354 72.0786 78.1971 71.2885 78.1971ZM76.0957 77.7977H76.7382V76.9815C76.7382 76.0351 77.2591 75.6705 77.9016 75.6705C78.0492 75.6705 78.2229 75.6792 78.3618 75.7052V76.2175H78.0058C77.4762 76.2175 77.3373 76.4866 77.3373 76.9815V77.7977H78.3271V78.3013H77.3373V82H76.7382V78.3013H76.0957V77.7977ZM78.7197 79.8988C78.7197 78.6138 79.6227 77.6848 80.8556 77.6848C82.0885 77.6848 82.9915 78.6138 82.9915 79.8988C82.9915 81.1752 82.0885 82.1042 80.8556 82.1042C79.6227 82.1042 78.7197 81.1752 78.7197 79.8988ZM79.3275 79.8902C79.3275 80.88 79.9527 81.5659 80.8556 81.5659C81.7499 81.5659 82.3837 80.88 82.3837 79.8902C82.3837 78.9177 81.7499 78.2231 80.8556 78.2231C79.9527 78.2231 79.3275 78.9177 79.3275 79.8902ZM86.8 77.7977H87.3991V82H86.8781L86.8 81.288C86.5656 81.7743 85.9838 82.1042 85.324 82.1042C84.3342 82.1042 83.7959 81.427 83.7959 80.4024V77.789H84.4036V80.2114C84.4036 81.2099 84.8464 81.5659 85.515 81.5659C86.3225 81.5659 86.8 81.0276 86.8 80.0291V77.7977ZM89.2461 82H88.6471V77.7977H89.168L89.2548 78.527C89.5327 77.9887 90.0883 77.6848 90.6961 77.6848C91.8509 77.6848 92.3284 78.3707 92.3284 79.43V82H91.7293V79.5602C91.7293 78.5791 91.2865 78.2318 90.5919 78.2318C89.7324 78.2318 89.2461 78.8569 89.2461 79.8033V82ZM95.1721 82.1042C93.9479 82.1042 93.2273 81.1665 93.2273 79.9075C93.2273 78.6399 93.9479 77.6848 95.1982 77.6848C95.8928 77.6848 96.4485 77.9887 96.7437 78.5965V75.6705H97.3427V82H96.8218L96.761 81.1404C96.4658 81.7916 95.8754 82.1042 95.1721 82.1042ZM95.2763 81.5572C96.1967 81.5572 96.735 80.8626 96.735 79.8902C96.735 78.9264 96.1967 78.2231 95.2763 78.2231C94.3647 78.2231 93.835 78.9264 93.835 79.8902C93.835 80.8626 94.3647 81.5572 95.2763 81.5572ZM102.208 82.1042C101.313 82.1042 100.784 81.6006 100.784 80.8626C100.784 80.0899 101.374 79.6036 102.355 79.5255L103.745 79.4126V79.2737C103.745 78.4489 103.25 78.1884 102.633 78.1884C101.904 78.1884 101.47 78.5183 101.47 79.0827H100.923C100.923 78.2318 101.617 77.6848 102.651 77.6848C103.623 77.6848 104.335 78.171 104.335 79.2824V82H103.831L103.753 81.262C103.493 81.7916 102.92 82.1042 102.208 82.1042ZM102.347 81.618C103.232 81.618 103.745 81.0015 103.745 80.0899V79.8641L102.503 79.9596C101.713 80.0291 101.392 80.3764 101.392 80.8452C101.392 81.3575 101.774 81.618 102.347 81.618ZM107.476 77.7977H108.119V76.9815C108.119 76.0351 108.64 75.6705 109.282 75.6705C109.43 75.6705 109.604 75.6792 109.742 75.7052V76.2175H109.386C108.857 76.2175 108.718 76.4866 108.718 76.9815V77.7977H109.708V78.3013H108.718V82H108.119V78.3013H107.476V77.7977ZM112.158 82.1042C110.925 82.1042 110.1 81.2186 110.1 79.8988C110.1 78.5878 110.917 77.6848 112.115 77.6848C113.252 77.6848 114.025 78.4923 114.025 79.6818V79.977H110.682C110.726 81.0015 111.264 81.5919 112.167 81.5919C112.853 81.5919 113.296 81.2967 113.452 80.741H114.025C113.799 81.6267 113.148 82.1042 112.158 82.1042ZM112.115 78.1971C111.325 78.1971 110.804 78.718 110.7 79.5429H113.426C113.426 78.7354 112.905 78.1971 112.115 78.1971ZM115.758 82L114.369 77.7977H114.985L115.81 80.333C115.906 80.6108 115.984 80.8973 116.071 81.2359C116.14 80.8973 116.279 80.4719 116.322 80.333L117.156 77.7977H117.772L118.597 80.333C118.675 80.5587 118.78 80.9234 118.858 81.2359C118.945 80.8886 118.962 80.7845 119.11 80.333L119.943 77.7977H120.568L119.144 82H118.563L117.694 79.3605C117.59 79.048 117.521 78.7875 117.469 78.5357C117.408 78.7614 117.338 79.0132 117.225 79.3605L116.357 82H115.758ZM124.245 82H123.725V75.6705H124.324V78.6138C124.619 77.9974 125.192 77.6848 125.904 77.6848C127.128 77.6848 127.84 78.6399 127.84 79.9075C127.84 81.1665 127.111 82.1042 125.886 82.1042C125.183 82.1042 124.601 81.7916 124.306 81.1404L124.245 82ZM124.332 79.8902C124.332 80.8626 124.871 81.5572 125.791 81.5572C126.703 81.5572 127.232 80.8626 127.232 79.8902C127.232 78.9264 126.703 78.2231 125.791 78.2231C124.871 78.2231 124.332 78.9264 124.332 79.8902ZM131.645 77.7977H132.244V82H131.723L131.645 81.288C131.411 81.7743 130.829 82.1042 130.169 82.1042C129.179 82.1042 128.641 81.427 128.641 80.4024V77.789H129.249V80.2114C129.249 81.2099 129.692 81.5659 130.36 81.5659C131.168 81.5659 131.645 81.0276 131.645 80.0291V77.7977ZM135.057 82.1042C133.833 82.1042 133.112 81.1665 133.112 79.9075C133.112 78.6399 133.833 77.6848 135.083 77.6848C135.778 77.6848 136.334 77.9887 136.629 78.5965V75.6705H137.228V82H136.707L136.646 81.1404C136.351 81.7916 135.76 82.1042 135.057 82.1042ZM135.161 81.5572C136.082 81.5572 136.62 80.8626 136.62 79.8902C136.62 78.9264 136.082 78.2231 135.161 78.2231C134.25 78.2231 133.72 78.9264 133.72 79.8902C133.72 80.8626 134.25 81.5572 135.161 81.5572ZM138.191 79.7773C138.191 78.6312 138.929 77.6848 140.162 77.6848C140.892 77.6848 141.447 78.0234 141.717 78.6399L141.777 77.7977H142.298V81.8698C142.298 83.12 141.499 83.9362 140.267 83.9362C139.19 83.9362 138.435 83.3284 138.27 82.3126H138.869C138.999 82.9898 139.52 83.3892 140.275 83.3892C141.135 83.3892 141.708 82.8075 141.708 81.9305V80.9321C141.421 81.5225 140.84 81.8698 140.119 81.8698C138.921 81.8698 138.191 80.9234 138.191 79.7773ZM138.791 79.7686C138.791 80.6282 139.32 81.3315 140.206 81.3315C141.117 81.3315 141.656 80.6716 141.656 79.7686C141.656 78.8743 141.135 78.2144 140.214 78.2144C139.311 78.2144 138.791 78.9177 138.791 79.7686ZM145.311 82.1042C144.078 82.1042 143.253 81.2186 143.253 79.8988C143.253 78.5878 144.069 77.6848 145.268 77.6848C146.405 77.6848 147.178 78.4923 147.178 79.6818V79.977H143.835C143.878 81.0015 144.417 81.5919 145.32 81.5919C146.006 81.5919 146.448 81.2967 146.605 80.741H147.178C146.952 81.6267 146.301 82.1042 145.311 82.1042ZM145.268 78.1971C144.477 78.1971 143.956 78.718 143.852 79.5429H146.579C146.579 78.7354 146.058 78.1971 145.268 78.1971ZM149.057 82H148.466V78.3013H147.624V77.7977H148.466V76.4693H149.057V77.7977H149.899V78.3013H149.057V82ZM150.44 79.9857V79.4474H152.958V79.9857H150.44ZM153.5 77.7977H154.143V76.9815C154.143 76.0351 154.664 75.6705 155.306 75.6705C155.454 75.6705 155.627 75.6792 155.766 75.7052V76.2175H155.41C154.881 76.2175 154.742 76.4866 154.742 76.9815V77.7977H155.732V78.3013H154.742V82H154.143V78.3013H153.5V77.7977ZM158.743 77.7456V78.2839H158.413C157.641 78.2839 157.146 78.8049 157.146 79.6036V82H156.547V77.7977H157.111L157.154 78.4489C157.319 77.9974 157.762 77.7022 158.353 77.7022C158.483 77.7022 158.596 77.7109 158.743 77.7456ZM159.835 76.6429C159.592 76.6429 159.392 76.4432 159.392 76.2001C159.392 75.957 159.592 75.7486 159.835 75.7486C160.078 75.7486 160.286 75.957 160.286 76.2001C160.286 76.4432 160.078 76.6429 159.835 76.6429ZM159.54 82V77.7977H160.139V82H159.54ZM163.151 82.1042C161.918 82.1042 161.093 81.2186 161.093 79.8988C161.093 78.5878 161.909 77.6848 163.107 77.6848C164.245 77.6848 165.017 78.4923 165.017 79.6818V79.977H161.675C161.718 81.0015 162.256 81.5919 163.159 81.5919C163.845 81.5919 164.288 81.2967 164.444 80.741H165.017C164.792 81.6267 164.14 82.1042 163.151 82.1042ZM163.107 78.1971C162.317 78.1971 161.796 78.718 161.692 79.5429H164.418C164.418 78.7354 163.897 78.1971 163.107 78.1971ZM166.574 82H165.975V77.7977H166.496L166.583 78.527C166.861 77.9887 167.417 77.6848 168.024 77.6848C169.179 77.6848 169.657 78.3707 169.657 79.43V82H169.058V79.5602C169.058 78.5791 168.615 78.2318 167.92 78.2318C167.061 78.2318 166.574 78.8569 166.574 79.8033V82ZM172.5 82.1042C171.276 82.1042 170.555 81.1665 170.555 79.9075C170.555 78.6399 171.276 77.6848 172.526 77.6848C173.221 77.6848 173.777 77.9887 174.072 78.5965V75.6705H174.671V82H174.15L174.089 81.1404C173.794 81.7916 173.204 82.1042 172.5 82.1042ZM172.605 81.5572C173.525 81.5572 174.063 80.8626 174.063 79.8902C174.063 78.9264 173.525 78.2231 172.605 78.2231C171.693 78.2231 171.163 78.9264 171.163 79.8902C171.163 80.8626 171.693 81.5572 172.605 81.5572ZM176.546 82H175.947V75.6705H176.546V82ZM177.395 83.832V83.3371H177.855C178.22 83.3371 178.584 83.3111 178.793 82.7467L178.975 82.2518L177.273 77.7977H177.907L179.262 81.4617L180.59 77.7977H181.207L179.279 82.9638C179.036 83.6236 178.628 83.8928 178.029 83.8928C177.777 83.8928 177.586 83.8754 177.395 83.832ZM13.3299 91.8988C13.3299 90.6138 14.2329 89.6848 15.4658 89.6848C16.6987 89.6848 17.6017 90.6138 17.6017 91.8988C17.6017 93.1752 16.6987 94.1042 15.4658 94.1042C14.2329 94.1042 13.3299 93.1752 13.3299 91.8988ZM13.9377 91.8902C13.9377 92.88 14.5628 93.5659 15.4658 93.5659C16.3601 93.5659 16.9939 92.88 16.9939 91.8902C16.9939 90.9177 16.3601 90.2231 15.4658 90.2231C14.5628 90.2231 13.9377 90.9177 13.9377 91.8902ZM18.5599 95.832V89.7977H19.0808L19.1416 90.6486C19.4368 89.9974 20.0272 89.6848 20.7305 89.6848C21.9461 89.6848 22.6754 90.6138 22.6754 91.8815C22.6754 93.1491 21.9721 94.1042 20.7305 94.1042C20.0186 94.1042 19.4542 93.8003 19.159 93.1925V95.832H18.5599ZM19.1677 91.8988C19.1677 92.8626 19.706 93.5659 20.6263 93.5659C21.538 93.5659 22.0676 92.8626 22.0676 91.8988C22.0676 90.9264 21.538 90.2318 20.6263 90.2318C19.706 90.2318 19.1677 90.9264 19.1677 91.8988ZM24.5517 94H23.9613V90.3013H23.1191V89.7977H23.9613V88.4693H24.5517V89.7977H25.3939V90.3013H24.5517V94ZM26.4692 88.6429C26.2261 88.6429 26.0264 88.4432 26.0264 88.2001C26.0264 87.957 26.2261 87.7486 26.4692 87.7486C26.7123 87.7486 26.9207 87.957 26.9207 88.2001C26.9207 88.4432 26.7123 88.6429 26.4692 88.6429ZM26.174 94V89.7977H26.7731V94H26.174ZM27.7272 91.8988C27.7272 90.6138 28.6302 89.6848 29.8631 89.6848C31.096 89.6848 31.999 90.6138 31.999 91.8988C31.999 93.1752 31.096 94.1042 29.8631 94.1042C28.6302 94.1042 27.7272 93.1752 27.7272 91.8988ZM28.335 91.8902C28.335 92.88 28.9601 93.5659 29.8631 93.5659C30.7574 93.5659 31.3912 92.88 31.3912 91.8902C31.3912 90.9177 30.7574 90.2231 29.8631 90.2231C28.9601 90.2231 28.335 90.9177 28.335 91.8902ZM33.5563 94H32.9572V89.7977H33.4781L33.565 90.527C33.8428 89.9887 34.3985 89.6848 35.0062 89.6848C36.161 89.6848 36.6386 90.3707 36.6386 91.43V94H36.0395V91.5602C36.0395 90.5791 35.5967 90.2318 34.9021 90.2318C34.0425 90.2318 33.5563 90.8569 33.5563 91.8033V94ZM37.4257 92.8192H37.9988C37.9988 93.3054 38.3634 93.6093 38.9539 93.6093C39.605 93.6093 39.9871 93.3315 39.9871 92.88C39.9871 92.5327 39.8134 92.333 39.3185 92.2114L38.5979 92.0291C37.8685 91.8467 37.5126 91.4647 37.5126 90.8917C37.5126 90.1537 38.129 89.6848 39.032 89.6848C39.9176 89.6848 40.4907 90.171 40.5167 90.9525H39.935C39.9176 90.4662 39.579 90.1797 39.0146 90.1797C38.4242 90.1797 38.0943 90.4315 38.0943 90.883C38.0943 91.2042 38.32 91.43 38.7802 91.5429L39.5008 91.7252C40.2302 91.9075 40.5601 92.2461 40.5601 92.8539C40.5601 93.6093 39.9176 94.1042 38.9625 94.1042C38.0161 94.1042 37.4257 93.6006 37.4257 92.8192ZM43.4856 89.7977H44.1281V88.9815C44.1281 88.0351 44.649 87.6705 45.2915 87.6705C45.4391 87.6705 45.6128 87.6792 45.7517 87.7052V88.2175H45.3957C44.8661 88.2175 44.7272 88.4866 44.7272 88.9815V89.7977H45.717V90.3013H44.7272V94H44.1281V90.3013H43.4856V89.7977ZM46.1096 91.8988C46.1096 90.6138 47.0126 89.6848 48.2455 89.6848C49.4784 89.6848 50.3814 90.6138 50.3814 91.8988C50.3814 93.1752 49.4784 94.1042 48.2455 94.1042C47.0126 94.1042 46.1096 93.1752 46.1096 91.8988ZM46.7174 91.8902C46.7174 92.88 47.3425 93.5659 48.2455 93.5659C49.1398 93.5659 49.7736 92.88 49.7736 91.8902C49.7736 90.9177 49.1398 90.2231 48.2455 90.2231C47.3425 90.2231 46.7174 90.9177 46.7174 91.8902ZM53.5363 89.7456V90.2839H53.2063C52.4336 90.2839 51.9387 90.8049 51.9387 91.6036V94H51.3396V89.7977H51.904L51.9474 90.4489C52.1123 89.9974 52.5551 89.7022 53.1455 89.7022C53.2758 89.7022 53.3887 89.7109 53.5363 89.7456ZM56.3153 95.832V95.3371H56.7754C57.1401 95.3371 57.5048 95.3111 57.7131 94.7467L57.8955 94.2518L56.1937 89.7977H56.8275L58.182 93.4617L59.5104 89.7977H60.1269L58.1994 94.9638C57.9562 95.6236 57.5482 95.8928 56.9491 95.8928C56.6973 95.8928 56.5063 95.8754 56.3153 95.832ZM60.3882 91.8988C60.3882 90.6138 61.2912 89.6848 62.5241 89.6848C63.757 89.6848 64.66 90.6138 64.66 91.8988C64.66 93.1752 63.757 94.1042 62.5241 94.1042C61.2912 94.1042 60.3882 93.1752 60.3882 91.8988ZM60.996 91.8902C60.996 92.88 61.6211 93.5659 62.5241 93.5659C63.4184 93.5659 64.0522 92.88 64.0522 91.8902C64.0522 90.9177 63.4184 90.2231 62.5241 90.2231C61.6211 90.2231 60.996 90.9177 60.996 91.8902ZM68.4685 89.7977H69.0676V94H68.5466L68.4685 93.288C68.234 93.7743 67.6523 94.1042 66.9924 94.1042C66.0026 94.1042 65.4643 93.427 65.4643 92.4024V89.789H66.0721V92.2114C66.0721 93.2099 66.5149 93.5659 67.1835 93.5659C67.9909 93.5659 68.4685 93.0276 68.4685 92.0291V89.7977ZM72.5122 89.7456V90.2839H72.1823C71.4095 90.2839 70.9146 90.8049 70.9146 91.6036V94H70.3155V89.7977H70.8799L70.9233 90.4489C71.0883 89.9974 71.5311 89.7022 72.1215 89.7022C72.2517 89.7022 72.3646 89.7109 72.5122 89.7456ZM76.6804 94H76.09V90.3013H75.2478V89.7977H76.09V88.4693H76.6804V89.7977H77.5226V90.3013H76.6804V94ZM80.4994 89.7456V90.2839H80.1694C79.3967 90.2839 78.9018 90.8049 78.9018 91.6036V94H78.3027V89.7977H78.8671L78.9105 90.4489C79.0755 89.9974 79.5183 89.7022 80.1087 89.7022C80.2389 89.7022 80.3518 89.7109 80.4994 89.7456ZM82.3331 94.1042C81.4388 94.1042 80.9092 93.6006 80.9092 92.8626C80.9092 92.0899 81.4996 91.6036 82.4807 91.5255L83.8699 91.4126V91.2737C83.8699 90.4489 83.375 90.1884 82.7585 90.1884C82.0292 90.1884 81.5951 90.5183 81.5951 91.0827H81.0481C81.0481 90.2318 81.7427 89.6848 82.7759 89.6848C83.7483 89.6848 84.4603 90.171 84.4603 91.2824V94H83.9567L83.8786 93.262C83.6181 93.7916 83.045 94.1042 82.3331 94.1042ZM82.472 93.618C83.3576 93.618 83.8699 93.0015 83.8699 92.0899V91.8641L82.6283 91.9596C81.8382 92.0291 81.5169 92.3764 81.5169 92.8452C81.5169 93.3575 81.899 93.618 82.472 93.618ZM86.665 94L84.9459 89.7977H85.5884L86.6737 92.5066C86.7866 92.8105 86.8994 93.097 86.9776 93.3749C87.0557 93.0883 87.1686 92.8105 87.2902 92.5066L88.3928 89.7977H89.0093L87.2641 94H86.665ZM91.2914 94.1042C90.0585 94.1042 89.2337 93.2186 89.2337 91.8988C89.2337 90.5878 90.0498 89.6848 91.248 89.6848C92.3854 89.6848 93.1581 90.4923 93.1581 91.6818V91.977H89.8154C89.8588 93.0015 90.3971 93.5919 91.3001 93.5919C91.986 93.5919 92.4288 93.2967 92.5851 92.741H93.1581C92.9324 93.6267 92.2812 94.1042 91.2914 94.1042ZM91.248 90.1971C90.4579 90.1971 89.9369 90.718 89.8328 91.5429H92.5591C92.5591 90.7354 92.0381 90.1971 91.248 90.1971ZM94.7411 94H94.142V87.6705H94.7411V94ZM100.073 94.1042C98.8488 94.1042 98.1281 93.1665 98.1281 91.9075C98.1281 90.6399 98.8488 89.6848 100.099 89.6848C100.794 89.6848 101.349 89.9887 101.645 90.5965V87.6705H102.244V94H101.723L101.662 93.1404C101.367 93.7916 100.776 94.1042 100.073 94.1042ZM100.177 93.5572C101.098 93.5572 101.636 92.8626 101.636 91.8902C101.636 90.9264 101.098 90.2231 100.177 90.2231C99.2655 90.2231 98.7359 90.9264 98.7359 91.8902C98.7359 92.8626 99.2655 93.5572 100.177 93.5572ZM104.701 94.1042C103.806 94.1042 103.277 93.6006 103.277 92.8626C103.277 92.0899 103.867 91.6036 104.848 91.5255L106.237 91.4126V91.2737C106.237 90.4489 105.742 90.1884 105.126 90.1884C104.397 90.1884 103.963 90.5183 103.963 91.0827H103.416C103.416 90.2318 104.11 89.6848 105.143 89.6848C106.116 89.6848 106.828 90.171 106.828 91.2824V94H106.324L106.246 93.262C105.986 93.7916 105.413 94.1042 104.701 94.1042ZM104.84 93.618C105.725 93.618 106.237 93.0015 106.237 92.0899V91.8641L104.996 91.9596C104.206 92.0291 103.884 92.3764 103.884 92.8452C103.884 93.3575 104.266 93.618 104.84 93.618ZM108.917 94H108.327V90.3013H107.485V89.7977H108.327V88.4693H108.917V89.7977H109.76V90.3013H108.917V94ZM112.26 94.1042C111.027 94.1042 110.202 93.2186 110.202 91.8988C110.202 90.5878 111.018 89.6848 112.216 89.6848C113.354 89.6848 114.127 90.4923 114.127 91.6818V91.977H110.784C110.827 93.0015 111.366 93.5919 112.269 93.5919C112.954 93.5919 113.397 93.2967 113.554 92.741H114.127C113.901 93.6267 113.25 94.1042 112.26 94.1042ZM112.216 90.1971C111.426 90.1971 110.905 90.718 110.801 91.5429H113.528C113.528 90.7354 113.007 90.1971 112.216 90.1971ZM114.728 92.8192H115.302C115.302 93.3054 115.666 93.6093 116.257 93.6093C116.908 93.6093 117.29 93.3315 117.29 92.88C117.29 92.5327 117.116 92.333 116.621 92.2114L115.901 92.0291C115.171 91.8467 114.815 91.4647 114.815 90.8917C114.815 90.1537 115.432 89.6848 116.335 89.6848C117.22 89.6848 117.793 90.171 117.819 90.9525H117.238C117.22 90.4662 116.882 90.1797 116.317 90.1797C115.727 90.1797 115.397 90.4315 115.397 90.883C115.397 91.2042 115.623 91.43 116.083 91.5429L116.804 91.7252C117.533 91.9075 117.863 92.2461 117.863 92.8539C117.863 93.6093 117.22 94.1042 116.265 94.1042C115.319 94.1042 114.728 93.6006 114.728 92.8192ZM119.448 90.7701C119.153 90.7701 118.901 90.5183 118.901 90.2318C118.901 89.9366 119.153 89.6935 119.448 89.6935C119.743 89.6935 119.995 89.9366 119.995 90.2318C119.995 90.5183 119.743 90.7701 119.448 90.7701ZM119.448 94.0955C119.153 94.0955 118.901 93.8524 118.901 93.5659C118.901 93.2707 119.153 93.0189 119.448 93.0189C119.743 93.0189 119.995 93.2707 119.995 93.5659C119.995 93.8524 119.743 94.0955 119.448 94.0955Z" fill="#021430"/>
<path d="M16.1257 297.717H14.3805V300H13.7554V293.783H16.1257C17.3239 293.783 18.0792 294.565 18.0792 295.737C18.0792 296.866 17.3152 297.717 16.1257 297.717ZM16.0389 294.348H14.3805V297.152H16.0041C16.9071 297.152 17.4281 296.579 17.4281 295.728C17.4281 294.869 16.8984 294.348 16.0389 294.348ZM19.5835 300H18.9845V293.67H19.5835V300ZM22.6202 300.104C21.3873 300.104 20.5625 299.219 20.5625 297.899C20.5625 296.588 21.3786 295.685 22.5768 295.685C23.7142 295.685 24.487 296.492 24.487 297.682V297.977H21.1442C21.1876 299.002 21.7259 299.592 22.6289 299.592C23.3148 299.592 23.7576 299.297 23.9139 298.741H24.487C24.2612 299.627 23.61 300.104 22.6202 300.104ZM22.5768 296.197C21.7867 296.197 21.2658 296.718 21.1616 297.543H23.8879C23.8879 296.735 23.3669 296.197 22.5768 296.197ZM26.6093 300.104C25.715 300.104 25.1854 299.601 25.1854 298.863C25.1854 298.09 25.7758 297.604 26.7569 297.525L28.1461 297.413V297.274C28.1461 296.449 27.6512 296.188 27.0347 296.188C26.3054 296.188 25.8713 296.518 25.8713 297.083H25.3243C25.3243 296.232 26.0189 295.685 27.0521 295.685C28.0245 295.685 28.7365 296.171 28.7365 297.282V300H28.2329L28.1548 299.262C27.8943 299.792 27.3213 300.104 26.6093 300.104ZM26.7482 299.618C27.6338 299.618 28.1461 299.002 28.1461 298.09V297.864L26.9045 297.96C26.1144 298.029 25.7931 298.376 25.7931 298.845C25.7931 299.357 26.1752 299.618 26.7482 299.618ZM29.5827 298.819H30.1557C30.1557 299.305 30.5204 299.609 31.1108 299.609C31.762 299.609 32.144 299.331 32.144 298.88C32.144 298.533 31.9704 298.333 31.4755 298.211L30.7548 298.029C30.0255 297.847 29.6695 297.465 29.6695 296.892C29.6695 296.154 30.286 295.685 31.1889 295.685C32.0746 295.685 32.6476 296.171 32.6737 296.952H32.0919C32.0746 296.466 31.7359 296.18 31.1716 296.18C30.5812 296.18 30.2512 296.432 30.2512 296.883C30.2512 297.204 30.477 297.43 30.9372 297.543L31.6578 297.725C32.3871 297.908 32.7171 298.246 32.7171 298.854C32.7171 299.609 32.0746 300.104 31.1195 300.104C30.1731 300.104 29.5827 299.601 29.5827 298.819ZM35.4659 300.104C34.233 300.104 33.4081 299.219 33.4081 297.899C33.4081 296.588 34.2243 295.685 35.4225 295.685C36.5599 295.685 37.3326 296.492 37.3326 297.682V297.977H33.9899C34.0333 299.002 34.5716 299.592 35.4746 299.592C36.1605 299.592 36.6033 299.297 36.7596 298.741H37.3326C37.1069 299.627 36.4557 300.104 35.4659 300.104ZM35.4225 296.197C34.6324 296.197 34.1114 296.718 34.0072 297.543H36.7335C36.7335 296.735 36.2126 296.197 35.4225 296.197ZM41.3236 300H40.7245V293.67H41.3236V300ZM44.3603 300.104C43.1274 300.104 42.3026 299.219 42.3026 297.899C42.3026 296.588 43.1187 295.685 44.3169 295.685C45.4543 295.685 46.227 296.492 46.227 297.682V297.977H42.8843C42.9277 299.002 43.466 299.592 44.369 299.592C45.0549 299.592 45.4977 299.297 45.654 298.741H46.227C46.0013 299.627 45.3501 300.104 44.3603 300.104ZM44.3169 296.197C43.5268 296.197 43.0059 296.718 42.9017 297.543H45.628C45.628 296.735 45.107 296.197 44.3169 296.197ZM48.1063 300H47.5158V296.301H46.6736V295.798H47.5158V294.469H48.1063V295.798H48.9485V296.301H48.1063V300ZM55.0887 295.798H55.6877V300H55.1668L55.0887 299.288C54.8542 299.774 54.2725 300.104 53.6126 300.104C52.6228 300.104 52.0845 299.427 52.0845 298.402V295.789H52.6923V298.211C52.6923 299.21 53.1351 299.566 53.8036 299.566C54.6111 299.566 55.0887 299.028 55.0887 298.029V295.798ZM56.4949 298.819H57.068C57.068 299.305 57.4326 299.609 58.0231 299.609C58.6742 299.609 59.0563 299.331 59.0563 298.88C59.0563 298.533 58.8826 298.333 58.3877 298.211L57.6671 298.029C56.9377 297.847 56.5818 297.465 56.5818 296.892C56.5818 296.154 57.1982 295.685 58.1012 295.685C58.9868 295.685 59.5599 296.171 59.5859 296.952H59.0042C58.9868 296.466 58.6482 296.18 58.0838 296.18C57.4934 296.18 57.1635 296.432 57.1635 296.883C57.1635 297.204 57.3892 297.43 57.8494 297.543L58.57 297.725C59.2994 297.908 59.6293 298.246 59.6293 298.854C59.6293 299.609 58.9868 300.104 58.0317 300.104C57.0853 300.104 56.4949 299.601 56.4949 298.819ZM63.6488 300H63.0497V293.67H63.6488V297.968L65.7325 295.798H66.4879L64.873 297.473L66.4966 300H65.802L64.4649 297.899L63.6488 298.741V300ZM67.8113 300H67.2122V295.798H67.7332L67.82 296.527C68.0978 295.989 68.6535 295.685 69.2613 295.685C70.4161 295.685 70.8936 296.371 70.8936 297.43V300H70.2945V297.56C70.2945 296.579 69.8517 296.232 69.1571 296.232C68.2975 296.232 67.8113 296.857 67.8113 297.803V300ZM71.7924 297.899C71.7924 296.614 72.6954 295.685 73.9283 295.685C75.1612 295.685 76.0642 296.614 76.0642 297.899C76.0642 299.175 75.1612 300.104 73.9283 300.104C72.6954 300.104 71.7924 299.175 71.7924 297.899ZM72.4002 297.89C72.4002 298.88 73.0253 299.566 73.9283 299.566C74.8226 299.566 75.4564 298.88 75.4564 297.89C75.4564 296.918 74.8226 296.223 73.9283 296.223C73.0253 296.223 72.4002 296.918 72.4002 297.89ZM77.7215 300L76.3323 295.798H76.9487L77.7736 298.333C77.8691 298.611 77.9472 298.897 78.034 299.236C78.1035 298.897 78.2424 298.472 78.2858 298.333L79.1193 295.798H79.7358L80.5606 298.333C80.6388 298.559 80.743 298.923 80.8211 299.236C80.9079 298.889 80.9253 298.784 81.0729 298.333L81.9064 295.798H82.5316L81.1076 300H80.5259L79.6577 297.361C79.5535 297.048 79.484 296.787 79.4319 296.536C79.3711 296.761 79.3017 297.013 79.1888 297.361L78.3206 300H77.7215ZM86.287 299.991H85.6879V293.67H86.287V296.527C86.5561 296.023 87.0684 295.685 87.7717 295.685C88.8744 295.685 89.3693 296.371 89.3693 297.43V300H88.7702V297.56C88.7702 296.579 88.31 296.232 87.6588 296.232C86.7558 296.232 86.287 296.9 86.287 297.708V299.991ZM90.2681 297.899C90.2681 296.614 91.1711 295.685 92.404 295.685C93.6369 295.685 94.5399 296.614 94.5399 297.899C94.5399 299.175 93.6369 300.104 92.404 300.104C91.1711 300.104 90.2681 299.175 90.2681 297.899ZM90.8759 297.89C90.8759 298.88 91.501 299.566 92.404 299.566C93.2983 299.566 93.9321 298.88 93.9321 297.89C93.9321 296.918 93.2983 296.223 92.404 296.223C91.501 296.223 90.8759 296.918 90.8759 297.89ZM96.1971 300L94.8079 295.798H95.4244L96.2492 298.333C96.3447 298.611 96.4229 298.897 96.5097 299.236C96.5792 298.897 96.7181 298.472 96.7615 298.333L97.595 295.798H98.2115L99.0363 298.333C99.1144 298.559 99.2186 298.923 99.2968 299.236C99.3836 298.889 99.401 298.784 99.5486 298.333L100.382 295.798H101.007L99.5833 300H99.0016L98.1333 297.361C98.0291 297.048 97.9597 296.787 97.9076 296.536C97.8468 296.761 97.7773 297.013 97.6645 297.361L96.7962 300H96.1971ZM103.738 301.832V301.337H104.198C104.563 301.337 104.928 301.311 105.136 300.747L105.318 300.252L103.617 295.798H104.25L105.605 299.462L106.933 295.798H107.55L105.622 300.964C105.379 301.624 104.971 301.893 104.372 301.893C104.12 301.893 103.929 301.875 103.738 301.832ZM107.811 297.899C107.811 296.614 108.714 295.685 109.947 295.685C111.18 295.685 112.083 296.614 112.083 297.899C112.083 299.175 111.18 300.104 109.947 300.104C108.714 300.104 107.811 299.175 107.811 297.899ZM108.419 297.89C108.419 298.88 109.044 299.566 109.947 299.566C110.841 299.566 111.475 298.88 111.475 297.89C111.475 296.918 110.841 296.223 109.947 296.223C109.044 296.223 108.419 296.918 108.419 297.89ZM115.891 295.798H116.49V300H115.969L115.891 299.288C115.657 299.774 115.075 300.104 114.415 300.104C113.426 300.104 112.887 299.427 112.887 298.402V295.789H113.495V298.211C113.495 299.21 113.938 299.566 114.606 299.566C115.414 299.566 115.891 299.028 115.891 298.029V295.798ZM119.678 295.798H120.32V294.982C120.32 294.035 120.841 293.67 121.484 293.67C121.631 293.67 121.805 293.679 121.944 293.705V294.217H121.588C121.058 294.217 120.919 294.487 120.919 294.982V295.798H121.909V296.301H120.919V300H120.32V296.301H119.678V295.798ZM122.302 297.899C122.302 296.614 123.205 295.685 124.438 295.685C125.67 295.685 126.573 296.614 126.573 297.899C126.573 299.175 125.67 300.104 124.438 300.104C123.205 300.104 122.302 299.175 122.302 297.899ZM122.909 297.89C122.909 298.88 123.535 299.566 124.438 299.566C125.332 299.566 125.966 298.88 125.966 297.89C125.966 296.918 125.332 296.223 124.438 296.223C123.535 296.223 122.909 296.918 122.909 297.89ZM130.382 295.798H130.981V300H130.46L130.382 299.288C130.147 299.774 129.566 300.104 128.906 300.104C127.916 300.104 127.378 299.427 127.378 298.402V295.789H127.986V298.211C127.986 299.21 128.428 299.566 129.097 299.566C129.904 299.566 130.382 299.028 130.382 298.029V295.798ZM132.828 300H132.229V295.798H132.75L132.837 296.527C133.115 295.989 133.67 295.685 134.278 295.685C135.433 295.685 135.91 296.371 135.91 297.43V300H135.311V297.56C135.311 296.579 134.868 296.232 134.174 296.232C133.314 296.232 132.828 296.857 132.828 297.803V300ZM138.754 300.104C137.53 300.104 136.809 299.166 136.809 297.908C136.809 296.64 137.53 295.685 138.78 295.685C139.475 295.685 140.03 295.989 140.326 296.596V293.67H140.925V300H140.404L140.343 299.14C140.048 299.792 139.457 300.104 138.754 300.104ZM138.858 299.557C139.779 299.557 140.317 298.863 140.317 297.89C140.317 296.926 139.779 296.223 138.858 296.223C137.947 296.223 137.417 296.926 137.417 297.89C137.417 298.863 137.947 299.557 138.858 299.557ZM145.547 300H144.956V296.301H144.114V295.798H144.956V294.469H145.547V295.798H146.389V296.301H145.547V300ZM147.768 299.991H147.169V293.67H147.768V296.527C148.037 296.023 148.549 295.685 149.253 295.685C150.355 295.685 150.85 296.371 150.85 297.43V300H150.251V297.56C150.251 296.579 149.791 296.232 149.14 296.232C148.237 296.232 147.768 296.9 147.768 297.708V299.991ZM152.34 294.643C152.096 294.643 151.897 294.443 151.897 294.2C151.897 293.957 152.096 293.749 152.34 293.749C152.583 293.749 152.791 293.957 152.791 294.2C152.791 294.443 152.583 294.643 152.34 294.643ZM152.044 300V295.798H152.643V300H152.044ZM153.537 298.819H154.11C154.11 299.305 154.474 299.609 155.065 299.609C155.716 299.609 156.098 299.331 156.098 298.88C156.098 298.533 155.924 298.333 155.43 298.211L154.709 298.029C153.98 297.847 153.624 297.465 153.624 296.892C153.624 296.154 154.24 295.685 155.143 295.685C156.029 295.685 156.602 296.171 156.628 296.952H156.046C156.029 296.466 155.69 296.18 155.126 296.18C154.535 296.18 154.205 296.432 154.205 296.883C154.205 297.204 154.431 297.43 154.891 297.543L155.612 297.725C156.341 297.908 156.671 298.246 156.671 298.854C156.671 299.609 156.029 300.104 155.074 300.104C154.127 300.104 153.537 299.601 153.537 298.819ZM15.8218 307.746V308.284H15.4919C14.7191 308.284 14.2242 308.805 14.2242 309.604V312H13.6251V307.798H14.1895L14.2329 308.449C14.3979 307.997 14.8407 307.702 15.4311 307.702C15.5613 307.702 15.6742 307.711 15.8218 307.746ZM18.2197 312.104C16.9867 312.104 16.1619 311.219 16.1619 309.899C16.1619 308.588 16.9781 307.685 18.1762 307.685C19.3136 307.685 20.0864 308.492 20.0864 309.682V309.977H16.7436C16.787 311.002 17.3254 311.592 18.2283 311.592C18.9143 311.592 19.3571 311.297 19.5133 310.741H20.0864C19.8606 311.627 19.2095 312.104 18.2197 312.104ZM18.1762 308.197C17.3861 308.197 16.8652 308.718 16.761 309.543H19.4873C19.4873 308.735 18.9663 308.197 18.1762 308.197ZM20.749 309.908C20.749 308.588 21.5565 307.685 22.7807 307.685C23.7532 307.685 24.4651 308.249 24.6301 309.117H24.031C23.8747 308.536 23.3711 308.214 22.7894 308.214C21.9385 308.214 21.3394 308.866 21.3394 309.899C21.3394 310.897 21.8951 311.566 22.746 311.566C23.3711 311.566 23.8747 311.219 24.0397 310.68H24.6475C24.4478 311.54 23.7011 312.104 22.746 312.104C21.5565 312.104 20.749 311.227 20.749 309.908ZM25.2598 309.899C25.2598 308.614 26.1628 307.685 27.3957 307.685C28.6286 307.685 29.5316 308.614 29.5316 309.899C29.5316 311.175 28.6286 312.104 27.3957 312.104C26.1628 312.104 25.2598 311.175 25.2598 309.899ZM25.8676 309.89C25.8676 310.88 26.4928 311.566 27.3957 311.566C28.29 311.566 28.9238 310.88 28.9238 309.89C28.9238 308.918 28.29 308.223 27.3957 308.223C26.4928 308.223 25.8676 308.918 25.8676 309.89ZM31.0889 312H30.4898V307.798H31.0108L31.0802 308.397C31.2886 307.954 31.7574 307.685 32.3479 307.685C33.0077 307.685 33.5026 308.032 33.7023 308.579C33.8933 308.032 34.4056 307.685 35.0828 307.685C35.9945 307.685 36.5936 308.275 36.5936 309.248V312H36.0119V309.369C36.0119 308.649 35.6125 308.223 34.97 308.223C34.2667 308.223 33.8499 308.753 33.8499 309.404V312H33.2595V309.361C33.2595 308.649 32.8514 308.232 32.2176 308.232C31.5143 308.232 31.0889 308.753 31.0889 309.395V312ZM38.3978 312H37.7987V307.798H38.3196L38.3891 308.397C38.5975 307.954 39.0663 307.685 39.6567 307.685C40.3166 307.685 40.8115 308.032 41.0112 308.579C41.2022 308.032 41.7145 307.685 42.3917 307.685C43.3034 307.685 43.9025 308.275 43.9025 309.248V312H43.3207V309.369C43.3207 308.649 42.9213 308.223 42.2788 308.223C41.5756 308.223 41.1588 308.753 41.1588 309.404V312H40.5684V309.361C40.5684 308.649 40.1603 308.232 39.5265 308.232C38.8232 308.232 38.3978 308.753 38.3978 309.395V312ZM46.8701 312.104C45.6372 312.104 44.8123 311.219 44.8123 309.899C44.8123 308.588 45.6285 307.685 46.8267 307.685C47.9641 307.685 48.7368 308.492 48.7368 309.682V309.977H45.3941C45.4375 311.002 45.9758 311.592 46.8788 311.592C47.5647 311.592 48.0075 311.297 48.1638 310.741H48.7368C48.5111 311.627 47.8599 312.104 46.8701 312.104ZM46.8267 308.197C46.0366 308.197 45.5156 308.718 45.4114 309.543H48.1377C48.1377 308.735 47.6168 308.197 46.8267 308.197ZM50.2938 312H49.6947V307.798H50.2156L50.3024 308.527C50.5803 307.989 51.136 307.685 51.7437 307.685C52.8985 307.685 53.376 308.371 53.376 309.43V312H52.7769V309.56C52.7769 308.579 52.3341 308.232 51.6395 308.232C50.78 308.232 50.2938 308.857 50.2938 309.803V312ZM56.2197 312.104C54.9955 312.104 54.2749 311.166 54.2749 309.908C54.2749 308.64 54.9955 307.685 56.2458 307.685C56.9404 307.685 57.4961 307.989 57.7913 308.596V305.67H58.3904V312H57.8694L57.8086 311.14C57.5134 311.792 56.923 312.104 56.2197 312.104ZM56.3239 311.557C57.2443 311.557 57.7826 310.863 57.7826 309.89C57.7826 308.926 57.2443 308.223 56.3239 308.223C55.4123 308.223 54.8826 308.926 54.8826 309.89C54.8826 310.863 55.4123 311.557 56.3239 311.557ZM60.8474 312.104C59.9531 312.104 59.4234 311.601 59.4234 310.863C59.4234 310.09 60.0138 309.604 60.995 309.525L62.3842 309.413V309.274C62.3842 308.449 61.8893 308.188 61.2728 308.188C60.5435 308.188 60.1094 308.518 60.1094 309.083H59.5624C59.5624 308.232 60.257 307.685 61.2902 307.685C62.2626 307.685 62.9746 308.171 62.9746 309.282V312H62.471L62.3928 311.262C62.1324 311.792 61.5593 312.104 60.8474 312.104ZM60.9863 311.618C61.8719 311.618 62.3842 311.002 62.3842 310.09V309.864L61.1426 309.96C60.3525 310.029 60.0312 310.376 60.0312 310.845C60.0312 311.357 60.4132 311.618 60.9863 311.618ZM65.0642 312H64.4738V308.301H63.6316V307.798H64.4738V306.469H65.0642V307.798H65.9064V308.301H65.0642V312ZM66.9817 306.643C66.7386 306.643 66.5389 306.443 66.5389 306.2C66.5389 305.957 66.7386 305.749 66.9817 305.749C67.2248 305.749 67.4332 305.957 67.4332 306.2C67.4332 306.443 67.2248 306.643 66.9817 306.643ZM66.6865 312V307.798H67.2856V312H66.6865ZM68.2397 309.899C68.2397 308.614 69.1427 307.685 70.3756 307.685C71.6085 307.685 72.5115 308.614 72.5115 309.899C72.5115 311.175 71.6085 312.104 70.3756 312.104C69.1427 312.104 68.2397 311.175 68.2397 309.899ZM68.8475 309.89C68.8475 310.88 69.4726 311.566 70.3756 311.566C71.2699 311.566 71.9037 310.88 71.9037 309.89C71.9037 308.918 71.2699 308.223 70.3756 308.223C69.4726 308.223 68.8475 308.918 68.8475 309.89ZM74.0688 312H73.4697V307.798H73.9907L74.0775 308.527C74.3553 307.989 74.911 307.685 75.5188 307.685C76.6735 307.685 77.1511 308.371 77.1511 309.43V312H76.552V309.56C76.552 308.579 76.1092 308.232 75.4146 308.232C74.555 308.232 74.0688 308.857 74.0688 309.803V312ZM78.8574 312.096C78.5622 312.096 78.3104 311.852 78.3104 311.566C78.3104 311.271 78.5622 311.019 78.8574 311.019C79.1526 311.019 79.4044 311.271 79.4044 311.566C79.4044 311.852 79.1526 312.096 78.8574 312.096Z" fill="#021430"/>
<g filter="url(#filter6_d_804_20112)">
<rect x="13" y="323.682" width="58.7299" height="21.7062" rx="4.34123" fill="white" shape-rendering="crispEdges"/>
<g clip-path="url(#clip4_804_20112)">
<path d="M25.4808 339.962H23.8529C23.565 339.962 23.289 339.848 23.0855 339.644C22.8819 339.441 22.7676 339.165 22.7676 338.877V335.078C22.7676 334.79 22.8819 334.514 23.0855 334.311C23.289 334.107 23.565 333.993 23.8529 333.993H25.4808M29.2794 332.908V330.737C29.2794 330.305 29.1079 329.891 28.8026 329.586C28.4973 329.281 28.0832 329.109 27.6515 329.109L25.4808 333.993V339.962H31.602C31.8637 339.965 32.1177 339.873 32.3172 339.704C32.5166 339.534 32.648 339.298 32.6873 339.04L33.4362 334.156C33.4598 334 33.4493 333.841 33.4054 333.69C33.3615 333.539 33.2854 333.399 33.1821 333.281C33.0789 333.162 32.9511 333.067 32.8075 333.003C32.664 332.938 32.5082 332.906 32.3508 332.908H29.2794Z" stroke="#021430" stroke-width="0.813981" stroke-linecap="round" stroke-linejoin="round"/>
</g>
<path d="M40.4775 337.036H39.9305V331.596H40.4775V334.02H43.4176V331.596H43.957V337.036H43.4176V334.529H40.4775V337.036ZM46.7154 337.127C45.6366 337.127 44.9148 336.352 44.9148 335.197C44.9148 334.05 45.629 333.26 46.6774 333.26C47.6726 333.26 48.3487 333.966 48.3487 335.007V335.265H45.4238C45.4618 336.162 45.9328 336.679 46.7229 336.679C47.3231 336.679 47.7106 336.42 47.8473 335.934H48.3487C48.1512 336.709 47.5814 337.127 46.7154 337.127ZM46.6774 333.708C45.986 333.708 45.5302 334.164 45.439 334.886H47.8245C47.8245 334.179 47.3687 333.708 46.6774 333.708ZM49.7339 337.036H49.2097V331.497H49.7339V337.036ZM50.8487 338.639V333.359H51.3046L51.3577 334.103C51.6161 333.533 52.1327 333.26 52.748 333.26C53.8116 333.26 54.4498 334.073 54.4498 335.182C54.4498 336.291 53.8344 337.127 52.748 337.127C52.1251 337.127 51.6312 336.861 51.3729 336.329V338.639H50.8487ZM51.3805 335.197C51.3805 336.04 51.8516 336.656 52.6569 336.656C53.4546 336.656 53.918 336.04 53.918 335.197C53.918 334.346 53.4546 333.738 52.6569 333.738C51.8516 333.738 51.3805 334.346 51.3805 335.197ZM54.8454 333.359H55.4076V332.644C55.4076 331.816 55.8635 331.497 56.4256 331.497C56.5548 331.497 56.7067 331.505 56.8283 331.528V331.976H56.5168C56.0534 331.976 55.9318 332.211 55.9318 332.644V333.359H56.7979V333.799H55.9318V337.036H55.4076V333.799H54.8454V333.359ZM60.0941 333.359H60.6183V337.036H60.1625L60.0941 336.413C59.889 336.838 59.38 337.127 58.8026 337.127C57.9365 337.127 57.4655 336.534 57.4655 335.638V333.351H57.9973V335.471C57.9973 336.344 58.3848 336.656 58.9697 336.656C59.6763 336.656 60.0941 336.185 60.0941 335.311V333.359ZM62.2573 337.036H61.7331V331.497H62.2573V337.036Z" fill="#021430"/>
</g>
<g filter="url(#filter7_d_804_20112)">
<rect x="76.071" y="323.682" width="66.7299" height="21.7062" rx="4.34123" fill="white" shape-rendering="crispEdges"/>
<g clip-path="url(#clip5_804_20112)">
<path d="M93.9786 329.109H95.4275C95.7346 329.104 96.033 329.211 96.2661 329.411C96.4992 329.611 96.6507 329.89 96.6919 330.194V333.993C96.6507 334.297 96.4992 334.576 96.2661 334.776C96.033 334.976 95.7346 335.084 95.4275 335.078H93.9786M90.18 336.164V338.334C90.18 338.766 90.3515 339.18 90.6568 339.485C90.9621 339.791 91.3762 339.962 91.808 339.962L93.9786 335.078V329.109H87.8574C87.5957 329.106 87.3417 329.198 87.1423 329.367C86.9428 329.537 86.8114 329.773 86.7721 330.032L86.0233 334.915C85.9997 335.071 86.0102 335.23 86.054 335.381C86.0979 335.532 86.1741 335.672 86.2773 335.79C86.3806 335.909 86.5084 336.004 86.6519 336.068C86.7954 336.133 86.9513 336.165 87.1086 336.164H90.18Z" stroke="#021430" stroke-width="0.813981" stroke-linecap="round" stroke-linejoin="round"/>
</g>
<path d="M102.742 335.144V331.596H103.289V335.121C103.289 336.078 103.813 336.595 104.763 336.595C105.69 336.595 106.214 336.063 106.214 335.121V331.596H106.761V335.144C106.761 336.375 106.001 337.127 104.763 337.127C103.502 337.127 102.742 336.382 102.742 335.144ZM108.458 337.036H107.934V333.359H108.39L108.465 333.997C108.709 333.526 109.195 333.26 109.727 333.26C110.737 333.26 111.155 333.86 111.155 334.787V337.036H110.631V334.901C110.631 334.042 110.243 333.738 109.635 333.738C108.883 333.738 108.458 334.285 108.458 335.114V337.036ZM112.724 337.028H112.2V331.497H112.724V333.997C112.959 333.556 113.408 333.26 114.023 333.26C114.988 333.26 115.421 333.86 115.421 334.787V337.036H114.897V334.901C114.897 334.042 114.494 333.738 113.924 333.738C113.134 333.738 112.724 334.323 112.724 335.03V337.028ZM118.008 337.127C116.929 337.127 116.207 336.352 116.207 335.197C116.207 334.05 116.921 333.26 117.97 333.26C118.965 333.26 119.641 333.966 119.641 335.007V335.265H116.716C116.754 336.162 117.225 336.679 118.015 336.679C118.616 336.679 119.003 336.42 119.14 335.934H119.641C119.444 336.709 118.874 337.127 118.008 337.127ZM117.97 333.708C117.279 333.708 116.823 334.164 116.732 334.886H119.117C119.117 334.179 118.661 333.708 117.97 333.708ZM121.026 337.036H120.502V331.497H121.026V337.036ZM122.141 338.639V333.359H122.597L122.65 334.103C122.909 333.533 123.425 333.26 124.041 333.26C125.104 333.26 125.742 334.073 125.742 335.182C125.742 336.291 125.127 337.127 124.041 337.127C123.418 337.127 122.924 336.861 122.665 336.329V338.639H122.141ZM122.673 335.197C122.673 336.04 123.144 336.656 123.949 336.656C124.747 336.656 125.211 336.04 125.211 335.197C125.211 334.346 124.747 333.738 123.949 333.738C123.144 333.738 122.673 334.346 122.673 335.197ZM126.138 333.359H126.7V332.644C126.7 331.816 127.156 331.497 127.718 331.497C127.847 331.497 127.999 331.505 128.121 331.528V331.976H127.809C127.346 331.976 127.224 332.211 127.224 332.644V333.359H128.09V333.799H127.224V337.036H126.7V333.799H126.138V333.359ZM131.387 333.359H131.911V337.036H131.455L131.387 336.413C131.182 336.838 130.673 337.127 130.095 337.127C129.229 337.127 128.758 336.534 128.758 335.638V333.351H129.29V335.471C129.29 336.344 129.677 336.656 130.262 336.656C130.969 336.656 131.387 336.185 131.387 335.311V333.359ZM133.55 337.036H133.026V331.497H133.55V337.036Z" fill="#021430"/>
</g>
</g>
<defs>
<filter id="filter0_f_804_20112" x="-138.761" y="68.3744" width="353.268" height="353.268" filterUnits="userSpaceOnUse" color-interpolation-filters="sRGB">
<feFlood flood-opacity="0" result="BackgroundImageFix"/>
<feBlend mode="normal" in="SourceGraphic" in2="BackgroundImageFix" result="shape"/>
<feGaussianBlur stdDeviation="54.2654" result="effect1_foregroundBlur_804_20112"/>
</filter>
<filter id="filter1_f_804_20112" x="-21.0049" y="-11.9384" width="353.268" height="353.268" filterUnits="userSpaceOnUse" color-interpolation-filters="sRGB">
<feFlood flood-opacity="0" result="BackgroundImageFix"/>
<feBlend mode="normal" in="SourceGraphic" in2="BackgroundImageFix" result="shape"/>
<feGaussianBlur stdDeviation="54.2654" result="effect1_foregroundBlur_804_20112"/>
</filter>
<filter id="filter2_b_804_20112" x="-162.638" y="-162.796" width="537.227" height="783.592" filterUnits="userSpaceOnUse" color-interpolation-filters="sRGB">
<feFlood flood-opacity="0" result="BackgroundImageFix"/>
<feGaussianBlur in="BackgroundImageFix" stdDeviation="81.3981"/>
<feComposite in2="SourceAlpha" operator="in" result="effect1_backgroundBlur_804_20112"/>
<feBlend mode="normal" in="SourceGraphic" in2="effect1_backgroundBlur_804_20112" result="shape"/>
</filter>
<filter id="filter3_b_804_20112" x="-162.638" y="-162.796" width="537.227" height="783.592" filterUnits="userSpaceOnUse" color-interpolation-filters="sRGB">
<feFlood flood-opacity="0" result="BackgroundImageFix"/>
<feGaussianBlur in="BackgroundImageFix" stdDeviation="81.3981"/>
<feComposite in2="SourceAlpha" operator="in" result="effect1_backgroundBlur_804_20112"/>
<feBlend mode="normal" in="SourceGraphic" in2="effect1_backgroundBlur_804_20112" result="shape"/>
</filter>
<filter id="filter4_f_804_20112" x="-21.0044" y="-11.9383" width="353.268" height="353.268" filterUnits="userSpaceOnUse" color-interpolation-filters="sRGB">
<feFlood flood-opacity="0" result="BackgroundImageFix"/>
<feBlend mode="normal" in="SourceGraphic" in2="BackgroundImageFix" result="shape"/>
<feGaussianBlur stdDeviation="54.2654" result="effect1_foregroundBlur_804_20112"/>
</filter>
<filter id="filter5_b_804_20112" x="-162.638" y="-162.796" width="537.227" height="783.592" filterUnits="userSpaceOnUse" color-interpolation-filters="sRGB">
<feFlood flood-opacity="0" result="BackgroundImageFix"/>
<feGaussianBlur in="BackgroundImageFix" stdDeviation="81.3981"/>
<feComposite in2="SourceAlpha" operator="in" result="effect1_backgroundBlur_804_20112"/>
<feBlend mode="normal" in="SourceGraphic" in2="effect1_backgroundBlur_804_20112" result="shape"/>
</filter>
<filter id="filter6_d_804_20112" x="-12.904" y="313.321" width="100.176" height="63.1527" filterUnits="userSpaceOnUse" color-interpolation-filters="sRGB">
<feFlood flood-opacity="0" result="BackgroundImageFix"/>
<feColorMatrix in="SourceAlpha" type="matrix" values="0 0 0 0 0 0 0 0 0 0 0 0 0 0 0 0 0 0 127 0" result="hardAlpha"/>
<feOffset dx="-5.18081" dy="10.3616"/>
<feGaussianBlur stdDeviation="10.3616"/>
<feComposite in2="hardAlpha" operator="out"/>
<feColorMatrix type="matrix" values="0 0 0 0 0.866667 0 0 0 0 0.866667 0 0 0 0 0.866667 0 0 0 0.4 0"/>
<feBlend mode="normal" in2="BackgroundImageFix" result="effect1_dropShadow_804_20112"/>
<feBlend mode="normal" in="SourceGraphic" in2="effect1_dropShadow_804_20112" result="shape"/>
</filter>
<filter id="filter7_d_804_20112" x="50.167" y="313.321" width="108.176" height="63.1527" filterUnits="userSpaceOnUse" color-interpolation-filters="sRGB">
<feFlood flood-opacity="0" result="BackgroundImageFix"/>
<feColorMatrix in="SourceAlpha" type="matrix" values="0 0 0 0 0 0 0 0 0 0 0 0 0 0 0 0 0 0 127 0" result="hardAlpha"/>
<feOffset dx="-5.18081" dy="10.3616"/>
<feGaussianBlur stdDeviation="10.3616"/>
<feComposite in2="hardAlpha" operator="out"/>
<feColorMatrix type="matrix" values="0 0 0 0 0.866667 0 0 0 0 0.866667 0 0 0 0 0.866667 0 0 0 0.4 0"/>
<feBlend mode="normal" in2="BackgroundImageFix" result="effect1_dropShadow_804_20112"/>
<feBlend mode="normal" in="SourceGraphic" in2="effect1_dropShadow_804_20112" result="shape"/>
</filter>
<linearGradient id="paint0_linear_804_20112" x1="46.1256" y1="29.846" x2="237.14" y2="71.359" gradientUnits="userSpaceOnUse">
<stop stop-color="#F1F6FE"/>
<stop offset="1" stop-color="#E5F4FE"/>
</linearGradient>
<linearGradient id="paint1_linear_804_20112" x1="105.976" y1="50.9891" x2="105.342" y2="68.5088" gradientUnits="userSpaceOnUse">
<stop stop-color="#F1F6FE"/>
<stop offset="1" stop-color="#E5F4FE" stop-opacity="0"/>
</linearGradient>
<clipPath id="clip0_804_20112">
<rect x="0.158691" width="211.635" height="458" rx="10.8531" fill="white"/>
</clipPath>
<clipPath id="clip1_804_20112">
<rect width="211.635" height="458" fill="white" transform="translate(0.158691)"/>
</clipPath>
<clipPath id="clip2_804_20112">
<rect width="211.635" height="59.1493" fill="white" transform="translate(0.158691)"/>
</clipPath>
<clipPath id="clip3_804_20112">
<rect width="13.0237" height="13.0237" fill="white" transform="translate(185.746 36.3578)"/>
</clipPath>
<clipPath id="clip4_804_20112">
<rect width="13.0237" height="13.0237" fill="white" transform="translate(21.6824 328.024)"/>
</clipPath>
<clipPath id="clip5_804_20112">
<rect width="13.0237" height="13.0237" fill="white" transform="translate(84.7534 328.024)"/>
</clipPath>
</defs>
</svg>
