<svg width="273" height="249" viewBox="0 0 273 249" fill="none" xmlns="http://www.w3.org/2000/svg">
<rect x="2.77002" y="7.93555" width="14.2452" height="14.2452" rx="7.12259" fill="#E7F7FC"/>
<rect x="10.3376" y="22.1807" width="5.93549" height="0.890324" transform="rotate(90 10.3376 22.1807)" fill="#E7F7FC"/>
<rect x="22.9507" y="0.726898" width="182.813" height="28.6624" rx="14.3312" fill="#E7F7FC"/>
<path d="M33.2772 19.0581H32.1914V11.0476H35.2162C36.9335 11.0476 37.9528 11.9561 37.9528 13.4519C37.9528 14.5598 37.3988 15.3576 36.4017 15.6789L38.0304 19.0581H36.8227L35.3269 15.8894H33.2772V19.0581ZM33.2772 12.0226V14.9255H35.2272C36.2355 14.9255 36.8116 14.3826 36.8116 13.4629C36.8116 12.5323 36.2133 12.0226 35.2162 12.0226H33.2772ZM38.5194 16.3436C38.5194 14.6706 39.716 13.4962 41.3447 13.4962C42.9623 13.4962 44.1589 14.6706 44.1589 16.3436C44.1589 18.0167 42.9623 19.1911 41.3447 19.1911C39.716 19.1911 38.5194 18.0167 38.5194 16.3436ZM39.572 16.3436C39.572 17.4738 40.2922 18.2604 41.3447 18.2604C42.3862 18.2604 43.1175 17.4738 43.1175 16.3436C43.1175 15.2135 42.3862 14.4269 41.3447 14.4269C40.2922 14.4269 39.572 15.2135 39.572 16.3436ZM46.3533 19.0581H45.3118V13.6402H46.2425L46.3422 14.3493C46.6192 13.8397 47.1953 13.4851 47.9598 13.4851C48.8019 13.4851 49.4002 13.9061 49.6772 14.582C49.932 13.9061 50.5857 13.4851 51.4277 13.4851C52.6687 13.4851 53.4221 14.2607 53.4221 15.5127V19.0581H52.4028V15.7675C52.4028 14.9144 51.9263 14.4269 51.1951 14.4269C50.4084 14.4269 49.8877 14.9808 49.8877 15.8451V19.0581H48.8573V15.7564C48.8573 14.9033 48.3919 14.4379 47.6607 14.4379C46.874 14.4379 46.3533 14.9808 46.3533 15.8451V19.0581ZM57.2036 19.1911C55.6081 19.1911 54.5112 18.0388 54.5112 16.3547C54.5112 14.6595 55.586 13.4851 57.1593 13.4851C58.6993 13.4851 59.7076 14.5487 59.7076 16.1553V16.5431L55.5195 16.5541C55.597 17.6953 56.1953 18.3269 57.2257 18.3269C58.0346 18.3269 58.5664 17.9945 58.7437 17.374H59.7187C59.4527 18.5374 58.5442 19.1911 57.2036 19.1911ZM57.1593 14.3604C56.2507 14.3604 55.6746 14.9033 55.5417 15.8561H58.6661C58.6661 14.9587 58.0789 14.3604 57.1593 14.3604Z" fill="#021430"/>
<path d="M77.1593 13.186C77.1593 11.8564 78.2229 10.9811 79.8184 10.9811C81.2477 10.9811 82.1894 11.7788 82.3113 13.1084H81.5025C81.4139 12.211 80.8045 11.7013 79.8073 11.7013C78.6883 11.7013 77.957 12.2774 77.957 13.1749C77.957 13.8729 78.367 14.3161 79.198 14.5266L80.5607 14.859C81.8017 15.1581 82.4443 15.8672 82.4443 16.9419C82.4443 18.3158 81.3806 19.1911 79.7409 19.1911C78.2008 19.1911 77.1593 18.3823 77.0596 17.086H77.8795C77.9238 17.9169 78.6551 18.4598 79.7409 18.4598C80.9042 18.4598 81.6465 17.8948 81.6465 16.9863C81.6465 16.2772 81.2477 15.8118 80.3945 15.6124L79.0539 15.28C77.813 14.9808 77.1593 14.2718 77.1593 13.186ZM87.4797 13.6956H88.2442V19.0581H87.5794L87.4797 18.1496C87.1805 18.7701 86.4382 19.1911 85.5962 19.1911C84.3331 19.1911 83.6461 18.3269 83.6461 17.0195V13.6845H84.4217V16.7757C84.4217 18.0499 84.9868 18.5042 85.8399 18.5042C86.8703 18.5042 87.4797 17.8172 87.4797 16.5431V13.6956ZM90.6012 19.0581H89.8367V13.6956H90.5015L90.6123 14.6263C90.9668 13.9394 91.6759 13.5516 92.4515 13.5516C93.9251 13.5516 94.5344 14.4269 94.5344 15.7786V19.0581H93.7699V15.9448C93.7699 14.6928 93.2049 14.2496 92.3185 14.2496C91.2216 14.2496 90.6012 15.0473 90.6012 16.255V19.0581ZM100.339 11.8453H98.721V11.1252H101.103V19.0581H100.339V11.8453ZM102.643 15.0916C102.643 12.632 103.851 10.97 105.823 10.97C107.784 10.97 108.992 12.632 108.992 15.0916C108.992 17.5624 107.806 19.2022 105.823 19.2022C103.829 19.2022 102.643 17.5624 102.643 15.0916ZM103.43 15.0916C103.43 17.1524 104.305 18.482 105.823 18.482C107.341 18.482 108.216 17.1524 108.216 15.0916C108.216 13.0198 107.341 11.7013 105.823 11.7013C104.305 11.7013 103.43 13.0198 103.43 15.0916ZM113.379 16.4877V15.8007H116.592V16.4877H113.379ZM125.381 15.5681H122.135V19.0581H121.337V11.1252H126.013V11.8564H122.135V14.8479H125.381V15.5681ZM129.655 13.6291V14.3161H129.234C128.248 14.3161 127.616 14.9808 127.616 16.0002V19.0581H126.852V13.6956H127.572L127.627 14.5266C127.838 13.9504 128.403 13.5737 129.156 13.5737C129.322 13.5737 129.466 13.5848 129.655 13.6291ZM131.048 12.222C130.737 12.222 130.483 11.9672 130.483 11.657C130.483 11.3467 130.737 11.0808 131.048 11.0808C131.358 11.0808 131.624 11.3467 131.624 11.657C131.624 11.9672 131.358 12.222 131.048 12.222ZM130.671 19.0581V13.6956H131.436V19.0581H130.671ZM137.31 11.8453H135.693V11.1252H138.075V19.0581H137.31V11.8453ZM145.321 17.374H144.39V19.0581H143.614V17.374H139.448V16.6649L143.326 11.1252H144.39V16.6649H145.321V17.374ZM140.313 16.6649H143.614V11.945L140.313 16.6649ZM149.988 19.0581H149.18L152.094 11.1252H153.08L156.027 19.0581H155.196L154.42 16.953H150.764L149.988 19.0581ZM152.481 12.2442L151.008 16.255H154.165L152.681 12.2442C152.648 12.1334 152.592 12.0004 152.581 11.9229C152.57 11.9894 152.526 12.1334 152.481 12.2442ZM160.633 13.6956H161.398V19.0581H160.733L160.633 18.1496C160.334 18.7701 159.592 19.1911 158.75 19.1911C157.486 19.1911 156.8 18.3269 156.8 17.0195V13.6845H157.575V16.7757C157.575 18.0499 158.14 18.5042 158.993 18.5042C160.024 18.5042 160.633 17.8172 160.633 16.5431V13.6956ZM162.624 16.2218C162.624 14.7593 163.566 13.5516 165.14 13.5516C166.07 13.5516 166.779 13.9837 167.123 14.7703L167.2 13.6956H167.865V18.8919C167.865 20.4874 166.846 21.5289 165.272 21.5289C163.899 21.5289 162.935 20.7533 162.724 19.457H163.489C163.655 20.3212 164.32 20.8309 165.284 20.8309C166.38 20.8309 167.112 20.0885 167.112 18.9695V17.6953C166.746 18.4488 166.004 18.8919 165.084 18.8919C163.555 18.8919 162.624 17.6843 162.624 16.2218ZM163.389 16.2107C163.389 17.3076 164.065 18.205 165.195 18.205C166.358 18.205 167.045 17.363 167.045 16.2107C167.045 15.0695 166.38 14.2274 165.206 14.2274C164.054 14.2274 163.389 15.1249 163.389 16.2107Z" fill="#021430"/>
<path d="M193.893 16.8388L190.332 13.2775L186.771 16.8388" stroke="#021430" stroke-width="1.1871" stroke-linecap="round" stroke-linejoin="round"/>
<g filter="url(#filter0_d_804_20587)">
<rect x="24.5332" y="40.7785" width="246.125" height="82.3055" rx="3.1656" fill="white" shape-rendering="crispEdges"/>
<rect x="24.9289" y="41.1742" width="245.334" height="81.5141" rx="2.7699" stroke="white" stroke-width="0.791399" shape-rendering="crispEdges"/>
<g clip-path="url(#clip0_804_20587)">
<path d="M43.1421 77.0183C42.9572 76.9927 42.795 76.8817 42.7044 76.7184C42.5859 76.5051 42.4693 76.2946 42.3539 76.0862C42.0069 75.4597 41.6707 74.8527 41.3277 74.2482L41.844 73.9553L41.3282 74.249C41.3128 74.222 41.2822 74.1935 41.2687 74.1858L41.2684 74.1856C40.719 73.8712 40.167 73.5643 39.6113 73.2554C39.4084 73.1427 39.2051 73.0297 39.0013 72.9159L39.0006 72.9155C38.9501 72.8873 38.8971 72.8561 38.8427 72.824C38.8199 72.8106 38.7969 72.797 38.7736 72.7835C38.614 72.6902 38.5069 72.528 38.484 72.3445C38.4611 72.1611 38.525 71.9775 38.6567 71.8479C38.7251 71.7806 38.7949 71.7107 38.8659 71.6396C39.0663 71.4389 39.2768 71.2282 39.4937 71.0377L39.494 71.0375C39.6544 70.8967 39.8407 70.8546 39.9443 70.8392C40.0627 70.8215 40.1802 70.8237 40.2799 70.8367M43.1421 77.0183L47.0289 64.9465C46.4091 64.8033 45.7892 64.6598 45.1691 64.5163C43.6404 64.1624 42.1111 63.8084 40.5813 63.4576L40.5805 63.4575C40.4796 63.4344 40.3658 63.4264 40.256 63.4368C40.172 63.4448 39.9624 63.4737 39.7894 63.6368L39.7887 63.6375C39.4967 63.9137 39.2108 64.1999 38.9214 64.4894C38.8336 64.5774 38.7454 64.6656 38.6567 64.754C38.5227 64.8873 38.4603 65.0765 38.4886 65.2634C38.5169 65.4503 38.6325 65.6125 38.7999 65.7003C40.6463 66.6682 42.4683 67.6234 44.3035 68.585C43.4697 69.4185 42.6484 70.2393 41.8255 71.0568M43.1421 77.0183C43.3271 77.0438 43.5133 76.9808 43.6447 76.8482C43.7208 76.7716 43.7963 76.6957 43.8713 76.6205C44.0799 76.4111 44.2843 76.206 44.4831 75.9986L44.4838 75.9978C44.6036 75.8724 44.6501 75.7291 44.6695 75.6456C44.691 75.5532 44.6992 75.4473 44.6845 75.3404L44.6841 75.3381C44.6511 75.1066 44.6172 74.8825 44.5838 74.6615C44.5342 74.3342 44.4856 74.0135 44.4426 73.6847C45.2588 72.857 46.0813 72.0352 46.9103 71.2071M43.1421 77.0183L46.9103 71.2071M40.2799 70.8367L40.2032 71.4253L40.2795 70.8367C40.2797 70.8367 40.2798 70.8367 40.2799 70.8367ZM40.2799 70.8367C40.6107 70.8796 40.9531 70.9298 41.2896 70.9791C41.4709 71.0057 41.6504 71.032 41.8255 71.0568M41.8255 71.0568C41.7761 71.1058 41.7268 71.1548 41.6774 71.2038M41.8255 71.0568C41.8819 71.0648 41.9378 71.0726 41.9932 71.0803C41.9511 71.0745 41.9188 71.0771 41.8902 71.0831C41.8738 71.0866 41.8474 71.0935 41.8149 71.1081C41.7845 71.1219 41.7317 71.1501 41.6774 71.2038M41.6774 71.2038C41.6769 71.2043 41.6764 71.2049 41.6759 71.2054L41.6774 71.2038ZM46.9103 71.2071C47.8646 73.0281 48.8165 74.8447 49.7803 76.6847C49.8682 76.8524 50.0307 76.9682 50.218 76.9963C50.4052 77.0244 50.5946 76.9615 50.7278 76.827C50.8167 76.7373 50.9052 76.6484 50.9933 76.56C51.2811 76.2712 51.5636 75.9875 51.835 75.6972L51.8354 75.6968C51.9957 75.5249 52.0275 75.3174 52.0366 75.2274C52.0481 75.1139 52.0406 74.9948 52.016 74.8878C51.4669 72.494 50.9137 70.1014 50.3553 67.7098C50.8863 67.184 51.419 66.6511 51.9506 66.1194C52.3994 65.6703 52.8474 65.2222 53.2926 64.7801L53.2927 64.78C53.6824 64.3929 53.9823 63.8667 53.8974 63.1917C53.8445 62.7708 53.701 62.2111 53.1276 61.8529L46.9103 71.2071ZM47.7348 65.0991C47.8492 64.986 47.9635 64.873 48.0777 64.7602C48.9394 63.9087 49.7956 63.0625 50.6323 62.1977C51.2735 61.5348 52.272 61.3185 53.1275 61.8529L47.7348 65.0991ZM47.7348 65.0991C47.5471 65.0667 47.357 65.0226 47.1476 64.974C47.1088 64.965 47.0693 64.9558 47.0291 64.9465L47.7348 65.0991ZM50.2852 67.7798C50.2852 67.7798 50.2853 67.7796 50.2857 67.7792L50.2852 67.7798Z" stroke="#021430" stroke-width="1.1871" stroke-miterlimit="10" stroke-linejoin="round"/>
</g>
<path d="M64.5336 57.6994V65.9299H68.6995V66.7657H63.6219V57.6994H64.5336ZM69.3203 63.7014C69.3203 61.8273 70.6371 60.4725 72.4352 60.4725C74.2333 60.4725 75.5502 61.8273 75.5502 63.7014C75.5502 65.5627 74.2333 66.9176 72.4352 66.9176C70.6371 66.9176 69.3203 65.5627 69.3203 63.7014ZM70.2066 63.6887C70.2066 65.1322 71.1183 66.1325 72.4352 66.1325C73.7394 66.1325 74.6638 65.1322 74.6638 63.6887C74.6638 62.2705 73.7394 61.2575 72.4352 61.2575C71.1183 61.2575 70.2066 62.2705 70.2066 63.6887ZM77.8213 66.7657H76.9476V60.6371H77.7073L77.8339 61.7007C78.2391 60.9156 79.0495 60.4725 79.9359 60.4725C81.62 60.4725 82.3164 61.4728 82.3164 63.0176V66.7657H81.4427V63.2075C81.4427 61.7767 80.7969 61.2702 79.7839 61.2702C78.5304 61.2702 77.8213 62.1819 77.8213 63.5621V66.7657ZM86.4636 66.9176C84.6782 66.9176 83.6273 65.5501 83.6273 63.714C83.6273 61.8653 84.6782 60.4725 86.5016 60.4725C87.5146 60.4725 88.325 60.9156 88.7555 61.802V57.5348H89.6292V66.7657H88.8695L88.7809 65.5121C88.3503 66.4618 87.4893 66.9176 86.4636 66.9176ZM86.6156 66.1199C87.9578 66.1199 88.7429 65.1069 88.7429 63.6887C88.7429 62.2832 87.9578 61.2575 86.6156 61.2575C85.286 61.2575 84.5136 62.2832 84.5136 63.6887C84.5136 65.1069 85.286 66.1199 86.6156 66.1199ZM91.0219 63.7014C91.0219 61.8273 92.3388 60.4725 94.1368 60.4725C95.9349 60.4725 97.2518 61.8273 97.2518 63.7014C97.2518 65.5627 95.9349 66.9176 94.1368 66.9176C92.3388 66.9176 91.0219 65.5627 91.0219 63.7014ZM91.9083 63.6887C91.9083 65.1322 92.82 66.1325 94.1368 66.1325C95.4411 66.1325 96.3654 65.1322 96.3654 63.6887C96.3654 62.2705 95.4411 61.2575 94.1368 61.2575C92.82 61.2575 91.9083 62.2705 91.9083 63.6887ZM99.5229 66.7657H98.6492V60.6371H99.4089L99.5356 61.7007C99.9408 60.9156 100.751 60.4725 101.638 60.4725C103.322 60.4725 104.018 61.4728 104.018 63.0176V66.7657H103.144V63.2075C103.144 61.7767 102.499 61.2702 101.486 61.2702C100.232 61.2702 99.5229 62.1819 99.5229 63.5621V66.7657ZM110.677 66.7657H109.816V61.3715H108.587V60.6371H109.816V58.6997H110.677V60.6371H111.905V61.3715H110.677V66.7657ZM112.55 63.7014C112.55 61.8273 113.867 60.4725 115.665 60.4725C117.463 60.4725 118.78 61.8273 118.78 63.7014C118.78 65.5627 117.463 66.9176 115.665 66.9176C113.867 66.9176 112.55 65.5627 112.55 63.7014ZM113.437 63.6887C113.437 65.1322 114.348 66.1325 115.665 66.1325C116.97 66.1325 117.894 65.1322 117.894 63.6887C117.894 62.2705 116.97 61.2575 115.665 61.2575C114.348 61.2575 113.437 62.2705 113.437 63.6887ZM124.791 66.7657H123.879V57.6994H127.26C129.096 57.6994 130.211 58.7124 130.211 60.3205C130.211 61.6247 129.527 62.5364 128.362 62.853L130.299 66.7657H129.286L127.438 63.0049H124.791V66.7657ZM124.791 58.5224V62.1819H127.286C128.539 62.1819 129.274 61.4981 129.274 60.3458C129.274 59.1682 128.501 58.5224 127.26 58.5224H124.791ZM130.913 63.7014C130.913 61.8273 132.23 60.4725 134.028 60.4725C135.826 60.4725 137.143 61.8273 137.143 63.7014C137.143 65.5627 135.826 66.9176 134.028 66.9176C132.23 66.9176 130.913 65.5627 130.913 63.7014ZM131.8 63.6887C131.8 65.1322 132.711 66.1325 134.028 66.1325C135.333 66.1325 136.257 65.1322 136.257 63.6887C136.257 62.2705 135.333 61.2575 134.028 61.2575C132.711 61.2575 131.8 62.2705 131.8 63.6887ZM139.414 66.7657H138.541V60.6371H139.3L139.402 61.5108C139.706 60.865 140.389 60.4725 141.25 60.4725C142.213 60.4725 142.934 60.9789 143.226 61.7767C143.504 60.9789 144.251 60.4725 145.239 60.4725C146.569 60.4725 147.442 61.3335 147.442 62.7517V66.7657H146.594V62.929C146.594 61.878 146.011 61.2575 145.074 61.2575C144.049 61.2575 143.441 62.0299 143.441 62.9796V66.7657H142.58V62.9163C142.58 61.878 141.985 61.2702 141.06 61.2702C140.035 61.2702 139.414 62.0299 139.414 62.9669V66.7657ZM151.77 66.9176C149.972 66.9176 148.769 65.626 148.769 63.7014C148.769 61.7893 149.96 60.4725 151.707 60.4725C153.366 60.4725 154.493 61.6501 154.493 63.3848V63.8153H149.618C149.681 65.3095 150.466 66.1705 151.783 66.1705C152.783 66.1705 153.429 65.74 153.657 64.9296H154.493C154.163 66.2212 153.214 66.9176 151.77 66.9176ZM151.707 61.2195C150.555 61.2195 149.795 61.9793 149.643 63.1822H153.619C153.619 62.0046 152.859 61.2195 151.707 61.2195Z" fill="#021430"/>
<path d="M65.0464 82.7657L62.6865 74.8327H63.5174L65.124 80.2838C65.2348 80.6716 65.3345 81.0705 65.4342 81.5912C65.5671 81.0151 65.6779 80.6716 65.7998 80.2838L67.5282 74.8327H68.3592L70.0876 80.2838C70.2095 80.6827 70.3203 81.0816 70.4422 81.5912C70.564 80.9818 70.6638 80.5941 70.7524 80.2949L72.3922 74.8327H73.201L70.8189 82.7657H70.0655L67.9382 76.0293L65.8109 82.7657H65.0464ZM74.5362 75.9296C74.226 75.9296 73.9712 75.6747 73.9712 75.3645C73.9712 75.0543 74.226 74.7884 74.5362 74.7884C74.8465 74.7884 75.1124 75.0543 75.1124 75.3645C75.1124 75.6747 74.8465 75.9296 74.5362 75.9296ZM74.1595 82.7657V77.4031H74.924V82.7657H74.1595ZM80.1967 82.7657H76.1527V82.1563L79.2549 78.0458H76.1527V77.4031H80.1967V78.0236L77.0833 82.123H80.1967V82.7657ZM85.1089 82.7657H81.0649V82.1563L84.1672 78.0458H81.0649V77.4031H85.1089V78.0236L81.9956 82.123H85.1089V82.7657ZM89.5818 82.7657H88.773L91.6869 74.8327H92.673L95.6202 82.7657H94.7892L94.0136 80.6605H90.3574L89.5818 82.7657ZM92.0747 75.9517L90.6011 79.9625H93.7588L92.2741 75.9517C92.2409 75.8409 92.1855 75.708 92.1744 75.6304C92.1633 75.6969 92.119 75.8409 92.0747 75.9517ZM96.9335 75.9296C96.6232 75.9296 96.3684 75.6747 96.3684 75.3645C96.3684 75.0543 96.6232 74.7884 96.9335 74.7884C97.2437 74.7884 97.5096 75.0543 97.5096 75.3645C97.5096 75.6747 97.2437 75.9296 96.9335 75.9296ZM96.5567 82.7657V77.4031H97.3212V82.7657H96.5567ZM101.719 77.3367V78.0236H101.298C100.312 78.0236 99.68 78.6884 99.68 79.7077V82.7657H98.9155V77.4031H99.6357L99.6911 78.2341C99.9016 77.658 100.467 77.2813 101.22 77.2813C101.386 77.2813 101.53 77.2923 101.719 77.3367Z" fill="#8A8A8A"/>
<path d="M63.0078 100.225C63.0078 98.8951 64.0714 98.0198 65.6669 98.0198C67.0961 98.0198 68.0379 98.8176 68.1598 100.147H67.351C67.2623 99.2497 66.6529 98.74 65.6558 98.74C64.5367 98.74 63.8055 99.3162 63.8055 100.214C63.8055 100.912 64.2154 101.355 65.0464 101.565L66.4092 101.898C67.6501 102.197 68.2927 102.906 68.2927 103.981C68.2927 105.355 67.2291 106.23 65.5893 106.23C64.0492 106.23 63.0078 105.421 62.908 104.125H63.7279C63.7723 104.956 64.5035 105.499 65.5893 105.499C66.7527 105.499 67.495 104.934 67.495 104.025C67.495 103.316 67.0961 102.851 66.243 102.651L64.9024 102.319C63.6615 102.02 63.0078 101.31 63.0078 100.225ZM73.3281 100.734H74.0926V106.097H73.4279L73.3281 105.188C73.029 105.809 72.2867 106.23 71.4446 106.23C70.1815 106.23 69.4946 105.366 69.4946 104.058V100.723H70.2702V103.814C70.2702 105.089 70.8352 105.543 71.6884 105.543C72.7188 105.543 73.3281 104.856 73.3281 103.582V100.734ZM76.4496 106.097H75.6851V100.734H76.3499L76.4607 101.665C76.8153 100.978 77.5244 100.59 78.2999 100.59C79.7735 100.59 80.3829 101.466 80.3829 102.817V106.097H79.6184V102.983C79.6184 101.732 79.0533 101.288 78.167 101.288C77.0701 101.288 76.4496 102.086 76.4496 103.294V106.097ZM86.1871 98.8841H84.5695V98.1639H86.9516V106.097H86.1871V98.8841ZM88.4915 102.13C88.4915 99.6707 89.6992 98.0088 91.6713 98.0088C93.6324 98.0088 94.8401 99.6707 94.8401 102.13C94.8401 104.601 93.6546 106.241 91.6713 106.241C89.677 106.241 88.4915 104.601 88.4915 102.13ZM89.2782 102.13C89.2782 104.191 90.1534 105.521 91.6713 105.521C93.1892 105.521 94.0645 104.191 94.0645 102.13C94.0645 100.058 93.1892 98.74 91.6713 98.74C90.1534 98.74 89.2782 100.058 89.2782 102.13ZM99.482 106.097H98.6732L101.587 98.1639H102.573L105.52 106.097H104.689L103.914 103.992H100.258L99.482 106.097ZM101.975 99.2829L100.501 103.294H103.659L102.174 99.2829C102.141 99.1721 102.086 99.0392 102.075 98.9616C102.064 99.0281 102.019 99.1721 101.975 99.2829ZM110.127 100.734H110.891V106.097H110.226L110.127 105.188C109.827 105.809 109.085 106.23 108.243 106.23C106.98 106.23 106.293 105.366 106.293 104.058V100.723H107.069V103.814C107.069 105.089 107.634 105.543 108.487 105.543C109.517 105.543 110.127 104.856 110.127 103.582V100.734ZM112.118 103.26C112.118 101.798 113.06 100.59 114.633 100.59C115.564 100.59 116.273 101.022 116.616 101.809L116.694 100.734H117.359V105.931C117.359 107.526 116.339 108.568 114.766 108.568C113.392 108.568 112.428 107.792 112.218 106.496H112.982C113.148 107.36 113.813 107.87 114.777 107.87C115.874 107.87 116.605 107.127 116.605 106.008V104.734C116.24 105.487 115.497 105.931 114.578 105.931C113.049 105.931 112.118 104.723 112.118 103.26ZM112.883 103.249C112.883 104.346 113.558 105.244 114.688 105.244C115.852 105.244 116.539 104.402 116.539 103.249C116.539 102.108 115.874 101.266 114.7 101.266C113.547 101.266 112.883 102.164 112.883 103.249Z" fill="#8A8A8A"/>
<path d="M201.104 108.325V107.236C199.432 107.135 198.331 106.185 198.255 104.704H199.521C199.546 105.514 200.141 106.046 201.104 106.147V102.994L200.648 102.893C199.154 102.551 198.381 101.715 198.381 100.411C198.381 98.9676 199.458 97.9419 201.104 97.8026V96.701H201.914V97.79C203.446 97.9293 204.421 98.8663 204.51 100.335H203.282C203.231 99.5247 202.737 99.0056 201.914 98.8916V102.032L202.408 102.146C203.927 102.488 204.662 103.285 204.662 104.552C204.662 106.059 203.586 107.072 201.914 107.223V108.325H201.104ZM200.901 101.791L201.104 101.842V98.8916C200.167 99.0182 199.597 99.5627 199.597 100.373C199.597 101.108 200.015 101.576 200.901 101.791ZM202.155 103.247L201.914 103.197V106.122C202.864 105.995 203.446 105.451 203.446 104.653C203.446 103.919 203.028 103.45 202.155 103.247ZM206.943 100.842L209.083 97.9419H210.526L208.235 100.981C208.551 100.854 208.88 100.791 209.197 100.791C211.096 100.791 212.375 102.159 212.375 103.969C212.375 105.881 210.932 107.249 209.045 107.249C207.146 107.249 205.677 105.818 205.677 103.969C205.677 102.88 206.006 102.121 206.943 100.842ZM206.943 103.982C206.943 105.235 207.804 106.134 209.045 106.134C210.261 106.134 211.122 105.235 211.122 103.982C211.122 102.728 210.261 101.842 209.045 101.842C207.804 101.842 206.943 102.728 206.943 103.982ZM218.602 104.197L216.462 107.097H215.019L217.311 104.058C216.994 104.184 216.665 104.248 216.349 104.248C214.449 104.248 213.17 102.88 213.17 101.057C213.17 99.1575 214.614 97.7773 216.5 97.7773C218.4 97.7773 219.869 99.2082 219.869 101.07C219.869 102.146 219.539 102.918 218.602 104.197ZM218.602 101.057C218.602 99.8033 217.741 98.8916 216.5 98.8916C215.285 98.8916 214.424 99.8033 214.424 101.057C214.424 102.31 215.285 103.197 216.5 103.197C217.741 103.197 218.602 102.31 218.602 101.057ZM226.343 104.197L224.203 107.097H222.76L225.052 104.058C224.735 104.184 224.406 104.248 224.089 104.248C222.19 104.248 220.911 102.88 220.911 101.057C220.911 99.1575 222.355 97.7773 224.241 97.7773C226.141 97.7773 227.61 99.2082 227.61 101.07C227.61 102.146 227.28 102.918 226.343 104.197ZM226.343 101.057C226.343 99.8033 225.482 98.8916 224.241 98.8916C223.026 98.8916 222.165 99.8033 222.165 101.057C222.165 102.31 223.026 103.197 224.241 103.197C225.482 103.197 226.343 102.31 226.343 101.057ZM233.039 107.097H231.747L235.09 97.9419H236.47L239.826 107.097H238.522L237.698 104.818H233.849L233.039 107.097ZM235.622 99.9173L234.229 103.741H237.331L235.926 99.9173C235.862 99.74 235.799 99.5247 235.774 99.3854C235.748 99.5121 235.685 99.7273 235.622 99.9173ZM240.596 103.843V97.9419H241.837V103.767C241.837 105.235 242.647 106.046 244.104 106.046C245.547 106.046 246.345 105.223 246.345 103.767V97.9419H247.598V103.843C247.598 105.945 246.256 107.249 244.104 107.249C241.938 107.249 240.596 105.957 240.596 103.843ZM252.688 107.097H249.662V97.9419H252.637C255.372 97.9419 257.221 99.7906 257.221 102.526C257.221 105.248 255.398 107.097 252.688 107.097ZM252.549 99.0815H250.902V105.945H252.599C254.638 105.945 255.929 104.628 255.929 102.526C255.929 100.398 254.638 99.0815 252.549 99.0815Z" fill="#021430"/>
<circle cx="243.75" cy="54.4318" r="1.5828" transform="rotate(-90 243.75 54.4318)" fill="#021430"/>
<circle cx="250.081" cy="54.4318" r="1.5828" transform="rotate(-90 250.081 54.4318)" fill="#021430"/>
<circle cx="256.413" cy="54.4318" r="1.5828" transform="rotate(-90 256.413 54.4318)" fill="#021430"/>
</g>
<rect x="9.34839" y="24.9506" width="0.890324" height="107.235" fill="#E7F7FC"/>
<rect x="10.2385" y="132.185" width="107.235" height="0.890324" transform="rotate(90 10.2385 132.185)" fill="#E7F7FC"/>
<g filter="url(#filter1_d_804_20587)">
<rect x="24.5332" y="135.746" width="246.125" height="70.9936" rx="3.1656" fill="white" shape-rendering="crispEdges"/>
<rect x="24.9289" y="136.142" width="245.334" height="70.2022" rx="2.7699" stroke="white" stroke-width="0.791399" shape-rendering="crispEdges"/>
<path d="M37.4596 166.992V161.452H41.6804V166.992M37.1958 154.329H41.9442M37.1958 157.495H41.9442M33.2388 151.164L33.2388 165.409C33.2388 165.829 33.387 166.231 33.6509 166.528C33.9147 166.825 34.2726 166.992 34.6457 166.992H44.4942C44.8674 166.992 45.2252 166.825 45.4891 166.528C45.7529 166.231 45.9012 165.829 45.9012 165.409V151.164H33.2388Z" stroke="#021430" stroke-width="1.1871" stroke-linecap="round"/>
<path d="M57.4113 147.011V155.242H61.5772V156.078H56.4996V147.011H57.4113ZM63.1826 148.265C62.8281 148.265 62.5369 147.974 62.5369 147.619C62.5369 147.265 62.8281 146.961 63.1826 146.961C63.5372 146.961 63.8411 147.265 63.8411 147.619C63.8411 147.974 63.5372 148.265 63.1826 148.265ZM62.7521 156.078V149.949H63.6258V156.078H62.7521ZM66.2076 156.078H65.4478V146.847H66.3215V151.139C66.752 150.24 67.5878 149.784 68.6261 149.784C70.4115 149.784 71.4498 151.177 71.4498 153.026C71.4498 154.862 70.3862 156.23 68.6008 156.23C67.5751 156.23 66.7267 155.774 66.2962 154.824L66.2076 156.078ZM66.3342 153.001C66.3342 154.419 67.1193 155.432 68.4615 155.432C69.791 155.432 70.5634 154.419 70.5634 153.001C70.5634 151.595 69.791 150.569 68.4615 150.569C67.1193 150.569 66.3342 151.595 66.3342 153.001ZM75.4129 156.23C73.6149 156.23 72.4119 154.938 72.4119 153.013C72.4119 151.101 73.6022 149.784 75.3496 149.784C77.0084 149.784 78.1353 150.962 78.1353 152.697V153.127H73.2603C73.3236 154.621 74.1087 155.482 75.4256 155.482C76.4259 155.482 77.0717 155.052 77.2996 154.242H78.1353C77.8061 155.533 76.8564 156.23 75.4129 156.23ZM75.3496 150.531C74.1973 150.531 73.4376 151.291 73.2856 152.494H77.2616C77.2616 151.317 76.5019 150.531 75.3496 150.531ZM82.7358 149.873V150.658H82.2547C81.1277 150.658 80.406 151.418 80.406 152.583V156.078H79.5323V149.949H80.3553L80.4186 150.899C80.6592 150.24 81.305 149.81 82.166 149.81C82.356 149.81 82.5206 149.822 82.7358 149.873ZM85.5501 156.078H84.6891V150.683H83.4609V149.949H84.6891V148.012H85.5501V149.949H86.7784V150.683H85.5501V156.078ZM87.2957 158.749V158.028H87.9668C88.4986 158.028 89.0304 157.99 89.3343 157.167L89.6002 156.445L87.1184 149.949H88.0428L90.0181 155.293L91.9554 149.949H92.8545L90.0434 157.483C89.6889 158.445 89.0937 158.838 88.22 158.838C87.8528 158.838 87.5742 158.813 87.2957 158.749ZM97.5781 156.078V147.011H100.896C102.643 147.011 103.719 147.898 103.719 149.354C103.719 150.418 103.251 151.139 102.314 151.506C103.365 151.848 103.897 152.583 103.897 153.697C103.897 155.153 102.808 156.078 101.086 156.078H97.5781ZM100.883 147.822H98.4898V151.139H100.997C102.137 151.139 102.782 150.506 102.782 149.43C102.782 148.417 102.099 147.822 100.883 147.822ZM101.086 151.937H98.4898V155.255H101.086C102.276 155.255 102.972 154.634 102.972 153.583C102.972 152.557 102.263 151.937 101.086 151.937ZM104.921 153.013C104.921 151.139 106.238 149.784 108.036 149.784C109.834 149.784 111.151 151.139 111.151 153.013C111.151 154.875 109.834 156.23 108.036 156.23C106.238 156.23 104.921 154.875 104.921 153.013ZM105.807 153.001C105.807 154.444 106.719 155.444 108.036 155.444C109.34 155.444 110.265 154.444 110.265 153.001C110.265 151.582 109.34 150.569 108.036 150.569C106.719 150.569 105.807 151.582 105.807 153.001ZM116.705 149.949H117.579V156.078H116.819L116.705 155.039C116.363 155.748 115.515 156.23 114.553 156.23C113.109 156.23 112.324 155.242 112.324 153.748V149.936H113.21V153.469C113.21 154.925 113.856 155.444 114.831 155.444C116.009 155.444 116.705 154.659 116.705 153.203V149.949ZM120.804 156.078H119.943V150.683H118.715V149.949H119.943V148.012H120.804V149.949H122.033V150.683H120.804V156.078ZM123.601 148.265C123.246 148.265 122.955 147.974 122.955 147.619C122.955 147.265 123.246 146.961 123.601 146.961C123.956 146.961 124.259 147.265 124.259 147.619C124.259 147.974 123.956 148.265 123.601 148.265ZM123.17 156.078V149.949H124.044V156.078H123.17ZM125.436 152.988C125.436 151.139 126.499 149.784 128.272 149.784C129.298 149.784 130.146 150.24 130.589 151.19L130.678 149.949H131.438V158.749H130.564V154.9C130.133 155.786 129.31 156.23 128.272 156.23C126.461 156.23 125.436 154.837 125.436 152.988ZM126.322 153.013C126.322 154.419 127.094 155.444 128.424 155.444C129.766 155.444 130.551 154.419 130.551 153.013C130.551 151.595 129.766 150.582 128.424 150.582C127.094 150.582 126.322 151.595 126.322 153.013ZM137.566 149.949H138.44V156.078H137.68L137.566 155.039C137.224 155.748 136.376 156.23 135.413 156.23C133.97 156.23 133.185 155.242 133.185 153.748V149.936H134.071V153.469C134.071 154.925 134.717 155.444 135.692 155.444C136.87 155.444 137.566 154.659 137.566 153.203V149.949ZM142.707 156.23C140.909 156.23 139.706 154.938 139.706 153.013C139.706 151.101 140.896 149.784 142.643 149.784C144.302 149.784 145.429 150.962 145.429 152.697V153.127H140.554C140.617 154.621 141.402 155.482 142.719 155.482C143.72 155.482 144.365 155.052 144.593 154.242H145.429C145.1 155.533 144.15 156.23 142.707 156.23ZM142.643 150.531C141.491 150.531 140.731 151.291 140.579 152.494H144.555C144.555 151.317 143.796 150.531 142.643 150.531ZM151.439 156.078H150.528V147.011H151.439V151.051H156.34V147.011H157.239V156.078H156.34V151.899H151.439V156.078ZM158.835 153.013C158.835 151.139 160.152 149.784 161.95 149.784C163.748 149.784 165.065 151.139 165.065 153.013C165.065 154.875 163.748 156.23 161.95 156.23C160.152 156.23 158.835 154.875 158.835 153.013ZM159.722 153.001C159.722 154.444 160.633 155.444 161.95 155.444C163.254 155.444 164.179 154.444 164.179 153.001C164.179 151.582 163.254 150.569 161.95 150.569C160.633 150.569 159.722 151.582 159.722 153.001ZM167.806 156.078H166.945V150.683H165.717V149.949H166.945V148.012H167.806V149.949H169.034V150.683H167.806V156.078ZM172.681 156.23C170.883 156.23 169.68 154.938 169.68 153.013C169.68 151.101 170.87 149.784 172.617 149.784C174.276 149.784 175.403 150.962 175.403 152.697V153.127H170.528C170.592 154.621 171.377 155.482 172.693 155.482C173.694 155.482 174.34 155.052 174.567 154.242H175.403C175.074 155.533 174.124 156.23 172.681 156.23ZM172.617 150.531C171.465 150.531 170.705 151.291 170.554 152.494H174.53C174.53 151.317 173.77 150.531 172.617 150.531ZM177.712 156.078H176.838V146.847H177.712V156.078Z" fill="#021430"/>
<path d="M57.1596 172.078H56.3619V164.145H59.3201C60.9267 164.145 61.9017 165.031 61.9017 166.438C61.9017 167.579 61.3034 168.377 60.284 168.654L61.9792 172.078H61.0929L59.4752 168.787H57.1596V172.078ZM57.1596 164.865V168.067H59.3423C60.4392 168.067 61.0818 167.468 61.0818 166.46C61.0818 165.43 60.4059 164.865 59.3201 164.865H57.1596ZM62.5165 169.396C62.5165 167.757 63.6688 166.571 65.2421 166.571C66.8154 166.571 67.9677 167.757 67.9677 169.396C67.9677 171.025 66.8154 172.211 65.2421 172.211C63.6688 172.211 62.5165 171.025 62.5165 169.396ZM63.2921 169.385C63.2921 170.648 64.0898 171.524 65.2421 171.524C66.3833 171.524 67.1921 170.648 67.1921 169.385C67.1921 168.144 66.3833 167.258 65.2421 167.258C64.0898 167.258 63.2921 168.144 63.2921 169.385ZM69.9549 172.078H69.1904V166.715H69.8552L69.9438 167.48C70.2097 166.915 70.808 166.571 71.5614 166.571C72.4035 166.571 73.035 167.014 73.2898 167.712C73.5336 167.014 74.1873 166.571 75.0515 166.571C76.2148 166.571 76.9793 167.324 76.9793 168.565V172.078H76.237V168.72C76.237 167.801 75.7273 167.258 74.9075 167.258C74.01 167.258 73.4782 167.934 73.4782 168.765V172.078H72.7248V168.709C72.7248 167.801 72.204 167.269 71.3952 167.269C70.4978 167.269 69.9549 167.934 69.9549 168.754V172.078ZM80.7663 172.211C79.193 172.211 78.1404 171.08 78.1404 169.396C78.1404 167.723 79.1819 166.571 80.7109 166.571C82.1623 166.571 83.1484 167.601 83.1484 169.119V169.496H78.8828C78.9382 170.803 79.6251 171.557 80.7774 171.557C81.6527 171.557 82.2177 171.18 82.4172 170.471H83.1484C82.8603 171.601 82.0294 172.211 80.7663 172.211ZM80.7109 167.225C79.7027 167.225 79.0379 167.89 78.9049 168.942H82.3839C82.3839 167.912 81.7191 167.225 80.7109 167.225Z" fill="#8A8A8A"/>
<path d="M57.4034 188.196H55.7857V187.476H58.1678V195.409H57.4034V188.196ZM59.7077 191.442C59.7077 188.983 60.9154 187.321 62.8876 187.321C64.8487 187.321 66.0563 188.983 66.0563 191.442C66.0563 193.913 64.8708 195.553 62.8876 195.553C60.8932 195.553 59.7077 193.913 59.7077 191.442ZM60.4944 191.442C60.4944 193.503 61.3697 194.833 62.8876 194.833C64.4055 194.833 65.2808 193.503 65.2808 191.442C65.2808 189.37 64.4055 188.052 62.8876 188.052C61.3697 188.052 60.4944 189.37 60.4944 191.442ZM70.4434 192.838V192.151H73.6565V192.838H70.4434ZM79.4435 188.196H77.8259V187.476H80.208V195.409H79.4435V188.196ZM87.4539 193.725H86.5232V195.409H85.7476V193.725H81.5817V193.016L85.4595 187.476H86.5232V193.016H87.4539V193.725ZM82.4459 193.016H85.7476V188.296L82.4459 193.016ZM92.1217 195.409H91.3129L94.2268 187.476H95.2129L98.16 195.409H97.3291L96.5535 193.304H92.8972L92.1217 195.409ZM94.6146 188.595L93.141 192.606H96.2987L94.814 188.595C94.7808 188.484 94.7254 188.351 94.7143 188.274C94.7032 188.34 94.6589 188.484 94.6146 188.595ZM102.766 190.046H103.531V195.409H102.866L102.766 194.5C102.467 195.121 101.725 195.542 100.883 195.542C99.6197 195.542 98.9328 194.678 98.9328 193.37V190.035H99.7083V193.126C99.7083 194.401 100.273 194.855 101.127 194.855C102.157 194.855 102.766 194.168 102.766 192.894V190.046ZM104.758 192.572C104.758 191.11 105.699 189.902 107.273 189.902C108.203 189.902 108.913 190.334 109.256 191.121L109.334 190.046H109.998V195.243C109.998 196.838 108.979 197.88 107.406 197.88C106.032 197.88 105.068 197.104 104.857 195.808H105.622C105.788 196.672 106.453 197.182 107.417 197.182C108.514 197.182 109.245 196.439 109.245 195.32V194.046C108.879 194.799 108.137 195.243 107.217 195.243C105.688 195.243 104.758 194.035 104.758 192.572ZM105.522 192.561C105.522 193.658 106.198 194.556 107.328 194.556C108.491 194.556 109.178 193.714 109.178 192.561C109.178 191.42 108.514 190.578 107.339 190.578C106.187 190.578 105.522 191.476 105.522 192.561Z" fill="#8A8A8A"/>
<path d="M200.313 197.637V196.548C198.641 196.447 197.54 195.497 197.464 194.016H198.73C198.755 194.826 199.35 195.358 200.313 195.459V192.306L199.857 192.205C198.363 191.863 197.59 191.027 197.59 189.723C197.59 188.28 198.666 187.254 200.313 187.115V186.013H201.123V187.102C202.655 187.241 203.63 188.178 203.719 189.647H202.491C202.44 188.837 201.946 188.318 201.123 188.204V191.344L201.617 191.458C203.136 191.8 203.871 192.597 203.871 193.864C203.871 195.37 202.794 196.383 201.123 196.535V197.637H200.313ZM200.11 191.103L200.313 191.154V188.204C199.376 188.33 198.806 188.875 198.806 189.685C198.806 190.419 199.224 190.888 200.11 191.103ZM201.364 192.559L201.123 192.509V195.434C202.073 195.307 202.655 194.763 202.655 193.965C202.655 193.231 202.237 192.762 201.364 192.559ZM206.734 188.368H204.81V187.254H207.925V196.409H206.734V188.368ZM211.625 195.915C211.625 196.827 210.941 197.586 210.042 197.7V197.169C210.562 197.08 210.929 196.738 210.929 196.345C210.84 196.396 210.739 196.421 210.587 196.421C210.169 196.421 209.815 196.118 209.815 195.649C209.815 195.143 210.156 194.775 210.663 194.775C211.195 194.775 211.625 195.219 211.625 195.915ZM212.579 191.838C212.579 189.001 214.048 187.077 216.353 187.077C218.645 187.077 220.113 189.001 220.113 191.838C220.113 194.687 218.708 196.573 216.353 196.573C213.985 196.573 212.579 194.687 212.579 191.838ZM213.808 191.838C213.808 194.092 214.745 195.459 216.353 195.459C217.961 195.459 218.885 194.092 218.885 191.838C218.885 189.558 217.961 188.191 216.353 188.191C214.745 188.191 213.808 189.558 213.808 191.838ZM220.642 187.254H227.036V188.393L223.567 196.409H222.275L225.783 188.393H220.642V187.254ZM233.182 193.509L231.042 196.409H229.598L231.89 193.37C231.574 193.496 231.244 193.56 230.928 193.56C229.028 193.56 227.75 192.192 227.75 190.369C227.75 188.469 229.193 187.089 231.08 187.089C232.979 187.089 234.448 188.52 234.448 190.381C234.448 191.458 234.119 192.23 233.182 193.509ZM233.182 190.369C233.182 189.115 232.321 188.204 231.08 188.204C229.864 188.204 229.003 189.115 229.003 190.369C229.003 191.622 229.864 192.509 231.08 192.509C232.321 192.509 233.182 191.622 233.182 190.369ZM239.877 196.409H238.586L241.928 187.254H243.309L246.664 196.409H245.36L244.537 194.13H240.688L239.877 196.409ZM242.46 189.229L241.067 193.053H244.17L242.764 189.229C242.701 189.052 242.638 188.837 242.612 188.697C242.587 188.824 242.524 189.039 242.46 189.229ZM247.435 193.155V187.254H248.675V193.079C248.675 194.547 249.486 195.358 250.942 195.358C252.386 195.358 253.183 194.535 253.183 193.079V187.254H254.437V193.155C254.437 195.257 253.095 196.561 250.942 196.561C248.777 196.561 247.435 195.269 247.435 193.155ZM259.526 196.409H256.5V187.254H259.476C262.211 187.254 264.059 189.103 264.059 191.838C264.059 194.56 262.236 196.409 259.526 196.409ZM259.387 188.393H257.741V195.257H259.438C261.476 195.257 262.768 193.94 262.768 191.838C262.768 189.71 261.476 188.393 259.387 188.393Z" fill="#021430"/>
<circle cx="250.873" cy="143.744" r="1.5828" transform="rotate(-90 250.873 143.744)" fill="#021430"/>
<circle cx="257.205" cy="143.744" r="1.5828" transform="rotate(-90 257.205 143.744)" fill="#021430"/>
<circle cx="263.536" cy="143.744" r="1.5828" transform="rotate(-90 263.536 143.744)" fill="#021430"/>
</g>
<path d="M34.6993 229.723V236.725H38.2227V237.734H33.6135V229.723H34.6993ZM38.7622 235.019C38.7622 233.346 39.9588 232.172 41.5875 232.172C43.2051 232.172 44.4017 233.346 44.4017 235.019C44.4017 236.692 43.2051 237.867 41.5875 237.867C39.9588 237.867 38.7622 236.692 38.7622 235.019ZM39.8147 235.019C39.8147 236.149 40.5349 236.936 41.5875 236.936C42.629 236.936 43.3602 236.149 43.3602 235.019C43.3602 233.889 42.629 233.102 41.5875 233.102C40.5349 233.102 39.8147 233.889 39.8147 235.019ZM45.2 235.03C45.2 233.335 46.2747 232.161 47.8591 232.161C49.2219 232.161 50.1748 232.936 50.3631 234.144H49.3216C49.1444 233.457 48.5904 233.091 47.8924 233.091C46.9063 233.091 46.2304 233.845 46.2304 235.019C46.2304 236.182 46.862 236.936 47.848 236.936C48.5904 236.936 49.1444 236.548 49.3327 235.905H50.3742C50.1637 237.08 49.1554 237.867 47.848 237.867C46.2526 237.867 45.2 236.736 45.2 235.03ZM53.0574 237.867C51.8941 237.867 51.2071 237.213 51.2071 236.227C51.2071 235.23 51.9495 234.609 53.2236 234.509L54.9299 234.376V234.221C54.9299 233.313 54.387 232.991 53.6557 232.991C52.7804 232.991 52.2819 233.379 52.2819 234.033H51.3733C51.3733 232.903 52.304 232.161 53.7001 232.161C55.0407 232.161 55.9492 232.87 55.9492 234.332V237.734H55.0628L54.952 236.858C54.6751 237.479 53.9327 237.867 53.0574 237.867ZM53.3566 237.058C54.3427 237.058 54.941 236.415 54.941 235.396V235.108L53.556 235.218C52.6364 235.307 52.2597 235.662 52.2597 236.193C52.2597 236.77 52.6807 237.058 53.3566 237.058ZM58.4552 237.734H57.4137V229.579H58.4552V237.734ZM65.1895 237.867C63.6162 237.867 62.6634 236.692 62.6634 235.041C62.6634 233.379 63.6273 232.161 65.2338 232.161C66.0648 232.161 66.7628 232.526 67.1284 233.191V229.579H68.1588V237.734H67.2281L67.1395 236.747C66.785 237.49 66.0537 237.867 65.1895 237.867ZM65.4 236.925C66.4636 236.925 67.1173 236.138 67.1173 235.008C67.1173 233.9 66.4636 233.102 65.4 233.102C64.3364 233.102 63.7159 233.9 63.7159 235.008C63.7159 236.127 64.3364 236.925 65.4 236.925ZM70.171 231.03C69.7943 231.03 69.484 230.72 69.484 230.343C69.484 229.956 69.7943 229.657 70.171 229.657C70.5477 229.657 70.8579 229.956 70.8579 230.343C70.8579 230.72 70.5477 231.03 70.171 231.03ZM69.6613 237.734V232.316H70.7028V237.734H69.6613ZM71.7716 236.16H72.7688C72.7688 236.714 73.1898 237.047 73.8768 237.047C74.608 237.047 75.029 236.747 75.029 236.249C75.029 235.883 74.8518 235.662 74.2867 235.518L73.3339 235.296C72.3699 235.063 71.9157 234.587 71.9157 233.789C71.9157 232.792 72.7577 232.161 73.9543 232.161C75.1398 232.161 75.9154 232.825 75.9376 233.856H74.9404C74.9182 233.313 74.5526 232.969 73.9211 232.969C73.2674 232.969 72.9018 233.257 72.9018 233.756C72.9018 234.122 73.1677 234.365 73.6995 234.498L74.6523 234.731C75.5719 234.953 76.0262 235.374 76.0262 236.182C76.0262 237.213 75.1398 237.867 73.8546 237.867C72.5804 237.867 71.7716 237.191 71.7716 236.16ZM76.8266 235.03C76.8266 233.335 77.9013 232.161 79.4857 232.161C80.8485 232.161 81.8013 232.936 81.9897 234.144H80.9482C80.7709 233.457 80.217 233.091 79.5189 233.091C78.5329 233.091 77.857 233.845 77.857 235.019C77.857 236.182 78.4885 236.936 79.4746 236.936C80.217 236.936 80.7709 236.548 80.9593 235.905H82.0008C81.7903 237.08 80.782 237.867 79.4746 237.867C77.8792 237.867 76.8266 236.736 76.8266 235.03ZM82.7451 235.019C82.7451 233.346 83.9417 232.172 85.5704 232.172C87.188 232.172 88.3846 233.346 88.3846 235.019C88.3846 236.692 87.188 237.867 85.5704 237.867C83.9417 237.867 82.7451 236.692 82.7451 235.019ZM83.7977 235.019C83.7977 236.149 84.5178 236.936 85.5704 236.936C86.6119 236.936 87.3431 236.149 87.3431 235.019C87.3431 233.889 86.6119 233.102 85.5704 233.102C84.5178 233.102 83.7977 233.889 83.7977 235.019ZM90.8065 237.734L88.6239 232.316H89.7318L90.9173 235.34C91.1057 235.85 91.2608 236.304 91.3494 236.637C91.4381 236.282 91.6153 235.817 91.8037 235.34L93.0114 232.316H94.0972L91.8369 237.734H90.8065ZM97.0147 237.867C95.4193 237.867 94.3224 236.714 94.3224 235.03C94.3224 233.335 95.3971 232.161 96.9704 232.161C98.5105 232.161 99.5187 233.224 99.5187 234.831V235.218L95.3306 235.23C95.4082 236.371 96.0065 237.002 97.0369 237.002C97.8457 237.002 98.3775 236.67 98.5548 236.049H99.5298C99.2639 237.213 98.3554 237.867 97.0147 237.867ZM96.9704 233.036C96.0619 233.036 95.4858 233.579 95.3528 234.532H98.4772C98.4772 233.634 97.89 233.036 96.9704 233.036ZM103.784 232.271V233.224H103.319C102.333 233.224 101.723 233.822 101.723 234.864V237.734H100.682V232.327H101.657L101.723 233.147C101.945 232.582 102.488 232.205 103.23 232.205C103.419 232.205 103.574 232.227 103.784 232.271ZM105.271 231.03C104.894 231.03 104.584 230.72 104.584 230.343C104.584 229.956 104.894 229.657 105.271 229.657C105.647 229.657 105.958 229.956 105.958 230.343C105.958 230.72 105.647 231.03 105.271 231.03ZM104.761 237.734V232.316H105.803V237.734H104.761ZM109.652 237.867C108.057 237.867 106.96 236.714 106.96 235.03C106.96 233.335 108.035 232.161 109.608 232.161C111.148 232.161 112.156 233.224 112.156 234.831V235.218L107.968 235.23C108.046 236.371 108.644 237.002 109.675 237.002C110.483 237.002 111.015 236.67 111.192 236.049H112.167C111.902 237.213 110.993 237.867 109.652 237.867ZM109.608 233.036C108.7 233.036 108.123 233.579 107.99 234.532H111.115C111.115 233.634 110.528 233.036 109.608 233.036ZM112.876 236.16H113.874C113.874 236.714 114.295 237.047 114.982 237.047C115.713 237.047 116.134 236.747 116.134 236.249C116.134 235.883 115.957 235.662 115.392 235.518L114.439 235.296C113.475 235.063 113.02 234.587 113.02 233.789C113.02 232.792 113.863 232.161 115.059 232.161C116.245 232.161 117.02 232.825 117.042 233.856H116.045C116.023 233.313 115.657 232.969 115.026 232.969C114.372 232.969 114.007 233.257 114.007 233.756C114.007 234.122 114.272 234.365 114.804 234.498L115.757 234.731C116.677 234.953 117.131 235.374 117.131 236.182C117.131 237.213 116.245 237.867 114.959 237.867C113.685 237.867 112.876 237.191 112.876 236.16Z" fill="#014DFE"/>
<defs>
<filter id="filter0_d_804_20587" x="23.0295" y="40.7785" width="249.132" height="85.3919" filterUnits="userSpaceOnUse" color-interpolation-filters="sRGB">
<feFlood flood-opacity="0" result="BackgroundImageFix"/>
<feColorMatrix in="SourceAlpha" type="matrix" values="0 0 0 0 0 0 0 0 0 0 0 0 0 0 0 0 0 0 127 0" result="hardAlpha"/>
<feOffset dy="1.5828"/>
<feGaussianBlur stdDeviation="0.751829"/>
<feComposite in2="hardAlpha" operator="out"/>
<feColorMatrix type="matrix" values="0 0 0 0 0 0 0 0 0 0 0 0 0 0 0 0 0 0 0.1 0"/>
<feBlend mode="normal" in2="BackgroundImageFix" result="effect1_dropShadow_804_20587"/>
<feBlend mode="normal" in="SourceGraphic" in2="effect1_dropShadow_804_20587" result="shape"/>
</filter>
<filter id="filter1_d_804_20587" x="23.0295" y="135.746" width="249.132" height="74.08" filterUnits="userSpaceOnUse" color-interpolation-filters="sRGB">
<feFlood flood-opacity="0" result="BackgroundImageFix"/>
<feColorMatrix in="SourceAlpha" type="matrix" values="0 0 0 0 0 0 0 0 0 0 0 0 0 0 0 0 0 0 127 0" result="hardAlpha"/>
<feOffset dy="1.5828"/>
<feGaussianBlur stdDeviation="0.751829"/>
<feComposite in2="hardAlpha" operator="out"/>
<feColorMatrix type="matrix" values="0 0 0 0 0 0 0 0 0 0 0 0 0 0 0 0 0 0 0.1 0"/>
<feBlend mode="normal" in2="BackgroundImageFix" result="effect1_dropShadow_804_20587"/>
<feBlend mode="normal" in="SourceGraphic" in2="effect1_dropShadow_804_20587" result="shape"/>
</filter>
<clipPath id="clip0_804_20587">
<rect width="18.9936" height="18.9936" fill="white" transform="translate(37.1956 60.2689)"/>
</clipPath>
</defs>
</svg>
