<svg width="212" height="360" viewBox="0 0 212 360" fill="none" xmlns="http://www.w3.org/2000/svg">
<g clip-path="url(#clip0_804_20112)">
<rect x="0.158691" width="211.635" height="458" rx="10.8531" fill="#F7FBFE"/>
<g opacity="0.8" clip-path="url(#clip1_804_20112)">
<g filter="url(#filter0_f_804_20112)">
<circle cx="37.8731" cy="245.008" r="68.1031" fill="#A282FF"/>
</g>
<g filter="url(#filter1_f_804_20112)">
<circle cx="155.629" cy="164.695" r="68.1031" fill="#54BCF7"/>
</g>
<g filter="url(#filter2_b_804_20112)">
<rect x="0.158691" width="211.635" height="458" fill="white" fill-opacity="0.4"/>
</g>
</g>
<g clip-path="url(#clip2_804_20112)">
<g filter="url(#filter3_b_804_20112)">
<rect x="0.158691" width="211.635" height="458" fill="#F7FBFE"/>
</g>
<g opacity="0.6" filter="url(#filter4_f_804_20112)">
<circle cx="155.629" cy="164.696" r="68.1031" fill="#54BCF7"/>
</g>
<g filter="url(#filter5_b_804_20112)">
<rect x="0.158691" width="211.635" height="458" fill="white" fill-opacity="0.4"/>
</g>
<rect width="211.635" height="59.1493" transform="translate(0.158691)" fill="url(#paint0_linear_804_20112)"/>
<rect x="0.158691" y="0.542664" width="211.635" height="72.7156" fill="url(#paint1_linear_804_20112)"/>
<path d="M59.3081 0H152.645C150.846 0 149.389 1.45773 149.389 3.25592V3.64299C149.389 4.99693 149.389 5.6739 149.335 6.24436C148.786 12.1139 144.138 16.7619 138.268 17.3115C137.698 17.3649 137.021 17.3649 135.667 17.3649H76.286C74.932 17.3649 74.2551 17.3649 73.6846 17.3115C67.8151 16.7619 63.1671 12.1139 62.6174 6.24436C62.564 5.6739 62.564 4.99693 62.564 3.64299V3.25592C62.564 1.45773 61.1063 0 59.3081 0Z" fill="white"/>
<path d="M23.2191 10.8696C24.5248 10.8696 25.661 11.7981 25.661 14.0026V14.0111C25.661 16.0715 24.7326 17.2925 23.1936 17.2925C22.0702 17.2925 21.2307 16.6269 21.0357 15.6899L21.0273 15.6433H22.1041L22.1168 15.6857C22.2779 16.1139 22.6552 16.3937 23.1936 16.3937C24.1645 16.3937 24.5757 15.444 24.6223 14.2739C24.6223 14.2273 24.6266 14.1807 24.6266 14.134H24.5418C24.3171 14.6173 23.7829 15.0455 22.9435 15.0455C21.7692 15.0455 20.9467 14.1892 20.9467 13.0275V13.0191C20.9467 11.7769 21.8921 10.8696 23.2191 10.8696ZM23.2148 14.2061C23.9059 14.2061 24.4358 13.7058 24.4358 13.0148V13.0063C24.4358 12.3068 23.9059 11.7599 23.2275 11.7599C22.5535 11.7599 22.0151 12.2983 22.0151 12.9809V12.9894C22.0151 13.6974 22.5196 14.2061 23.2148 14.2061ZM27.4121 13.1759C27.0263 13.1759 26.738 12.8791 26.738 12.5061C26.738 12.1288 27.0263 11.8362 27.4121 11.8362C27.8021 11.8362 28.0862 12.1288 28.0862 12.5061C28.0862 12.8791 27.8021 13.1759 27.4121 13.1759ZM27.4121 16.3216C27.0263 16.3216 26.738 16.0291 26.738 15.6518C26.738 15.2745 27.0263 14.9819 27.4121 14.9819C27.8021 14.9819 28.0862 15.2745 28.0862 15.6518C28.0862 16.0291 27.8021 16.3216 27.4121 16.3216ZM32.1308 17.1398V15.9655H29.1377V15.071C29.9305 13.6931 30.7996 12.2856 31.6305 11.0223H33.178V15.0625H34.0004V15.9655H33.178V17.1398H32.1308ZM30.1552 15.0879H32.1478V11.8956H32.0842C31.4567 12.8537 30.7487 13.9857 30.1552 15.0243V15.0879ZM36.362 17.1398V12.0991H36.2899L34.7679 13.1759V12.1457L36.3662 11.0223H37.4558V17.1398H36.362Z" fill="black"/>
<path opacity="0.35" d="M182.762 12.481C182.762 11.4321 183.612 10.5818 184.661 10.5818H193.886C194.935 10.5818 195.786 11.4321 195.786 12.481V15.1943C195.786 16.2433 194.935 17.0936 193.886 17.0936H184.661C183.612 17.0936 182.762 16.2433 182.762 15.1943V12.481Z" stroke="black" stroke-width="0.542654"/>
<path opacity="0.4" d="M196.599 13.0237V15.3139C197.06 15.1199 197.36 14.6687 197.36 14.1688C197.36 13.6689 197.06 13.2176 196.599 13.0237Z" fill="black"/>
<path d="M183.576 12.4811C183.576 11.8817 184.062 11.3958 184.661 11.3958H193.886C194.486 11.3958 194.971 11.8817 194.971 12.4811V15.1943C194.971 15.7937 194.486 16.2796 193.886 16.2796H184.661C184.062 16.2796 183.576 15.7937 183.576 15.1943V12.4811Z" fill="black"/>
<path fill-rule="evenodd" clip-rule="evenodd" d="M174.08 12.2572C175.418 12.2573 176.705 12.7823 177.675 13.7236C177.749 13.7963 177.865 13.7954 177.937 13.7216L178.635 13.0022C178.672 12.9648 178.692 12.9141 178.692 12.8613C178.692 12.8086 178.671 12.7581 178.634 12.7211C176.088 10.2304 172.071 10.2304 169.525 12.7211C169.488 12.7581 169.467 12.8085 169.467 12.8613C169.466 12.914 169.487 12.9648 169.523 13.0022L170.222 13.7216C170.294 13.7955 170.41 13.7964 170.483 13.7236C171.454 12.7822 172.741 12.2572 174.08 12.2572ZM174.099 14.4288C174.834 14.4288 175.543 14.7078 176.089 15.2117C176.162 15.2832 176.278 15.2816 176.35 15.2082L177.048 14.4888C177.084 14.4511 177.105 14.3999 177.104 14.3467C177.104 14.2936 177.082 14.2428 177.045 14.2058C175.385 12.6296 172.814 12.6296 171.154 14.2058C171.117 14.2428 171.095 14.2936 171.095 14.3468C171.094 14.4 171.115 14.4512 171.151 14.4888L171.849 15.2082C171.921 15.2816 172.037 15.2832 172.111 15.2117C172.655 14.7081 173.364 14.4291 174.099 14.4288ZM175.517 15.8329C175.518 15.8862 175.498 15.9376 175.46 15.975L174.254 17.2178C174.218 17.2543 174.17 17.2749 174.12 17.2749C174.07 17.2749 174.021 17.2543 173.986 17.2178L172.779 15.975C172.742 15.9376 172.722 15.8862 172.723 15.8328C172.724 15.7795 172.746 15.729 172.785 15.6932C173.556 15.028 174.684 15.028 175.455 15.6932C175.493 15.729 175.516 15.7795 175.517 15.8329Z" fill="black"/>
<path d="M160.784 12.4811C160.784 12.1814 161.027 11.9384 161.327 11.9384H161.87C162.169 11.9384 162.412 12.1814 162.412 12.4811V16.8223C162.412 17.122 162.169 17.3649 161.87 17.3649H161.327C161.027 17.3649 160.784 17.122 160.784 16.8223V12.4811Z" fill="black"/>
<path d="M163.497 11.3957C163.497 11.096 163.74 10.8531 164.04 10.8531H164.583C164.882 10.8531 165.125 11.096 165.125 11.3957V16.8223C165.125 17.122 164.882 17.3649 164.583 17.3649H164.04C163.74 17.3649 163.497 17.122 163.497 16.8223V11.3957Z" fill="black"/>
<path d="M158.071 14.3803C158.071 14.0806 158.314 13.8377 158.614 13.8377H159.156C159.456 13.8377 159.699 14.0806 159.699 14.3803V16.8223C159.699 17.122 159.456 17.3649 159.156 17.3649H158.614C158.314 17.3649 158.071 17.122 158.071 16.8223V14.3803Z" fill="black"/>
<path d="M155.358 15.737C155.358 15.4373 155.601 15.1943 155.9 15.1943H156.443C156.743 15.1943 156.986 15.4373 156.986 15.737V16.8223C156.986 17.122 156.743 17.3649 156.443 17.3649H155.9C155.601 17.3649 155.358 17.122 155.358 16.8223V15.737Z" fill="black"/>
<path d="M24.0897 42.8697H21.4524L20.5733 44.3348H18.8151L17.936 42.8697H15.2987M16.2755 47.7536H23.1129C23.9221 47.7536 24.5781 47.0976 24.5781 46.2884V39.4509C24.5781 38.6418 23.9221 37.9858 23.1129 37.9858H16.2755C15.4663 37.9858 14.8103 38.6418 14.8103 39.4509V46.2884C14.8103 47.0976 15.4663 47.7536 16.2755 47.7536Z" stroke="#021430" stroke-width="1.08531" stroke-linecap="round" stroke-linejoin="round"/>
<g clip-path="url(#clip3_804_20112)">
<path d="M193.197 47.7535C193.102 47.918 192.965 48.0545 192.8 48.1494C192.635 48.2443 192.448 48.2943 192.258 48.2943C192.068 48.2943 191.881 48.2443 191.716 48.1494C191.552 48.0545 191.415 47.918 191.319 47.7535M195.514 40.699C195.514 39.8355 195.171 39.0074 194.56 38.3968C193.95 37.7861 193.122 37.4431 192.258 37.4431C191.395 37.4431 190.566 37.7861 189.956 38.3968C189.345 39.0074 189.002 39.8355 189.002 40.699C189.002 44.4976 187.374 45.5829 187.374 45.5829H197.142C197.142 45.5829 195.514 44.4976 195.514 40.699Z" stroke="#021430" stroke-width="1.08531" stroke-linecap="round" stroke-linejoin="round"/>
</g>
</g>
<path d="M16 76.5279C14.5674 76.5279 13.6644 77.5871 13.6644 79.176C13.6644 80.791 14.6195 81.7721 16.0174 81.7721C17.0593 81.7721 18.0751 81.2685 18.0751 79.7751V79.4539H15.8264V78.8982H18.6655V82.267H18.1706L18.1098 81.2772C17.7799 81.8936 16.9985 82.3625 15.9913 82.3625C14.2288 82.3625 13.0132 81.0949 13.0132 79.176C13.0132 77.2746 14.2288 75.9375 16.0087 75.9375C17.3197 75.9375 18.3356 76.6842 18.5787 77.8129H17.9015C17.641 76.962 16.9117 76.5279 16 76.5279ZM21.9735 78.0039V78.5422H21.6436C20.8709 78.5422 20.376 79.0632 20.376 79.8619V82.2583H19.7769V78.056H20.3412L20.3847 78.7072C20.5496 78.2557 20.9924 77.9605 21.5828 77.9605C21.7131 77.9605 21.8259 77.9692 21.9735 78.0039ZM24.3714 82.3625C23.1385 82.3625 22.3137 81.4769 22.3137 80.1571C22.3137 78.8461 23.1298 77.9431 24.328 77.9431C25.4654 77.9431 26.2381 78.7506 26.2381 79.9401V80.2353H22.8954C22.9388 81.2598 23.4771 81.8502 24.3801 81.8502C25.066 81.8502 25.5088 81.555 25.6651 80.9993H26.2381C26.0124 81.885 25.3612 82.3625 24.3714 82.3625ZM24.328 78.4554C23.5379 78.4554 23.0169 78.9763 22.9127 79.8012H25.639C25.639 78.9937 25.1181 78.4554 24.328 78.4554ZM28.3604 82.3625C27.4662 82.3625 26.9365 81.8589 26.9365 81.1209C26.9365 80.3482 27.5269 79.8619 28.508 79.7838L29.8972 79.6709V79.532C29.8972 78.7072 29.4023 78.4467 28.7859 78.4467C28.0566 78.4467 27.6224 78.7766 27.6224 79.341H27.0754C27.0754 78.4901 27.77 77.9431 28.8033 77.9431C29.7757 77.9431 30.4876 78.4293 30.4876 79.5407V82.2583H29.9841L29.9059 81.5203C29.6454 82.0499 29.0724 82.3625 28.3604 82.3625ZM28.4994 81.8763C29.385 81.8763 29.8972 81.2598 29.8972 80.3482V80.1224L28.6556 80.2179C27.8655 80.2874 27.5443 80.6347 27.5443 81.1035C27.5443 81.6158 27.9263 81.8763 28.4994 81.8763ZM32.5773 82.2583H31.9869V78.5596H31.1447V78.056H31.9869V76.7276H32.5773V78.056H33.4195V78.5596H32.5773V82.2583ZM37.2067 82.2583H36.6076V78.056H37.1286L37.2154 78.7853C37.4932 78.247 38.0489 77.9431 38.6567 77.9431C39.8115 77.9431 40.289 78.629 40.289 79.6883V82.2583H39.6899V79.8185C39.6899 78.8374 39.2471 78.4901 38.5525 78.4901C37.6929 78.4901 37.2067 79.1152 37.2067 80.0616V82.2583ZM43.2456 82.3625C42.0127 82.3625 41.1878 81.4769 41.1878 80.1571C41.1878 78.8461 42.004 77.9431 43.2022 77.9431C44.3396 77.9431 45.1123 78.7506 45.1123 79.9401V80.2353H41.7696C41.813 81.2598 42.3513 81.8502 43.2543 81.8502C43.9402 81.8502 44.383 81.555 44.5393 80.9993H45.1123C44.8866 81.885 44.2354 82.3625 43.2456 82.3625ZM43.2022 78.4554C42.4121 78.4554 41.8911 78.9763 41.7869 79.8012H44.5132C44.5132 78.9937 43.9923 78.4554 43.2022 78.4554ZM46.8455 82.2583L45.4564 78.056H46.0728L46.8976 80.5913C46.9931 80.8691 47.0713 81.1556 47.1581 81.4942C47.2276 81.1556 47.3665 80.7302 47.4099 80.5913L48.2434 78.056H48.8599L49.6847 80.5913C49.7629 80.817 49.867 81.1817 49.9452 81.4942C50.032 81.1469 50.0494 81.0428 50.197 80.5913L51.0305 78.056H51.6556L50.2317 82.2583H49.65L48.7817 79.6188C48.6775 79.3063 48.6081 79.0458 48.556 78.794C48.4952 79.0197 48.4258 79.2715 48.3129 79.6188L47.4446 82.2583H46.8455ZM52.0225 81.0775H52.5956C52.5956 81.5637 52.9602 81.8676 53.5506 81.8676C54.2018 81.8676 54.5839 81.5898 54.5839 81.1383C54.5839 80.791 54.4102 80.5913 53.9153 80.4697L53.1947 80.2874C52.4653 80.105 52.1094 79.723 52.1094 79.15C52.1094 78.412 52.7258 77.9431 53.6288 77.9431C54.5144 77.9431 55.0874 78.4293 55.1135 79.2108H54.5318C54.5144 78.7245 54.1758 78.438 53.6114 78.438C53.021 78.438 52.6911 78.6898 52.6911 79.1413C52.6911 79.4625 52.9168 79.6883 53.377 79.8012L54.0976 79.9835C54.827 80.1658 55.1569 80.5044 55.1569 81.1122C55.1569 81.8676 54.5144 82.3625 53.5593 82.3625C52.6129 82.3625 52.0225 81.8589 52.0225 81.0775ZM56.9072 80.3916H56.4731C56.4037 79.7751 56.3689 78.629 56.3689 77.509V76.0417H57.0201V77.509C57.0201 78.6377 56.9767 79.7751 56.9072 80.3916ZM56.6989 82.3799C56.395 82.3799 56.1519 82.1281 56.1519 81.8329C56.1519 81.5377 56.395 81.2945 56.6989 81.2945C56.9854 81.2945 57.2372 81.5377 57.2372 81.8329C57.2372 82.1281 56.9854 82.3799 56.6989 82.3799ZM61.6637 76.0417V82.2583H61.0386V76.0417H61.6637ZM64.0175 76.5973C64.0175 77.1443 63.6181 77.6045 63.0798 77.6826V77.3614C63.3837 77.3006 63.6094 77.0836 63.6094 76.8404C63.5573 76.8752 63.4792 76.8925 63.375 76.8925C63.1492 76.8925 62.9496 76.7276 62.9496 76.4324C62.9496 76.1372 63.1579 75.9201 63.4618 75.9201C63.757 75.9201 64.0175 76.1719 64.0175 76.5973ZM66.3454 82.2583L64.6263 78.056H65.2688L66.3541 80.7649C66.467 81.0688 66.5798 81.3553 66.658 81.6332C66.7361 81.3466 66.849 81.0688 66.9705 80.7649L68.0732 78.056H68.6897L66.9445 82.2583H66.3454ZM70.9718 82.3625C69.7389 82.3625 68.9141 81.4769 68.9141 80.1571C68.9141 78.8461 69.7302 77.9431 70.9284 77.9431C72.0658 77.9431 72.8385 78.7506 72.8385 79.9401V80.2353H69.4958C69.5392 81.2598 70.0775 81.8502 70.9805 81.8502C71.6664 81.8502 72.1092 81.555 72.2655 80.9993H72.8385C72.6128 81.885 71.9616 82.3625 70.9718 82.3625ZM70.9284 78.4554C70.1383 78.4554 69.6173 78.9763 69.5132 79.8012H72.2394C72.2394 78.9937 71.7185 78.4554 70.9284 78.4554ZM75.7356 78.056H76.3781V77.2398C76.3781 76.2934 76.899 75.9288 77.5415 75.9288C77.6891 75.9288 77.8628 75.9375 78.0017 75.9635V76.4758H77.6457C77.1161 76.4758 76.9772 76.7449 76.9772 77.2398V78.056H77.967V78.5596H76.9772V82.2583H76.3781V78.5596H75.7356V78.056ZM78.3596 80.1571C78.3596 78.8721 79.2626 77.9431 80.4955 77.9431C81.7284 77.9431 82.6314 78.8721 82.6314 80.1571C82.6314 81.4335 81.7284 82.3625 80.4955 82.3625C79.2626 82.3625 78.3596 81.4335 78.3596 80.1571ZM78.9674 80.1485C78.9674 81.1383 79.5925 81.8242 80.4955 81.8242C81.3898 81.8242 82.0236 81.1383 82.0236 80.1485C82.0236 79.176 81.3898 78.4814 80.4955 78.4814C79.5925 78.4814 78.9674 79.176 78.9674 80.1485ZM86.4399 78.056H87.039V82.2583H86.518L86.4399 81.5463C86.2055 82.0326 85.6237 82.3625 84.9639 82.3625C83.9741 82.3625 83.4358 81.6853 83.4358 80.6607V78.0473H84.0435V80.4697C84.0435 81.4682 84.4863 81.8242 85.1549 81.8242C85.9624 81.8242 86.4399 81.2859 86.4399 80.2874V78.056ZM88.886 82.2583H88.2869V78.056H88.8079L88.8947 78.7853C89.1726 78.247 89.7282 77.9431 90.336 77.9431C91.4908 77.9431 91.9683 78.629 91.9683 79.6883V82.2583H91.3692V79.8185C91.3692 78.8374 90.9264 78.4901 90.2318 78.4901C89.3723 78.4901 88.886 79.1152 88.886 80.0616V82.2583ZM94.812 82.3625C93.5878 82.3625 92.8671 81.4248 92.8671 80.1658C92.8671 78.8982 93.5878 77.9431 94.8381 77.9431C95.5327 77.9431 96.0883 78.247 96.3835 78.8548V75.9288H96.9826V82.2583H96.4617L96.4009 81.3987C96.1057 82.0499 95.5153 82.3625 94.812 82.3625ZM94.9162 81.8155C95.8366 81.8155 96.3749 81.1209 96.3749 80.1485C96.3749 79.1847 95.8366 78.4814 94.9162 78.4814C94.0046 78.4814 93.4749 79.1847 93.4749 80.1485C93.4749 81.1209 94.0046 81.8155 94.9162 81.8155ZM101.848 82.3625C100.953 82.3625 100.424 81.8589 100.424 81.1209C100.424 80.3482 101.014 79.8619 101.995 79.7838L103.384 79.6709V79.532C103.384 78.7072 102.89 78.4467 102.273 78.4467C101.544 78.4467 101.11 78.7766 101.11 79.341H100.563C100.563 78.4901 101.257 77.9431 102.29 77.9431C103.263 77.9431 103.975 78.4293 103.975 79.5407V82.2583H103.471L103.393 81.5203C103.133 82.0499 102.56 82.3625 101.848 82.3625ZM101.987 81.8763C102.872 81.8763 103.384 81.2598 103.384 80.3482V80.1224L102.143 80.2179C101.353 80.2874 101.032 80.6347 101.032 81.1035C101.032 81.6158 101.414 81.8763 101.987 81.8763ZM107.116 78.056H107.759V77.2398C107.759 76.2934 108.28 75.9288 108.922 75.9288C109.07 75.9288 109.243 75.9375 109.382 75.9635V76.4758H109.026C108.497 76.4758 108.358 76.7449 108.358 77.2398V78.056H109.348V78.5596H108.358V82.2583H107.759V78.5596H107.116V78.056ZM111.798 82.3625C110.565 82.3625 109.74 81.4769 109.74 80.1571C109.74 78.8461 110.556 77.9431 111.755 77.9431C112.892 77.9431 113.665 78.7506 113.665 79.9401V80.2353H110.322C110.365 81.2598 110.904 81.8502 111.807 81.8502C112.493 81.8502 112.935 81.555 113.092 80.9993H113.665C113.439 81.885 112.788 82.3625 111.798 82.3625ZM111.755 78.4554C110.965 78.4554 110.444 78.9763 110.339 79.8012H113.066C113.066 78.9937 112.545 78.4554 111.755 78.4554ZM115.398 82.2583L114.009 78.056H114.625L115.45 80.5913C115.546 80.8691 115.624 81.1556 115.711 81.4942C115.78 81.1556 115.919 80.7302 115.962 80.5913L116.796 78.056H117.412L118.237 80.5913C118.315 80.817 118.42 81.1817 118.498 81.4942C118.584 81.1469 118.602 81.0428 118.749 80.5913L119.583 78.056H120.208L118.784 82.2583H118.202L117.334 79.6188C117.23 79.3063 117.161 79.0458 117.108 78.794C117.048 79.0197 116.978 79.2715 116.865 79.6188L115.997 82.2583H115.398ZM123.885 82.2583H123.364V75.9288H123.964V78.8721C124.259 78.2557 124.832 77.9431 125.544 77.9431C126.768 77.9431 127.48 78.8982 127.48 80.1658C127.48 81.4248 126.751 82.3625 125.526 82.3625C124.823 82.3625 124.241 82.0499 123.946 81.3987L123.885 82.2583ZM123.972 80.1485C123.972 81.1209 124.511 81.8155 125.431 81.8155C126.343 81.8155 126.872 81.1209 126.872 80.1485C126.872 79.1847 126.343 78.4814 125.431 78.4814C124.511 78.4814 123.972 79.1847 123.972 80.1485ZM131.285 78.056H131.884V82.2583H131.363L131.285 81.5463C131.051 82.0326 130.469 82.3625 129.809 82.3625C128.819 82.3625 128.281 81.6853 128.281 80.6607V78.0473H128.889V80.4697C128.889 81.4682 129.332 81.8242 130 81.8242C130.808 81.8242 131.285 81.2859 131.285 80.2874V78.056ZM134.697 82.3625C133.473 82.3625 132.752 81.4248 132.752 80.1658C132.752 78.8982 133.473 77.9431 134.723 77.9431C135.418 77.9431 135.973 78.247 136.269 78.8548V75.9288H136.868V82.2583H136.347L136.286 81.3987C135.991 82.0499 135.4 82.3625 134.697 82.3625ZM134.801 81.8155C135.722 81.8155 136.26 81.1209 136.26 80.1485C136.26 79.1847 135.722 78.4814 134.801 78.4814C133.89 78.4814 133.36 79.1847 133.36 80.1485C133.36 81.1209 133.89 81.8155 134.801 81.8155ZM137.831 80.0356C137.831 78.8895 138.569 77.9431 139.802 77.9431C140.532 77.9431 141.087 78.2817 141.356 78.8982L141.417 78.056H141.938V82.1281C141.938 83.3783 141.139 84.1945 139.906 84.1945C138.83 84.1945 138.074 83.5867 137.909 82.5709H138.509C138.639 83.2481 139.16 83.6475 139.915 83.6475C140.775 83.6475 141.348 83.0658 141.348 82.1888V81.1904C141.061 81.7808 140.479 82.1281 139.759 82.1281C138.561 82.1281 137.831 81.1817 137.831 80.0356ZM138.43 80.0269C138.43 80.8865 138.96 81.5898 139.846 81.5898C140.757 81.5898 141.296 80.9299 141.296 80.0269C141.296 79.1326 140.775 78.4727 139.854 78.4727C138.951 78.4727 138.43 79.176 138.43 80.0269ZM144.951 82.3625C143.718 82.3625 142.893 81.4769 142.893 80.1571C142.893 78.8461 143.709 77.9431 144.907 77.9431C146.045 77.9431 146.818 78.7506 146.818 79.9401V80.2353H143.475C143.518 81.2598 144.057 81.8502 144.96 81.8502C145.645 81.8502 146.088 81.555 146.245 80.9993H146.818C146.592 81.885 145.941 82.3625 144.951 82.3625ZM144.907 78.4554C144.117 78.4554 143.596 78.9763 143.492 79.8012H146.218C146.218 78.9937 145.698 78.4554 144.907 78.4554ZM148.697 82.2583H148.106V78.5596H147.264V78.056H148.106V76.7276H148.697V78.056H149.539V78.5596H148.697V82.2583ZM150.08 80.244V79.7057H152.598V80.244H150.08ZM153.14 78.056H153.783V77.2398C153.783 76.2934 154.304 75.9288 154.946 75.9288C155.094 75.9288 155.267 75.9375 155.406 75.9635V76.4758H155.05C154.521 76.4758 154.382 76.7449 154.382 77.2398V78.056H155.371V78.5596H154.382V82.2583H153.783V78.5596H153.14V78.056ZM158.383 78.0039V78.5422H158.053C157.281 78.5422 156.786 79.0632 156.786 79.8619V82.2583H156.187V78.056H156.751L156.794 78.7072C156.959 78.2557 157.402 77.9605 157.992 77.9605C158.123 77.9605 158.236 77.9692 158.383 78.0039ZM159.475 76.9012C159.232 76.9012 159.032 76.7015 159.032 76.4584C159.032 76.2153 159.232 76.0069 159.475 76.0069C159.718 76.0069 159.926 76.2153 159.926 76.4584C159.926 76.7015 159.718 76.9012 159.475 76.9012ZM159.18 82.2583V78.056H159.779V82.2583H159.18ZM162.791 82.3625C161.558 82.3625 160.733 81.4769 160.733 80.1571C160.733 78.8461 161.549 77.9431 162.747 77.9431C163.885 77.9431 164.657 78.7506 164.657 79.9401V80.2353H161.315C161.358 81.2598 161.896 81.8502 162.799 81.8502C163.485 81.8502 163.928 81.555 164.084 80.9993H164.657C164.432 81.885 163.78 82.3625 162.791 82.3625ZM162.747 78.4554C161.957 78.4554 161.436 78.9763 161.332 79.8012H164.058C164.058 78.9937 163.537 78.4554 162.747 78.4554ZM166.214 82.2583H165.615V78.056H166.136L166.223 78.7853C166.501 78.247 167.056 77.9431 167.664 77.9431C168.819 77.9431 169.297 78.629 169.297 79.6883V82.2583H168.697V79.8185C168.697 78.8374 168.255 78.4901 167.56 78.4901C166.7 78.4901 166.214 79.1152 166.214 80.0616V82.2583ZM172.14 82.3625C170.916 82.3625 170.195 81.4248 170.195 80.1658C170.195 78.8982 170.916 77.9431 172.166 77.9431C172.861 77.9431 173.417 78.247 173.712 78.8548V75.9288H174.311V82.2583H173.79L173.729 81.3987C173.434 82.0499 172.844 82.3625 172.14 82.3625ZM172.244 81.8155C173.165 81.8155 173.703 81.1209 173.703 80.1485C173.703 79.1847 173.165 78.4814 172.244 78.4814C171.333 78.4814 170.803 79.1847 170.803 80.1485C170.803 81.1209 171.333 81.8155 172.244 81.8155ZM176.186 82.2583H175.587V75.9288H176.186V82.2583ZM177.035 84.0903V83.5954H177.495C177.86 83.5954 178.224 83.5694 178.433 83.005L178.615 82.5101L176.913 78.056H177.547L178.902 81.72L180.23 78.056H180.846L178.919 83.2221C178.676 83.8819 178.268 84.1511 177.669 84.1511C177.417 84.1511 177.226 84.1337 177.035 84.0903ZM12.9698 92.1571C12.9698 90.8721 13.8728 89.9431 15.1057 89.9431C16.3386 89.9431 17.2416 90.8721 17.2416 92.1571C17.2416 93.4335 16.3386 94.3625 15.1057 94.3625C13.8728 94.3625 12.9698 93.4335 12.9698 92.1571ZM13.5776 92.1485C13.5776 93.1383 14.2027 93.8242 15.1057 93.8242C16 93.8242 16.6338 93.1383 16.6338 92.1485C16.6338 91.176 16 90.4814 15.1057 90.4814C14.2027 90.4814 13.5776 91.176 13.5776 92.1485ZM18.1998 96.0903V90.056H18.7207L18.7815 90.9069C19.0767 90.2557 19.6671 89.9431 20.3704 89.9431C21.586 89.9431 22.3153 90.8721 22.3153 92.1398C22.3153 93.4074 21.612 94.3625 20.3704 94.3625C19.6584 94.3625 19.0941 94.0586 18.7989 93.4508V96.0903H18.1998ZM18.8076 92.1571C18.8076 93.1209 19.3459 93.8242 20.2662 93.8242C21.1779 93.8242 21.7075 93.1209 21.7075 92.1571C21.7075 91.1847 21.1779 90.4901 20.2662 90.4901C19.3459 90.4901 18.8076 91.1847 18.8076 92.1571ZM24.1916 94.2583H23.6012V90.5596H22.759V90.056H23.6012V88.7276H24.1916V90.056H25.0338V90.5596H24.1916V94.2583ZM26.1091 88.9012C25.866 88.9012 25.6663 88.7015 25.6663 88.4584C25.6663 88.2153 25.866 88.0069 26.1091 88.0069C26.3522 88.0069 26.5606 88.2153 26.5606 88.4584C26.5606 88.7015 26.3522 88.9012 26.1091 88.9012ZM25.8139 94.2583V90.056H26.413V94.2583H25.8139ZM27.3671 92.1571C27.3671 90.8721 28.2701 89.9431 29.503 89.9431C30.7359 89.9431 31.6389 90.8721 31.6389 92.1571C31.6389 93.4335 30.7359 94.3625 29.503 94.3625C28.2701 94.3625 27.3671 93.4335 27.3671 92.1571ZM27.9749 92.1485C27.9749 93.1383 28.6 93.8242 29.503 93.8242C30.3973 93.8242 31.0311 93.1383 31.0311 92.1485C31.0311 91.176 30.3973 90.4814 29.503 90.4814C28.6 90.4814 27.9749 91.176 27.9749 92.1485ZM33.1962 94.2583H32.5971V90.056H33.118L33.2049 90.7853C33.4827 90.247 34.0384 89.9431 34.6461 89.9431C35.8009 89.9431 36.2784 90.629 36.2784 91.6883V94.2583H35.6794V91.8185C35.6794 90.8374 35.2365 90.4901 34.542 90.4901C33.6824 90.4901 33.1962 91.1152 33.1962 92.0616V94.2583ZM37.0656 93.0775H37.6387C37.6387 93.5637 38.0033 93.8676 38.5937 93.8676C39.2449 93.8676 39.627 93.5898 39.627 93.1383C39.627 92.791 39.4533 92.5913 38.9584 92.4697L38.2378 92.2874C37.5084 92.105 37.1525 91.723 37.1525 91.15C37.1525 90.412 37.7689 89.9431 38.6719 89.9431C39.5575 89.9431 40.1305 90.4293 40.1566 91.2108H39.5749C39.5575 90.7245 39.2189 90.438 38.6545 90.438C38.0641 90.438 37.7342 90.6898 37.7342 91.1413C37.7342 91.4625 37.9599 91.6883 38.4201 91.8012L39.1407 91.9835C39.8701 92.1658 40.2 92.5044 40.2 93.1122C40.2 93.8676 39.5575 94.3625 38.6024 94.3625C37.656 94.3625 37.0656 93.8589 37.0656 93.0775ZM43.1255 90.056H43.768V89.2398C43.768 88.2934 44.2889 87.9288 44.9314 87.9288C45.079 87.9288 45.2527 87.9375 45.3916 87.9635V88.4758H45.0356C44.506 88.4758 44.367 88.7449 44.367 89.2398V90.056H45.3568V90.5596H44.367V94.2583H43.768V90.5596H43.1255V90.056ZM45.7495 92.1571C45.7495 90.8721 46.6525 89.9431 47.8854 89.9431C49.1183 89.9431 50.0213 90.8721 50.0213 92.1571C50.0213 93.4335 49.1183 94.3625 47.8854 94.3625C46.6525 94.3625 45.7495 93.4335 45.7495 92.1571ZM46.3573 92.1485C46.3573 93.1383 46.9824 93.8242 47.8854 93.8242C48.7797 93.8242 49.4135 93.1383 49.4135 92.1485C49.4135 91.176 48.7797 90.4814 47.8854 90.4814C46.9824 90.4814 46.3573 91.176 46.3573 92.1485ZM53.1761 90.0039V90.5422H52.8462C52.0735 90.5422 51.5786 91.0632 51.5786 91.8619V94.2583H50.9795V90.056H51.5438L51.5873 90.7072C51.7522 90.2557 52.195 89.9605 52.7854 89.9605C52.9157 89.9605 53.0285 89.9692 53.1761 90.0039ZM55.9551 96.0903V95.5954H56.4153C56.78 95.5954 57.1446 95.5694 57.353 95.005L57.5354 94.5101L55.8336 90.056H56.4674L57.8219 93.72L59.1503 90.056H59.7667L57.8392 95.2221C57.5961 95.8819 57.1881 96.1511 56.589 96.1511C56.3372 96.1511 56.1462 96.1337 55.9551 96.0903ZM60.0281 92.1571C60.0281 90.8721 60.9311 89.9431 62.164 89.9431C63.3969 89.9431 64.2999 90.8721 64.2999 92.1571C64.2999 93.4335 63.3969 94.3625 62.164 94.3625C60.9311 94.3625 60.0281 93.4335 60.0281 92.1571ZM60.6359 92.1485C60.6359 93.1383 61.261 93.8242 62.164 93.8242C63.0583 93.8242 63.6921 93.1383 63.6921 92.1485C63.6921 91.176 63.0583 90.4814 62.164 90.4814C61.261 90.4814 60.6359 91.176 60.6359 92.1485ZM68.1084 90.056H68.7075V94.2583H68.1865L68.1084 93.5463C67.8739 94.0326 67.2922 94.3625 66.6323 94.3625C65.6425 94.3625 65.1042 93.6853 65.1042 92.6607V90.0473H65.712V92.4697C65.712 93.4682 66.1548 93.8242 66.8234 93.8242C67.6308 93.8242 68.1084 93.2859 68.1084 92.2874V90.056ZM72.1521 90.0039V90.5422H71.8221C71.0494 90.5422 70.5545 91.0632 70.5545 91.8619V94.2583H69.9554V90.056H70.5198L70.5632 90.7072C70.7282 90.2557 71.171 89.9605 71.7614 89.9605C71.8916 89.9605 72.0045 89.9692 72.1521 90.0039ZM76.3203 94.2583H75.7299V90.5596H74.8877V90.056H75.7299V88.7276H76.3203V90.056H77.1625V90.5596H76.3203V94.2583ZM80.1393 90.0039V90.5422H79.8093C79.0366 90.5422 78.5417 91.0632 78.5417 91.8619V94.2583H77.9426V90.056H78.507L78.5504 90.7072C78.7153 90.2557 79.1581 89.9605 79.7486 89.9605C79.8788 89.9605 79.9917 89.9692 80.1393 90.0039ZM81.973 94.3625C81.0787 94.3625 80.549 93.8589 80.549 93.1209C80.549 92.3482 81.1395 91.8619 82.1206 91.7838L83.5098 91.6709V91.532C83.5098 90.7072 83.0149 90.4467 82.3984 90.4467C81.6691 90.4467 81.235 90.7766 81.235 91.341H80.688C80.688 90.4901 81.3826 89.9431 82.4158 89.9431C83.3882 89.9431 84.1002 90.4293 84.1002 91.5407V94.2583H83.5966L83.5184 93.5203C83.258 94.0499 82.6849 94.3625 81.973 94.3625ZM82.1119 93.8763C82.9975 93.8763 83.5098 93.2598 83.5098 92.3482V92.1224L82.2682 92.2179C81.4781 92.2874 81.1568 92.6347 81.1568 93.1035C81.1568 93.6158 81.5388 93.8763 82.1119 93.8763ZM86.3049 94.2583L84.5858 90.056H85.2283L86.3136 92.7649C86.4265 93.0688 86.5393 93.3553 86.6175 93.6332C86.6956 93.3466 86.8085 93.0688 86.93 92.7649L88.0327 90.056H88.6492L86.904 94.2583H86.3049ZM90.9313 94.3625C89.6984 94.3625 88.8736 93.4769 88.8736 92.1571C88.8736 90.8461 89.6897 89.9431 90.8879 89.9431C92.0253 89.9431 92.798 90.7506 92.798 91.9401V92.2353H89.4553C89.4987 93.2598 90.037 93.8502 90.94 93.8502C91.6259 93.8502 92.0687 93.555 92.225 92.9993H92.798C92.5723 93.885 91.9211 94.3625 90.9313 94.3625ZM90.8879 90.4554C90.0978 90.4554 89.5768 90.9763 89.4726 91.8012H92.1989C92.1989 90.9937 91.678 90.4554 90.8879 90.4554ZM94.381 94.2583H93.7819V87.9288H94.381V94.2583ZM99.7129 94.3625C98.4886 94.3625 97.768 93.4248 97.768 92.1658C97.768 90.8982 98.4886 89.9431 99.7389 89.9431C100.434 89.9431 100.989 90.247 101.284 90.8548V87.9288H101.883V94.2583H101.363L101.302 93.3987C101.007 94.0499 100.416 94.3625 99.7129 94.3625ZM99.8171 93.8155C100.737 93.8155 101.276 93.1209 101.276 92.1485C101.276 91.1847 100.737 90.4814 99.8171 90.4814C98.9054 90.4814 98.3758 91.1847 98.3758 92.1485C98.3758 93.1209 98.9054 93.8155 99.8171 93.8155ZM104.34 94.3625C103.446 94.3625 102.917 93.8589 102.917 93.1209C102.917 92.3482 103.507 91.8619 104.488 91.7838L105.877 91.6709V91.532C105.877 90.7072 105.382 90.4467 104.766 90.4467C104.037 90.4467 103.602 90.7766 103.602 91.341H103.055C103.055 90.4901 103.75 89.9431 104.783 89.9431C105.756 89.9431 106.468 90.4293 106.468 91.5407V94.2583H105.964L105.886 93.5203C105.625 94.0499 105.052 94.3625 104.34 94.3625ZM104.479 93.8763C105.365 93.8763 105.877 93.2598 105.877 92.3482V92.1224L104.636 92.2179C103.846 92.2874 103.524 92.6347 103.524 93.1035C103.524 93.6158 103.906 93.8763 104.479 93.8763ZM108.557 94.2583H107.967V90.5596H107.125V90.056H107.967V88.7276H108.557V90.056H109.4V90.5596H108.557V94.2583ZM111.9 94.3625C110.667 94.3625 109.842 93.4769 109.842 92.1571C109.842 90.8461 110.658 89.9431 111.856 89.9431C112.994 89.9431 113.767 90.7506 113.767 91.9401V92.2353H110.424C110.467 93.2598 111.005 93.8502 111.908 93.8502C112.594 93.8502 113.037 93.555 113.193 92.9993H113.767C113.541 93.885 112.89 94.3625 111.9 94.3625ZM111.856 90.4554C111.066 90.4554 110.545 90.9763 110.441 91.8012H113.167C113.167 90.9937 112.646 90.4554 111.856 90.4554ZM114.368 93.0775H114.941C114.941 93.5637 115.306 93.8676 115.897 93.8676C116.548 93.8676 116.93 93.5898 116.93 93.1383C116.93 92.791 116.756 92.5913 116.261 92.4697L115.541 92.2874C114.811 92.105 114.455 91.723 114.455 91.15C114.455 90.412 115.072 89.9431 115.975 89.9431C116.86 89.9431 117.433 90.4293 117.459 91.2108H116.878C116.86 90.7245 116.522 90.438 115.957 90.438C115.367 90.438 115.037 90.6898 115.037 91.1413C115.037 91.4625 115.263 91.6883 115.723 91.8012L116.444 91.9835C117.173 92.1658 117.503 92.5044 117.503 93.1122C117.503 93.8676 116.86 94.3625 115.905 94.3625C114.959 94.3625 114.368 93.8589 114.368 93.0775ZM119.088 91.0284C118.793 91.0284 118.541 90.7766 118.541 90.4901C118.541 90.1949 118.793 89.9518 119.088 89.9518C119.383 89.9518 119.635 90.1949 119.635 90.4901C119.635 90.7766 119.383 91.0284 119.088 91.0284ZM119.088 94.3538C118.793 94.3538 118.541 94.1107 118.541 93.8242C118.541 93.529 118.793 93.2772 119.088 93.2772C119.383 93.2772 119.635 93.529 119.635 93.8242C119.635 94.1107 119.383 94.3538 119.088 94.3538Z" fill="#021430"/>
<path d="M15.7656 121.34H14.0204V123.623H13.3953V117.407H15.7656C16.9638 117.407 17.7191 118.188 17.7191 119.36C17.7191 120.489 16.9551 121.34 15.7656 121.34ZM15.6788 117.971H14.0204V120.775H15.644C16.547 120.775 17.0679 120.202 17.0679 119.351C17.0679 118.492 16.5383 117.971 15.6788 117.971ZM19.2234 123.623H18.6243V117.294H19.2234V123.623ZM22.2601 123.727C21.0272 123.727 20.2024 122.842 20.2024 121.522C20.2024 120.211 21.0185 119.308 22.2167 119.308C23.3541 119.308 24.1269 120.116 24.1269 121.305V121.6H20.7841C20.8275 122.625 21.3658 123.215 22.2688 123.215C22.9547 123.215 23.3975 122.92 23.5538 122.364H24.1269C23.9011 123.25 23.2499 123.727 22.2601 123.727ZM22.2167 119.82C21.4266 119.82 20.9057 120.341 20.8015 121.166H23.5278C23.5278 120.359 23.0068 119.82 22.2167 119.82ZM26.2492 123.727C25.3549 123.727 24.8253 123.224 24.8253 122.486C24.8253 121.713 25.4157 121.227 26.3968 121.149L27.786 121.036V120.897C27.786 120.072 27.2911 119.812 26.6746 119.812C25.9453 119.812 25.5112 120.142 25.5112 120.706H24.9642C24.9642 119.855 25.6588 119.308 26.692 119.308C27.6644 119.308 28.3764 119.794 28.3764 120.906V123.623H27.8728L27.7947 122.885C27.5342 123.415 26.9611 123.727 26.2492 123.727ZM26.3881 123.241C27.2737 123.241 27.786 122.625 27.786 121.713V121.487L26.5444 121.583C25.7543 121.652 25.433 122 25.433 122.468C25.433 122.981 25.8151 123.241 26.3881 123.241ZM29.2226 122.442H29.7956C29.7956 122.929 30.1603 123.233 30.7507 123.233C31.4019 123.233 31.7839 122.955 31.7839 122.503C31.7839 122.156 31.6103 121.956 31.1154 121.835L30.3947 121.652C29.6654 121.47 29.3094 121.088 29.3094 120.515C29.3094 119.777 29.9259 119.308 30.8288 119.308C31.7145 119.308 32.2875 119.794 32.3135 120.576H31.7318C31.7145 120.089 31.3758 119.803 30.8115 119.803C30.2211 119.803 29.8911 120.055 29.8911 120.506C29.8911 120.827 30.1169 121.053 30.5771 121.166L31.2977 121.348C32.027 121.531 32.357 121.869 32.357 122.477C32.357 123.233 31.7145 123.727 30.7594 123.727C29.813 123.727 29.2226 123.224 29.2226 122.442ZM35.1058 123.727C33.8729 123.727 33.048 122.842 33.048 121.522C33.048 120.211 33.8642 119.308 35.0624 119.308C36.1998 119.308 36.9725 120.116 36.9725 121.305V121.6H33.6298C33.6732 122.625 34.2115 123.215 35.1145 123.215C35.8004 123.215 36.2432 122.92 36.3995 122.364H36.9725C36.7468 123.25 36.0956 123.727 35.1058 123.727ZM35.0624 119.82C34.2723 119.82 33.7513 120.341 33.6471 121.166H36.3734C36.3734 120.359 35.8525 119.82 35.0624 119.82ZM40.9635 123.623H40.3644V117.294H40.9635V123.623ZM44.0002 123.727C42.7673 123.727 41.9425 122.842 41.9425 121.522C41.9425 120.211 42.7586 119.308 43.9568 119.308C45.0942 119.308 45.8669 120.116 45.8669 121.305V121.6H42.5242C42.5676 122.625 43.1059 123.215 44.0089 123.215C44.6948 123.215 45.1376 122.92 45.2939 122.364H45.8669C45.6412 123.25 44.99 123.727 44.0002 123.727ZM43.9568 119.82C43.1667 119.82 42.6457 120.341 42.5416 121.166H45.2678C45.2678 120.359 44.7469 119.82 43.9568 119.82ZM47.7461 123.623H47.1557V119.924H46.3135V119.421H47.1557V118.092H47.7461V119.421H48.5883V119.924H47.7461V123.623ZM54.7285 119.421H55.3276V123.623H54.8067L54.7285 122.911C54.4941 123.397 53.9124 123.727 53.2525 123.727C52.2627 123.727 51.7244 123.05 51.7244 122.026V119.412H52.3322V121.835C52.3322 122.833 52.775 123.189 53.4435 123.189C54.251 123.189 54.7285 122.651 54.7285 121.652V119.421ZM56.1348 122.442H56.7079C56.7079 122.929 57.0725 123.233 57.6629 123.233C58.3141 123.233 58.6962 122.955 58.6962 122.503C58.6962 122.156 58.5225 121.956 58.0276 121.835L57.307 121.652C56.5776 121.47 56.2217 121.088 56.2217 120.515C56.2217 119.777 56.8381 119.308 57.7411 119.308C58.6267 119.308 59.1997 119.794 59.2258 120.576H58.6441C58.6267 120.089 58.2881 119.803 57.7237 119.803C57.1333 119.803 56.8034 120.055 56.8034 120.506C56.8034 120.827 57.0291 121.053 57.4893 121.166L58.2099 121.348C58.9393 121.531 59.2692 121.869 59.2692 122.477C59.2692 123.233 58.6267 123.727 57.6716 123.727C56.7252 123.727 56.1348 123.224 56.1348 122.442ZM63.2886 123.623H62.6896V117.294H63.2886V121.592L65.3724 119.421H66.1278L64.5129 121.097L66.1365 123.623H65.4419L64.1048 121.522L63.2886 122.364V123.623ZM67.4512 123.623H66.8521V119.421H67.3731L67.4599 120.15C67.7377 119.612 68.2934 119.308 68.9012 119.308C70.0559 119.308 70.5335 119.994 70.5335 121.053V123.623H69.9344V121.183C69.9344 120.202 69.4916 119.855 68.797 119.855C67.9374 119.855 67.4512 120.48 67.4512 121.427V123.623ZM71.4323 121.522C71.4323 120.237 72.3353 119.308 73.5682 119.308C74.8011 119.308 75.7041 120.237 75.7041 121.522C75.7041 122.798 74.8011 123.727 73.5682 123.727C72.3353 123.727 71.4323 122.798 71.4323 121.522ZM72.0401 121.513C72.0401 122.503 72.6652 123.189 73.5682 123.189C74.4625 123.189 75.0963 122.503 75.0963 121.513C75.0963 120.541 74.4625 119.846 73.5682 119.846C72.6652 119.846 72.0401 120.541 72.0401 121.513ZM77.3614 123.623L75.9722 119.421H76.5886L77.4135 121.956C77.509 122.234 77.5871 122.521 77.6739 122.859C77.7434 122.521 77.8823 122.095 77.9257 121.956L78.7592 119.421H79.3757L80.2005 121.956C80.2787 122.182 80.3829 122.547 80.461 122.859C80.5478 122.512 80.5652 122.408 80.7128 121.956L81.5463 119.421H82.1714L80.7475 123.623H80.1658L79.2975 120.984C79.1934 120.671 79.1239 120.411 79.0718 120.159C79.011 120.385 78.9416 120.636 78.8287 120.984L77.9604 123.623H77.3614ZM85.9269 123.615H85.3278V117.294H85.9269V120.15C86.196 119.647 86.7083 119.308 87.4116 119.308C88.5143 119.308 89.0092 119.994 89.0092 121.053V123.623H88.4101V121.183C88.4101 120.202 87.9499 119.855 87.2987 119.855C86.3957 119.855 85.9269 120.524 85.9269 121.331V123.615ZM89.908 121.522C89.908 120.237 90.811 119.308 92.0439 119.308C93.2768 119.308 94.1798 120.237 94.1798 121.522C94.1798 122.798 93.2768 123.727 92.0439 123.727C90.811 123.727 89.908 122.798 89.908 121.522ZM90.5158 121.513C90.5158 122.503 91.1409 123.189 92.0439 123.189C92.9382 123.189 93.572 122.503 93.572 121.513C93.572 120.541 92.9382 119.846 92.0439 119.846C91.1409 119.846 90.5158 120.541 90.5158 121.513ZM95.837 123.623L94.4478 119.421H95.0643L95.8891 121.956C95.9846 122.234 96.0628 122.521 96.1496 122.859C96.2191 122.521 96.358 122.095 96.4014 121.956L97.2349 119.421H97.8514L98.6762 121.956C98.7543 122.182 98.8585 122.547 98.9367 122.859C99.0235 122.512 99.0409 122.408 99.1885 121.956L100.022 119.421H100.647L99.2232 123.623H98.6415L97.7732 120.984C97.669 120.671 97.5996 120.411 97.5475 120.159C97.4867 120.385 97.4172 120.636 97.3044 120.984L96.4361 123.623H95.837ZM103.378 125.455V124.96H103.838C104.203 124.96 104.568 124.934 104.776 124.37L104.958 123.875L103.256 119.421H103.89L105.245 123.085L106.573 119.421H107.19L105.262 124.587C105.019 125.247 104.611 125.516 104.012 125.516C103.76 125.516 103.569 125.499 103.378 125.455ZM107.451 121.522C107.451 120.237 108.354 119.308 109.587 119.308C110.82 119.308 111.723 120.237 111.723 121.522C111.723 122.798 110.82 123.727 109.587 123.727C108.354 123.727 107.451 122.798 107.451 121.522ZM108.059 121.513C108.059 122.503 108.684 123.189 109.587 123.189C110.481 123.189 111.115 122.503 111.115 121.513C111.115 120.541 110.481 119.846 109.587 119.846C108.684 119.846 108.059 120.541 108.059 121.513ZM115.531 119.421H116.13V123.623H115.609L115.531 122.911C115.297 123.397 114.715 123.727 114.055 123.727C113.065 123.727 112.527 123.05 112.527 122.026V119.412H113.135V121.835C113.135 122.833 113.578 123.189 114.246 123.189C115.054 123.189 115.531 122.651 115.531 121.652V119.421ZM119.317 119.421H119.96V118.605C119.96 117.658 120.481 117.294 121.123 117.294C121.271 117.294 121.445 117.302 121.584 117.328V117.841H121.228C120.698 117.841 120.559 118.11 120.559 118.605V119.421H121.549V119.924H120.559V123.623H119.96V119.924H119.317V119.421ZM121.942 121.522C121.942 120.237 122.845 119.308 124.077 119.308C125.31 119.308 126.213 120.237 126.213 121.522C126.213 122.798 125.31 123.727 124.077 123.727C122.845 123.727 121.942 122.798 121.942 121.522ZM122.549 121.513C122.549 122.503 123.174 123.189 124.077 123.189C124.972 123.189 125.606 122.503 125.606 121.513C125.606 120.541 124.972 119.846 124.077 119.846C123.174 119.846 122.549 120.541 122.549 121.513ZM130.022 119.421H130.621V123.623H130.1L130.022 122.911C129.787 123.397 129.206 123.727 128.546 123.727C127.556 123.727 127.018 123.05 127.018 122.026V119.412H127.625V121.835C127.625 122.833 128.068 123.189 128.737 123.189C129.544 123.189 130.022 122.651 130.022 121.652V119.421ZM132.468 123.623H131.869V119.421H132.39L132.477 120.15C132.754 119.612 133.31 119.308 133.918 119.308C135.073 119.308 135.55 119.994 135.55 121.053V123.623H134.951V121.183C134.951 120.202 134.508 119.855 133.814 119.855C132.954 119.855 132.468 120.48 132.468 121.427V123.623ZM138.394 123.727C137.17 123.727 136.449 122.79 136.449 121.531C136.449 120.263 137.17 119.308 138.42 119.308C139.115 119.308 139.67 119.612 139.965 120.22V117.294H140.565V123.623H140.044L139.983 122.764C139.688 123.415 139.097 123.727 138.394 123.727ZM138.498 123.18C139.418 123.18 139.957 122.486 139.957 121.513C139.957 120.55 139.418 119.846 138.498 119.846C137.586 119.846 137.057 120.55 137.057 121.513C137.057 122.486 137.586 123.18 138.498 123.18ZM145.186 123.623H144.596V119.924H143.754V119.421H144.596V118.092H145.186V119.421H146.029V119.924H145.186V123.623ZM147.408 123.615H146.809V117.294H147.408V120.15C147.677 119.647 148.189 119.308 148.893 119.308C149.995 119.308 150.49 119.994 150.49 121.053V123.623H149.891V121.183C149.891 120.202 149.431 119.855 148.78 119.855C147.877 119.855 147.408 120.524 147.408 121.331V123.615ZM151.979 118.266C151.736 118.266 151.537 118.066 151.537 117.823C151.537 117.58 151.736 117.372 151.979 117.372C152.223 117.372 152.431 117.58 152.431 117.823C152.431 118.066 152.223 118.266 151.979 118.266ZM151.684 123.623V119.421H152.283V123.623H151.684ZM153.177 122.442H153.75C153.75 122.929 154.114 123.233 154.705 123.233C155.356 123.233 155.738 122.955 155.738 122.503C155.738 122.156 155.564 121.956 155.069 121.835L154.349 121.652C153.619 121.47 153.263 121.088 153.263 120.515C153.263 119.777 153.88 119.308 154.783 119.308C155.669 119.308 156.242 119.794 156.268 120.576H155.686C155.669 120.089 155.33 119.803 154.766 119.803C154.175 119.803 153.845 120.055 153.845 120.506C153.845 120.827 154.071 121.053 154.531 121.166L155.252 121.348C155.981 121.531 156.311 121.869 156.311 122.477C156.311 123.233 155.669 123.727 154.713 123.727C153.767 123.727 153.177 123.224 153.177 122.442ZM15.4617 131.369V131.907H15.1318C14.359 131.907 13.8641 132.428 13.8641 133.227V135.623H13.265V131.421H13.8294L13.8728 132.072C14.0378 131.621 14.4806 131.325 15.071 131.325C15.2012 131.325 15.3141 131.334 15.4617 131.369ZM17.8595 135.727C16.6266 135.727 15.8018 134.842 15.8018 133.522C15.8018 132.211 16.618 131.308 17.8161 131.308C18.9535 131.308 19.7263 132.116 19.7263 133.305V133.6H16.3835C16.4269 134.625 16.9653 135.215 17.8682 135.215C18.5541 135.215 18.9969 134.92 19.1532 134.364H19.7263C19.5005 135.25 18.8493 135.727 17.8595 135.727ZM17.8161 131.82C17.026 131.82 16.5051 132.341 16.4009 133.166H19.1272C19.1272 132.359 18.6062 131.82 17.8161 131.82ZM20.3889 133.531C20.3889 132.211 21.1964 131.308 22.4206 131.308C23.3931 131.308 24.105 131.872 24.27 132.741H23.6709C23.5146 132.159 23.011 131.838 22.4293 131.838C21.5784 131.838 20.9793 132.489 20.9793 133.522C20.9793 134.521 21.535 135.189 22.3859 135.189C23.011 135.189 23.5146 134.842 23.6796 134.303H24.2874C24.0877 135.163 23.341 135.727 22.3859 135.727C21.1964 135.727 20.3889 134.85 20.3889 133.531ZM24.8997 133.522C24.8997 132.237 25.8027 131.308 27.0356 131.308C28.2685 131.308 29.1715 132.237 29.1715 133.522C29.1715 134.798 28.2685 135.727 27.0356 135.727C25.8027 135.727 24.8997 134.798 24.8997 133.522ZM25.5075 133.513C25.5075 134.503 26.1326 135.189 27.0356 135.189C27.9299 135.189 28.5637 134.503 28.5637 133.513C28.5637 132.541 27.9299 131.846 27.0356 131.846C26.1326 131.846 25.5075 132.541 25.5075 133.513ZM30.7288 135.623H30.1297V131.421H30.6506L30.7201 132.02C30.9285 131.577 31.3973 131.308 31.9877 131.308C32.6476 131.308 33.1425 131.655 33.3422 132.202C33.5332 131.655 34.0455 131.308 34.7227 131.308C35.6344 131.308 36.2335 131.898 36.2335 132.871V135.623H35.6517V132.992C35.6517 132.272 35.2524 131.846 34.6099 131.846C33.9066 131.846 33.4898 132.376 33.4898 133.027V135.623H32.8994V132.984C32.8994 132.272 32.4913 131.855 31.8575 131.855C31.1542 131.855 30.7288 132.376 30.7288 133.018V135.623ZM38.0377 135.623H37.4386V131.421H37.9595L38.029 132.02C38.2374 131.577 38.7062 131.308 39.2966 131.308C39.9565 131.308 40.4514 131.655 40.6511 132.202C40.8421 131.655 41.3544 131.308 42.0316 131.308C42.9433 131.308 43.5423 131.898 43.5423 132.871V135.623H42.9606V132.992C42.9606 132.272 42.5612 131.846 41.9187 131.846C41.2154 131.846 40.7987 132.376 40.7987 133.027V135.623H40.2083V132.984C40.2083 132.272 39.8002 131.855 39.1664 131.855C38.4631 131.855 38.0377 132.376 38.0377 133.018V135.623ZM46.51 135.727C45.2771 135.727 44.4522 134.842 44.4522 133.522C44.4522 132.211 45.2684 131.308 46.4666 131.308C47.604 131.308 48.3767 132.116 48.3767 133.305V133.6H45.034C45.0774 134.625 45.6157 135.215 46.5187 135.215C47.2046 135.215 47.6474 134.92 47.8037 134.364H48.3767C48.151 135.25 47.4998 135.727 46.51 135.727ZM46.4666 131.82C45.6765 131.82 45.1555 132.341 45.0513 133.166H47.7776C47.7776 132.359 47.2567 131.82 46.4666 131.82ZM49.9337 135.623H49.3346V131.421H49.8555L49.9423 132.15C50.2202 131.612 50.7759 131.308 51.3836 131.308C52.5384 131.308 53.0159 131.994 53.0159 133.053V135.623H52.4168V133.183C52.4168 132.202 51.974 131.855 51.2794 131.855C50.4199 131.855 49.9337 132.48 49.9337 133.427V135.623ZM55.8596 135.727C54.6354 135.727 53.9148 134.79 53.9148 133.531C53.9148 132.263 54.6354 131.308 55.8857 131.308C56.5803 131.308 57.136 131.612 57.4312 132.22V129.294H58.0303V135.623H57.5093L57.4485 134.764C57.1533 135.415 56.5629 135.727 55.8596 135.727ZM55.9638 135.18C56.8842 135.18 57.4225 134.486 57.4225 133.513C57.4225 132.55 56.8842 131.846 55.9638 131.846C55.0522 131.846 54.5225 132.55 54.5225 133.513C54.5225 134.486 55.0522 135.18 55.9638 135.18ZM60.4873 135.727C59.593 135.727 59.0633 135.224 59.0633 134.486C59.0633 133.713 59.6537 133.227 60.6349 133.149L62.0241 133.036V132.897C62.0241 132.072 61.5292 131.812 60.9127 131.812C60.1834 131.812 59.7492 132.142 59.7492 132.706H59.2023C59.2023 131.855 59.8969 131.308 60.9301 131.308C61.9025 131.308 62.6145 131.794 62.6145 132.906V135.623H62.1109L62.0327 134.885C61.7723 135.415 61.1992 135.727 60.4873 135.727ZM60.6262 135.241C61.5118 135.241 62.0241 134.625 62.0241 133.713V133.487L60.7825 133.583C59.9924 133.652 59.6711 134 59.6711 134.468C59.6711 134.981 60.0531 135.241 60.6262 135.241ZM64.7041 135.623H64.1137V131.924H63.2715V131.421H64.1137V130.092H64.7041V131.421H65.5463V131.924H64.7041V135.623ZM66.6216 130.266C66.3785 130.266 66.1788 130.066 66.1788 129.823C66.1788 129.58 66.3785 129.372 66.6216 129.372C66.8647 129.372 67.0731 129.58 67.0731 129.823C67.0731 130.066 66.8647 130.266 66.6216 130.266ZM66.3264 135.623V131.421H66.9255V135.623H66.3264ZM67.8796 133.522C67.8796 132.237 68.7826 131.308 70.0155 131.308C71.2484 131.308 72.1514 132.237 72.1514 133.522C72.1514 134.798 71.2484 135.727 70.0155 135.727C68.7826 135.727 67.8796 134.798 67.8796 133.522ZM68.4874 133.513C68.4874 134.503 69.1125 135.189 70.0155 135.189C70.9098 135.189 71.5436 134.503 71.5436 133.513C71.5436 132.541 70.9098 131.846 70.0155 131.846C69.1125 131.846 68.4874 132.541 68.4874 133.513ZM73.7087 135.623H73.1096V131.421H73.6305L73.7174 132.15C73.9952 131.612 74.5509 131.308 75.1587 131.308C76.3134 131.308 76.791 131.994 76.791 133.053V135.623H76.1919V133.183C76.1919 132.202 75.7491 131.855 75.0545 131.855C74.1949 131.855 73.7087 132.48 73.7087 133.427V135.623ZM78.4973 135.719C78.2021 135.719 77.9503 135.476 77.9503 135.189C77.9503 134.894 78.2021 134.642 78.4973 134.642C78.7925 134.642 79.0443 134.894 79.0443 135.189C79.0443 135.476 78.7925 135.719 78.4973 135.719Z" fill="#021430"/>
<g filter="url(#filter6_d_804_20112)">
<rect x="12.6399" y="147.306" width="58.7299" height="21.7062" rx="4.34123" fill="white" shape-rendering="crispEdges"/>
<path d="M25.1207 163.585H23.4928C23.2049 163.585 22.9289 163.471 22.7254 163.267C22.5218 163.064 22.4075 162.788 22.4075 162.5V158.701C22.4075 158.414 22.5218 158.138 22.7254 157.934C22.9289 157.73 23.2049 157.616 23.4928 157.616H25.1207M28.9193 156.531V154.36C28.9193 153.928 28.7478 153.514 28.4425 153.209C28.1372 152.904 27.7231 152.732 27.2914 152.732L25.1207 157.616V163.585H31.2419C31.5036 163.588 31.7576 163.497 31.957 163.327C32.1565 163.157 32.2879 162.922 32.3272 162.663L33.076 157.779C33.0997 157.623 33.0892 157.465 33.0453 157.313C33.0014 157.162 32.9252 157.023 32.822 156.904C32.7188 156.785 32.591 156.69 32.4474 156.626C32.3039 156.561 32.1481 156.529 31.9907 156.531H28.9193Z" stroke="#021430" stroke-width="0.813981" stroke-linecap="round" stroke-linejoin="round"/>
<path d="M40.1174 160.659H39.5704V155.219H40.1174V157.643H43.0575V155.219H43.5969V160.659H43.0575V158.152H40.1174V160.659ZM46.3552 160.75C45.2764 160.75 44.5547 159.975 44.5547 158.82C44.5547 157.673 45.2689 156.883 46.3173 156.883C47.3125 156.883 47.9886 157.59 47.9886 158.63V158.889H45.0637C45.1017 159.785 45.5727 160.302 46.3628 160.302C46.963 160.302 47.3505 160.043 47.4872 159.557H47.9886C47.7911 160.332 47.2213 160.75 46.3552 160.75ZM46.3173 157.331C45.6259 157.331 45.1701 157.787 45.0789 158.509H47.4644C47.4644 157.802 47.0086 157.331 46.3173 157.331ZM49.3737 160.659H48.8495V155.12H49.3737V160.659ZM50.4886 162.262V156.982H50.9445L50.9976 157.726C51.2559 157.156 51.7726 156.883 52.3879 156.883C53.4515 156.883 54.0897 157.696 54.0897 158.805C54.0897 159.914 53.4743 160.75 52.3879 160.75C51.765 160.75 51.2711 160.484 51.0128 159.952V162.262H50.4886ZM51.0204 158.82C51.0204 159.664 51.4915 160.279 52.2968 160.279C53.0945 160.279 53.5579 159.664 53.5579 158.82C53.5579 157.969 53.0945 157.362 52.2968 157.362C51.4915 157.362 51.0204 157.969 51.0204 158.82ZM54.4853 156.982H55.0475V156.268C55.0475 155.44 55.5033 155.12 56.0655 155.12C56.1947 155.12 56.3466 155.128 56.4682 155.151V155.599H56.1567C55.6933 155.599 55.5717 155.835 55.5717 156.268V156.982H56.4378V157.422H55.5717V160.659H55.0475V157.422H54.4853V156.982ZM59.734 156.982H60.2582V160.659H59.8024L59.734 160.036C59.5289 160.461 59.0199 160.75 58.4425 160.75C57.5764 160.75 57.1054 160.157 57.1054 159.261V156.974H57.6372V159.094C57.6372 159.967 58.0247 160.279 58.6096 160.279C59.3162 160.279 59.734 159.808 59.734 158.934V156.982ZM61.8972 160.659H61.373V155.12H61.8972V160.659Z" fill="#021430"/>
</g>
<g filter="url(#filter7_d_804_20112)">
<rect x="75.7109" y="147.306" width="66.7299" height="21.7062" rx="4.34123" fill="white" shape-rendering="crispEdges"/>
<path d="M93.6185 152.732H95.0674C95.3745 152.727 95.6729 152.834 95.906 153.034C96.1391 153.234 96.2906 153.513 96.3317 153.817V157.616C96.2906 157.92 96.1391 158.199 95.906 158.399C95.6729 158.599 95.3745 158.707 95.0674 158.701H93.6185M89.8199 159.787V161.957C89.8199 162.389 89.9914 162.803 90.2967 163.108C90.602 163.414 91.0161 163.585 91.4479 163.585L93.6185 158.701V152.732H87.4973C87.2356 152.729 86.9816 152.821 86.7822 152.99C86.5827 153.16 86.4513 153.396 86.412 153.655L85.6632 158.539C85.6396 158.694 85.6501 158.853 85.6939 159.004C85.7378 159.155 85.814 159.295 85.9172 159.414C86.0204 159.532 86.1483 159.627 86.2918 159.692C86.4353 159.756 86.5912 159.788 86.7485 159.787H89.8199Z" stroke="#021430" stroke-width="0.813981" stroke-linecap="round" stroke-linejoin="round"/>
<path d="M102.382 158.767V155.219H102.929V158.744C102.929 159.702 103.453 160.218 104.403 160.218C105.33 160.218 105.854 159.686 105.854 158.744V155.219H106.401V158.767C106.401 159.998 105.641 160.75 104.403 160.75C103.142 160.75 102.382 160.005 102.382 158.767ZM108.098 160.659H107.574V156.982H108.029L108.105 157.62C108.348 157.149 108.835 156.883 109.366 156.883C110.377 156.883 110.795 157.483 110.795 158.41V160.659H110.271V158.524C110.271 157.665 109.883 157.362 109.275 157.362C108.523 157.362 108.098 157.909 108.098 158.737V160.659ZM112.364 160.651H111.84V155.12H112.364V157.62C112.599 157.179 113.047 156.883 113.663 156.883C114.628 156.883 115.061 157.483 115.061 158.41V160.659H114.537V158.524C114.537 157.665 114.134 157.362 113.564 157.362C112.774 157.362 112.364 157.947 112.364 158.653V160.651ZM117.648 160.75C116.569 160.75 115.847 159.975 115.847 158.82C115.847 157.673 116.561 156.883 117.61 156.883C118.605 156.883 119.281 157.59 119.281 158.63V158.889H116.356C116.394 159.785 116.865 160.302 117.655 160.302C118.256 160.302 118.643 160.043 118.78 159.557H119.281C119.084 160.332 118.514 160.75 117.648 160.75ZM117.61 157.331C116.918 157.331 116.463 157.787 116.371 158.509H118.757C118.757 157.802 118.301 157.331 117.61 157.331ZM120.666 160.659H120.142V155.12H120.666V160.659ZM121.781 162.262V156.982H122.237L122.29 157.726C122.548 157.156 123.065 156.883 123.68 156.883C124.744 156.883 125.382 157.696 125.382 158.805C125.382 159.914 124.767 160.75 123.68 160.75C123.057 160.75 122.564 160.484 122.305 159.952V162.262H121.781ZM122.313 158.82C122.313 159.664 122.784 160.279 123.589 160.279C124.387 160.279 124.85 159.664 124.85 158.82C124.85 157.969 124.387 157.362 123.589 157.362C122.784 157.362 122.313 157.969 122.313 158.82ZM125.778 156.982H126.34V156.268C126.34 155.44 126.796 155.12 127.358 155.12C127.487 155.12 127.639 155.128 127.761 155.151V155.599H127.449C126.986 155.599 126.864 155.835 126.864 156.268V156.982H127.73V157.422H126.864V160.659H126.34V157.422H125.778V156.982ZM131.027 156.982H131.551V160.659H131.095L131.027 160.036C130.821 160.461 130.312 160.75 129.735 160.75C128.869 160.75 128.398 160.157 128.398 159.261V156.974H128.93V159.094C128.93 159.967 129.317 160.279 129.902 160.279C130.609 160.279 131.027 159.808 131.027 158.934V156.982ZM133.19 160.659H132.665V155.12H133.19V160.659Z" fill="#021430"/>
</g>
</g>
<defs>
<filter id="filter0_f_804_20112" x="-138.761" y="68.3744" width="353.268" height="353.268" filterUnits="userSpaceOnUse" color-interpolation-filters="sRGB">
<feFlood flood-opacity="0" result="BackgroundImageFix"/>
<feBlend mode="normal" in="SourceGraphic" in2="BackgroundImageFix" result="shape"/>
<feGaussianBlur stdDeviation="54.2654" result="effect1_foregroundBlur_804_20112"/>
</filter>
<filter id="filter1_f_804_20112" x="-21.0049" y="-11.9384" width="353.268" height="353.268" filterUnits="userSpaceOnUse" color-interpolation-filters="sRGB">
<feFlood flood-opacity="0" result="BackgroundImageFix"/>
<feBlend mode="normal" in="SourceGraphic" in2="BackgroundImageFix" result="shape"/>
<feGaussianBlur stdDeviation="54.2654" result="effect1_foregroundBlur_804_20112"/>
</filter>
<filter id="filter2_b_804_20112" x="-162.638" y="-162.796" width="537.227" height="783.592" filterUnits="userSpaceOnUse" color-interpolation-filters="sRGB">
<feFlood flood-opacity="0" result="BackgroundImageFix"/>
<feGaussianBlur in="BackgroundImageFix" stdDeviation="81.3981"/>
<feComposite in2="SourceAlpha" operator="in" result="effect1_backgroundBlur_804_20112"/>
<feBlend mode="normal" in="SourceGraphic" in2="effect1_backgroundBlur_804_20112" result="shape"/>
</filter>
<filter id="filter3_b_804_20112" x="-162.638" y="-162.796" width="537.227" height="783.592" filterUnits="userSpaceOnUse" color-interpolation-filters="sRGB">
<feFlood flood-opacity="0" result="BackgroundImageFix"/>
<feGaussianBlur in="BackgroundImageFix" stdDeviation="81.3981"/>
<feComposite in2="SourceAlpha" operator="in" result="effect1_backgroundBlur_804_20112"/>
<feBlend mode="normal" in="SourceGraphic" in2="effect1_backgroundBlur_804_20112" result="shape"/>
</filter>
<filter id="filter4_f_804_20112" x="-21.0044" y="-11.9383" width="353.268" height="353.268" filterUnits="userSpaceOnUse" color-interpolation-filters="sRGB">
<feFlood flood-opacity="0" result="BackgroundImageFix"/>
<feBlend mode="normal" in="SourceGraphic" in2="BackgroundImageFix" result="shape"/>
<feGaussianBlur stdDeviation="54.2654" result="effect1_foregroundBlur_804_20112"/>
</filter>
<filter id="filter5_b_804_20112" x="-162.638" y="-162.796" width="537.227" height="783.592" filterUnits="userSpaceOnUse" color-interpolation-filters="sRGB">
<feFlood flood-opacity="0" result="BackgroundImageFix"/>
<feGaussianBlur in="BackgroundImageFix" stdDeviation="81.3981"/>
<feComposite in2="SourceAlpha" operator="in" result="effect1_backgroundBlur_804_20112"/>
<feBlend mode="normal" in="SourceGraphic" in2="effect1_backgroundBlur_804_20112" result="shape"/>
</filter>
<filter id="filter6_d_804_20112" x="-13.2642" y="136.944" width="100.176" height="63.1527" filterUnits="userSpaceOnUse" color-interpolation-filters="sRGB">
<feFlood flood-opacity="0" result="BackgroundImageFix"/>
<feColorMatrix in="SourceAlpha" type="matrix" values="0 0 0 0 0 0 0 0 0 0 0 0 0 0 0 0 0 0 127 0" result="hardAlpha"/>
<feOffset dx="-5.18081" dy="10.3616"/>
<feGaussianBlur stdDeviation="10.3616"/>
<feComposite in2="hardAlpha" operator="out"/>
<feColorMatrix type="matrix" values="0 0 0 0 0.866667 0 0 0 0 0.866667 0 0 0 0 0.866667 0 0 0 0.4 0"/>
<feBlend mode="normal" in2="BackgroundImageFix" result="effect1_dropShadow_804_20112"/>
<feBlend mode="normal" in="SourceGraphic" in2="effect1_dropShadow_804_20112" result="shape"/>
</filter>
<filter id="filter7_d_804_20112" x="49.8069" y="136.944" width="108.176" height="63.1527" filterUnits="userSpaceOnUse" color-interpolation-filters="sRGB">
<feFlood flood-opacity="0" result="BackgroundImageFix"/>
<feColorMatrix in="SourceAlpha" type="matrix" values="0 0 0 0 0 0 0 0 0 0 0 0 0 0 0 0 0 0 127 0" result="hardAlpha"/>
<feOffset dx="-5.18081" dy="10.3616"/>
<feGaussianBlur stdDeviation="10.3616"/>
<feComposite in2="hardAlpha" operator="out"/>
<feColorMatrix type="matrix" values="0 0 0 0 0.866667 0 0 0 0 0.866667 0 0 0 0 0.866667 0 0 0 0.4 0"/>
<feBlend mode="normal" in2="BackgroundImageFix" result="effect1_dropShadow_804_20112"/>
<feBlend mode="normal" in="SourceGraphic" in2="effect1_dropShadow_804_20112" result="shape"/>
</filter>
<linearGradient id="paint0_linear_804_20112" x1="46.1256" y1="29.846" x2="237.14" y2="71.359" gradientUnits="userSpaceOnUse">
<stop stop-color="#F1F6FE"/>
<stop offset="1" stop-color="#E5F4FE"/>
</linearGradient>
<linearGradient id="paint1_linear_804_20112" x1="105.976" y1="50.9891" x2="105.342" y2="68.5088" gradientUnits="userSpaceOnUse">
<stop stop-color="#F1F6FE"/>
<stop offset="1" stop-color="#E5F4FE" stop-opacity="0"/>
</linearGradient>
<clipPath id="clip0_804_20112">
<rect x="0.158691" width="211.635" height="458" rx="10.8531" fill="white"/>
</clipPath>
<clipPath id="clip1_804_20112">
<rect width="211.635" height="458" fill="white" transform="translate(0.158691)"/>
</clipPath>
<clipPath id="clip2_804_20112">
<rect width="211.635" height="59.1493" fill="white" transform="translate(0.158691)"/>
</clipPath>
<clipPath id="clip3_804_20112">
<rect width="13.0237" height="13.0237" fill="white" transform="translate(185.746 36.3578)"/>
</clipPath>
</defs>
</svg>
