<svg width="228" height="368" viewBox="0 0 228 368" fill="none" xmlns="http://www.w3.org/2000/svg">
<g clip-path="url(#clip0_804_19968)">
<rect width="228" height="368" fill="#F7FBFE"/>
<g opacity="0.8" clip-path="url(#clip1_804_19968)">
<g filter="url(#filter0_f_804_19968)">
<circle cx="40.7683" cy="264.848" r="73.6177" fill="#A282FF"/>
</g>
<g filter="url(#filter1_f_804_19968)">
<circle cx="168.059" cy="178.032" r="73.6177" fill="#54BCF7"/>
</g>
<g filter="url(#filter2_b_804_19968)">
<rect width="228.772" height="495.086" fill="white" fill-opacity="0.4"/>
</g>
</g>
<g clip-path="url(#clip2_804_19968)">
<g filter="url(#filter3_b_804_19968)">
<rect width="228.772" height="495.086" fill="#F7FBFE"/>
</g>
<g opacity="0.6" filter="url(#filter4_f_804_19968)">
<circle cx="168.06" cy="178.032" r="73.6176" fill="#54BCF7"/>
</g>
<g filter="url(#filter5_b_804_19968)">
<rect width="228.772" height="495.086" fill="white" fill-opacity="0.4"/>
</g>
<rect width="228.772" height="63.9388" fill="url(#paint0_linear_804_19968)"/>
<rect y="0.586609" width="228.772" height="78.6037" fill="url(#paint1_linear_804_19968)"/>
<path d="M63.9387 0H164.833C164.833 0 164.833 0 164.833 0C162.889 1.46504e-07 161.313 1.57576 161.313 3.51957C161.313 3.51957 161.313 3.51957 161.313 3.51957V3.93798C161.313 5.40155 161.313 6.13334 161.256 6.74999C160.662 13.0948 155.637 18.1192 149.292 18.7133C148.676 18.771 147.944 18.771 146.48 18.771H82.2913C80.8278 18.771 80.096 18.771 79.4793 18.7133C73.1345 18.1192 68.1102 13.0948 67.516 6.74999C67.4583 6.13334 67.4583 5.40155 67.4583 3.93798V3.51957C67.4583 3.51957 67.4583 3.51957 67.4583 3.51957C67.4583 1.57576 65.8825 1.46504e-07 63.9387 0C63.9387 0 63.9387 0 63.9387 0Z" fill="white"/>
<path d="M24.9278 11.021C26.3393 11.021 27.5675 12.0247 27.5675 14.4077V14.4169C27.5675 16.6441 26.5638 17.9639 24.9003 17.9639C23.6859 17.9639 22.7785 17.2444 22.5677 16.2316L22.5585 16.1812H23.7225L23.7363 16.2271C23.9104 16.6899 24.3183 16.9924 24.9003 16.9924C25.9497 16.9924 26.3943 15.9658 26.4447 14.701C26.4447 14.6506 26.4493 14.6002 26.4493 14.5498H26.3576C26.1147 15.0722 25.5373 15.5351 24.6299 15.5351C23.3605 15.5351 22.4714 14.6093 22.4714 13.3537V13.3445C22.4714 12.0017 23.4934 11.021 24.9278 11.021ZM24.9232 14.6277C25.6702 14.6277 26.243 14.0869 26.243 13.3399V13.3307C26.243 12.5746 25.6702 11.9834 24.937 11.9834C24.2083 11.9834 23.6263 12.5654 23.6263 13.3033V13.3124C23.6263 14.0777 24.1716 14.6277 24.9232 14.6277ZM29.4603 13.5141C29.0433 13.5141 28.7317 13.1933 28.7317 12.79C28.7317 12.3821 29.0433 12.0659 29.4603 12.0659C29.8819 12.0659 30.189 12.3821 30.189 12.79C30.189 13.1933 29.8819 13.5141 29.4603 13.5141ZM29.4603 16.9145C29.0433 16.9145 28.7317 16.5983 28.7317 16.1904C28.7317 15.7825 29.0433 15.4663 29.4603 15.4663C29.8819 15.4663 30.189 15.7825 30.189 16.1904C30.189 16.5983 29.8819 16.9145 29.4603 16.9145ZM34.5611 17.799V16.5295H31.3257V15.5626C32.1827 14.0732 33.1222 12.5517 34.0204 11.186H35.6931V15.5534H36.5821V16.5295H35.6931V17.799H34.5611ZM32.4256 15.5809H34.5795V12.1301H34.5107C33.8325 13.1658 33.0672 14.3894 32.4256 15.5121V15.5809ZM39.1349 17.799V12.35H39.057L37.4118 13.5141V12.4004L39.1395 11.186H40.3173V17.799H39.1349Z" fill="black"/>
<path opacity="0.35" d="M197.389 13.4917C197.389 12.3578 198.308 11.4386 199.442 11.4386H209.414C210.548 11.4386 211.468 12.3578 211.468 13.4917V16.4247C211.468 17.5586 210.548 18.4778 209.414 18.4778H199.442C198.308 18.4778 197.389 17.5586 197.389 16.4247V13.4917Z" stroke="black" stroke-width="0.586595"/>
<path opacity="0.4" d="M212.347 14.0782V16.5539C212.845 16.3442 213.169 15.8565 213.169 15.3161C213.169 14.7757 212.845 14.2879 212.347 14.0782Z" fill="black"/>
<path d="M198.269 13.4917C198.269 12.8437 198.794 12.3185 199.442 12.3185H209.414C210.062 12.3185 210.588 12.8437 210.588 13.4917V16.4246C210.588 17.0726 210.062 17.5978 209.414 17.5978H199.442C198.794 17.5978 198.269 17.0726 198.269 16.4246V13.4917Z" fill="black"/>
<path fill-rule="evenodd" clip-rule="evenodd" d="M188.004 13.2497C189.451 13.2498 190.842 13.8172 191.891 14.8349C191.97 14.9134 192.096 14.9124 192.174 14.8326L192.929 14.0551C192.968 14.0146 192.99 13.9598 192.99 13.9027C192.989 13.8457 192.967 13.7911 192.927 13.7511C190.175 11.0588 185.833 11.0588 183.08 13.7511C183.041 13.7911 183.018 13.8456 183.018 13.9027C183.017 13.9597 183.039 14.0146 183.078 14.0551L183.834 14.8326C183.911 14.9125 184.038 14.9135 184.116 14.8349C185.165 13.8172 186.557 13.2497 188.004 13.2497ZM188.025 15.5972C188.82 15.5971 189.586 15.8988 190.176 16.4434C190.255 16.5207 190.381 16.519 190.458 16.4396L191.212 15.6621C191.252 15.6213 191.274 15.5659 191.274 15.5085C191.273 15.451 191.25 15.3961 191.209 15.3561C189.415 13.6523 186.636 13.6523 184.842 15.3561C184.801 15.3961 184.778 15.451 184.777 15.5085C184.777 15.566 184.799 15.6213 184.839 15.6621L185.592 16.4396C185.67 16.519 185.796 16.5207 185.875 16.4434C186.464 15.8991 187.23 15.5975 188.025 15.5972ZM189.558 17.1149C189.559 17.1726 189.537 17.2282 189.496 17.2685L188.192 18.612C188.154 18.6515 188.102 18.6737 188.048 18.6737C187.993 18.6737 187.941 18.6515 187.903 18.612L186.598 17.2685C186.558 17.2281 186.536 17.1725 186.537 17.1149C186.538 17.0572 186.563 17.0026 186.605 16.964C187.438 16.2449 188.657 16.2449 189.49 16.964C189.532 17.0026 189.557 17.0573 189.558 17.1149Z" fill="black"/>
<path d="M173.632 13.4917C173.632 13.1677 173.895 12.9051 174.219 12.9051H174.805C175.129 12.9051 175.392 13.1677 175.392 13.4917V18.1844C175.392 18.5084 175.129 18.771 174.805 18.771H174.219C173.895 18.771 173.632 18.5084 173.632 18.1844V13.4917Z" fill="black"/>
<path d="M176.565 12.3185C176.565 11.9945 176.828 11.7319 177.152 11.7319H177.738C178.062 11.7319 178.325 11.9945 178.325 12.3185V18.1844C178.325 18.5084 178.062 18.771 177.738 18.771H177.152C176.828 18.771 176.565 18.5084 176.565 18.1844V12.3185Z" fill="black"/>
<path d="M170.699 15.5447C170.699 15.2208 170.962 14.9581 171.286 14.9581H171.872C172.196 14.9581 172.459 15.2208 172.459 15.5447V18.1844C172.459 18.5084 172.196 18.771 171.872 18.771H171.286C170.962 18.771 170.699 18.5084 170.699 18.1844V15.5447Z" fill="black"/>
<path d="M167.766 17.0112C167.766 16.6873 168.029 16.4246 168.353 16.4246H168.939C169.263 16.4246 169.526 16.6873 169.526 17.0112V18.1844C169.526 18.5084 169.263 18.771 168.939 18.771H168.353C168.029 18.771 167.766 18.5084 167.766 18.1844V17.0112Z" fill="black"/>
<path d="M25.8689 46.341H23.0181L22.0678 47.9248H20.1672L19.2169 46.341H16.3661M17.4219 51.6204H24.813C25.6877 51.6204 26.3968 50.9113 26.3968 50.0365V42.6455C26.3968 41.7707 25.6877 41.0616 24.813 41.0616H17.4219C16.5472 41.0616 15.8381 41.7707 15.8381 42.6455V50.0365C15.8381 50.9113 16.5472 51.6204 17.4219 51.6204Z" stroke="#021430" stroke-width="1.17319" stroke-linecap="round" stroke-linejoin="round"/>
<g clip-path="url(#clip3_804_19968)">
<path d="M208.669 51.6203C208.566 51.7981 208.418 51.9457 208.24 52.0483C208.062 52.1509 207.86 52.2049 207.655 52.2049C207.449 52.2049 207.247 52.1509 207.069 52.0483C206.891 51.9457 206.743 51.7981 206.64 51.6203M211.174 43.9946C211.174 43.0612 210.803 42.1659 210.143 41.5059C209.483 40.8458 208.588 40.475 207.655 40.475C206.721 40.475 205.826 40.8458 205.166 41.5059C204.506 42.1659 204.135 43.0612 204.135 43.9946C204.135 48.1008 202.375 49.274 202.375 49.274H212.934C212.934 49.274 211.174 48.1008 211.174 43.9946Z" stroke="#021430" stroke-width="1.17319" stroke-linecap="round" stroke-linejoin="round"/>
</g>
</g>
<path d="M15.5704 84.8167V91.5367H14.8947V84.8167H15.5704ZM17.608 85.2765L17.4296 87.1443H17.0073L16.8196 85.2765C16.782 84.948 17.0167 84.7979 17.2232 84.7979C17.4202 84.7979 17.6455 84.948 17.608 85.2765ZM19.9804 91.5367L18.1221 86.9941H18.8166L19.9898 89.9224C20.1118 90.2509 20.2339 90.5606 20.3183 90.8609C20.4028 90.5512 20.5248 90.2509 20.6562 89.9224L21.8482 86.9941H22.5145L20.628 91.5367H19.9804ZM24.9815 91.6493C23.6487 91.6493 22.7571 90.692 22.7571 89.2654C22.7571 87.8482 23.6393 86.8721 24.9345 86.8721C26.164 86.8721 26.9993 87.7449 26.9993 89.0307V89.3499H23.3859C23.4328 90.4573 24.0147 91.0956 24.9908 91.0956C25.7323 91.0956 26.211 90.7765 26.3799 90.1758H26.9993C26.7553 91.1331 26.0514 91.6493 24.9815 91.6493ZM24.9345 87.4258C24.0804 87.4258 23.5173 87.989 23.4047 88.8806H26.3517C26.3517 88.0077 25.7886 87.4258 24.9345 87.4258ZM30.328 89.134C30.328 87.8951 31.1258 86.8721 32.4586 86.8721C33.2469 86.8721 33.8476 87.2381 34.1386 87.9045L34.2043 86.9941H34.7674V91.3959C34.7674 92.7474 33.9039 93.6297 32.5712 93.6297C31.4074 93.6297 30.5908 92.9727 30.4125 91.8746H31.0601C31.2009 92.6066 31.764 93.0384 32.5806 93.0384C33.5097 93.0384 34.1292 92.4095 34.1292 91.4616V90.3823C33.8195 91.0205 33.1906 91.3959 32.4116 91.3959C31.1164 91.3959 30.328 90.3729 30.328 89.134ZM30.9756 89.1246C30.9756 90.0538 31.5482 90.814 32.5055 90.814C33.491 90.814 34.0729 90.1007 34.0729 89.1246C34.0729 88.1579 33.5097 87.4446 32.5149 87.4446C31.5388 87.4446 30.9756 88.2048 30.9756 89.1246ZM37.4234 91.6493C36.4566 91.6493 35.8841 91.1049 35.8841 90.3072C35.8841 89.4719 36.5223 88.9463 37.5829 88.8618L39.0846 88.7398V88.5896C39.0846 87.698 38.5496 87.4164 37.8832 87.4164C37.0949 87.4164 36.6256 87.7731 36.6256 88.3831H36.0343C36.0343 87.4634 36.7851 86.8721 37.902 86.8721C38.9532 86.8721 39.7228 87.3977 39.7228 88.599V91.5367H39.1784L39.094 90.7389C38.8124 91.3114 38.193 91.6493 37.4234 91.6493ZM37.5735 91.1237C38.5308 91.1237 39.0846 90.4573 39.0846 89.4719V89.2278L37.7425 89.3311C36.8884 89.4062 36.5411 89.7816 36.5411 90.2884C36.5411 90.8422 36.9541 91.1237 37.5735 91.1237ZM41.9816 91.5367H41.3434V87.5385H40.433V86.9941H41.3434V85.5581H41.9816V86.9941H42.892V87.5385H41.9816V91.5367ZM44.3829 91.5273H43.7353V84.6946H44.3829V87.7825C44.6739 87.2381 45.2276 86.8721 45.9879 86.8721C47.1798 86.8721 47.7148 87.6135 47.7148 88.7586V91.5367H47.0672V88.8994C47.0672 87.8388 46.5698 87.4634 45.8658 87.4634C44.8898 87.4634 44.3829 88.1861 44.3829 89.0589V91.5273ZM50.9108 91.6493C49.578 91.6493 48.6864 90.692 48.6864 89.2654C48.6864 87.8482 49.5687 86.8721 50.8639 86.8721C52.0934 86.8721 52.9287 87.7449 52.9287 89.0307V89.3499H49.3152C49.3622 90.4573 49.9441 91.0956 50.9202 91.0956C51.6616 91.0956 52.1403 90.7765 52.3092 90.1758H52.9287C52.6846 91.1331 51.9807 91.6493 50.9108 91.6493ZM50.8639 87.4258C50.0098 87.4258 49.4466 87.989 49.334 88.8806H52.2811C52.2811 88.0077 51.7179 87.4258 50.8639 87.4258ZM56.3386 86.9378V87.5197H55.982C55.1467 87.5197 54.6117 88.0828 54.6117 88.9463V91.5367H53.9641V86.9941H54.5741L54.6211 87.698C54.7994 87.21 55.2781 86.8909 55.9163 86.8909C56.0571 86.8909 56.1791 86.9002 56.3386 86.9378ZM58.9306 91.6493C57.5979 91.6493 56.7063 90.692 56.7063 89.2654C56.7063 87.8482 57.5885 86.8721 58.8837 86.8721C60.1132 86.8721 60.9485 87.7449 60.9485 89.0307V89.3499H57.3351C57.382 90.4573 57.9639 91.0956 58.94 91.0956C59.6815 91.0956 60.1601 90.7765 60.3291 90.1758H60.9485C60.7045 91.1331 60.0006 91.6493 58.9306 91.6493ZM58.8837 87.4258C58.0296 87.4258 57.4665 87.989 57.3539 88.8806H60.3009C60.3009 88.0077 59.7378 87.4258 58.8837 87.4258ZM63.7672 91.6493C62.4438 91.6493 61.6648 90.6357 61.6648 89.2748C61.6648 87.9045 62.4438 86.8721 63.7953 86.8721C64.5462 86.8721 65.1469 87.2006 65.466 87.8576V84.6946H66.1136V91.5367H65.5504L65.4847 90.6075C65.1656 91.3114 64.5274 91.6493 63.7672 91.6493ZM63.8798 91.058C64.8747 91.058 65.4566 90.3072 65.4566 89.256C65.4566 88.2142 64.8747 87.454 63.8798 87.454C62.8943 87.454 62.3218 88.2142 62.3218 89.256C62.3218 90.3072 62.8943 91.058 63.8798 91.058ZM69.6831 90.2603H70.3026C70.3026 90.7858 70.6968 91.1143 71.335 91.1143C72.0389 91.1143 72.4519 90.814 72.4519 90.326C72.4519 89.9505 72.2642 89.7347 71.7292 89.6033L70.9502 89.4062C70.1618 89.2091 69.777 88.7961 69.777 88.1767C69.777 87.3789 70.4434 86.8721 71.4195 86.8721C72.3768 86.8721 72.9962 87.3977 73.0244 88.2424H72.3956C72.3768 87.7168 72.0107 87.4071 71.4007 87.4071C70.7625 87.4071 70.4058 87.6792 70.4058 88.1673C70.4058 88.5145 70.6498 88.7586 71.1473 88.8806L71.9263 89.0777C72.7147 89.2748 73.0713 89.6408 73.0713 90.2978C73.0713 91.1143 72.3768 91.6493 71.3444 91.6493C70.3214 91.6493 69.6831 91.1049 69.6831 90.2603ZM73.8183 89.2654C73.8183 87.8763 74.7944 86.8721 76.1272 86.8721C77.4599 86.8721 78.436 87.8763 78.436 89.2654C78.436 90.6451 77.4599 91.6493 76.1272 91.6493C74.7944 91.6493 73.8183 90.6451 73.8183 89.2654ZM74.4753 89.256C74.4753 90.326 75.1511 91.0674 76.1272 91.0674C77.0939 91.0674 77.779 90.326 77.779 89.256C77.779 88.2048 77.0939 87.454 76.1272 87.454C75.1511 87.454 74.4753 88.2048 74.4753 89.256ZM80.1194 91.5367H79.4718V86.9941H80.0349L80.11 87.6417C80.3353 87.163 80.8421 86.8721 81.4803 86.8721C82.1936 86.8721 82.7286 87.2475 82.9444 87.8388C83.1509 87.2475 83.7047 86.8721 84.4367 86.8721C85.4222 86.8721 86.0698 87.5103 86.0698 88.5615V91.5367H85.441V88.6929C85.441 87.9139 85.0092 87.454 84.3147 87.454C83.5545 87.454 83.104 88.0265 83.104 88.7304V91.5367H82.4658V88.6835C82.4658 87.9139 82.0247 87.4634 81.3395 87.4634C80.5793 87.4634 80.1194 88.0265 80.1194 88.721V91.5367ZM89.2777 91.6493C87.945 91.6493 87.0534 90.692 87.0534 89.2654C87.0534 87.8482 87.9356 86.8721 89.2308 86.8721C90.4603 86.8721 91.2956 87.7449 91.2956 89.0307V89.3499H87.6822C87.7291 90.4573 88.311 91.0956 89.2871 91.0956C90.0286 91.0956 90.5073 90.7765 90.6762 90.1758H91.2956C91.0516 91.1331 90.3477 91.6493 89.2777 91.6493ZM89.2308 87.4258C88.3767 87.4258 87.8136 87.989 87.701 88.8806H90.648C90.648 88.0077 90.0849 87.4258 89.2308 87.4258ZM96.2387 91.6493C95.2719 91.6493 94.6994 91.1049 94.6994 90.3072C94.6994 89.4719 95.3376 88.9463 96.3982 88.8618L97.8999 88.7398V88.5896C97.8999 87.698 97.3649 87.4164 96.6985 87.4164C95.9102 87.4164 95.4409 87.7731 95.4409 88.3831H94.8496C94.8496 87.4634 95.6004 86.8721 96.7173 86.8721C97.7685 86.8721 98.5381 87.3977 98.5381 88.599V91.5367H97.9937L97.9093 90.7389C97.6277 91.3114 97.0083 91.6493 96.2387 91.6493ZM96.3888 91.1237C97.3461 91.1237 97.8999 90.4573 97.8999 89.4719V89.2278L96.5578 89.3311C95.7037 89.4062 95.3564 89.7816 95.3564 90.2884C95.3564 90.8422 95.7694 91.1237 96.3888 91.1237ZM99.5185 89.2748C99.5185 87.8482 100.391 86.8721 101.715 86.8721C102.766 86.8721 103.536 87.4821 103.714 88.4207H103.066C102.897 87.7919 102.353 87.4446 101.724 87.4446C100.804 87.4446 100.157 88.1485 100.157 89.2654C100.157 90.3447 100.757 91.0674 101.677 91.0674C102.353 91.0674 102.897 90.692 103.076 90.1101H103.733C103.517 91.0392 102.71 91.6493 101.677 91.6493C100.391 91.6493 99.5185 90.7014 99.5185 89.2748ZM104.395 89.2748C104.395 87.8482 105.267 86.8721 106.591 86.8721C107.642 86.8721 108.412 87.4821 108.59 88.4207H107.942C107.773 87.7919 107.229 87.4446 106.6 87.4446C105.68 87.4446 105.033 88.1485 105.033 89.2654C105.033 90.3447 105.633 91.0674 106.553 91.0674C107.229 91.0674 107.773 90.692 107.952 90.1101H108.609C108.393 91.0392 107.586 91.6493 106.553 91.6493C105.267 91.6493 104.395 90.7014 104.395 89.2748ZM109.271 89.2654C109.271 87.8763 110.247 86.8721 111.579 86.8721C112.912 86.8721 113.888 87.8763 113.888 89.2654C113.888 90.6451 112.912 91.6493 111.579 91.6493C110.247 91.6493 109.271 90.6451 109.271 89.2654ZM109.928 89.256C109.928 90.326 110.603 91.0674 111.579 91.0674C112.546 91.0674 113.231 90.326 113.231 89.256C113.231 88.2048 112.546 87.454 111.579 87.454C110.603 87.454 109.928 88.2048 109.928 89.256ZM115.572 91.5367H114.924V86.9941H115.487L115.562 87.6417C115.788 87.163 116.294 86.8721 116.933 86.8721C117.646 86.8721 118.181 87.2475 118.397 87.8388C118.603 87.2475 119.157 86.8721 119.889 86.8721C120.875 86.8721 121.522 87.5103 121.522 88.5615V91.5367H120.893V88.6929C120.893 87.9139 120.462 87.454 119.767 87.454C119.007 87.454 118.556 88.0265 118.556 88.7304V91.5367H117.918V88.6835C117.918 87.9139 117.477 87.4634 116.792 87.4634C116.032 87.4634 115.572 88.0265 115.572 88.721V91.5367ZM123.472 91.5367H122.825V86.9941H123.388L123.463 87.6417C123.688 87.163 124.195 86.8721 124.833 86.8721C125.547 86.8721 126.082 87.2475 126.297 87.8388C126.504 87.2475 127.058 86.8721 127.79 86.8721C128.775 86.8721 129.423 87.5103 129.423 88.5615V91.5367H128.794V88.6929C128.794 87.9139 128.362 87.454 127.668 87.454C126.908 87.454 126.457 88.0265 126.457 88.7304V91.5367H125.819V88.6835C125.819 87.9139 125.378 87.4634 124.693 87.4634C123.932 87.4634 123.472 88.0265 123.472 88.721V91.5367ZM130.406 89.2654C130.406 87.8763 131.383 86.8721 132.715 86.8721C134.048 86.8721 135.024 87.8763 135.024 89.2654C135.024 90.6451 134.048 91.6493 132.715 91.6493C131.383 91.6493 130.406 90.6451 130.406 89.2654ZM131.063 89.256C131.063 90.326 131.739 91.0674 132.715 91.0674C133.682 91.0674 134.367 90.326 134.367 89.256C134.367 88.2048 133.682 87.454 132.715 87.454C131.739 87.454 131.063 88.2048 131.063 89.256ZM137.843 91.6493C136.52 91.6493 135.741 90.6357 135.741 89.2748C135.741 87.9045 136.52 86.8721 137.871 86.8721C138.622 86.8721 139.223 87.2006 139.542 87.8576V84.6946H140.189V91.5367H139.626L139.561 90.6075C139.242 91.3114 138.603 91.6493 137.843 91.6493ZM137.956 91.058C138.951 91.058 139.533 90.3072 139.533 89.256C139.533 88.2142 138.951 87.454 137.956 87.454C136.97 87.454 136.398 88.2142 136.398 89.256C136.398 90.3072 136.97 91.058 137.956 91.058ZM142.845 91.6493C141.879 91.6493 141.306 91.1049 141.306 90.3072C141.306 89.4719 141.944 88.9463 143.005 88.8618L144.507 88.7398V88.5896C144.507 87.698 143.972 87.4164 143.305 87.4164C142.517 87.4164 142.048 87.7731 142.048 88.3831H141.456C141.456 87.4634 142.207 86.8721 143.324 86.8721C144.375 86.8721 145.145 87.3977 145.145 88.599V91.5367H144.601L144.516 90.7389C144.234 91.3114 143.615 91.6493 142.845 91.6493ZM142.996 91.1237C143.953 91.1237 144.507 90.4573 144.507 89.4719V89.2278L143.165 89.3311C142.31 89.4062 141.963 89.7816 141.963 90.2884C141.963 90.8422 142.376 91.1237 142.996 91.1237ZM147.404 91.5367H146.766V87.5385H145.855V86.9941H146.766V85.5581H147.404V86.9941H148.314V87.5385H147.404V91.5367ZM149.477 85.7458C149.214 85.7458 148.998 85.53 148.998 85.2672C148.998 85.0044 149.214 84.7791 149.477 84.7791C149.739 84.7791 149.965 85.0044 149.965 85.2672C149.965 85.53 149.739 85.7458 149.477 85.7458ZM149.157 91.5367V86.9941H149.805V91.5367H149.157ZM150.836 89.2654C150.836 87.8763 151.812 86.8721 153.145 86.8721C154.478 86.8721 155.454 87.8763 155.454 89.2654C155.454 90.6451 154.478 91.6493 153.145 91.6493C151.812 91.6493 150.836 90.6451 150.836 89.2654ZM151.493 89.256C151.493 90.326 152.169 91.0674 153.145 91.0674C154.112 91.0674 154.797 90.326 154.797 89.256C154.797 88.2048 154.112 87.454 153.145 87.454C152.169 87.454 151.493 88.2048 151.493 89.256ZM157.137 91.5367H156.49V86.9941H157.053L157.147 87.7825C157.447 87.2006 158.048 86.8721 158.705 86.8721C159.953 86.8721 160.469 87.6135 160.469 88.7586V91.5367H159.822V88.8994C159.822 87.8388 159.343 87.4634 158.592 87.4634C157.663 87.4634 157.137 88.1391 157.137 89.1621V91.5367ZM164.044 89.2654C164.044 87.8763 165.02 86.8721 166.353 86.8721C167.686 86.8721 168.662 87.8763 168.662 89.2654C168.662 90.6451 167.686 91.6493 166.353 91.6493C165.02 91.6493 164.044 90.6451 164.044 89.2654ZM164.701 89.256C164.701 90.326 165.377 91.0674 166.353 91.0674C167.319 91.0674 168.005 90.326 168.005 89.256C168.005 88.2048 167.319 87.454 166.353 87.454C165.377 87.454 164.701 88.2048 164.701 89.256ZM169.697 93.517V86.9941H170.261L170.326 87.9139C170.645 87.21 171.284 86.8721 172.044 86.8721C173.358 86.8721 174.146 87.8763 174.146 89.2466C174.146 90.6169 173.386 91.6493 172.044 91.6493C171.274 91.6493 170.664 91.3208 170.345 90.6638V93.517H169.697ZM170.354 89.2654C170.354 90.3072 170.936 91.0674 171.931 91.0674C172.917 91.0674 173.489 90.3072 173.489 89.2654C173.489 88.2142 172.917 87.4634 171.931 87.4634C170.936 87.4634 170.354 88.2142 170.354 89.2654ZM176.174 91.5367H175.536V87.5385H174.626V86.9941H175.536V85.5581H176.174V86.9941H177.085V87.5385H176.174V91.5367ZM178.247 85.7458C177.984 85.7458 177.769 85.53 177.769 85.2672C177.769 85.0044 177.984 84.7791 178.247 84.7791C178.51 84.7791 178.735 85.0044 178.735 85.2672C178.735 85.53 178.51 85.7458 178.247 85.7458ZM177.928 91.5367V86.9941H178.576V91.5367H177.928ZM179.607 89.2654C179.607 87.8763 180.583 86.8721 181.916 86.8721C183.249 86.8721 184.225 87.8763 184.225 89.2654C184.225 90.6451 183.249 91.6493 181.916 91.6493C180.583 91.6493 179.607 90.6451 179.607 89.2654ZM180.264 89.256C180.264 90.326 180.94 91.0674 181.916 91.0674C182.883 91.0674 183.568 90.326 183.568 89.256C183.568 88.2048 182.883 87.454 181.916 87.454C180.94 87.454 180.264 88.2048 180.264 89.256ZM185.908 91.5367H185.261V86.9941H185.824L185.917 87.7825C186.218 87.2006 186.819 86.8721 187.475 86.8721C188.724 86.8721 189.24 87.6135 189.24 88.7586V91.5367H188.592V88.8994C188.592 87.8388 188.114 87.4634 187.363 87.4634C186.434 87.4634 185.908 88.1391 185.908 89.1621V91.5367ZM190.091 90.2603H190.71C190.71 90.7858 191.105 91.1143 191.743 91.1143C192.447 91.1143 192.86 90.814 192.86 90.326C192.86 89.9505 192.672 89.7347 192.137 89.6033L191.358 89.4062C190.57 89.2091 190.185 88.7961 190.185 88.1767C190.185 87.3789 190.851 86.8721 191.827 86.8721C192.785 86.8721 193.404 87.3977 193.432 88.2424H192.803C192.785 87.7168 192.419 87.4071 191.808 87.4071C191.17 87.4071 190.814 87.6792 190.814 88.1673C190.814 88.5145 191.058 88.7586 191.555 88.8806L192.334 89.0777C193.122 89.2748 193.479 89.6408 193.479 90.2978C193.479 91.1143 192.785 91.6493 191.752 91.6493C190.729 91.6493 190.091 91.1049 190.091 90.2603ZM196.641 86.9941H197.336V86.1119C197.336 85.0888 197.899 84.6946 198.594 84.6946C198.753 84.6946 198.941 84.704 199.091 84.7322V85.2859H198.706C198.134 85.2859 197.984 85.5769 197.984 86.1119V86.9941H199.053V87.5385H197.984V91.5367H197.336V87.5385H196.641V86.9941ZM199.478 89.2654C199.478 87.8763 200.454 86.8721 201.787 86.8721C203.12 86.8721 204.096 87.8763 204.096 89.2654C204.096 90.6451 203.12 91.6493 201.787 91.6493C200.454 91.6493 199.478 90.6451 199.478 89.2654ZM200.135 89.256C200.135 90.326 200.811 91.0674 201.787 91.0674C202.753 91.0674 203.439 90.326 203.439 89.256C203.439 88.2048 202.753 87.454 201.787 87.454C200.811 87.454 200.135 88.2048 200.135 89.256ZM207.506 86.9378V87.5197H207.149C206.314 87.5197 205.779 88.0828 205.779 88.9463V91.5367H205.131V86.9941H205.741L205.788 87.698C205.967 87.21 206.445 86.8909 207.084 86.8909C207.224 86.8909 207.346 86.9002 207.506 86.9378ZM14.294 106.517V105.982H14.7914C15.1856 105.982 15.5798 105.954 15.8051 105.344L16.0022 104.809L14.1626 99.9941H14.8477L16.3119 103.955L17.7479 99.9941H18.4142L16.3306 105.578C16.0679 106.292 15.6267 106.583 14.9791 106.583C14.707 106.583 14.5005 106.564 14.294 106.517ZM18.6968 102.265C18.6968 100.876 19.6728 99.8721 21.0056 99.8721C22.3383 99.8721 23.3144 100.876 23.3144 102.265C23.3144 103.645 22.3383 104.649 21.0056 104.649C19.6728 104.649 18.6968 103.645 18.6968 102.265ZM19.3537 102.256C19.3537 103.326 20.0295 104.067 21.0056 104.067C21.9723 104.067 22.6574 103.326 22.6574 102.256C22.6574 101.205 21.9723 100.454 21.0056 100.454C20.0295 100.454 19.3537 101.205 19.3537 102.256ZM27.4313 99.9941H28.0789V104.537H27.5158L27.4313 103.767C27.1779 104.293 26.5491 104.649 25.8358 104.649C24.7658 104.649 24.1839 103.917 24.1839 102.81V99.9847H24.8409V102.603C24.8409 103.683 25.3196 104.067 26.0422 104.067C26.9151 104.067 27.4313 103.486 27.4313 102.406V99.9941ZM33.0727 104.537H32.4345V100.538H31.5241V99.9941H32.4345V98.5581H33.0727V99.9941H33.9831V100.538H33.0727V104.537ZM34.4615 102.265C34.4615 100.876 35.4376 99.8721 36.7703 99.8721C38.1031 99.8721 39.0792 100.876 39.0792 102.265C39.0792 103.645 38.1031 104.649 36.7703 104.649C35.4376 104.649 34.4615 103.645 34.4615 102.265ZM35.1185 102.256C35.1185 103.326 35.7942 104.067 36.7703 104.067C37.737 104.067 38.4222 103.326 38.4222 102.256C38.4222 101.205 37.737 100.454 36.7703 100.454C35.7942 100.454 35.1185 101.205 35.1185 102.256ZM42.3988 102.275C42.3988 100.848 43.2717 99.8721 44.5951 99.8721C45.6462 99.8721 46.4159 100.482 46.5942 101.421H45.9466C45.7776 100.792 45.2333 100.445 44.6044 100.445C43.6847 100.445 43.0371 101.149 43.0371 102.265C43.0371 103.345 43.6377 104.067 44.5575 104.067C45.2333 104.067 45.7776 103.692 45.956 103.11H46.6129C46.3971 104.039 45.5899 104.649 44.5575 104.649C43.2717 104.649 42.3988 103.701 42.3988 102.275ZM47.2749 102.265C47.2749 100.876 48.251 99.8721 49.5838 99.8721C50.9165 99.8721 51.8926 100.876 51.8926 102.265C51.8926 103.645 50.9165 104.649 49.5838 104.649C48.251 104.649 47.2749 103.645 47.2749 102.265ZM47.9319 102.256C47.9319 103.326 48.6077 104.067 49.5838 104.067C50.5505 104.067 51.2356 103.326 51.2356 102.256C51.2356 101.205 50.5505 100.454 49.5838 100.454C48.6077 100.454 47.9319 101.205 47.9319 102.256ZM53.576 104.537H52.9284V99.9941H53.4915L53.5854 100.782C53.8857 100.201 54.4864 99.8721 55.1434 99.8721C56.3916 99.8721 56.9078 100.614 56.9078 101.759V104.537H56.2602V101.899C56.2602 100.839 55.7816 100.463 55.0307 100.463C54.1016 100.463 53.576 101.139 53.576 102.162V104.537ZM57.7588 103.26H58.3782C58.3782 103.786 58.7724 104.114 59.4106 104.114C60.1145 104.114 60.5275 103.814 60.5275 103.326C60.5275 102.951 60.3398 102.735 59.8048 102.603L59.0258 102.406C58.2374 102.209 57.8526 101.796 57.8526 101.177C57.8526 100.379 58.519 99.8721 59.4951 99.8721C60.4524 99.8721 61.0719 100.398 61.1 101.242H60.4712C60.4524 100.717 60.0864 100.407 59.4763 100.407C58.8381 100.407 58.4814 100.679 58.4814 101.167C58.4814 101.515 58.7255 101.759 59.2229 101.881L60.0019 102.078C60.7903 102.275 61.1469 102.641 61.1469 103.298C61.1469 104.114 60.4524 104.649 59.42 104.649C58.397 104.649 57.7588 104.105 57.7588 103.26ZM62.5322 98.7458C62.2694 98.7458 62.0535 98.53 62.0535 98.2672C62.0535 98.0044 62.2694 97.7791 62.5322 97.7791C62.795 97.7791 63.0202 98.0044 63.0202 98.2672C63.0202 98.53 62.795 98.7458 62.5322 98.7458ZM62.2131 104.537V99.9941H62.8607V104.537H62.2131ZM65.9944 104.649C64.671 104.649 63.8921 103.636 63.8921 102.275C63.8921 100.904 64.671 99.8721 66.0226 99.8721C66.7734 99.8721 67.3741 100.201 67.6932 100.858V97.6946H68.3408V104.537H67.7777L67.712 103.608C67.3928 104.311 66.7546 104.649 65.9944 104.649ZM66.107 104.058C67.1019 104.058 67.6838 103.307 67.6838 102.256C67.6838 101.214 67.1019 100.454 66.107 100.454C65.1216 100.454 64.549 101.214 64.549 102.256C64.549 103.307 65.1216 104.058 66.107 104.058ZM71.5974 104.649C70.2647 104.649 69.373 103.692 69.373 102.265C69.373 100.848 70.2553 99.8721 71.5505 99.8721C72.78 99.8721 73.6153 100.745 73.6153 102.031V102.35H70.0019C70.0488 103.457 70.6307 104.096 71.6068 104.096C72.3483 104.096 72.8269 103.776 72.9959 103.176H73.6153C73.3713 104.133 72.6674 104.649 71.5974 104.649ZM71.5505 100.426C70.6964 100.426 70.1333 100.989 70.0206 101.881H72.9677C72.9677 101.008 72.4046 100.426 71.5505 100.426ZM77.0252 99.9378V100.52H76.6686C75.8333 100.52 75.2983 101.083 75.2983 101.946V104.537H74.6507V99.9941H75.2608L75.3077 100.698C75.486 100.21 75.9647 99.8909 76.6029 99.8909C76.7437 99.8909 76.8657 99.9002 77.0252 99.9378ZM77.7433 104.64C77.4242 104.64 77.152 104.377 77.152 104.067C77.152 103.748 77.4242 103.476 77.7433 103.476C78.0624 103.476 78.3346 103.748 78.3346 104.067C78.3346 104.377 78.0624 104.64 77.7433 104.64ZM81.6858 98.4361V97.8167H86.5006V98.4361H84.4264V104.537H83.7506V98.4361H81.6858ZM87.898 104.649C86.9313 104.649 86.3588 104.105 86.3588 103.307C86.3588 102.472 86.997 101.946 88.0576 101.862L89.5592 101.74V101.59C89.5592 100.698 89.0243 100.416 88.3579 100.416C87.5695 100.416 87.1002 100.773 87.1002 101.383H86.509C86.509 100.463 87.2598 99.8721 88.3767 99.8721C89.4278 99.8721 90.1975 100.398 90.1975 101.599V104.537H89.6531L89.5686 103.739C89.2871 104.311 88.6676 104.649 87.898 104.649ZM88.0482 104.124C89.0055 104.124 89.5592 103.457 89.5592 102.472V102.228L88.2171 102.331C87.363 102.406 87.0158 102.782 87.0158 103.288C87.0158 103.842 87.4287 104.124 88.0482 104.124ZM92.1727 104.537H91.5251V97.6946H92.1727V102.34L94.4253 99.9941H95.2418L93.4961 101.805L95.2512 104.537H94.5004L93.055 102.265L92.1727 103.176V104.537ZM97.7742 104.649C96.4415 104.649 95.5498 103.692 95.5498 102.265C95.5498 100.848 96.4321 99.8721 97.7273 99.8721C98.9568 99.8721 99.7921 100.745 99.7921 102.031V102.35H96.1787C96.2256 103.457 96.8075 104.096 97.7836 104.096C98.5251 104.096 99.0037 103.776 99.1727 103.176H99.7921C99.5481 104.133 98.8442 104.649 97.7742 104.649ZM97.7273 100.426C96.8732 100.426 96.3101 100.989 96.1974 101.881H99.1445C99.1445 101.008 98.5814 100.426 97.7273 100.426ZM104.735 104.649C103.768 104.649 103.196 104.105 103.196 103.307C103.196 102.472 103.834 101.946 104.895 101.862L106.396 101.74V101.59C106.396 100.698 105.861 100.416 105.195 100.416C104.407 100.416 103.937 100.773 103.937 101.383H103.346C103.346 100.463 104.097 99.8721 105.214 99.8721C106.265 99.8721 107.035 100.398 107.035 101.599V104.537H106.49L106.406 103.739C106.124 104.311 105.505 104.649 104.735 104.649ZM104.885 104.124C105.843 104.124 106.396 103.457 106.396 102.472V102.228L105.054 102.331C104.2 102.406 103.853 102.782 103.853 103.288C103.853 103.842 104.266 104.124 104.885 104.124ZM111.613 104.537H110.965V97.6946H111.613V104.537ZM112.671 102.265C112.671 100.876 113.647 99.8721 114.98 99.8721C116.313 99.8721 117.289 100.876 117.289 102.265C117.289 103.645 116.313 104.649 114.98 104.649C113.647 104.649 112.671 103.645 112.671 102.265ZM113.328 102.256C113.328 103.326 114.004 104.067 114.98 104.067C115.947 104.067 116.632 103.326 116.632 102.256C116.632 101.205 115.947 100.454 114.98 100.454C114.004 100.454 113.328 101.205 113.328 102.256ZM118.005 102.265C118.005 100.876 118.982 99.8721 120.314 99.8721C121.647 99.8721 122.623 100.876 122.623 102.265C122.623 103.645 121.647 104.649 120.314 104.649C118.982 104.649 118.005 103.645 118.005 102.265ZM118.662 102.256C118.662 103.326 119.338 104.067 120.314 104.067C121.281 104.067 121.966 103.326 121.966 102.256C121.966 101.205 121.281 100.454 120.314 100.454C119.338 100.454 118.662 101.205 118.662 102.256ZM124.335 104.537H123.687V97.6946H124.335V102.34L126.587 99.9941H127.404L125.658 101.805L127.413 104.537H126.662L125.217 102.265L124.335 103.176V104.537ZM132.094 104.649C131.128 104.649 130.555 104.105 130.555 103.307C130.555 102.472 131.193 101.946 132.254 101.862L133.755 101.74V101.59C133.755 100.698 133.221 100.416 132.554 100.416C131.766 100.416 131.296 100.773 131.296 101.383H130.705C130.705 100.463 131.456 99.8721 132.573 99.8721C133.624 99.8721 134.394 100.398 134.394 101.599V104.537H133.849L133.765 103.739C133.483 104.311 132.864 104.649 132.094 104.649ZM132.244 104.124C133.202 104.124 133.755 103.457 133.755 102.472V102.228L132.413 102.331C131.559 102.406 131.212 102.782 131.212 103.288C131.212 103.842 131.625 104.124 132.244 104.124ZM136.653 104.537H136.014V100.538H135.104V99.9941H136.014V98.5581H136.653V99.9941H137.563V100.538H136.653V104.537ZM142.051 104.537H141.413V100.538H140.502V99.9941H141.413V98.5581H142.051V99.9941H142.961V100.538H142.051V104.537ZM144.452 104.527H143.805V97.6946H144.452V100.782C144.743 100.238 145.297 99.8721 146.057 99.8721C147.249 99.8721 147.784 100.614 147.784 101.759V104.537H147.137V101.899C147.137 100.839 146.639 100.463 145.935 100.463C144.959 100.463 144.452 101.186 144.452 102.059V104.527ZM150.98 104.649C149.647 104.649 148.756 103.692 148.756 102.265C148.756 100.848 149.638 99.8721 150.933 99.8721C152.163 99.8721 152.998 100.745 152.998 102.031V102.35H149.385C149.432 103.457 150.013 104.096 150.99 104.096C151.731 104.096 152.21 103.776 152.379 103.176H152.998C152.754 104.133 152.05 104.649 150.98 104.649ZM150.933 100.426C150.079 100.426 149.516 100.989 149.403 101.881H152.35C152.35 101.008 151.787 100.426 150.933 100.426ZM153.649 103.26H154.268C154.268 103.786 154.662 104.114 155.301 104.114C156.004 104.114 156.417 103.814 156.417 103.326C156.417 102.951 156.23 102.735 155.695 102.603L154.916 102.406C154.127 102.209 153.743 101.796 153.743 101.177C153.743 100.379 154.409 99.8721 155.385 99.8721C156.342 99.8721 156.962 100.398 156.99 101.242H156.361C156.342 100.717 155.976 100.407 155.366 100.407C154.728 100.407 154.371 100.679 154.371 101.167C154.371 101.515 154.615 101.759 155.113 101.881L155.892 102.078C156.68 102.275 157.037 102.641 157.037 103.298C157.037 104.114 156.342 104.649 155.31 104.649C154.287 104.649 153.649 104.105 153.649 103.26ZM160.008 104.649C158.676 104.649 157.784 103.692 157.784 102.265C157.784 100.848 158.666 99.8721 159.961 99.8721C161.191 99.8721 162.026 100.745 162.026 102.031V102.35H158.413C158.46 103.457 159.042 104.096 160.018 104.096C160.759 104.096 161.238 103.776 161.407 103.176H162.026C161.782 104.133 161.078 104.649 160.008 104.649ZM159.961 100.426C159.107 100.426 158.544 100.989 158.431 101.881H161.379C161.379 101.008 160.815 100.426 159.961 100.426ZM165.345 102.275C165.345 100.848 166.218 99.8721 167.542 99.8721C168.593 99.8721 169.362 100.482 169.541 101.421H168.893C168.724 100.792 168.18 100.445 167.551 100.445C166.631 100.445 165.984 101.149 165.984 102.265C165.984 103.345 166.584 104.067 167.504 104.067C168.18 104.067 168.724 103.692 168.903 103.11H169.56C169.344 104.039 168.537 104.649 167.504 104.649C166.218 104.649 165.345 103.701 165.345 102.275ZM171.845 104.649C170.879 104.649 170.306 104.105 170.306 103.307C170.306 102.472 170.944 101.946 172.005 101.862L173.506 101.74V101.59C173.506 100.698 172.971 100.416 172.305 100.416C171.517 100.416 171.047 100.773 171.047 101.383H170.456C170.456 100.463 171.207 99.8721 172.324 99.8721C173.375 99.8721 174.145 100.398 174.145 101.599V104.537H173.6L173.516 103.739C173.234 104.311 172.615 104.649 171.845 104.649ZM171.995 104.124C172.953 104.124 173.506 103.457 173.506 102.472V102.228L172.164 102.331C171.31 102.406 170.963 102.782 170.963 103.288C170.963 103.842 171.376 104.124 171.995 104.124ZM177.819 99.9378V100.52H177.462C176.627 100.52 176.092 101.083 176.092 101.946V104.537H175.444V99.9941H176.054L176.101 100.698C176.28 100.21 176.758 99.8909 177.396 99.8909C177.537 99.8909 177.659 99.9002 177.819 99.9378ZM180.289 104.649C178.965 104.649 178.186 103.636 178.186 102.275C178.186 100.904 178.965 99.8721 180.317 99.8721C181.068 99.8721 181.668 100.201 181.988 100.858V97.6946H182.635V104.537H182.072L182.006 103.608C181.687 104.311 181.049 104.649 180.289 104.649ZM180.401 104.058C181.396 104.058 181.978 103.307 181.978 102.256C181.978 101.214 181.396 100.454 180.401 100.454C179.416 100.454 178.843 101.214 178.843 102.256C178.843 103.307 179.416 104.058 180.401 104.058ZM183.602 103.26H184.221C184.221 103.786 184.615 104.114 185.254 104.114C185.957 104.114 186.37 103.814 186.37 103.326C186.37 102.951 186.183 102.735 185.648 102.603L184.869 102.406C184.08 102.209 183.696 101.796 183.696 101.177C183.696 100.379 184.362 99.8721 185.338 99.8721C186.295 99.8721 186.915 100.398 186.943 101.242H186.314C186.295 100.717 185.929 100.407 185.319 100.407C184.681 100.407 184.324 100.679 184.324 101.167C184.324 101.515 184.568 101.759 185.066 101.881L185.845 102.078C186.633 102.275 186.99 102.641 186.99 103.298C186.99 104.114 186.295 104.649 185.263 104.649C184.24 104.649 183.602 104.105 183.602 103.26ZM191.964 104.649C190.997 104.649 190.424 104.105 190.424 103.307C190.424 102.472 191.063 101.946 192.123 101.862L193.625 101.74V101.59C193.625 100.698 193.09 100.416 192.423 100.416C191.635 100.416 191.166 100.773 191.166 101.383H190.575C190.575 100.463 191.325 99.8721 192.442 99.8721C193.493 99.8721 194.263 100.398 194.263 101.599V104.537H193.719L193.634 103.739C193.353 104.311 192.733 104.649 191.964 104.649ZM192.114 104.124C193.071 104.124 193.625 103.457 193.625 102.472V102.228L192.283 102.331C191.429 102.406 191.081 102.782 191.081 103.288C191.081 103.842 191.494 104.124 192.114 104.124ZM196.21 104.537H195.563V99.9941H196.126L196.22 100.782C196.52 100.201 197.121 99.8721 197.778 99.8721C199.026 99.8721 199.542 100.614 199.542 101.759V104.537H198.894V101.899C198.894 100.839 198.416 100.463 197.665 100.463C196.736 100.463 196.21 101.139 196.21 102.162V104.537ZM202.616 104.649C201.293 104.649 200.514 103.636 200.514 102.275C200.514 100.904 201.293 99.8721 202.644 99.8721C203.395 99.8721 203.996 100.201 204.315 100.858V97.6946H204.962V104.537H204.399L204.334 103.608C204.014 104.311 203.376 104.649 202.616 104.649ZM202.729 104.058C203.723 104.058 204.305 103.307 204.305 102.256C204.305 101.214 203.723 100.454 202.729 100.454C201.743 100.454 201.171 101.214 201.171 102.256C201.171 103.307 201.743 104.058 202.729 104.058ZM15.4296 117.537H14.782V110.695H15.4296V117.537ZM18.7122 117.649C17.3795 117.649 16.4879 116.692 16.4879 115.265C16.4879 113.848 17.3701 112.872 18.6653 112.872C19.8948 112.872 20.7301 113.745 20.7301 115.031V115.35H17.1167C17.1636 116.457 17.7455 117.096 18.7216 117.096C19.4631 117.096 19.9417 116.776 20.1107 116.176H20.7301C20.4861 117.133 19.7822 117.649 18.7122 117.649ZM18.6653 113.426C17.8112 113.426 17.2481 113.989 17.1355 114.881H20.0825C20.0825 114.008 19.5194 113.426 18.6653 113.426ZM22.7615 117.537H22.1233V113.538H21.2129V112.994H22.1233V111.558H22.7615V112.994H23.6719V113.538H22.7615V117.537ZM27.7658 117.537H27.1182V112.994H27.6813L27.7564 113.642C27.9817 113.163 28.4885 112.872 29.1267 112.872C29.84 112.872 30.375 113.248 30.5908 113.839C30.7973 113.248 31.3511 112.872 32.0831 112.872C33.0686 112.872 33.7162 113.51 33.7162 114.561V117.537H33.0874V114.693C33.0874 113.914 32.6557 113.454 31.9611 113.454C31.2009 113.454 30.7504 114.026 30.7504 114.73V117.537H30.1122V114.683C30.1122 113.914 29.6711 113.463 28.9859 113.463C28.2257 113.463 27.7658 114.026 27.7658 114.721V117.537ZM36.9242 117.649C35.5914 117.649 34.6998 116.692 34.6998 115.265C34.6998 113.848 35.582 112.872 36.8772 112.872C38.1067 112.872 38.942 113.745 38.942 115.031V115.35H35.3286C35.3756 116.457 35.9575 117.096 36.9335 117.096C37.675 117.096 38.1537 116.776 38.3226 116.176H38.942C38.698 117.133 37.9941 117.649 36.9242 117.649ZM36.8772 113.426C36.0232 113.426 35.46 113.989 35.3474 114.881H38.2944C38.2944 114.008 37.7313 113.426 36.8772 113.426ZM43.2562 117.537H42.6086V110.695H43.2562V115.34L45.5088 112.994H46.3253L44.5796 114.805L46.3347 117.537H45.5838L44.1385 115.265L43.2562 116.176V117.537ZM47.7559 117.537H47.1083V112.994H47.6714L47.7652 113.782C48.0656 113.201 48.6662 112.872 49.3232 112.872C50.5715 112.872 51.0877 113.614 51.0877 114.759V117.537H50.4401V114.899C50.4401 113.839 49.9614 113.463 49.2106 113.463C48.2814 113.463 47.7559 114.139 47.7559 115.162V117.537ZM52.0593 115.265C52.0593 113.876 53.0354 112.872 54.3682 112.872C55.7009 112.872 56.677 113.876 56.677 115.265C56.677 116.645 55.7009 117.649 54.3682 117.649C53.0354 117.649 52.0593 116.645 52.0593 115.265ZM52.7163 115.256C52.7163 116.326 53.3921 117.067 54.3682 117.067C55.3349 117.067 56.02 116.326 56.02 115.256C56.02 114.205 55.3349 113.454 54.3682 113.454C53.3921 113.454 52.7163 114.205 52.7163 115.256ZM58.4685 117.537L56.9668 112.994H57.6332L58.5248 115.735C58.628 116.035 58.7125 116.345 58.8063 116.711C58.8814 116.345 59.0316 115.885 59.0785 115.735L59.9795 112.994H60.6459L61.5375 115.735C61.622 115.979 61.7346 116.373 61.8191 116.711C61.913 116.335 61.9317 116.223 62.0913 115.735L62.9923 112.994H63.668L62.1288 117.537H61.5L60.5614 114.683C60.4488 114.346 60.3737 114.064 60.3174 113.792C60.2517 114.036 60.1766 114.308 60.0546 114.683L59.1161 117.537H58.4685ZM67.3991 111.746C67.1363 111.746 66.9204 111.53 66.9204 111.267C66.9204 111.004 67.1363 110.779 67.3991 110.779C67.6619 110.779 67.8871 111.004 67.8871 111.267C67.8871 111.53 67.6619 111.746 67.3991 111.746ZM67.08 117.537V112.994H67.7276V117.537H67.08ZM68.5712 112.994H69.2658V112.112C69.2658 111.089 69.8289 110.695 70.5234 110.695C70.683 110.695 70.8707 110.704 71.0209 110.732V111.286H70.6361C70.0635 111.286 69.9134 111.577 69.9134 112.112V112.994H70.9833V113.538H69.9134V117.537H69.2658V113.538H68.5712V112.994ZM75.772 117.649C74.8053 117.649 74.2328 117.105 74.2328 116.307C74.2328 115.472 74.871 114.946 75.9315 114.862L77.4332 114.74V114.59C77.4332 113.698 76.8983 113.416 76.2319 113.416C75.4435 113.416 74.9742 113.773 74.9742 114.383H74.3829C74.3829 113.463 75.1338 112.872 76.2507 112.872C77.3018 112.872 78.0714 113.398 78.0714 114.599V117.537H77.5271L77.4426 116.739C77.161 117.311 76.5416 117.649 75.772 117.649ZM75.9222 117.124C76.8795 117.124 77.4332 116.457 77.4332 115.472V115.228L76.0911 115.331C75.237 115.406 74.8898 115.782 74.8898 116.288C74.8898 116.842 75.3027 117.124 75.9222 117.124ZM80.0186 117.537H79.371V112.994H79.9341L80.028 113.782C80.3283 113.201 80.929 112.872 81.586 112.872C82.8342 112.872 83.3504 113.614 83.3504 114.759V117.537H82.7028V114.899C82.7028 113.839 82.2242 113.463 81.4733 113.463C80.5442 113.463 80.0186 114.139 80.0186 115.162V117.537ZM84.0896 119.517V118.982H84.587C84.9812 118.982 85.3754 118.954 85.6007 118.344L85.7978 117.809L83.9582 112.994H84.6434L86.1075 116.955L87.5435 112.994H88.2099L86.1263 118.578C85.8635 119.292 85.4224 119.583 84.7748 119.583C84.5026 119.583 84.2961 119.564 84.0896 119.517ZM91.2512 115.265C91.2512 113.876 92.2273 112.872 93.56 112.872C94.8928 112.872 95.8689 113.876 95.8689 115.265C95.8689 116.645 94.8928 117.649 93.56 117.649C92.2273 117.649 91.2512 116.645 91.2512 115.265ZM91.9082 115.256C91.9082 116.326 92.5839 117.067 93.56 117.067C94.5267 117.067 95.2119 116.326 95.2119 115.256C95.2119 114.205 94.5267 113.454 93.56 113.454C92.5839 113.454 91.9082 114.205 91.9082 115.256ZM96.3612 112.994H97.0557V112.112C97.0557 111.089 97.6188 110.695 98.3134 110.695C98.4729 110.695 98.6606 110.704 98.8108 110.732V111.286H98.426C97.8535 111.286 97.7033 111.577 97.7033 112.112V112.994H98.7733V113.538H97.7033V117.537H97.0557V113.538H96.3612V112.994ZM103.299 117.537H102.661V113.538H101.751V112.994H102.661V111.558H103.299V112.994H104.21V113.538H103.299V117.537ZM105.7 117.527H105.053V110.695H105.7V113.782C105.991 113.238 106.545 112.872 107.305 112.872C108.497 112.872 109.032 113.614 109.032 114.759V117.537H108.385V114.899C108.385 113.839 107.887 113.463 107.183 113.463C106.207 113.463 105.7 114.186 105.7 115.059V117.527ZM112.228 117.649C110.896 117.649 110.004 116.692 110.004 115.265C110.004 113.848 110.886 112.872 112.181 112.872C113.411 112.872 114.246 113.745 114.246 115.031V115.35H110.633C110.68 116.457 111.262 117.096 112.238 117.096C112.979 117.096 113.458 116.776 113.627 116.176H114.246C114.002 117.133 113.298 117.649 112.228 117.649ZM112.181 113.426C111.327 113.426 110.764 113.989 110.652 114.881H113.599C113.599 114.008 113.035 113.426 112.181 113.426ZM115.929 117.537H115.282V112.994H115.845L115.92 113.642C116.145 113.163 116.652 112.872 117.29 112.872C118.003 112.872 118.538 113.248 118.754 113.839C118.961 113.248 119.514 112.872 120.247 112.872C121.232 112.872 121.88 113.51 121.88 114.561V117.537H121.251V114.693C121.251 113.914 120.819 113.454 120.124 113.454C119.364 113.454 118.914 114.026 118.914 114.73V117.537H118.276V114.683C118.276 113.914 117.834 113.463 117.149 113.463C116.389 113.463 115.929 114.026 115.929 114.721V117.537ZM125.466 115.275C125.466 113.848 126.339 112.872 127.662 112.872C128.714 112.872 129.483 113.482 129.662 114.421H129.014C128.845 113.792 128.301 113.445 127.672 113.445C126.752 113.445 126.104 114.149 126.104 115.265C126.104 116.345 126.705 117.067 127.625 117.067C128.301 117.067 128.845 116.692 129.023 116.11H129.68C129.464 117.039 128.657 117.649 127.625 117.649C126.339 117.649 125.466 116.701 125.466 115.275ZM131.966 117.649C130.999 117.649 130.427 117.105 130.427 116.307C130.427 115.472 131.065 114.946 132.125 114.862L133.627 114.74V114.59C133.627 113.698 133.092 113.416 132.426 113.416C131.637 113.416 131.168 113.773 131.168 114.383H130.577C130.577 113.463 131.328 112.872 132.445 112.872C133.496 112.872 134.265 113.398 134.265 114.599V117.537H133.721L133.637 116.739C133.355 117.311 132.736 117.649 131.966 117.649ZM132.116 117.124C133.073 117.124 133.627 116.457 133.627 115.472V115.228L132.285 115.331C131.431 115.406 131.084 115.782 131.084 116.288C131.084 116.842 131.497 117.124 132.116 117.124ZM136.524 117.537H135.886V113.538H134.976V112.994H135.886V111.558H136.524V112.994H137.435V113.538H136.524V117.537ZM137.913 115.275C137.913 113.848 138.786 112.872 140.109 112.872C141.16 112.872 141.93 113.482 142.108 114.421H141.461C141.292 113.792 140.747 113.445 140.119 113.445C139.199 113.445 138.551 114.149 138.551 115.265C138.551 116.345 139.152 117.067 140.072 117.067C140.747 117.067 141.292 116.692 141.47 116.11H142.127C141.911 117.039 141.104 117.649 140.072 117.649C138.786 117.649 137.913 116.701 137.913 115.275ZM143.756 117.527H143.108V110.695H143.756V113.782C144.047 113.238 144.6 112.872 145.361 112.872C146.553 112.872 147.088 113.614 147.088 114.759V117.537H146.44V114.899C146.44 113.839 145.943 113.463 145.239 113.463C144.263 113.463 143.756 114.186 143.756 115.059V117.527ZM150.521 119.517V118.982H151.019C151.413 118.982 151.807 118.954 152.033 118.344L152.23 117.809L150.39 112.994H151.075L152.539 116.955L153.975 112.994H154.642L152.558 118.578C152.295 119.292 151.854 119.583 151.207 119.583C150.934 119.583 150.728 119.564 150.521 119.517ZM154.924 115.265C154.924 113.876 155.9 112.872 157.233 112.872C158.566 112.872 159.542 113.876 159.542 115.265C159.542 116.645 158.566 117.649 157.233 117.649C155.9 117.649 154.924 116.645 154.924 115.265ZM155.581 115.256C155.581 116.326 156.257 117.067 157.233 117.067C158.2 117.067 158.885 116.326 158.885 115.256C158.885 114.205 158.2 113.454 157.233 113.454C156.257 113.454 155.581 114.205 155.581 115.256ZM163.659 112.994H164.306V117.537H163.743L163.659 116.767C163.405 117.293 162.777 117.649 162.063 117.649C160.993 117.649 160.411 116.917 160.411 115.81V112.985H161.068V115.603C161.068 116.683 161.547 117.067 162.27 117.067C163.143 117.067 163.659 116.486 163.659 115.406V112.994ZM168.03 112.938V113.52H167.673C166.838 113.52 166.303 114.083 166.303 114.946V117.537H165.655V112.994H166.265L166.312 113.698C166.491 113.21 166.969 112.891 167.608 112.891C167.748 112.891 167.87 112.9 168.03 112.938ZM171.813 111.746C171.55 111.746 171.334 111.53 171.334 111.267C171.334 111.004 171.55 110.779 171.813 110.779C172.076 110.779 172.301 111.004 172.301 111.267C172.301 111.53 172.076 111.746 171.813 111.746ZM171.494 117.537V112.994H172.141V117.537H171.494ZM174.14 117.537H173.492V112.994H174.055L174.149 113.782C174.449 113.201 175.05 112.872 175.707 112.872C176.955 112.872 177.471 113.614 177.471 114.759V117.537H176.824V114.899C176.824 113.839 176.345 113.463 175.594 113.463C174.665 113.463 174.14 114.139 174.14 115.162V117.537ZM179.804 117.537H179.166V113.538H178.255V112.994H179.166V111.558H179.804V112.994H180.714V113.538H179.804V117.537ZM183.417 117.649C182.084 117.649 181.193 116.692 181.193 115.265C181.193 113.848 182.075 112.872 183.37 112.872C184.6 112.872 185.435 113.745 185.435 115.031V115.35H181.822C181.868 116.457 182.45 117.096 183.426 117.096C184.168 117.096 184.647 116.776 184.815 116.176H185.435C185.191 117.133 184.487 117.649 183.417 117.649ZM183.37 113.426C182.516 113.426 181.953 113.989 181.84 114.881H184.787C184.787 114.008 184.224 113.426 183.37 113.426ZM188.845 112.938V113.52H188.488C187.653 113.52 187.118 114.083 187.118 114.946V117.537H186.47V112.994H187.08L187.127 113.698C187.306 113.21 187.784 112.891 188.423 112.891C188.563 112.891 188.685 112.9 188.845 112.938ZM191.437 117.649C190.104 117.649 189.213 116.692 189.213 115.265C189.213 113.848 190.095 112.872 191.39 112.872C192.619 112.872 193.455 113.745 193.455 115.031V115.35H189.841C189.888 116.457 190.47 117.096 191.446 117.096C192.188 117.096 192.666 116.776 192.835 116.176H193.455C193.211 117.133 192.507 117.649 191.437 117.649ZM191.39 113.426C190.536 113.426 189.973 113.989 189.86 114.881H192.807C192.807 114.008 192.244 113.426 191.39 113.426ZM194.105 116.26H194.725C194.725 116.786 195.119 117.114 195.757 117.114C196.461 117.114 196.874 116.814 196.874 116.326C196.874 115.951 196.686 115.735 196.151 115.603L195.372 115.406C194.584 115.209 194.199 114.796 194.199 114.177C194.199 113.379 194.866 112.872 195.842 112.872C196.799 112.872 197.418 113.398 197.447 114.242H196.818C196.799 113.717 196.433 113.407 195.823 113.407C195.185 113.407 194.828 113.679 194.828 114.167C194.828 114.515 195.072 114.759 195.57 114.881L196.349 115.078C197.137 115.275 197.494 115.641 197.494 116.298C197.494 117.114 196.799 117.649 195.767 117.649C194.744 117.649 194.105 117.105 194.105 116.26ZM199.601 117.537H198.963V113.538H198.053V112.994H198.963V111.558H199.601V112.994H200.512V113.538H199.601V117.537ZM202.003 114.045C201.684 114.045 201.412 113.773 201.412 113.463C201.412 113.144 201.684 112.881 202.003 112.881C202.322 112.881 202.594 113.144 202.594 113.463C202.594 113.773 202.322 114.045 202.003 114.045ZM202.003 117.64C201.684 117.64 201.412 117.377 201.412 117.067C201.412 116.748 201.684 116.476 202.003 116.476C202.322 116.476 202.594 116.748 202.594 117.067C202.594 117.377 202.322 117.64 202.003 117.64Z" fill="black"/>
</g>
<defs>
<filter id="filter0_f_804_19968" x="-150.168" y="73.911" width="381.873" height="381.873" filterUnits="userSpaceOnUse" color-interpolation-filters="sRGB">
<feFlood flood-opacity="0" result="BackgroundImageFix"/>
<feBlend mode="normal" in="SourceGraphic" in2="BackgroundImageFix" result="shape"/>
<feGaussianBlur stdDeviation="58.6595" result="effect1_foregroundBlur_804_19968"/>
</filter>
<filter id="filter1_f_804_19968" x="-22.8773" y="-12.9051" width="381.873" height="381.873" filterUnits="userSpaceOnUse" color-interpolation-filters="sRGB">
<feFlood flood-opacity="0" result="BackgroundImageFix"/>
<feBlend mode="normal" in="SourceGraphic" in2="BackgroundImageFix" result="shape"/>
<feGaussianBlur stdDeviation="58.6595" result="effect1_foregroundBlur_804_19968"/>
</filter>
<filter id="filter2_b_804_19968" x="-175.978" y="-175.978" width="580.729" height="847.043" filterUnits="userSpaceOnUse" color-interpolation-filters="sRGB">
<feFlood flood-opacity="0" result="BackgroundImageFix"/>
<feGaussianBlur in="BackgroundImageFix" stdDeviation="87.9892"/>
<feComposite in2="SourceAlpha" operator="in" result="effect1_backgroundBlur_804_19968"/>
<feBlend mode="normal" in="SourceGraphic" in2="effect1_backgroundBlur_804_19968" result="shape"/>
</filter>
<filter id="filter3_b_804_19968" x="-175.978" y="-175.978" width="580.729" height="847.043" filterUnits="userSpaceOnUse" color-interpolation-filters="sRGB">
<feFlood flood-opacity="0" result="BackgroundImageFix"/>
<feGaussianBlur in="BackgroundImageFix" stdDeviation="87.9892"/>
<feComposite in2="SourceAlpha" operator="in" result="effect1_backgroundBlur_804_19968"/>
<feBlend mode="normal" in="SourceGraphic" in2="effect1_backgroundBlur_804_19968" result="shape"/>
</filter>
<filter id="filter4_f_804_19968" x="-22.8771" y="-12.9051" width="381.873" height="381.873" filterUnits="userSpaceOnUse" color-interpolation-filters="sRGB">
<feFlood flood-opacity="0" result="BackgroundImageFix"/>
<feBlend mode="normal" in="SourceGraphic" in2="BackgroundImageFix" result="shape"/>
<feGaussianBlur stdDeviation="58.6595" result="effect1_foregroundBlur_804_19968"/>
</filter>
<filter id="filter5_b_804_19968" x="-175.978" y="-175.978" width="580.729" height="847.043" filterUnits="userSpaceOnUse" color-interpolation-filters="sRGB">
<feFlood flood-opacity="0" result="BackgroundImageFix"/>
<feGaussianBlur in="BackgroundImageFix" stdDeviation="87.9892"/>
<feComposite in2="SourceAlpha" operator="in" result="effect1_backgroundBlur_804_19968"/>
<feBlend mode="normal" in="SourceGraphic" in2="effect1_backgroundBlur_804_19968" result="shape"/>
</filter>
<linearGradient id="paint0_linear_804_19968" x1="49.8606" y1="32.2627" x2="256.342" y2="77.1372" gradientUnits="userSpaceOnUse">
<stop stop-color="#F1F6FE"/>
<stop offset="1" stop-color="#E5F4FE"/>
</linearGradient>
<linearGradient id="paint1_linear_804_19968" x1="114.386" y1="55.1179" x2="113.7" y2="74.0562" gradientUnits="userSpaceOnUse">
<stop stop-color="#F1F6FE"/>
<stop offset="1" stop-color="#E5F4FE" stop-opacity="0"/>
</linearGradient>
<clipPath id="clip0_804_19968">
<rect width="228" height="368" fill="white"/>
</clipPath>
<clipPath id="clip1_804_19968">
<rect width="228.772" height="495.086" fill="white"/>
</clipPath>
<clipPath id="clip2_804_19968">
<rect width="228.772" height="63.9388" fill="white"/>
</clipPath>
<clipPath id="clip3_804_19968">
<rect width="14.0783" height="14.0783" fill="white" transform="translate(200.615 39.3019)"/>
</clipPath>
</defs>
</svg>
