<svg width="389" height="101" viewBox="0 0 389 101" fill="none" xmlns="http://www.w3.org/2000/svg">
<rect x="33.9165" y="0.71637" width="240.098" height="99.5585" rx="4.13962" fill="#F7F7F7"/>
<path d="M52.1268 24.9956H50.649L54.474 14.5203H56.0532L59.8927 24.9956H58.4004L57.4586 22.3876H53.0541L52.1268 24.9956ZM55.0825 16.7805L53.4887 21.1561H57.0385L55.4302 16.7805C55.3578 16.5777 55.2853 16.3314 55.2564 16.172C55.2274 16.3169 55.1549 16.5632 55.0825 16.7805ZM62.285 24.9956H61.0534V14.3319H62.4154V19.1277C62.879 18.2004 63.8352 17.7078 64.9943 17.7078C67.0228 17.7078 68.2398 19.3016 68.2398 21.4893C68.2398 23.6337 66.9648 25.1695 64.9074 25.1695C63.7918 25.1695 62.85 24.6769 62.3864 23.7061L62.285 24.9956ZM62.4298 21.4314C62.4298 22.9092 63.2702 23.9379 64.6611 23.9379C66.052 23.9379 66.8779 22.8947 66.8779 21.4314C66.8779 19.9825 66.052 18.9393 64.6611 18.9393C63.2702 18.9393 62.4298 19.9825 62.4298 21.4314ZM69.1614 22.9382H70.4654C70.4654 23.6626 71.016 24.0973 71.9143 24.0973C72.8705 24.0973 73.4211 23.7061 73.4211 23.0541C73.4211 22.576 73.1893 22.2862 72.4504 22.0979L71.2043 21.8081C69.9438 21.5038 69.3498 20.8808 69.3498 19.8376C69.3498 18.5337 70.4509 17.7078 72.0157 17.7078C73.566 17.7078 74.5802 18.5771 74.6092 19.9246H73.3052C73.2762 19.2146 72.7981 18.7655 71.9722 18.7655C71.1174 18.7655 70.6393 19.1422 70.6393 19.7942C70.6393 20.2723 70.987 20.591 71.6825 20.7649L72.9285 21.0692C74.131 21.3589 74.7251 21.9095 74.7251 22.9672C74.7251 24.3146 73.566 25.1695 71.8853 25.1695C70.2191 25.1695 69.1614 24.2857 69.1614 22.9382ZM75.7718 21.4459C75.7718 19.2581 77.3365 17.7223 79.4664 17.7223C81.5817 17.7223 83.1465 19.2581 83.1465 21.4459C83.1465 23.6337 81.5817 25.1695 79.4664 25.1695C77.3365 25.1695 75.7718 23.6337 75.7718 21.4459ZM77.1482 21.4459C77.1482 22.9237 78.09 23.9524 79.4664 23.9524C80.8283 23.9524 81.7846 22.9237 81.7846 21.4459C81.7846 19.968 80.8283 18.9393 79.4664 18.9393C78.09 18.9393 77.1482 19.968 77.1482 21.4459ZM86.045 24.9956H84.6831V14.3319H86.045V24.9956ZM92.9471 17.9106H94.2945V24.9956H93.0775L92.9326 23.9234C92.5269 24.6624 91.5851 25.1695 90.542 25.1695C88.8902 25.1695 87.963 24.0538 87.963 22.3152V17.9106H89.3249V21.8661C89.3249 23.3874 89.9769 23.9669 91.0201 23.9669C92.2661 23.9669 92.9471 23.17 92.9471 21.6487V17.9106ZM98.27 24.9956H96.908V19.0552H95.5171V17.9106H96.908V15.6939H98.27V17.9106H99.6609V19.0552H98.27V24.9956ZM103.87 25.1695C101.783 25.1695 100.349 23.6626 100.349 21.4604C100.349 19.2436 101.754 17.7078 103.812 17.7078C105.825 17.7078 107.144 19.0987 107.144 21.1996V21.7067L101.667 21.7212C101.769 23.2135 102.551 24.0394 103.898 24.0394C104.956 24.0394 105.652 23.6047 105.883 22.7933H107.158C106.811 24.3146 105.623 25.1695 103.87 25.1695ZM103.812 18.8524C102.623 18.8524 101.87 19.5624 101.696 20.8084H105.782C105.782 19.6348 105.014 18.8524 103.812 18.8524ZM110.056 24.9956H108.694V14.3319H110.056V24.9956ZM111.38 28.1686V27.053H112.293C112.945 27.053 113.466 26.9516 113.8 26.0533L114.046 25.3723L111.192 17.9106H112.626L114.683 23.6192L116.784 17.9106H118.19L114.843 26.5894C114.365 27.8064 113.655 28.3135 112.568 28.3135C112.119 28.3135 111.742 28.2556 111.38 28.1686ZM120.943 21.8516H119.885C119.741 20.7649 119.639 18.8379 119.639 16.9544V14.5203H121.204V16.9544C121.204 18.8669 121.088 20.7794 120.943 21.8516ZM120.422 25.1984C119.842 25.1984 119.378 24.7348 119.378 24.1698C119.378 23.6047 119.842 23.1411 120.422 23.1411C120.972 23.1411 121.45 23.6047 121.45 24.1698C121.45 24.7348 120.972 25.1984 120.422 25.1984ZM129.845 24.9956L126.73 14.5203H128.208L130.12 20.9243C130.265 21.4749 130.41 22.0254 130.555 22.8223C130.729 21.982 130.888 21.4749 131.047 20.9243L133.032 14.5203H134.568L136.539 20.9243C136.712 21.4893 136.857 22.0399 137.017 22.8223C137.191 21.9385 137.335 21.4024 137.48 20.9388L139.407 14.5203H140.856L137.698 24.9956H136.336L133.8 16.7081L131.236 24.9956H129.845ZM143.419 24.9811H142.057V14.3319H143.419V18.9973C143.868 18.2294 144.723 17.7078 145.824 17.7078C147.635 17.7078 148.504 18.8524 148.504 20.6635V24.9956H147.143V20.9678C147.143 19.5334 146.462 18.9538 145.447 18.9538C144.129 18.9538 143.419 19.9101 143.419 21.1271V24.9811ZM153.448 25.1695C151.362 25.1695 149.927 23.6626 149.927 21.4604C149.927 19.2436 151.333 17.7078 153.39 17.7078C155.404 17.7078 156.722 19.0987 156.722 21.1996V21.7067L151.246 21.7212C151.347 23.2135 152.129 24.0394 153.477 24.0394C154.535 24.0394 155.23 23.6047 155.462 22.7933H156.737C156.389 24.3146 155.201 25.1695 153.448 25.1695ZM153.39 18.8524C152.202 18.8524 151.449 19.5624 151.275 20.8084H155.36C155.36 19.6348 154.593 18.8524 153.39 18.8524ZM159.606 24.9956H158.244V17.9106H159.475L159.62 18.9973C160.069 18.1859 160.967 17.7078 161.967 17.7078C163.836 17.7078 164.691 18.8524 164.691 20.6635V24.9956H163.329V20.9678C163.329 19.5334 162.663 18.9538 161.619 18.9538C160.344 18.9538 159.606 19.8666 159.606 21.243V24.9956ZM173.379 25.1695C171.322 25.1695 170.076 23.6337 170.076 21.4749C170.076 19.3016 171.336 17.7078 173.437 17.7078C174.524 17.7078 175.436 18.1859 175.914 19.0552V14.3319H177.262V24.9956H176.045L175.929 23.7061C175.465 24.6769 174.509 25.1695 173.379 25.1695ZM173.654 23.9379C175.045 23.9379 175.9 22.9092 175.9 21.4314C175.9 19.9825 175.045 18.9393 173.654 18.9393C172.263 18.9393 171.452 19.9825 171.452 21.4314C171.452 22.8947 172.263 23.9379 173.654 23.9379ZM178.763 21.4459C178.763 19.2581 180.328 17.7223 182.458 17.7223C184.573 17.7223 186.138 19.2581 186.138 21.4459C186.138 23.6337 184.573 25.1695 182.458 25.1695C180.328 25.1695 178.763 23.6337 178.763 21.4459ZM180.14 21.4459C180.14 22.9237 181.081 23.9524 182.458 23.9524C183.82 23.9524 184.776 22.9237 184.776 21.4459C184.776 19.968 183.82 18.9393 182.458 18.9393C181.081 18.9393 180.14 19.968 180.14 21.4459ZM190.926 28.1686V27.053H191.839C192.491 27.053 193.013 26.9516 193.346 26.0533L193.592 25.3723L190.738 17.9106H192.172L194.23 23.6192L196.33 17.9106H197.736L194.389 26.5894C193.911 27.8064 193.201 28.3135 192.114 28.3135C191.665 28.3135 191.288 28.2556 190.926 28.1686ZM198.091 21.4459C198.091 19.2581 199.656 17.7223 201.785 17.7223C203.901 17.7223 205.465 19.2581 205.465 21.4459C205.465 23.6337 203.901 25.1695 201.785 25.1695C199.656 25.1695 198.091 23.6337 198.091 21.4459ZM199.467 21.4459C199.467 22.9237 200.409 23.9524 201.785 23.9524C203.147 23.9524 204.104 22.9237 204.104 21.4459C204.104 19.968 203.147 18.9393 201.785 18.9393C200.409 18.9393 199.467 19.968 199.467 21.4459ZM211.7 17.9106H213.048V24.9956H211.831L211.686 23.9234C211.28 24.6624 210.339 25.1695 209.295 25.1695C207.644 25.1695 206.716 24.0538 206.716 22.3152V17.9106H208.078V21.8661C208.078 23.3874 208.73 23.9669 209.773 23.9669C211.02 23.9669 211.7 23.17 211.7 21.6487V17.9106ZM218.986 28.1686V17.9106H220.217L220.319 19.1856C220.797 18.2149 221.753 17.7078 222.883 17.7078C224.912 17.7078 226.172 19.2291 226.172 21.4024C226.172 23.5612 224.984 25.184 222.883 25.184C221.753 25.184 220.811 24.7058 220.348 23.8365V28.1686H218.986ZM220.362 21.4604C220.362 22.9092 221.202 23.9524 222.593 23.9524C223.984 23.9524 224.81 22.9092 224.81 21.4604C224.81 19.997 223.984 18.9538 222.593 18.9538C221.202 18.9538 220.362 19.9825 220.362 21.4604ZM229.064 24.9956H227.702V14.3319H229.064V24.9956ZM233.141 25.1695C231.62 25.1695 230.721 24.3146 230.721 23.0251C230.721 21.7212 231.692 20.9098 233.358 20.7794L235.589 20.6055V20.4027C235.589 19.2146 234.88 18.7945 233.923 18.7945C232.779 18.7945 232.127 19.3016 232.127 20.1564H230.939C230.939 18.6785 232.156 17.7078 233.981 17.7078C235.734 17.7078 236.922 18.6351 236.922 20.5476V24.9956H235.763L235.618 23.851C235.256 24.6624 234.286 25.1695 233.141 25.1695ZM233.532 24.1118C234.822 24.1118 235.604 23.2715 235.604 21.9385V21.5618L233.793 21.7067C232.59 21.8226 232.098 22.2862 232.098 22.9817C232.098 23.7351 232.648 24.1118 233.532 24.1118ZM240.171 24.9956H238.809V17.9106H240.04L240.185 18.9973C240.634 18.1859 241.532 17.7078 242.532 17.7078C244.401 17.7078 245.256 18.8524 245.256 20.6635V24.9956H243.894V20.9678C243.894 19.5334 243.228 18.9538 242.184 18.9538C240.909 18.9538 240.171 19.8666 240.171 21.243V24.9956ZM50.9967 42.4459C50.9967 40.2581 52.5615 38.7223 54.6913 38.7223C56.8067 38.7223 58.3714 40.2581 58.3714 42.4459C58.3714 44.6337 56.8067 46.1695 54.6913 46.1695C52.5615 46.1695 50.9967 44.6337 50.9967 42.4459ZM52.3731 42.4459C52.3731 43.9237 53.3149 44.9524 54.6913 44.9524C56.0532 44.9524 57.0095 43.9237 57.0095 42.4459C57.0095 40.968 56.0532 39.9393 54.6913 39.9393C53.3149 39.9393 52.3731 40.968 52.3731 42.4459ZM61.241 45.9956H59.879V38.9106H61.1106L61.2555 39.9973C61.7046 39.1859 62.6029 38.7078 63.6026 38.7078C65.4717 38.7078 66.3265 39.8524 66.3265 41.6635V45.9956H64.9646V41.9678C64.9646 40.5334 64.2981 39.9538 63.2549 39.9538C61.9799 39.9538 61.241 40.8666 61.241 42.243V45.9956ZM73.5365 45.9811H72.1746V35.3319H73.5365V39.9973C73.9857 39.2294 74.8405 38.7078 75.9417 38.7078C77.7528 38.7078 78.6221 39.8524 78.6221 41.6635V45.9956H77.2601V41.9678C77.2601 40.5334 76.5792 39.9538 75.565 39.9538C74.2465 39.9538 73.5365 40.9101 73.5365 42.1271V45.9811ZM83.5655 46.1695C81.4792 46.1695 80.0448 44.6626 80.0448 42.4604C80.0448 40.2436 81.4502 38.7078 83.5076 38.7078C85.5215 38.7078 86.84 40.0987 86.84 42.1996V42.7067L81.3633 42.7212C81.4647 44.2135 82.2471 45.0394 83.5945 45.0394C84.6522 45.0394 85.3477 44.6047 85.5795 43.7933H86.8545C86.5067 45.3146 85.3187 46.1695 83.5655 46.1695ZM83.5076 39.8524C82.3195 39.8524 81.5661 40.5624 81.3922 41.8084H85.4781C85.4781 40.6348 84.7102 39.8524 83.5076 39.8524ZM90.3623 46.1695C88.841 46.1695 87.9427 45.3146 87.9427 44.0251C87.9427 42.7212 88.9134 41.9098 90.5796 41.7794L92.8109 41.6055V41.4027C92.8109 40.2146 92.101 39.7945 91.1447 39.7945C90.0001 39.7945 89.3481 40.3016 89.3481 41.1564H88.16C88.16 39.6785 89.3771 38.7078 91.2027 38.7078C92.9558 38.7078 94.1439 39.6351 94.1439 41.5476V45.9956H92.9848L92.8399 44.851C92.4777 45.6624 91.5069 46.1695 90.3623 46.1695ZM90.7535 45.1118C92.043 45.1118 92.8254 44.2715 92.8254 42.9385V42.5618L91.0143 42.7067C89.8117 42.8226 89.3191 43.2862 89.3191 43.9817C89.3191 44.7351 89.8697 45.1118 90.7535 45.1118ZM98.8698 46.1695C96.8124 46.1695 95.5664 44.6337 95.5664 42.4749C95.5664 40.3016 96.8269 38.7078 98.9277 38.7078C100.014 38.7078 100.927 39.1859 101.405 40.0552V35.3319H102.753V45.9956H101.536L101.42 44.7061C100.956 45.6769 99.9999 46.1695 98.8698 46.1695ZM99.1451 44.9379C100.536 44.9379 101.391 43.9092 101.391 42.4314C101.391 40.9825 100.536 39.9393 99.1451 39.9393C97.7541 39.9393 96.9428 40.9825 96.9428 42.4314C96.9428 43.8947 97.7541 44.9379 99.1451 44.9379ZM105.384 37.23C104.891 37.23 104.486 36.8243 104.486 36.3317C104.486 35.8246 104.891 35.4334 105.384 35.4334C105.877 35.4334 106.282 35.8246 106.282 36.3317C106.282 36.8243 105.877 37.23 105.384 37.23ZM104.718 45.9956V38.9106H106.079V45.9956H104.718ZM109.419 45.9956H108.057V38.9106H109.288L109.433 39.9973C109.882 39.1859 110.781 38.7078 111.78 38.7078C113.649 38.7078 114.504 39.8524 114.504 41.6635V45.9956H113.142V41.9678C113.142 40.5334 112.476 39.9538 111.433 39.9538C110.158 39.9538 109.419 40.8666 109.419 42.243V45.9956ZM115.941 42.272C115.941 40.2726 117.231 38.7078 119.288 38.7078C120.433 38.7078 121.317 39.2294 121.766 40.1132L121.867 38.9106H123.084V45.7058C123.084 47.9371 121.708 49.357 119.535 49.357C117.608 49.357 116.289 48.2703 116.028 46.4737H117.39C117.564 47.5169 118.347 48.1254 119.535 48.1254C120.868 48.1254 121.737 47.2561 121.737 45.9087V44.4888C121.273 45.3146 120.346 45.8073 119.23 45.8073C117.216 45.8073 115.941 44.257 115.941 42.272ZM117.303 42.243C117.303 43.576 118.129 44.6192 119.462 44.6192C120.839 44.6192 121.679 43.634 121.679 42.243C121.679 40.8811 120.868 39.8959 119.477 39.8959C118.115 39.8959 117.303 40.9391 117.303 42.243ZM128.548 42.4459C128.548 40.2581 130.113 38.7223 132.243 38.7223C134.358 38.7223 135.923 40.2581 135.923 42.4459C135.923 44.6337 134.358 46.1695 132.243 46.1695C130.113 46.1695 128.548 44.6337 128.548 42.4459ZM129.924 42.4459C129.924 43.9237 130.866 44.9524 132.243 44.9524C133.604 44.9524 134.561 43.9237 134.561 42.4459C134.561 40.968 133.604 39.9393 132.243 39.9393C130.866 39.9393 129.924 40.968 129.924 42.4459ZM136.634 38.9106H137.678V37.7805C137.678 36.0419 138.619 35.3319 139.923 35.3319C140.184 35.3319 140.488 35.3464 140.749 35.3899V36.5635H140.141C139.257 36.5635 139.04 37.0126 139.04 37.7805V38.9106H142.184V37.7805C142.184 36.0419 143.125 35.3319 144.415 35.3319C144.676 35.3319 144.994 35.3464 145.255 35.3899V36.5635H144.647C143.763 36.5635 143.531 37.0126 143.531 37.7805V38.9106H145.212V40.0552H143.531V45.9956H142.184V40.0552H139.04V45.9956H137.678V40.0552H136.634V38.9106ZM149.899 43.4601H148.638V43.0979C148.638 41.8663 149.435 41.1999 150.217 40.5913C150.927 40.0408 151.579 39.5047 151.579 38.5484C151.579 37.4328 150.84 36.6069 149.652 36.6069C148.508 36.6069 147.653 37.5052 147.653 38.6933H146.247C146.247 36.7663 147.725 35.3319 149.681 35.3319C151.739 35.3319 153.014 36.6359 153.014 38.476C153.014 39.9973 152.028 40.7362 151.188 41.3447C150.42 41.8953 149.899 42.3589 149.899 43.0979V43.4601ZM149.334 46.1984C148.754 46.1984 148.29 45.7348 148.29 45.1698C148.29 44.6047 148.754 44.1411 149.334 44.1411C149.884 44.1411 150.362 44.6192 150.362 45.1698C150.362 45.7203 149.884 46.1984 149.334 46.1984ZM159.108 45.9956H157.63L161.455 35.5203H163.035L166.874 45.9956H165.382L164.44 43.3876H160.035L159.108 45.9956ZM162.064 37.7805L160.47 42.1561H164.02L162.412 37.7805C162.339 37.5777 162.267 37.3314 162.238 37.172C162.209 37.3169 162.136 37.5632 162.064 37.7805ZM169.397 45.9956H168.035V38.9106H169.266L169.411 39.9973C169.86 39.1859 170.759 38.7078 171.758 38.7078C173.627 38.7078 174.482 39.8524 174.482 41.6635V45.9956H173.12V41.9678C173.12 40.5334 172.454 39.9538 171.411 39.9538C170.136 39.9538 169.397 40.8666 169.397 42.243V45.9956ZM179.208 46.1695C177.151 46.1695 175.905 44.6337 175.905 42.4749C175.905 40.3016 177.165 38.7078 179.266 38.7078C180.353 38.7078 181.266 39.1859 181.744 40.0552V35.3319H183.091V45.9956H181.874L181.758 44.7061C181.295 45.6769 180.338 46.1695 179.208 46.1695ZM179.484 44.9379C180.875 44.9379 181.729 43.9092 181.729 42.4314C181.729 40.9825 180.875 39.9393 179.484 39.9393C178.093 39.9393 177.281 40.9825 177.281 42.4314C177.281 43.8947 178.093 44.9379 179.484 44.9379ZM190.38 45.9811H189.018V35.3319H190.38V39.9973C190.829 39.2294 191.684 38.7078 192.785 38.7078C194.596 38.7078 195.465 39.8524 195.465 41.6635V45.9956H194.103V41.9678C194.103 40.5334 193.422 39.9538 192.408 39.9538C191.09 39.9538 190.38 40.9101 190.38 42.1271V45.9811ZM196.888 42.4459C196.888 40.2581 198.453 38.7223 200.583 38.7223C202.698 38.7223 204.263 40.2581 204.263 42.4459C204.263 44.6337 202.698 46.1695 200.583 46.1695C198.453 46.1695 196.888 44.6337 196.888 42.4459ZM198.265 42.4459C198.265 43.9237 199.206 44.9524 200.583 44.9524C201.945 44.9524 202.901 43.9237 202.901 42.4459C202.901 40.968 201.945 39.9393 200.583 39.9393C199.206 39.9393 198.265 40.968 198.265 42.4459ZM206.966 45.9956L204.648 38.9106H206.054L207.227 42.5908C207.386 43.1124 207.531 43.6484 207.662 44.2715C207.778 43.6484 207.966 43.0544 208.125 42.5908L209.313 38.9106H210.704L211.878 42.5908C211.994 42.9385 212.226 43.7643 212.342 44.2715C212.458 43.7064 212.588 43.2138 212.791 42.5908L213.979 38.9106H215.399L212.979 45.9956H211.69L210.458 42.1996C210.226 41.4896 210.081 40.9391 210.009 40.5479C209.936 40.8956 209.806 41.3592 209.545 42.2141L208.314 45.9956H206.966ZM221.89 45.9956H220.528V38.9106H221.745L221.875 39.8379C222.238 39.1714 222.991 38.7078 223.991 38.7078C225.092 38.7078 225.874 39.2584 226.236 40.1422C226.57 39.2584 227.425 38.7078 228.526 38.7078C230.148 38.7078 231.134 39.722 231.134 41.3592V45.9956H229.801V41.6925C229.801 40.5768 229.178 39.9393 228.221 39.9393C227.193 39.9393 226.512 40.6638 226.512 41.7939V45.9956H225.164V41.678C225.164 40.5624 224.556 39.9538 223.6 39.9538C222.571 39.9538 221.89 40.6638 221.89 41.7939V45.9956ZM235.093 46.1695C233.572 46.1695 232.674 45.3146 232.674 44.0251C232.674 42.7212 233.645 41.9098 235.311 41.7794L237.542 41.6055V41.4027C237.542 40.2146 236.832 39.7945 235.876 39.7945C234.731 39.7945 234.079 40.3016 234.079 41.1564H232.891C232.891 39.6785 234.108 38.7078 235.934 38.7078C237.687 38.7078 238.875 39.6351 238.875 41.5476V45.9956H237.716L237.571 44.851C237.209 45.6624 236.238 46.1695 235.093 46.1695ZM235.485 45.1118C236.774 45.1118 237.557 44.2715 237.557 42.9385V42.5618L235.745 42.7067C234.543 42.8226 234.05 43.2862 234.05 43.9817C234.05 44.7351 234.601 45.1118 235.485 45.1118ZM242.123 45.9956H240.761V38.9106H241.993L242.138 39.9973C242.587 39.1859 243.485 38.7078 244.485 38.7078C246.354 38.7078 247.209 39.8524 247.209 41.6635V45.9956H245.847V41.9678C245.847 40.5334 245.18 39.9538 244.137 39.9538C242.862 39.9538 242.123 40.8666 242.123 42.243V45.9956ZM248.273 49.1686V48.053H249.185C249.837 48.053 250.359 47.9516 250.692 47.0533L250.938 46.3723L248.084 38.9106H249.519L251.576 44.6192L253.677 38.9106H255.082L251.735 47.5894C251.257 48.8064 250.547 49.3135 249.461 49.3135C249.011 49.3135 248.635 49.2556 248.273 49.1686ZM51.4603 69.1686V58.9106H52.6919L52.7933 60.1856C53.2714 59.2149 54.2277 58.7078 55.3578 58.7078C57.3862 58.7078 58.6467 60.2291 58.6467 62.4024C58.6467 64.5612 57.4586 66.184 55.3578 66.184C54.2277 66.184 53.2859 65.7058 52.8223 64.8365V69.1686H51.4603ZM52.8368 62.4604C52.8368 63.9092 53.6771 64.9524 55.068 64.9524C56.4589 64.9524 57.2848 63.9092 57.2848 62.4604C57.2848 60.997 56.4589 59.9538 55.068 59.9538C53.6771 59.9538 52.8368 60.9825 52.8368 62.4604ZM63.205 66.1695C61.1186 66.1695 59.6842 64.6626 59.6842 62.4604C59.6842 60.2436 61.0896 58.7078 63.147 58.7078C65.161 58.7078 66.4794 60.0987 66.4794 62.1996V62.7067L61.0027 62.7212C61.1041 64.2135 61.8865 65.0394 63.234 65.0394C64.2916 65.0394 64.9871 64.6047 65.2189 63.7933H66.4939C66.1462 65.3146 64.9581 66.1695 63.205 66.1695ZM63.147 59.8524C61.959 59.8524 61.2056 60.5624 61.0317 61.8084H65.1175C65.1175 60.6348 64.3496 59.8524 63.147 59.8524ZM67.537 62.4459C67.537 60.2581 69.1018 58.7223 71.2316 58.7223C73.347 58.7223 74.9117 60.2581 74.9117 62.4459C74.9117 64.6337 73.347 66.1695 71.2316 66.1695C69.1018 66.1695 67.537 64.6337 67.537 62.4459ZM68.9134 62.4459C68.9134 63.9237 69.8552 64.9524 71.2316 64.9524C72.5935 64.9524 73.5498 63.9237 73.5498 62.4459C73.5498 60.968 72.5935 59.9393 71.2316 59.9393C69.8552 59.9393 68.9134 60.968 68.9134 62.4459ZM76.4193 69.1686V58.9106H77.6509L77.7523 60.1856C78.2304 59.2149 79.1867 58.7078 80.3168 58.7078C82.3452 58.7078 83.6057 60.2291 83.6057 62.4024C83.6057 64.5612 82.4177 66.184 80.3168 66.184C79.1867 66.184 78.2449 65.7058 77.7813 64.8365V69.1686H76.4193ZM77.7958 62.4604C77.7958 63.9092 78.6361 64.9524 80.027 64.9524C81.4179 64.9524 82.2438 63.9092 82.2438 62.4604C82.2438 60.997 81.4179 59.9538 80.027 59.9538C78.6361 59.9538 77.7958 60.9825 77.7958 62.4604ZM86.4978 65.9956H85.1359V55.3319H86.4978V65.9956ZM91.5598 66.1695C89.4734 66.1695 88.039 64.6626 88.039 62.4604C88.039 60.2436 89.4444 58.7078 91.5018 58.7078C93.5158 58.7078 94.8342 60.0987 94.8342 62.1996V62.7067L89.3575 62.7212C89.4589 64.2135 90.2413 65.0394 91.5888 65.0394C92.6464 65.0394 93.3419 64.6047 93.5737 63.7933H94.8487C94.501 65.3146 93.3129 66.1695 91.5598 66.1695ZM91.5018 59.8524C90.3138 59.8524 89.5603 60.5624 89.3865 61.8084H93.4723C93.4723 60.6348 92.7044 59.8524 91.5018 59.8524ZM101.838 65.9956L99.5203 58.9106H100.926L102.099 62.5908C102.259 63.1124 102.404 63.6484 102.534 64.2715C102.65 63.6484 102.838 63.0544 102.998 62.5908L104.186 58.9106H105.577L106.75 62.5908C106.866 62.9385 107.098 63.7643 107.214 64.2715C107.33 63.7064 107.46 63.2138 107.663 62.5908L108.851 58.9106H110.271L107.851 65.9956H106.562L105.33 62.1996C105.098 61.4896 104.954 60.9391 104.881 60.5479C104.809 60.8956 104.678 61.3592 104.417 62.2141L103.186 65.9956H101.838ZM112.105 57.23C111.612 57.23 111.207 56.8243 111.207 56.3317C111.207 55.8246 111.612 55.4334 112.105 55.4334C112.597 55.4334 113.003 55.8246 113.003 56.3317C113.003 56.8243 112.597 57.23 112.105 57.23ZM111.438 65.9956V58.9106H112.8V65.9956H111.438ZM116.168 65.9956H114.807V55.3319H116.168V65.9956ZM119.564 65.9956H118.202V55.3319H119.564V65.9956ZM126.762 65.9956H125.531V55.3319H126.893V60.1277C127.356 59.2004 128.313 58.7078 129.472 58.7078C131.5 58.7078 132.717 60.3016 132.717 62.4893C132.717 64.6337 131.442 66.1695 129.385 66.1695C128.269 66.1695 127.327 65.6769 126.864 64.7061L126.762 65.9956ZM126.907 62.4314C126.907 63.9092 127.748 64.9379 129.139 64.9379C130.529 64.9379 131.355 63.8947 131.355 62.4314C131.355 60.9825 130.529 59.9393 129.139 59.9393C127.748 59.9393 126.907 60.9825 126.907 62.4314ZM137.276 66.1695C135.189 66.1695 133.755 64.6626 133.755 62.4604C133.755 60.2436 135.16 58.7078 137.218 58.7078C139.232 58.7078 140.55 60.0987 140.55 62.1996V62.7067L135.073 62.7212C135.175 64.2135 135.957 65.0394 137.305 65.0394C138.362 65.0394 139.058 64.6047 139.289 63.7933H140.564C140.217 65.3146 139.029 66.1695 137.276 66.1695ZM137.218 59.8524C136.03 59.8524 135.276 60.5624 135.102 61.8084H139.188C139.188 60.6348 138.42 59.8524 137.218 59.8524ZM146.714 57.23C146.207 57.23 145.816 56.8243 145.816 56.3317C145.816 55.8246 146.207 55.4334 146.714 55.4334C147.192 55.4334 147.612 55.8246 147.612 56.3317C147.612 56.8243 147.192 57.23 146.714 57.23ZM144.236 69.2121L144.468 67.9806C144.743 68.053 144.903 68.082 145.12 68.082C145.772 68.082 146.033 67.7053 146.033 66.9084V58.9106H147.395V67.0388C147.395 68.4587 146.612 69.3425 145.236 69.3425C144.874 69.3425 144.642 69.328 144.236 69.2121ZM148.908 62.4459C148.908 60.2581 150.473 58.7223 152.603 58.7223C154.718 58.7223 156.283 60.2581 156.283 62.4459C156.283 64.6337 154.718 66.1695 152.603 66.1695C150.473 66.1695 148.908 64.6337 148.908 62.4459ZM150.285 62.4459C150.285 63.9237 151.227 64.9524 152.603 64.9524C153.965 64.9524 154.921 63.9237 154.921 62.4459C154.921 60.968 153.965 59.9393 152.603 59.9393C151.227 59.9393 150.285 60.968 150.285 62.4459ZM158.457 57.23C157.965 57.23 157.559 56.8243 157.559 56.3317C157.559 55.8246 157.965 55.4334 158.457 55.4334C158.95 55.4334 159.356 55.8246 159.356 56.3317C159.356 56.8243 158.95 57.23 158.457 57.23ZM157.791 65.9956V58.9106H159.153V65.9956H157.791ZM162.492 65.9956H161.13V58.9106H162.362L162.506 59.9973C162.956 59.1859 163.854 58.7078 164.854 58.7078C166.723 58.7078 167.577 59.8524 167.577 61.6635V65.9956H166.216V61.9678C166.216 60.5334 165.549 59.9538 164.506 59.9538C163.231 59.9538 162.492 60.8666 162.492 62.243V65.9956ZM170.13 57.23C169.638 57.23 169.232 56.8243 169.232 56.3317C169.232 55.8246 169.638 55.4334 170.13 55.4334C170.623 55.4334 171.029 55.8246 171.029 56.3317C171.029 56.8243 170.623 57.23 170.13 57.23ZM169.464 65.9956V58.9106H170.826V65.9956H169.464ZM174.165 65.9956H172.803V58.9106H174.035L174.179 59.9973C174.629 59.1859 175.527 58.7078 176.527 58.7078C178.396 58.7078 179.25 59.8524 179.25 61.6635V65.9956H177.889V61.9678C177.889 60.5334 177.222 59.9538 176.179 59.9538C174.904 59.9538 174.165 60.8666 174.165 62.243V65.9956ZM180.688 62.272C180.688 60.2726 181.977 58.7078 184.035 58.7078C185.179 58.7078 186.063 59.2294 186.512 60.1132L186.614 58.9106H187.831V65.7058C187.831 67.9371 186.454 69.357 184.281 69.357C182.354 69.357 181.035 68.2703 180.775 66.4737H182.137C182.31 67.5169 183.093 68.1254 184.281 68.1254C185.614 68.1254 186.483 67.2561 186.483 65.9087V64.4888C186.02 65.3146 185.092 65.8073 183.977 65.8073C181.963 65.8073 180.688 64.257 180.688 62.272ZM182.05 62.243C182.05 63.576 182.875 64.6192 184.208 64.6192C185.585 64.6192 186.425 63.634 186.425 62.243C186.425 60.8811 185.614 59.8959 184.223 59.8959C182.861 59.8959 182.05 60.9391 182.05 62.243ZM193.077 69.1686V68.053H193.99C194.642 68.053 195.163 67.9516 195.496 67.0533L195.743 66.3723L192.889 58.9106H194.323L196.38 64.6192L198.481 58.9106H199.887L196.54 67.5894C196.062 68.8064 195.352 69.3135 194.265 69.3135C193.816 69.3135 193.439 69.2556 193.077 69.1686ZM200.241 62.4459C200.241 60.2581 201.806 58.7223 203.936 58.7223C206.051 58.7223 207.616 60.2581 207.616 62.4459C207.616 64.6337 206.051 66.1695 203.936 66.1695C201.806 66.1695 200.241 64.6337 200.241 62.4459ZM201.618 62.4459C201.618 63.9237 202.56 64.9524 203.936 64.9524C205.298 64.9524 206.254 63.9237 206.254 62.4459C206.254 60.968 205.298 59.9393 203.936 59.9393C202.56 59.9393 201.618 60.968 201.618 62.4459ZM213.851 58.9106H215.199V65.9956H213.982L213.837 64.9234C213.431 65.6624 212.489 66.1695 211.446 66.1695C209.794 66.1695 208.867 65.0538 208.867 63.3152V58.9106H210.229V62.8661C210.229 64.3874 210.881 64.9669 211.924 64.9669C213.17 64.9669 213.851 64.17 213.851 62.6487V58.9106ZM220.673 62.4459C220.673 60.2581 222.237 58.7223 224.367 58.7223C226.483 58.7223 228.047 60.2581 228.047 62.4459C228.047 64.6337 226.483 66.1695 224.367 66.1695C222.237 66.1695 220.673 64.6337 220.673 62.4459ZM222.049 62.4459C222.049 63.9237 222.991 64.9524 224.367 64.9524C225.729 64.9524 226.686 63.9237 226.686 62.4459C226.686 60.968 225.729 59.9393 224.367 59.9393C222.991 59.9393 222.049 60.968 222.049 62.4459ZM230.917 65.9956H229.555V58.9106H230.787L230.931 59.9973C231.381 59.1859 232.279 58.7078 233.279 58.7078C235.148 58.7078 236.003 59.8524 236.003 61.6635V65.9956H234.641V61.9678C234.641 60.5334 233.974 59.9538 232.931 59.9538C231.656 59.9538 230.917 60.8666 230.917 62.243V65.9956ZM50.7794 90.1686V89.053H51.6921C52.3441 89.053 52.8657 88.9516 53.199 88.0533L53.4453 87.3723L50.591 79.9106H52.0254L54.0828 85.6192L56.1836 79.9106H57.589L54.2422 88.5894C53.764 89.8064 53.0541 90.3135 51.9674 90.3135C51.5183 90.3135 51.1416 90.2556 50.7794 90.1686ZM57.9439 83.4459C57.9439 81.2581 59.5087 79.7223 61.6385 79.7223C63.7539 79.7223 65.3186 81.2581 65.3186 83.4459C65.3186 85.6337 63.7539 87.1695 61.6385 87.1695C59.5087 87.1695 57.9439 85.6337 57.9439 83.4459ZM59.3203 83.4459C59.3203 84.9237 60.2621 85.9524 61.6385 85.9524C63.0004 85.9524 63.9567 84.9237 63.9567 83.4459C63.9567 81.968 63.0004 80.9393 61.6385 80.9393C60.2621 80.9393 59.3203 81.968 59.3203 83.4459ZM71.5536 79.9106H72.9011V86.9956H71.684L71.5391 85.9234C71.1335 86.6624 70.1917 87.1695 69.1485 87.1695C67.4968 87.1695 66.5695 86.0538 66.5695 84.3152V79.9106H67.9315V83.8661C67.9315 85.3874 68.5835 85.9669 69.6266 85.9669C70.8727 85.9669 71.5536 85.17 71.5536 83.6487V79.9106ZM78.9339 79.8527V81.0987H78.3254C77.0359 81.0987 76.239 81.8811 76.239 83.243V86.9956H74.8771V79.9251H76.1521L76.239 80.9973C76.5288 80.2584 77.2387 79.7658 78.2095 79.7658C78.4558 79.7658 78.6586 79.7947 78.9339 79.8527ZM85.8248 86.9956H84.4049V76.5203H85.8248L91.1856 84.6195V76.5203H92.6055V86.9956H91.1856L85.8248 78.8964V86.9956ZM97.8703 87.1695C95.7839 87.1695 94.3495 85.6626 94.3495 83.4604C94.3495 81.2436 95.7549 79.7078 97.8123 79.7078C99.8263 79.7078 101.145 81.0987 101.145 83.1996V83.7067L95.668 83.7212C95.7694 85.2135 96.5518 86.0394 97.8993 86.0394C98.9569 86.0394 99.6524 85.6047 99.8842 84.7933H101.159C100.811 86.3146 99.6234 87.1695 97.8703 87.1695ZM97.8123 80.8524C96.6243 80.8524 95.8708 81.5624 95.697 82.8084H99.7828C99.7828 81.6348 99.0149 80.8524 97.8123 80.8524ZM103.947 86.9956L101.629 79.9106H103.034L104.208 83.5908C104.367 84.1124 104.512 84.6484 104.642 85.2715C104.758 84.6484 104.946 84.0544 105.106 83.5908L106.294 79.9106H107.685L108.858 83.5908C108.974 83.9385 109.206 84.7643 109.322 85.2715C109.438 84.7064 109.568 84.2138 109.771 83.5908L110.959 79.9106H112.379L109.96 86.9956H108.67L107.438 83.1996C107.207 82.4896 107.062 81.9391 106.989 81.5479C106.917 81.8956 106.786 82.3592 106.526 83.2141L105.294 86.9956H103.947ZM120.218 82.7359L116.668 76.5203H118.262L120.594 80.7075C120.739 80.9538 120.826 81.1567 120.942 81.403C121.073 81.1422 121.102 81.0552 121.29 80.7075L123.608 76.5203H125.158L121.638 82.7359V86.9956H120.218V82.7359ZM124.402 83.4459C124.402 81.2581 125.967 79.7223 128.097 79.7223C130.212 79.7223 131.777 81.2581 131.777 83.4459C131.777 85.6337 130.212 87.1695 128.097 87.1695C125.967 87.1695 124.402 85.6337 124.402 83.4459ZM125.779 83.4459C125.779 84.9237 126.72 85.9524 128.097 85.9524C129.459 85.9524 130.415 84.9237 130.415 83.4459C130.415 81.968 129.459 80.9393 128.097 80.9393C126.72 80.9393 125.779 81.968 125.779 83.4459ZM137.341 79.8527V81.0987H136.733C135.443 81.0987 134.647 81.8811 134.647 83.243V86.9956H133.285V79.9251H134.56L134.647 80.9973C134.936 80.2584 135.646 79.7658 136.617 79.7658C136.863 79.7658 137.066 79.7947 137.341 79.8527ZM140.01 86.9956H138.648V76.3319H140.01V83.243L143.154 79.9106H144.863L142.154 82.7359L144.849 86.9956H143.284L141.212 83.7212L140.01 84.9817V86.9956ZM151.938 86.9956H150.576V81.0552H149.185V79.9106H150.576V77.6939H151.938V79.9106H153.328V81.0552H151.938V86.9956ZM158.608 79.8527V81.0987H157.999C156.709 81.0987 155.913 81.8811 155.913 83.243V86.9956H154.551V79.9251H155.826L155.913 80.9973C156.202 80.2584 156.912 79.7658 157.883 79.7658C158.129 79.7658 158.332 79.7947 158.608 79.8527ZM160.551 78.23C160.059 78.23 159.653 77.8243 159.653 77.3317C159.653 76.8246 160.059 76.4334 160.551 76.4334C161.044 76.4334 161.45 76.8246 161.45 77.3317C161.45 77.8243 161.044 78.23 160.551 78.23ZM159.885 86.9956V79.9106H161.247V86.9956H159.885ZM163.224 90.1686V79.9106H164.456L164.557 81.1856C165.035 80.2149 165.991 79.7078 167.122 79.7078C169.15 79.7078 170.41 81.2291 170.41 83.4024C170.41 85.5612 169.222 87.184 167.122 87.184C165.991 87.184 165.05 86.7058 164.586 85.8365V90.1686H163.224ZM164.601 83.4604C164.601 84.9092 165.441 85.9524 166.832 85.9524C168.223 85.9524 169.049 84.9092 169.049 83.4604C169.049 81.997 168.223 80.9538 166.832 80.9538C165.441 80.9538 164.601 81.9825 164.601 83.4604ZM175.056 84.4601H173.795V84.0979C173.795 82.8663 174.592 82.1999 175.374 81.5913C176.084 81.0408 176.736 80.5047 176.736 79.5484C176.736 78.4328 175.997 77.6069 174.809 77.6069C173.665 77.6069 172.81 78.5052 172.81 79.6933H171.405C171.405 77.7663 172.882 76.3319 174.838 76.3319C176.896 76.3319 178.171 77.6359 178.171 79.476C178.171 80.9973 177.186 81.7362 176.345 82.3447C175.577 82.8953 175.056 83.3589 175.056 84.0979V84.4601ZM174.491 87.1984C173.911 87.1984 173.447 86.7348 173.447 86.1698C173.447 85.6047 173.911 85.1411 174.491 85.1411C175.041 85.1411 175.519 85.6192 175.519 86.1698C175.519 86.7203 175.041 87.1984 174.491 87.1984Z" fill="#021430"/>
<circle cx="22.0159" cy="30.2112" r="20.1807" fill="#F7F7F7" stroke="#E9ECFF" stroke-width="2.06981"/>
<circle cx="22.0167" cy="30.2101" r="18.8123" stroke="#F7F7F7" stroke-width="1.03491"/>
<path fill-rule="evenodd" clip-rule="evenodd" d="M31.6015 29.7157C32.1021 28.9479 32.5825 28.0343 32.5825 27.0533V21.1112C32.5825 19.7688 31.496 18.6823 30.1536 18.6823H10.4731V29.8706L15.7449 35.1434V31.9577V27.4681V22.1411H22.8566C25.5571 22.1411 27.766 24.35 27.766 27.0505C27.766 28.0293 27.4719 28.9452 26.9736 29.7129C27.4742 30.4806 27.766 31.3943 27.766 32.3753C27.766 35.0758 25.5571 37.2847 22.8566 37.2847H17.8858L21.392 40.7917H30.1536C31.496 40.7917 32.5825 39.7052 32.5825 38.3628V32.378C32.5825 31.8887 32.5107 31.415 32.3737 30.9683C32.2765 30.651 32.0535 30.3462 31.8432 30.0586C31.7574 29.9413 31.6737 29.8269 31.6015 29.7157Z" fill="url(#paint0_linear_804_22283)"/>
<path d="M10.4731 28.1415L15.7485 29.1652L21.5267 37.2758L23.3877 40.78H21.392L10.4731 29.8588V28.1415Z" fill="#002C72" fill-opacity="0.5"/>
<path d="M21.392 40.7875L10.4731 29.8663V29.1749H21.5267V40.7875" fill="#01E3FB"/>
<path d="M21.392 40.7875L10.4731 29.8663V29.1749H21.5267V40.7875H21.392Z" fill="#01E3FB"/>
<path d="M21.392 40.7875L10.4731 29.8663V29.1749H21.5267V40.7875H21.392Z" fill="url(#paint1_linear_804_22283)"/>
<path d="M22.983 29.1937C23.8348 29.1937 24.5253 28.5032 24.5253 27.6513C24.5253 26.7995 23.8348 26.109 22.983 26.109C22.1312 26.109 21.4407 26.7995 21.4407 27.6513C21.4407 28.5032 22.1312 29.1937 22.983 29.1937Z" fill="#72D3EE"/>
<path d="M22.983 29.1937C23.8348 29.1937 24.5253 28.5032 24.5253 27.6513C24.5253 26.7995 23.8348 26.109 22.983 26.109C22.1312 26.109 21.4407 26.7995 21.4407 27.6513C21.4407 28.5032 22.1312 29.1937 22.983 29.1937Z" fill="url(#paint2_linear_804_22283)"/>
<defs>
<linearGradient id="paint0_linear_804_22283" x1="27.5525" y1="21.7236" x2="18.5108" y2="39.1494" gradientUnits="userSpaceOnUse">
<stop stop-color="#014DFE"/>
<stop offset="0.716667" stop-color="#0EAFE1"/>
</linearGradient>
<linearGradient id="paint1_linear_804_22283" x1="24.2124" y1="29.9122" x2="10.8989" y2="33.6834" gradientUnits="userSpaceOnUse">
<stop stop-color="#02589F"/>
<stop offset="0.0416638" stop-color="#0285C7"/>
<stop offset="0.130206" stop-color="#02AADF"/>
<stop offset="0.442708" stop-color="#6CD0F3"/>
<stop offset="0.713543" stop-color="#83D9DC"/>
<stop offset="1" stop-color="#ABE1CC"/>
</linearGradient>
<linearGradient id="paint2_linear_804_22283" x1="23.8236" y1="26.5333" x2="22.5621" y2="28.9646" gradientUnits="userSpaceOnUse">
<stop stop-color="#014DFE"/>
<stop offset="0.716667" stop-color="#0EAFE1"/>
</linearGradient>
</defs>
</svg>
