<svg width="399" height="61" viewBox="0 0 399 61" fill="none" xmlns="http://www.w3.org/2000/svg">
<rect x="33.031" y="0.726135" width="247.01" height="60.0352" rx="4.25879" fill="#F7F7F7"/>
<path d="M50.2748 15.8084V14.4668H58.2196V15.8084H54.9851V25.2437H53.5243V15.8084H50.2748ZM60.8508 25.2288H59.4497V14.2731H60.8508V19.0727C61.3129 18.2827 62.1924 17.7461 63.3252 17.7461C65.1884 17.7461 66.0828 18.9237 66.0828 20.7869V25.2437H64.6816V21.0999C64.6816 19.6242 63.9811 19.028 62.9377 19.028C61.5812 19.028 60.8508 20.0118 60.8508 21.2639V25.2288ZM70.155 25.4226C68.5899 25.4226 67.6657 24.5431 67.6657 23.2165C67.6657 21.875 68.6644 21.0403 70.3785 20.9061L72.674 20.7273V20.5186C72.674 19.2963 71.9437 18.864 70.9599 18.864C69.7823 18.864 69.1116 19.3857 69.1116 20.2652H67.8893C67.8893 18.7448 69.1414 17.7461 71.0195 17.7461C72.8231 17.7461 74.0454 18.7001 74.0454 20.6676V25.2437H72.8529L72.7039 24.0662C72.3312 24.9009 71.3325 25.4226 70.155 25.4226ZM70.5574 24.3345C71.884 24.3345 72.6889 23.4699 72.6889 22.0986V21.711L70.8257 21.8601C69.5885 21.9793 69.0817 22.4563 69.0817 23.1718C69.0817 23.9469 69.6482 24.3345 70.5574 24.3345ZM77.9263 25.2437H76.5252V19.1323H75.0942V17.9548H76.5252V15.6742H77.9263V17.9548H79.3573V19.1323H77.9263V25.2437ZM84.0943 23.1271H85.4358C85.4358 23.8724 86.0023 24.3196 86.9264 24.3196C87.9102 24.3196 88.4766 23.9171 88.4766 23.2463C88.4766 22.7544 88.2381 22.4563 87.4779 22.2626L86.196 21.9644C84.8992 21.6514 84.2881 21.0105 84.2881 19.9373C84.2881 18.5957 85.4209 17.7461 87.0307 17.7461C88.6257 17.7461 89.6691 18.6405 89.6989 20.0267H88.3574C88.3276 19.2963 87.8357 18.8342 86.986 18.8342C86.1066 18.8342 85.6147 19.2218 85.6147 19.8925C85.6147 20.3844 85.9724 20.7124 86.6879 20.8912L87.9698 21.2042C89.207 21.5024 89.8181 22.0688 89.8181 23.1569C89.8181 24.5431 88.6257 25.4226 86.8966 25.4226C85.1824 25.4226 84.0943 24.5133 84.0943 23.1271ZM90.895 21.5918C90.895 19.341 92.5048 17.761 94.6959 17.761C96.8722 17.761 98.482 19.341 98.482 21.5918C98.482 23.8426 96.8722 25.4226 94.6959 25.4226C92.5048 25.4226 90.895 23.8426 90.895 21.5918ZM92.311 21.5918C92.311 23.1122 93.2799 24.1705 94.6959 24.1705C96.0971 24.1705 97.0809 23.1122 97.0809 21.5918C97.0809 20.0714 96.0971 19.0131 94.6959 19.0131C93.2799 19.0131 92.311 20.0714 92.311 21.5918ZM104.896 17.9548H106.283V25.2437H105.031L104.882 24.1407C104.464 24.9009 103.495 25.4226 102.422 25.4226C100.723 25.4226 99.7689 24.2748 99.7689 22.4861V17.9548H101.17V22.0241C101.17 23.5892 101.841 24.1854 102.914 24.1854C104.196 24.1854 104.896 23.3656 104.896 21.8005V17.9548ZM109.717 25.2437H108.316V17.9548H109.583L109.732 19.0727C110.194 18.238 111.118 17.7461 112.146 17.7461C114.069 17.7461 114.949 18.9237 114.949 20.7869V25.2437H113.548V21.0999C113.548 19.6242 112.862 19.028 111.789 19.028C110.477 19.028 109.717 19.9671 109.717 21.3831V25.2437ZM119.811 25.4226C117.694 25.4226 116.412 23.8426 116.412 21.6216C116.412 19.3857 117.709 17.7461 119.871 17.7461C120.988 17.7461 121.928 18.238 122.419 19.1323V14.2731H123.806V25.2437H122.554L122.434 23.9171C121.957 24.9158 120.974 25.4226 119.811 25.4226ZM120.094 24.1556C121.525 24.1556 122.404 23.0973 122.404 21.5769C122.404 20.0863 121.525 19.0131 120.094 19.0131C118.663 19.0131 117.828 20.0863 117.828 21.5769C117.828 23.0824 118.663 24.1556 120.094 24.1556ZM125.231 23.1271H126.572C126.572 23.8724 127.139 24.3196 128.063 24.3196C129.047 24.3196 129.613 23.9171 129.613 23.2463C129.613 22.7544 129.375 22.4563 128.614 22.2626L127.332 21.9644C126.036 21.6514 125.425 21.0105 125.425 19.9373C125.425 18.5957 126.557 17.7461 128.167 17.7461C129.762 17.7461 130.806 18.6405 130.835 20.0267H129.494C129.464 19.2963 128.972 18.8342 128.122 18.8342C127.243 18.8342 126.751 19.2218 126.751 19.8925C126.751 20.3844 127.109 20.7124 127.824 20.8912L129.106 21.2042C130.343 21.5024 130.955 22.0688 130.955 23.1569C130.955 24.5431 129.762 25.4226 128.033 25.4226C126.319 25.4226 125.231 24.5133 125.231 23.1271ZM138.716 25.4226C137.151 25.4226 136.226 24.5431 136.226 23.2165C136.226 21.875 137.225 21.0403 138.939 20.9061L141.235 20.7273V20.5186C141.235 19.2963 140.504 18.864 139.521 18.864C138.343 18.864 137.672 19.3857 137.672 20.2652H136.45C136.45 18.7448 137.702 17.7461 139.58 17.7461C141.384 17.7461 142.606 18.7001 142.606 20.6676V25.2437H141.414L141.265 24.0662C140.892 24.9009 139.893 25.4226 138.716 25.4226ZM139.118 24.3345C140.445 24.3345 141.25 23.4699 141.25 22.0986V21.711L139.386 21.8601C138.149 21.9793 137.643 22.4563 137.643 23.1718C137.643 23.9469 138.209 24.3345 139.118 24.3345ZM145.948 25.2437H144.547V17.9548H145.799L145.933 18.9088C146.305 18.2231 147.081 17.7461 148.109 17.7461C149.242 17.7461 150.047 18.3125 150.419 19.2218C150.762 18.3125 151.642 17.7461 152.775 17.7461C154.444 17.7461 155.458 18.7895 155.458 20.4739V25.2437H154.086V20.8167C154.086 19.669 153.445 19.0131 152.462 19.0131C151.403 19.0131 150.703 19.7584 150.703 20.921V25.2437H149.316V20.8018C149.316 19.654 148.69 19.028 147.707 19.028C146.648 19.028 145.948 19.7584 145.948 20.921V25.2437ZM159.531 25.4226C157.966 25.4226 157.042 24.5431 157.042 23.2165C157.042 21.875 158.041 21.0403 159.755 20.9061L162.05 20.7273V20.5186C162.05 19.2963 161.32 18.864 160.336 18.864C159.159 18.864 158.488 19.3857 158.488 20.2652H157.266C157.266 18.7448 158.518 17.7461 160.396 17.7461C162.2 17.7461 163.422 18.7001 163.422 20.6676V25.2437H162.229L162.08 24.0662C161.708 24.9009 160.709 25.4226 159.531 25.4226ZM159.934 24.3345C161.26 24.3345 162.065 23.4699 162.065 22.0986V21.711L160.202 21.8601C158.965 21.9793 158.458 22.4563 158.458 23.1718C158.458 23.9469 159.025 24.3345 159.934 24.3345ZM170.594 25.2437H164.915V24.1109L168.85 19.1323H164.915V17.9548H170.594V19.1025L166.629 24.0662H170.594V25.2437ZM172.86 16.2257C172.354 16.2257 171.936 15.8084 171.936 15.3016C171.936 14.7799 172.354 14.3774 172.86 14.3774C173.367 14.3774 173.784 14.7799 173.784 15.3016C173.784 15.8084 173.367 16.2257 172.86 16.2257ZM172.175 25.2437V17.9548H173.576V25.2437H172.175ZM177.011 25.2437H175.61V17.9548H176.877L177.026 19.0727C177.488 18.238 178.412 17.7461 179.441 17.7461C181.364 17.7461 182.243 18.9237 182.243 20.7869V25.2437H180.842V21.0999C180.842 19.6242 180.156 19.028 179.083 19.028C177.771 19.028 177.011 19.9671 177.011 21.3831V25.2437ZM183.722 21.4129C183.722 19.3559 185.048 17.7461 187.165 17.7461C188.342 17.7461 189.252 18.2827 189.714 19.192L189.818 17.9548H191.07V24.9456C191.07 27.2411 189.654 28.7019 187.418 28.7019C185.436 28.7019 184.079 27.5839 183.811 25.7356H185.212C185.391 26.8088 186.196 27.4349 187.418 27.4349C188.79 27.4349 189.684 26.5405 189.684 25.1543V23.6935C189.207 24.5431 188.253 25.0499 187.105 25.0499C185.033 25.0499 183.722 23.455 183.722 21.4129ZM185.123 21.3831C185.123 22.7544 185.972 23.8277 187.344 23.8277C188.76 23.8277 189.624 22.8141 189.624 21.3831C189.624 19.982 188.79 18.9684 187.359 18.9684C185.958 18.9684 185.123 20.0416 185.123 21.3831ZM194.806 22.0092H193.718C193.569 20.8912 193.465 18.9088 193.465 16.971V14.4668H195.075V16.971C195.075 18.9386 194.955 20.9061 194.806 22.0092ZM194.27 25.4524C193.674 25.4524 193.197 24.9754 193.197 24.3941C193.197 23.8128 193.674 23.3358 194.27 23.3358C194.836 23.3358 195.328 23.8128 195.328 24.3941C195.328 24.9754 194.836 25.4524 194.27 25.4524ZM203.964 25.2437L200.76 14.4668H202.28L204.247 21.0552C204.397 21.6216 204.546 22.188 204.695 23.0078C204.874 22.1433 205.037 21.6216 205.201 21.0552L207.244 14.4668H208.824L210.851 21.0552C211.03 21.6365 211.179 22.2029 211.343 23.0078C211.521 22.0986 211.671 21.5471 211.82 21.0701L213.802 14.4668H215.293L212.043 25.2437H210.642L208.034 16.7176L205.395 25.2437H203.964ZM217.929 25.2288H216.528V14.2731H217.929V19.0727C218.391 18.2827 219.271 17.7461 220.404 17.7461C222.267 17.7461 223.161 18.9237 223.161 20.7869V25.2437H221.76V21.0999C221.76 19.6242 221.059 19.028 220.016 19.028C218.66 19.028 217.929 20.0118 217.929 21.2639V25.2288ZM228.247 25.4226C226.101 25.4226 224.625 23.8724 224.625 21.6067C224.625 19.3261 226.071 17.7461 228.187 17.7461C230.259 17.7461 231.616 19.1771 231.616 21.3384V21.8601L225.981 21.875C226.086 23.4103 226.891 24.2599 228.277 24.2599C229.365 24.2599 230.08 23.8128 230.319 22.978H231.631C231.273 24.5431 230.051 25.4226 228.247 25.4226ZM228.187 18.9237C226.965 18.9237 226.19 19.654 226.011 20.9359H230.215C230.215 19.7286 229.424 18.9237 228.187 18.9237ZM237.354 17.8952V19.1771H236.728C235.402 19.1771 234.582 19.982 234.582 21.3831V25.2437H233.181V17.9697H234.492L234.582 19.0727C234.88 18.3125 235.61 17.8057 236.609 17.8057C236.862 17.8057 237.071 17.8355 237.354 17.8952ZM241.552 25.4226C239.405 25.4226 237.929 23.8724 237.929 21.6067C237.929 19.3261 239.375 17.7461 241.492 17.7461C243.564 17.7461 244.92 19.1771 244.92 21.3384V21.8601L239.286 21.875C239.39 23.4103 240.195 24.2599 241.581 24.2599C242.669 24.2599 243.385 23.8128 243.623 22.978H244.935C244.577 24.5431 243.355 25.4226 241.552 25.4226ZM241.492 18.9237C240.27 18.9237 239.495 19.654 239.316 20.9359H243.519C243.519 19.7286 242.729 18.9237 241.492 18.9237ZM52.6449 47.2437L50.2599 39.9548H51.7058L52.9132 43.7409C53.0771 44.2775 53.2262 44.829 53.3603 45.4699C53.4796 44.829 53.6734 44.2178 53.8373 43.7409L55.0596 39.9548H56.4906L57.6979 43.7409C57.8172 44.0986 58.0557 44.9482 58.1749 45.4699C58.2942 44.8886 58.4283 44.3818 58.637 43.7409L59.8593 39.9548H61.32L58.8308 47.2437H57.5041L56.2372 43.3384C55.9987 42.608 55.8496 42.0416 55.7751 41.6391C55.7005 41.9969 55.5664 42.4739 55.2981 43.3533L54.0311 47.2437H52.6449ZM61.7093 43.5918C61.7093 41.341 63.3191 39.761 65.5103 39.761C67.6865 39.761 69.2964 41.341 69.2964 43.5918C69.2964 45.8426 67.6865 47.4226 65.5103 47.4226C63.3191 47.4226 61.7093 45.8426 61.7093 43.5918ZM63.1254 43.5918C63.1254 45.1122 64.0942 46.1705 65.5103 46.1705C66.9114 46.1705 67.8952 45.1122 67.8952 43.5918C67.8952 42.0714 66.9114 41.0131 65.5103 41.0131C64.0942 41.0131 63.1254 42.0714 63.1254 43.5918ZM75.7109 39.9548H77.0971V47.2437H75.845L75.696 46.1407C75.2786 46.9009 74.3097 47.4226 73.2365 47.4226C71.5372 47.4226 70.5833 46.2748 70.5833 44.4861V39.9548H71.9844V44.0241C71.9844 45.5892 72.6552 46.1854 73.7284 46.1854C75.0103 46.1854 75.7109 45.3656 75.7109 43.8005V39.9548ZM80.5609 47.2437H79.1598V36.2731H80.5609V47.2437ZM85.5451 47.4226C83.4284 47.4226 82.1465 45.8426 82.1465 43.6216C82.1465 41.3857 83.4433 39.7461 85.6047 39.7461C86.7226 39.7461 87.6617 40.238 88.1536 41.1323V36.2731H89.5398V47.2437H88.2877L88.1685 45.9171C87.6915 46.9158 86.7077 47.4226 85.5451 47.4226ZM85.8283 46.1556C87.2592 46.1556 88.1387 45.0973 88.1387 43.5769C88.1387 42.0863 87.2592 41.0131 85.8283 41.0131C84.3973 41.0131 83.5626 42.0863 83.5626 43.5769C83.5626 45.0824 84.3973 46.1556 85.8283 46.1556ZM94.9364 50.5081V49.3603H95.8755C96.5462 49.3603 97.0828 49.256 97.4257 48.3318L97.6791 47.6313L94.7426 39.9548H96.2183L98.3349 45.8277L100.496 39.9548H101.942L98.4989 48.8833C98.007 50.1354 97.2766 50.6571 96.1587 50.6571C95.6966 50.6571 95.309 50.5975 94.9364 50.5081ZM102.307 43.5918C102.307 41.341 103.917 39.761 106.108 39.761C108.284 39.761 109.894 41.341 109.894 43.5918C109.894 45.8426 108.284 47.4226 106.108 47.4226C103.917 47.4226 102.307 45.8426 102.307 43.5918ZM103.723 43.5918C103.723 45.1122 104.692 46.1705 106.108 46.1705C107.509 46.1705 108.493 45.1122 108.493 43.5918C108.493 42.0714 107.509 41.0131 106.108 41.0131C104.692 41.0131 103.723 42.0714 103.723 43.5918ZM116.309 39.9548H117.695V47.2437H116.443L116.294 46.1407C115.876 46.9009 114.908 47.4226 113.834 47.4226C112.135 47.4226 111.181 46.2748 111.181 44.4861V39.9548H112.582V44.0241C112.582 45.5892 113.253 46.1854 114.326 46.1854C115.608 46.1854 116.309 45.3656 116.309 43.8005V39.9548ZM125.235 47.2437H123.833V36.2731H125.235V47.2437ZM127.983 38.2257C127.476 38.2257 127.059 37.8084 127.059 37.3016C127.059 36.7799 127.476 36.3774 127.983 36.3774C128.49 36.3774 128.907 36.7799 128.907 37.3016C128.907 37.8084 128.49 38.2257 127.983 38.2257ZM127.297 47.2437V39.9548H128.698V47.2437H127.297ZM132.163 47.2437H130.762V36.2731H132.163V43.3831L135.398 39.9548H137.157L134.37 42.8614L137.142 47.2437H135.532L133.401 43.875L132.163 45.1718V47.2437ZM141.17 47.4226C139.024 47.4226 137.548 45.8724 137.548 43.6067C137.548 41.3261 138.994 39.7461 141.111 39.7461C143.183 39.7461 144.539 41.1771 144.539 43.3384V43.8601L138.905 43.875C139.009 45.4103 139.814 46.2599 141.2 46.2599C142.288 46.2599 143.004 45.8128 143.242 44.978H144.554C144.196 46.5431 142.974 47.4226 141.17 47.4226ZM141.111 40.9237C139.889 40.9237 139.113 41.654 138.935 42.9359H143.138C143.138 41.7286 142.348 40.9237 141.111 40.9237ZM152.237 47.2437H150.836V41.1323H149.405V39.9548H150.836V37.6742H152.237V39.9548H153.668V41.1323H152.237V47.2437ZM154.376 43.5918C154.376 41.341 155.985 39.761 158.177 39.761C160.353 39.761 161.963 41.341 161.963 43.5918C161.963 45.8426 160.353 47.4226 158.177 47.4226C155.985 47.4226 154.376 45.8426 154.376 43.5918ZM155.792 43.5918C155.792 45.1122 156.76 46.1705 158.177 46.1705C159.578 46.1705 160.561 45.1122 160.561 43.5918C160.561 42.0714 159.578 41.0131 158.177 41.0131C156.76 41.0131 155.792 42.0714 155.792 43.5918ZM167.127 43.4129C167.127 41.3559 168.454 39.7461 170.571 39.7461C171.748 39.7461 172.657 40.2827 173.119 41.192L173.224 39.9548H174.476V46.9456C174.476 49.2411 173.06 50.7019 170.824 50.7019C168.841 50.7019 167.485 49.5839 167.217 47.7356H168.618C168.797 48.8088 169.602 49.4349 170.824 49.4349C172.195 49.4349 173.09 48.5405 173.09 47.1543V45.6935C172.613 46.5431 171.659 47.0499 170.511 47.0499C168.439 47.0499 167.127 45.455 167.127 43.4129ZM168.528 43.3831C168.528 44.7544 169.378 45.8277 170.749 45.8277C172.165 45.8277 173.03 44.8141 173.03 43.3831C173.03 41.982 172.195 40.9684 170.764 40.9684C169.363 40.9684 168.528 42.0416 168.528 43.3831ZM176.021 43.5918C176.021 41.341 177.631 39.761 179.822 39.761C181.998 39.761 183.608 41.341 183.608 43.5918C183.608 45.8426 181.998 47.4226 179.822 47.4226C177.631 47.4226 176.021 45.8426 176.021 43.5918ZM177.437 43.5918C177.437 45.1122 178.406 46.1705 179.822 46.1705C181.223 46.1705 182.207 45.1122 182.207 43.5918C182.207 42.0714 181.223 41.0131 179.822 41.0131C178.406 41.0131 177.437 42.0714 177.437 43.5918ZM188.394 44.6352H187.097V44.2626C187.097 42.9956 187.917 42.3099 188.721 41.6839C189.452 41.1174 190.123 40.5659 190.123 39.5821C190.123 38.4344 189.362 37.5848 188.14 37.5848C186.963 37.5848 186.083 38.5089 186.083 39.7312H184.637C184.637 37.7487 186.158 36.2731 188.17 36.2731C190.287 36.2731 191.598 37.6146 191.598 39.5076C191.598 41.0727 190.585 41.8329 189.72 42.459C188.93 43.0254 188.394 43.5024 188.394 44.2626V44.6352ZM187.812 47.4524C187.216 47.4524 186.739 46.9754 186.739 46.3941C186.739 45.8128 187.216 45.3358 187.812 45.3358C188.379 45.3358 188.871 45.8277 188.871 46.3941C188.871 46.9605 188.379 47.4524 187.812 47.4524Z" fill="#021430"/>
<circle cx="21.8522" cy="31.0698" r="20.7616" fill="#F7F7F7" stroke="#E9ECFF" stroke-width="2.1294"/>
<circle cx="21.8532" cy="31.068" r="19.3539" stroke="#F7F7F7" stroke-width="1.0647"/>
<path fill-rule="evenodd" clip-rule="evenodd" d="M31.7132 30.5602C32.2282 29.7703 32.7224 28.8304 32.7224 27.8211V21.708C32.7224 20.3269 31.6046 19.2092 30.2236 19.2092H9.97656V30.7195L15.3999 36.144V32.8665V28.2475V22.7672H22.7163C25.4946 22.7672 27.7671 25.0397 27.7671 27.818C27.7671 28.8249 27.4646 29.7672 26.9519 30.557C27.4669 31.3468 27.7671 32.2868 27.7671 33.296C27.7671 36.0743 25.4946 38.3468 22.7163 38.3468H17.6023L21.2098 41.955H30.2236C31.6046 41.955 32.7224 40.8372 32.7224 39.4562V33.2992C32.7224 32.7957 32.6485 32.3084 32.5076 31.8488C32.4076 31.5224 32.1782 31.2088 31.9618 30.913C31.8736 30.7923 31.7875 30.6746 31.7132 30.5602Z" fill="url(#paint0_linear_804_22266)"/>
<path d="M9.97681 28.9411L15.404 29.9942L21.3486 38.3383L23.2631 41.9434H21.21L9.97681 30.7078V28.9411Z" fill="#002C72" fill-opacity="0.5"/>
<path d="M21.21 41.9516L9.97681 30.7161V30.0048H21.3486V41.9516" fill="#01E3FB"/>
<path d="M21.21 41.9516L9.97681 30.7161V30.0048H21.3486V41.9516H21.21Z" fill="#01E3FB"/>
<path d="M21.21 41.9516L9.97681 30.7161V30.0048H21.3486V41.9516H21.21Z" fill="url(#paint1_linear_804_22266)"/>
<path d="M22.8465 30.0239C23.7228 30.0239 24.4332 29.3135 24.4332 28.4372C24.4332 27.5609 23.7228 26.8505 22.8465 26.8505C21.9702 26.8505 21.2598 27.5609 21.2598 28.4372C21.2598 29.3135 21.9702 30.0239 22.8465 30.0239Z" fill="#72D3EE"/>
<path d="M22.8465 30.0239C23.7228 30.0239 24.4332 29.3135 24.4332 28.4372C24.4332 27.5609 23.7228 26.8505 22.8465 26.8505C21.9702 26.8505 21.2598 27.5609 21.2598 28.4372C21.2598 29.3135 21.9702 30.0239 22.8465 30.0239Z" fill="url(#paint2_linear_804_22266)"/>
<defs>
<linearGradient id="paint0_linear_804_22266" x1="27.5476" y1="22.338" x2="18.2456" y2="40.2654" gradientUnits="userSpaceOnUse">
<stop stop-color="#014DFE"/>
<stop offset="0.716667" stop-color="#0EAFE1"/>
</linearGradient>
<linearGradient id="paint1_linear_804_22266" x1="24.1116" y1="30.7633" x2="10.4148" y2="34.643" gradientUnits="userSpaceOnUse">
<stop stop-color="#02589F"/>
<stop offset="0.0416638" stop-color="#0285C7"/>
<stop offset="0.130206" stop-color="#02AADF"/>
<stop offset="0.442708" stop-color="#6CD0F3"/>
<stop offset="0.713543" stop-color="#83D9DC"/>
<stop offset="1" stop-color="#ABE1CC"/>
</linearGradient>
<linearGradient id="paint2_linear_804_22266" x1="23.7113" y1="27.287" x2="22.4135" y2="29.7882" gradientUnits="userSpaceOnUse">
<stop stop-color="#014DFE"/>
<stop offset="0.716667" stop-color="#0EAFE1"/>
</linearGradient>
</defs>
</svg>
