<svg width="268" height="49" viewBox="0 0 268 49" fill="none" xmlns="http://www.w3.org/2000/svg">
<path fill-rule="evenodd" clip-rule="evenodd" d="M46.5153 24.126C47.6021 22.4592 48.645 20.4757 48.645 18.3459V5.44561C48.645 2.53122 46.2862 0.172409 43.3718 0.172409H0.645264V24.4623L12.0888 35.9081V28.9996V19.2525V7.68752H27.5282C33.3911 7.68752 38.1867 12.4831 38.1867 18.346C38.1867 20.4709 37.5483 22.4593 36.4664 24.1261C37.5532 25.7928 38.1867 27.7764 38.1867 29.9061C38.1867 35.769 33.3911 40.5646 27.5282 40.5646H16.7443L24.3503 48.1722H43.3718C46.2862 48.1722 48.645 45.8134 48.645 42.899V29.9061C48.645 28.8436 48.4891 27.8153 48.1918 26.8455C47.9806 26.1566 47.4966 25.4948 47.04 24.8706C46.8537 24.6159 46.672 24.3675 46.5153 24.126Z" fill="url(#paint0_linear_116_62)"/>
<path d="M0.645264 20.7342L12.0981 22.9566L24.6427 40.5648L28.6829 48.1724H24.3503L0.645264 24.4625V20.7342Z" fill="#002C72" fill-opacity="0.5"/>
<path d="M24.3503 48.1723L0.645264 24.4623V22.9613H24.6427V48.1723" fill="#01E3FB"/>
<path d="M24.3503 48.1723L0.645264 24.4623V22.9613H24.6427V48.1723H24.3503Z" fill="#01E3FB"/>
<path d="M24.3503 48.1723L0.645264 24.4623V22.9613H24.6427V48.1723H24.3503Z" fill="url(#paint1_linear_116_62)"/>
<path d="M27.8063 23.0003C29.6554 23.0003 31.1544 21.5013 31.1544 19.6522C31.1544 17.8031 29.6554 16.3041 27.8063 16.3041C25.9571 16.3041 24.4581 17.8031 24.4581 19.6522C24.4581 21.5013 25.9571 23.0003 27.8063 23.0003Z" fill="#72D3EE"/>
<path d="M27.8063 23.0003C29.6554 23.0003 31.1544 21.5013 31.1544 19.6522C31.1544 17.8031 29.6554 16.3041 27.8063 16.3041C25.9571 16.3041 24.4581 17.8031 24.4581 19.6522C24.4581 21.5013 25.9571 23.0003 27.8063 23.0003Z" fill="url(#paint2_linear_116_62)"/>
<path fill-rule="evenodd" clip-rule="evenodd" d="M144.702 40.3007H150.08V34.3893L153.28 31.0559L159.014 40.3007H165.236L157.058 27.0557L165.414 18.3441H158.613L150.08 27.5446V7.23248H144.702V40.3007ZM64.8413 35.3491H70.9251V40.3007H77.9975C84.7089 40.3007 88.5758 37.0561 88.5758 31.5003C88.5758 27.7224 86.8424 25.1445 83.42 24.0333C86.4868 22.7443 88.0869 20.1664 88.0869 16.5663C88.0869 11.1438 84.1756 7.81029 77.7753 7.81029H64.8413V35.3491ZM70.5305 12.8328H77.2863C80.4865 12.8328 82.2644 14.3439 82.2644 17.1441C82.2644 20.0331 80.5309 21.6776 77.4197 21.6776H70.5305V12.8328ZM70.5305 26.4779H77.7753C80.931 26.4779 82.7533 28.0335 82.7533 30.7892C82.7533 33.7226 80.9754 35.2783 77.7753 35.2783H70.5305V26.4779ZM102.993 17.7219C96.1925 17.7219 91.2589 22.4332 91.2589 29.278C91.2589 36.1228 96.1925 40.8341 102.993 40.8341C109.793 40.8341 114.727 36.1228 114.727 29.278C114.727 22.4332 109.793 17.7219 102.993 17.7219ZM102.993 35.9894C99.2593 35.9894 96.6814 33.2782 96.6814 29.278C96.6814 25.2778 99.2593 22.5666 102.993 22.5666C106.726 22.5666 109.304 25.2778 109.304 29.278C109.304 33.2782 106.726 35.9894 102.993 35.9894ZM117.291 29.278C117.291 22.4332 122.225 17.7219 129.025 17.7219C135.826 17.7219 140.759 22.4332 140.759 29.278C140.759 36.1228 135.826 40.8341 129.025 40.8341C122.225 40.8341 117.291 36.1228 117.291 29.278ZM122.714 29.278C122.714 33.2782 125.292 35.9894 129.025 35.9894C132.759 35.9894 135.337 33.2782 135.337 29.278C135.337 25.2778 132.759 22.5666 129.025 22.5666C125.292 22.5666 122.714 25.2778 122.714 29.278ZM176.909 40.8785C170.375 40.8785 165.797 36.1228 165.797 29.3224C165.797 22.4332 170.286 17.6774 176.731 17.6774C183.309 17.6774 187.487 22.0776 187.487 28.9224V30.5669L170.953 30.6114C171.353 34.4782 173.398 36.4339 176.998 36.4339C179.976 36.4339 181.931 35.2783 182.554 33.1893H187.576C186.643 37.9895 182.642 40.8785 176.909 40.8785ZM176.775 22.1221C173.575 22.1221 171.62 23.8555 171.086 27.1446H182.109C182.109 24.1222 180.02 22.1221 176.775 22.1221ZM190.093 29.4113C190.093 36.2117 194.049 40.8785 200.405 40.8785C203.739 40.8785 206.583 39.4118 207.917 36.8784L208.272 40.3007H213.25V7.23248H207.872V21.1443C206.494 18.9664 203.783 17.6774 200.716 17.6774C194.094 17.6774 190.093 22.5666 190.093 29.4113ZM207.828 29.2335C207.828 33.1893 205.383 35.9005 201.605 35.9005C197.827 35.9005 195.516 33.1448 195.516 29.2335C195.516 25.3222 197.827 22.5221 201.605 22.5221C205.383 22.5221 207.828 25.2778 207.828 29.2335ZM233.592 40.3007H227.681L239.415 7.81029H245.237L256.971 40.3007H250.971L248.348 32.7893H236.214L233.592 40.3007ZM241.592 17.4996L237.903 27.989H246.704L242.97 17.4996L242.956 17.4533L242.956 17.4532C242.692 16.6195 242.391 15.6651 242.304 15.0106C242.17 15.6329 241.904 16.6107 241.592 17.4996ZM266.29 40.3007V7.81029H260.601V40.3007H266.29Z" fill="#1B1564"/>
<defs>
<linearGradient id="paint0_linear_116_62" x1="37.7248" y1="6.7751" x2="18.0952" y2="44.6067" gradientUnits="userSpaceOnUse">
<stop stop-color="#014DFE"/>
<stop offset="0.716667" stop-color="#0EAFE1"/>
</linearGradient>
<linearGradient id="paint1_linear_116_62" x1="30.4733" y1="24.562" x2="1.56948" y2="32.7493" gradientUnits="userSpaceOnUse">
<stop stop-color="#02589F"/>
<stop offset="0.0416638" stop-color="#0285C7"/>
<stop offset="0.130206" stop-color="#02AADF"/>
<stop offset="0.442708" stop-color="#6CD0F3"/>
<stop offset="0.713543" stop-color="#83D9DC"/>
<stop offset="1" stop-color="#ABE1CC"/>
</linearGradient>
<linearGradient id="paint2_linear_116_62" x1="29.631" y1="17.2252" x2="26.8925" y2="22.5029" gradientUnits="userSpaceOnUse">
<stop stop-color="#014DFE"/>
<stop offset="0.716667" stop-color="#0EAFE1"/>
</linearGradient>
</defs>
</svg>
