<svg width="162" height="44" viewBox="0 0 162 44" fill="none" xmlns="http://www.w3.org/2000/svg">
<path fill-rule="evenodd" clip-rule="evenodd" d="M27.7131 24.472C28.3698 23.465 28.9999 22.2666 28.9999 20.9798V13.1859C28.9999 11.4251 27.5747 10 25.814 10H0V24.6751L6.91381 31.5904V27.4165V21.5276V14.5404H16.2418C19.784 14.5404 22.6813 17.4377 22.6813 20.9799C22.6813 22.2637 22.2956 23.465 21.6419 24.472C22.2985 25.479 22.6813 26.6774 22.6813 27.9641C22.6813 31.5063 19.784 34.4036 16.2418 34.4036H9.7265L14.3218 38.9999H25.814C27.5747 38.9999 28.9999 37.5748 28.9999 35.814V27.9641C28.9999 27.3222 28.9056 26.7009 28.726 26.115C28.5985 25.6988 28.306 25.299 28.0302 24.9218C27.9176 24.7679 27.8078 24.6179 27.7131 24.472Z" fill="url(#paint0_linear_1163_17196)"/>
<path d="M0 22.4229L6.91945 23.7655L14.4985 34.4038L16.9394 39.0001H14.3218L0 24.6754V22.4229Z" fill="#002C72" fill-opacity="0.5"/>
<path d="M14.3218 38.9999L0 24.6752V23.7683H14.4985V38.9999" fill="#01E3FB"/>
<path d="M14.3218 38.9999L0 24.6752V23.7683H14.4985V38.9999H14.3218Z" fill="#01E3FB"/>
<path d="M14.3218 38.9999L0 24.6752V23.7683H14.4985V38.9999H14.3218Z" fill="url(#paint1_linear_1163_17196)"/>
<path d="M16.4096 23.7918C17.5267 23.7918 18.4324 22.8861 18.4324 21.7689C18.4324 20.6517 17.5267 19.7461 16.4096 19.7461C15.2924 19.7461 14.3867 20.6517 14.3867 21.7689C14.3867 22.8861 15.2924 23.7918 16.4096 23.7918Z" fill="#72D3EE"/>
<path d="M16.4096 23.7918C17.5267 23.7918 18.4324 22.8861 18.4324 21.7689C18.4324 20.6517 17.5267 19.7461 16.4096 19.7461C15.2924 19.7461 14.3867 20.6517 14.3867 21.7689C14.3867 22.8861 15.2924 23.7918 16.4096 23.7918Z" fill="url(#paint2_linear_1163_17196)"/>
<path fill-rule="evenodd" clip-rule="evenodd" d="M87.0342 34.2441H90.2834V30.6727L92.2168 28.6587L95.6809 34.2441H99.4403L94.4993 26.2419L99.5477 20.9787H95.4392L90.2834 26.5373V14.2654H87.0342V34.2441ZM38.7852 31.2525H42.4608V34.2441H46.7337C50.7885 34.2441 53.1247 32.2838 53.1247 28.9272C53.1247 26.6447 52.0775 25.0872 50.0098 24.4159C51.8626 23.6371 52.8293 22.0796 52.8293 19.9045C52.8293 16.6285 50.4663 14.6145 46.5994 14.6145H38.7852V31.2525ZM42.2224 17.6489H46.304C48.2375 17.6489 49.3116 18.5619 49.3116 20.2536C49.3116 21.9991 48.2643 22.9927 46.3846 22.9927H42.2224V17.6489ZM42.2224 25.8928H46.5994C48.506 25.8928 49.607 26.8327 49.607 28.4975C49.607 30.2699 48.5328 31.2097 46.5994 31.2097H42.2224V25.8928ZM61.835 20.6027C57.7265 20.6027 54.7458 23.4492 54.7458 27.5845C54.7458 31.7199 57.7265 34.5664 61.835 34.5664C65.9435 34.5664 68.9242 31.7199 68.9242 27.5845C68.9242 23.4492 65.9435 20.6027 61.835 20.6027ZM61.835 31.6394C59.5793 31.6394 58.0219 30.0013 58.0219 27.5845C58.0219 25.1678 59.5793 23.5297 61.835 23.5297C64.0907 23.5297 65.6481 25.1678 65.6481 27.5845C65.6481 30.0013 64.0907 31.6394 61.835 31.6394ZM70.4737 27.5845C70.4737 23.4492 73.4544 20.6027 77.563 20.6027C81.6715 20.6027 84.6522 23.4492 84.6522 27.5845C84.6522 31.7199 81.6715 34.5664 77.563 34.5664C73.4544 34.5664 70.4737 31.7199 70.4737 27.5845ZM73.7498 27.5845C73.7498 30.0013 75.3073 31.6394 77.563 31.6394C79.8186 31.6394 81.3761 30.0013 81.3761 27.5845C81.3761 25.1678 79.8186 23.5297 77.563 23.5297C75.3073 23.5297 73.7498 25.1678 73.7498 27.5845ZM106.493 34.5932C102.545 34.5932 99.7793 31.7199 99.7793 27.6114C99.7793 23.4492 102.491 20.5759 106.385 20.5759C110.359 20.5759 112.884 23.2343 112.884 27.3697V28.3633L102.894 28.3901C103.136 30.7264 104.371 31.9079 106.546 31.9079C108.345 31.9079 109.527 31.2097 109.903 29.9476H112.937C112.373 32.8478 109.957 34.5932 106.493 34.5932ZM106.412 23.2612C104.479 23.2612 103.297 24.3085 102.975 26.2956H109.634C109.634 24.4696 108.372 23.2612 106.412 23.2612ZM114.458 27.6651C114.458 31.7736 116.848 34.5932 120.688 34.5932C122.702 34.5932 124.421 33.7071 125.226 32.1764L125.441 34.2441H128.449V14.2654H125.2V22.6704C124.367 21.3546 122.729 20.5759 120.876 20.5759C116.875 20.5759 114.458 23.5297 114.458 27.6651ZM125.173 27.5577C125.173 29.9476 123.696 31.5857 121.413 31.5857C119.131 31.5857 117.734 29.9208 117.734 27.5577C117.734 25.1946 119.131 23.5029 121.413 23.5029C123.696 23.5029 125.173 25.1678 125.173 27.5577ZM140.739 34.2441H137.167L144.257 14.6145H147.774L154.863 34.2441H151.238L149.654 29.7059H142.323L140.739 34.2441ZM145.572 20.4685L143.343 26.8058H148.66L146.405 20.4685L146.396 20.4401C146.237 19.9365 146.055 19.36 146.002 18.9647C145.921 19.3406 145.76 19.9314 145.572 20.4685ZM160.494 34.2441V14.6145H157.056V34.2441H160.494Z" fill="#1B1564"/>
<path d="M0 0.885394C0 0.396404 0.396404 0 0.885393 0H14.542C15.031 0 15.4274 0.396404 15.4274 0.885393V7.28232C15.4274 7.77131 15.031 8.16771 14.542 8.16771H0.885393C0.396404 8.16771 0 7.77131 0 7.28232V0.885394Z" fill="#014DFE"/>
<path d="M1.85986 5.73698V2.4314H3.2357C3.90129 2.4314 4.30332 2.77982 4.30332 3.34713C4.30332 3.70003 4.1425 3.95911 3.84321 4.08866C4.16931 4.19586 4.34352 4.45048 4.34352 4.82571C4.34352 5.41089 3.95042 5.73698 3.2357 5.73698H1.85986ZM3.15976 3.06571H2.58352V3.7849H3.15976C3.41885 3.7849 3.56179 3.65536 3.56179 3.41861C3.56179 3.18632 3.42332 3.06571 3.15976 3.06571ZM3.1955 4.39241H2.58352V5.10267H3.1955C3.46352 5.10267 3.602 4.98206 3.602 4.73637C3.602 4.51302 3.45905 4.39241 3.1955 4.39241Z" fill="white"/>
<path d="M7.19811 5.73698H5.09862V2.4314H7.19811V3.10145H5.82227V3.74916H7.04177V4.38348H5.82227V5.06693H7.19811V5.73698Z" fill="white"/>
<path d="M7.80357 3.10145V2.4314H10.4034V3.10145H9.46529V5.73698H8.74164V3.10145H7.80357Z" fill="white"/>
<path d="M11.2639 5.73698H10.509L11.6883 2.4314H12.394L13.5689 5.73698H12.8005L12.5683 5.04013H11.5006L11.2639 5.73698ZM11.9473 3.72683L11.7106 4.43262H12.3628L12.126 3.72683C12.0903 3.61515 12.0501 3.48561 12.0367 3.4052C12.0233 3.48114 11.9875 3.60622 11.9473 3.72683Z" fill="white"/>
<defs>
<linearGradient id="paint0_linear_1163_17196" x1="22.4022" y1="13.9891" x2="10.5427" y2="36.8457" gradientUnits="userSpaceOnUse">
<stop stop-color="#014DFE"/>
<stop offset="0.716667" stop-color="#0EAFE1"/>
</linearGradient>
<linearGradient id="paint1_linear_1163_17196" x1="18.0211" y1="24.7354" x2="0.55838" y2="29.6819" gradientUnits="userSpaceOnUse">
<stop stop-color="#02589F"/>
<stop offset="0.0416638" stop-color="#0285C7"/>
<stop offset="0.130206" stop-color="#02AADF"/>
<stop offset="0.442708" stop-color="#6CD0F3"/>
<stop offset="0.713543" stop-color="#83D9DC"/>
<stop offset="1" stop-color="#ABE1CC"/>
</linearGradient>
<linearGradient id="paint2_linear_1163_17196" x1="17.512" y1="20.3026" x2="15.8575" y2="23.4913" gradientUnits="userSpaceOnUse">
<stop stop-color="#014DFE"/>
<stop offset="0.716667" stop-color="#0EAFE1"/>
</linearGradient>
</defs>
</svg>
