<svg width="10" height="10" viewBox="0 0 10 10" fill="none" xmlns="http://www.w3.org/2000/svg">
<g clip-path="url(#clip0_1025_14059)">
<g clip-path="url(#clip1_1025_14059)">
<path d="M3.68192 2.00829H2.54152C2.33988 2.00829 2.1465 2.08839 2.00393 2.23097C1.86135 2.37354 1.78125 2.56692 1.78125 2.76856V3.90895M8.62365 3.90895V2.76856C8.62365 2.56692 8.54355 2.37354 8.40097 2.23097C8.25839 2.08839 8.06502 2.00829 7.86338 2.00829H6.72298M6.72298 8.85069H7.86338C8.06502 8.85069 8.25839 8.77059 8.40097 8.62801C8.54355 8.48543 8.62365 8.29205 8.62365 8.09042V6.95002M1.78125 6.95002V8.09042C1.78125 8.29205 1.86135 8.48543 2.00393 8.62801C2.1465 8.77059 2.33988 8.85069 2.54152 8.85069H3.68192" stroke="#121C52" stroke-width="0.5702" stroke-linecap="round" stroke-linejoin="round"/>
</g>
</g>
<defs>
<clipPath id="clip0_1025_14059">
<rect width="9.12319" height="9.12319" fill="white" transform="translate(0.640625 0.867893)"/>
</clipPath>
<clipPath id="clip1_1025_14059">
<rect width="9.12319" height="9.12319" fill="white" transform="translate(0.640625 0.867893)"/>
</clipPath>
</defs>
</svg>
