<svg width="7" height="8" viewBox="0 0 7 8" fill="none" xmlns="http://www.w3.org/2000/svg">
<g clip-path="url(#clip0_1025_14051)">
<path d="M3.28296 0.823228C3.38035 0.589078 3.71205 0.589078 3.80944 0.823228L4.38424 2.20523C4.4253 2.30394 4.51813 2.37138 4.6247 2.37993L6.11668 2.49954C6.36947 2.5198 6.47197 2.83527 6.27937 3.00025L5.14264 3.97398C5.06144 4.04353 5.02599 4.15266 5.05079 4.25665L5.39808 5.71258C5.45692 5.95925 5.18857 6.15422 4.97215 6.02203L3.69481 5.24183C3.60357 5.18611 3.48883 5.18611 3.39759 5.24183L2.12024 6.02203C1.90382 6.15422 1.63547 5.95925 1.69431 5.71258L2.0416 4.25665C2.06641 4.15266 2.03095 4.04353 1.94976 3.97398L0.813025 3.00025C0.62043 2.83527 0.72293 2.5198 0.975715 2.49954L2.4677 2.37993C2.57427 2.37138 2.6671 2.30394 2.70815 2.20523L3.28296 0.823228Z" fill="#FDB022"/>
</g>
<defs>
<clipPath id="clip0_1025_14051">
<rect width="6.8424" height="6.8424" fill="white" transform="translate(0.125 0.190327)"/>
</clipPath>
</defs>
</svg>
