<svg width="8" height="8" viewBox="0 0 8 8" fill="none" xmlns="http://www.w3.org/2000/svg">
<g clip-path="url(#clip0_1025_14054)">
<path d="M3.8103 0.823228C3.90769 0.589078 4.23939 0.589078 4.33678 0.823228L4.91159 2.20523C4.95264 2.30394 5.04547 2.37138 5.15204 2.37993L6.64402 2.49954C6.89681 2.5198 6.99931 2.83527 6.80671 3.00025L5.66998 3.97398C5.58879 4.04353 5.55333 4.15266 5.57813 4.25665L5.92543 5.71258C5.98427 5.95925 5.71592 6.15422 5.4995 6.02203L4.22215 5.24183C4.13091 5.18611 4.01617 5.18611 3.92493 5.24183L2.64759 6.02203C2.43117 6.15422 2.16282 5.95925 2.22166 5.71258L2.56895 4.25665C2.59375 4.15266 2.5583 4.04353 2.4771 3.97398L1.34037 3.00025C1.14777 2.83527 1.25027 2.5198 1.50306 2.49954L2.99504 2.37993C3.10161 2.37138 3.19444 2.30394 3.2355 2.20523L3.8103 0.823228Z" fill="#FDB022"/>
</g>
<defs>
<clipPath id="clip0_1025_14054">
<rect width="6.8424" height="6.8424" fill="white" transform="translate(0.652344 0.190327)"/>
</clipPath>
</defs>
</svg>
