<svg width="8" height="8" viewBox="0 0 8 8" fill="none" xmlns="http://www.w3.org/2000/svg">
<g clip-path="url(#clip0_1025_14062)">
<path d="M4.12671 1.61953C4.2241 1.38538 4.5558 1.38538 4.65319 1.61953L5.22799 3.00153C5.26905 3.10024 5.36188 3.16769 5.46845 3.17623L6.96043 3.29585C7.21322 3.31611 7.31572 3.63158 7.12312 3.79655L5.98639 4.77029C5.90519 4.83984 5.86974 4.94897 5.89454 5.05296L6.24183 6.50888C6.30067 6.75556 6.03232 6.95053 5.8159 6.81834L4.53856 6.03814C4.44732 5.98241 4.33258 5.98241 4.24134 6.03814L2.96399 6.81834C2.74757 6.95053 2.47922 6.75556 2.53806 6.50888L2.88535 5.05296C2.91016 4.94897 2.8747 4.83984 2.79351 4.77029L1.65678 3.79655C1.46418 3.63158 1.56668 3.31611 1.81947 3.29585L3.31145 3.17623C3.41802 3.16769 3.51085 3.10024 3.5519 3.00153L4.12671 1.61953Z" fill="#FDB022"/>
</g>
<defs>
<clipPath id="clip0_1025_14062">
<rect width="6.8424" height="6.8424" fill="white" transform="translate(0.96875 0.986633)"/>
</clipPath>
</defs>
</svg>
