<svg width="10" height="10" viewBox="0 0 10 10" fill="none" xmlns="http://www.w3.org/2000/svg">
<g clip-path="url(#clip0_1025_14049)">
<g clip-path="url(#clip1_1025_14049)">
<path d="M3.68192 1.21198H2.54152C2.33988 1.21198 2.1465 1.29207 2.00393 1.43465C1.86135 1.57723 1.78125 1.77061 1.78125 1.97224V3.11264M8.62365 3.11264V1.97224C8.62365 1.77061 8.54355 1.57723 8.40097 1.43465C8.25839 1.29207 8.06502 1.21198 7.86338 1.21198H6.72298M6.72298 8.05437H7.86338C8.06502 8.05437 8.25839 7.97427 8.40097 7.83169C8.54355 7.68912 8.62365 7.49574 8.62365 7.29411V6.15371M1.78125 6.15371V7.29411C1.78125 7.49574 1.86135 7.68912 2.00393 7.83169C2.1465 7.97427 2.33988 8.05437 2.54152 8.05437H3.68192" stroke="#121C52" stroke-width="0.5702" stroke-linecap="round" stroke-linejoin="round"/>
</g>
</g>
<defs>
<clipPath id="clip0_1025_14049">
<rect width="9.12319" height="9.12319" fill="white" transform="translate(0.640625 0.071579)"/>
</clipPath>
<clipPath id="clip1_1025_14049">
<rect width="9.12319" height="9.12319" fill="white" transform="translate(0.640625 0.071579)"/>
</clipPath>
</defs>
</svg>
