<svg width="10" height="10" viewBox="0 0 10 10" fill="none" xmlns="http://www.w3.org/2000/svg">
<g clip-path="url(#clip0_1025_14071)">
<path d="M7.70131 4.28978L6.39289 2.42143L7.01593 1.98541L8.32397 3.85377L7.70131 4.28978ZM6.98514 5.25532L6.33131 4.32057L3.21726 6.50101L3.87109 7.435L3.24843 7.87139L1.50438 5.38L2.12704 4.94399L2.78087 5.87836L5.89492 3.69791L5.24109 2.76355L5.86374 2.32753L7.6078 4.81892L6.98514 5.25532ZM7.88795 3.23073L8.51061 2.79472L8.0746 2.17206L7.45194 2.60807L7.88795 3.23073ZM2.71928 7.77826L1.41087 5.90991L0.788208 6.34592L2.09625 8.21427L2.71928 7.77826ZM1.66023 7.59162L1.03758 8.02763L0.601562 7.40497L1.22422 6.96896L1.66023 7.59162Z" fill="#8A8A8A"/>
</g>
<defs>
<clipPath id="clip0_1025_14071">
<rect width="9.12319" height="9.12319" fill="white" transform="translate(-0.00390625 0.538231)"/>
</clipPath>
</defs>
</svg>
