<svg width="8" height="8" viewBox="0 0 8 8" fill="none" xmlns="http://www.w3.org/2000/svg">
<g clip-path="url(#clip0_1025_14065)">
<path d="M3.65405 1.61953C3.75144 1.38538 4.08314 1.38538 4.18053 1.61953L4.75534 3.00153C4.79639 3.10024 4.88922 3.16769 4.99579 3.17623L6.48777 3.29585C6.74056 3.31611 6.84306 3.63158 6.65046 3.79655L5.51373 4.77029C5.43254 4.83984 5.39708 4.94897 5.42188 5.05296L5.76918 6.50888C5.82802 6.75556 5.55967 6.95053 5.34325 6.81834L4.0659 6.03814C3.97466 5.98241 3.85992 5.98241 3.76868 6.03814L2.49134 6.81834C2.27492 6.95053 2.00657 6.75556 2.06541 6.50888L2.4127 5.05296C2.4375 4.94897 2.40205 4.83984 2.32085 4.77029L1.18412 3.79655C0.991524 3.63158 1.09402 3.31611 1.34681 3.29585L2.83879 3.17623C2.94536 3.16769 3.03819 3.10024 3.07925 3.00153L3.65405 1.61953Z" fill="#FDB022"/>
</g>
<defs>
<clipPath id="clip0_1025_14065">
<rect width="6.8424" height="6.8424" fill="white" transform="translate(0.496094 0.986633)"/>
</clipPath>
</defs>
</svg>
