<svg width="10" height="10" viewBox="0 0 10 10" fill="none" xmlns="http://www.w3.org/2000/svg">
<g clip-path="url(#clip0_1025_14070)">
<g clip-path="url(#clip1_1025_14070)">
<path d="M2.03493 5.09983L0.894531 3.12314L3.40341 1.67863H3.88808C3.98945 1.98274 4.10982 2.24883 4.24921 2.47691C4.38859 2.70499 4.64835 2.81903 5.02848 2.81903C5.40861 2.81903 5.66837 2.70499 5.80775 2.47691C5.94713 2.24883 6.06751 1.98274 6.16888 1.67863H6.65355L9.15292 3.13264L8.02203 5.09983L7.30928 4.7102V6.53484L6.71057 7.05752C6.69156 7.07019 6.66622 7.08603 6.63454 7.10504C6.60286 7.12404 6.57435 7.13988 6.54901 7.15255V3.41774L7.73693 4.07347L8.11706 3.40824L6.66305 2.56244C6.511 2.87289 6.28761 3.11997 5.99288 3.3037C5.69815 3.48743 5.37668 3.5793 5.02848 3.5793C4.68028 3.5793 4.35881 3.48743 4.06408 3.3037C3.76935 3.11997 3.54596 2.87289 3.39391 2.56244L1.93039 3.40824L2.32003 4.07347L3.50795 3.41774V5.67003C3.3749 5.6827 3.24502 5.70336 3.11831 5.73199C2.9916 5.76063 2.86806 5.80017 2.74768 5.8506V4.7102L2.03493 5.09983ZM2.2345 7.90332L1.74033 7.32361L2.56712 6.62037C2.71283 6.49365 2.87921 6.39697 3.06623 6.33032C3.25326 6.26367 3.44801 6.23048 3.6505 6.23073C3.85298 6.23098 4.04621 6.26431 4.2302 6.3307C4.41418 6.3971 4.57891 6.49365 4.72437 6.62037L5.82676 7.5612C5.90279 7.62455 5.99313 7.67371 6.09779 7.70869C6.20246 7.74366 6.30851 7.76102 6.41596 7.76077C6.53 7.76077 6.63619 7.74493 6.73452 7.71325C6.83284 7.68157 6.91989 7.63089 6.99567 7.5612L7.82246 6.84845L8.31663 7.43765L7.48984 8.1409C7.34412 8.26761 7.1794 8.36264 6.99567 8.426C6.81194 8.48935 6.6187 8.52103 6.41596 8.52103C6.21323 8.52103 6.01847 8.48935 5.8317 8.426C5.64493 8.36264 5.47856 8.26761 5.33259 8.1409L4.2302 7.20007C4.15417 7.13671 4.06712 7.08768 3.96905 7.05296C3.87097 7.01824 3.76479 7.00075 3.6505 7.0005C3.54279 7.0005 3.43673 7.01799 3.33233 7.05296C3.22792 7.08793 3.13757 7.13697 3.06129 7.20007L2.2345 7.90332Z" fill="#8A8A8A"/>
</g>
</g>
<defs>
<clipPath id="clip0_1025_14070">
<rect width="9.12319" height="9.12319" fill="white" transform="translate(0.46875 0.538231)"/>
</clipPath>
<clipPath id="clip1_1025_14070">
<rect width="9.12319" height="9.12319" fill="white" transform="translate(0.46875 0.538231)"/>
</clipPath>
</defs>
</svg>
