<svg width="8" height="8" viewBox="0 0 8 8" fill="none" xmlns="http://www.w3.org/2000/svg">
<g clip-path="url(#clip0_1025_14067)">
<path d="M3.92749 0.890356C4.02488 0.656205 4.35658 0.656205 4.45397 0.890355L5.02877 2.27235C5.06983 2.37107 5.16266 2.43851 5.26923 2.44705L6.76121 2.56667C7.014 2.58693 7.1165 2.9024 6.9239 3.06738L5.78717 4.04111C5.70598 4.11066 5.67052 4.21979 5.69532 4.32378L6.04261 5.7797C6.10146 6.02638 5.8331 6.22135 5.61669 6.08916L4.33934 5.30896C4.2481 5.25323 4.13336 5.25323 4.04212 5.30896L2.76477 6.08916C2.54836 6.22135 2.28 6.02638 2.33885 5.7797L2.68614 4.32378C2.71094 4.21979 2.67548 4.11066 2.59429 4.04111L1.45756 3.06738C1.26496 2.9024 1.36746 2.58693 1.62025 2.56667L3.11223 2.44705C3.2188 2.43851 3.31163 2.37107 3.35269 2.27235L3.92749 0.890356Z" fill="#FDB022"/>
</g>
<defs>
<clipPath id="clip0_1025_14067">
<rect width="6.8424" height="6.8424" fill="white" transform="translate(0.769531 0.257454)"/>
</clipPath>
</defs>
</svg>
