<svg width="8" height="8" viewBox="0 0 8 8" fill="none" xmlns="http://www.w3.org/2000/svg">
<g clip-path="url(#clip0_1025_14063)">
<path d="M3.96655 1.61953C4.06394 1.38538 4.39564 1.38538 4.49303 1.61953L5.06784 3.00153C5.10889 3.10024 5.20172 3.16769 5.30829 3.17623L6.80027 3.29585C7.05306 3.31611 7.15556 3.63158 6.96296 3.79655L5.82623 4.77029C5.74504 4.83984 5.70958 4.94897 5.73438 5.05296L6.08168 6.50888C6.14052 6.75556 5.87217 6.95053 5.65575 6.81834L4.3784 6.03814C4.28716 5.98241 4.17242 5.98241 4.08118 6.03814L2.80384 6.81834C2.58742 6.95053 2.31907 6.75556 2.37791 6.50888L2.7252 5.05296C2.75 4.94897 2.71455 4.83984 2.63335 4.77029L1.49662 3.79655C1.30402 3.63158 1.40652 3.31611 1.65931 3.29585L3.15129 3.17623C3.25786 3.16769 3.35069 3.10024 3.39175 3.00153L3.96655 1.61953Z" fill="#FDB022"/>
</g>
<defs>
<clipPath id="clip0_1025_14063">
<rect width="6.8424" height="6.8424" fill="white" transform="translate(0.808594 0.986633)"/>
</clipPath>
</defs>
</svg>
