<svg width="10" height="10" viewBox="0 0 10 10" fill="none" xmlns="http://www.w3.org/2000/svg">
<g clip-path="url(#clip0_1025_14066)">
<g clip-path="url(#clip1_1025_14066)">
<path d="M3.68973 1.1831H2.54933C2.34769 1.1831 2.15432 1.2632 2.01174 1.40578C1.86916 1.54836 1.78906 1.74174 1.78906 1.94337V3.08377M8.63146 3.08377V1.94337C8.63146 1.74174 8.55136 1.54836 8.40878 1.40578C8.2662 1.2632 8.07283 1.1831 7.87119 1.1831H6.73079M6.73079 8.0255H7.87119C8.07283 8.0255 8.2662 7.9454 8.40878 7.80282C8.55136 7.66025 8.63146 7.46687 8.63146 7.26523V6.12484M1.78906 6.12484V7.26523C1.78906 7.46687 1.86916 7.66025 2.01174 7.80282C2.15432 7.9454 2.34769 8.0255 2.54933 8.0255H3.68973" stroke="#121C52" stroke-width="0.5702" stroke-linecap="round" stroke-linejoin="round"/>
</g>
</g>
<defs>
<clipPath id="clip0_1025_14066">
<rect width="9.12319" height="9.12319" fill="white" transform="translate(0.648438 0.0427561)"/>
</clipPath>
<clipPath id="clip1_1025_14066">
<rect width="9.12319" height="9.12319" fill="white" transform="translate(0.648438 0.0427561)"/>
</clipPath>
</defs>
</svg>
