<svg width="8" height="8" viewBox="0 0 8 8" fill="none" xmlns="http://www.w3.org/2000/svg">
<g clip-path="url(#clip0_1025_14052)">
<path d="M4.12671 0.823228C4.2241 0.589078 4.5558 0.589078 4.65319 0.823228L5.22799 2.20523C5.26905 2.30394 5.36188 2.37138 5.46845 2.37993L6.96043 2.49954C7.21322 2.5198 7.31572 2.83527 7.12312 3.00025L5.98639 3.97398C5.90519 4.04353 5.86974 4.15266 5.89454 4.25665L6.24183 5.71258C6.30067 5.95925 6.03232 6.15422 5.8159 6.02203L4.53856 5.24183C4.44732 5.18611 4.33258 5.18611 4.24134 5.24183L2.96399 6.02203C2.74757 6.15422 2.47922 5.95925 2.53806 5.71258L2.88535 4.25665C2.91016 4.15266 2.8747 4.04353 2.79351 3.97398L1.65678 3.00025C1.46418 2.83527 1.56668 2.5198 1.81947 2.49954L3.31145 2.37993C3.41802 2.37138 3.51085 2.30394 3.5519 2.20523L4.12671 0.823228Z" fill="#FDB022"/>
</g>
<defs>
<clipPath id="clip0_1025_14052">
<rect width="6.8424" height="6.8424" fill="white" transform="translate(0.96875 0.190327)"/>
</clipPath>
</defs>
</svg>
