<svg width="8" height="8" viewBox="0 0 8 8" fill="none" xmlns="http://www.w3.org/2000/svg">
<g clip-path="url(#clip0_1025_14064)">
<path d="M3.8103 1.61953C3.90769 1.38538 4.23939 1.38538 4.33678 1.61953L4.91159 3.00153C4.95264 3.10024 5.04547 3.16769 5.15204 3.17623L6.64402 3.29585C6.89681 3.31611 6.99931 3.63158 6.80671 3.79655L5.66998 4.77029C5.58879 4.83984 5.55333 4.94897 5.57813 5.05296L5.92543 6.50888C5.98427 6.75556 5.71592 6.95053 5.4995 6.81834L4.22215 6.03814C4.13091 5.98241 4.01617 5.98241 3.92493 6.03814L2.64759 6.81834C2.43117 6.95053 2.16282 6.75556 2.22166 6.50888L2.56895 5.05296C2.59375 4.94897 2.5583 4.83984 2.4771 4.77029L1.34037 3.79655C1.14777 3.63158 1.25027 3.31611 1.50306 3.29585L2.99504 3.17623C3.10161 3.16769 3.19444 3.10024 3.2355 3.00153L3.8103 1.61953Z" fill="#FDB022"/>
</g>
<defs>
<clipPath id="clip0_1025_14064">
<rect width="6.8424" height="6.8424" fill="white" transform="translate(0.652344 0.986633)"/>
</clipPath>
</defs>
</svg>
