<svg width="10" height="10" viewBox="0 0 10 10" fill="none" xmlns="http://www.w3.org/2000/svg">
<g clip-path="url(#clip0_1025_14068)">
<g clip-path="url(#clip1_1025_14068)">
<path d="M4.06099 2.28306C4.1493 2.19422 4.25819 2.12859 4.37797 2.09198C4.49776 2.05537 4.62474 2.04893 4.74762 2.07322C4.8705 2.09751 4.98547 2.15179 5.08232 2.23122C5.17916 2.31066 5.25488 2.41279 5.30275 2.52854C5.35061 2.6443 5.36913 2.77008 5.35666 2.89471C5.3442 3.01935 5.30113 3.13897 5.23129 3.24295C5.16145 3.34693 5.067 3.43205 4.95634 3.49073C4.84568 3.54941 4.72224 3.57984 4.59698 3.57931H1.17578M5.20139 7.91663C5.2897 8.00546 5.39859 8.0711 5.51837 8.10771C5.63816 8.14431 5.76514 8.15076 5.88802 8.12647C6.0109 8.10217 6.12587 8.0479 6.22272 7.96846C6.31956 7.88903 6.39528 7.78689 6.44315 7.67114C6.49101 7.55539 6.50953 7.42961 6.49706 7.30497C6.4846 7.18034 6.44153 7.06071 6.37169 6.95673C6.30185 6.85275 6.2074 6.76764 6.09674 6.70896C5.98608 6.65028 5.86263 6.61985 5.73738 6.62038H1.17578M7.15528 3.47667C7.26584 3.36639 7.40187 3.28505 7.55135 3.23986C7.70082 3.19466 7.85914 3.18699 8.01228 3.21753C8.16542 3.24807 8.30868 3.31589 8.42938 3.41497C8.55009 3.51405 8.64451 3.64135 8.70431 3.78561C8.76411 3.92986 8.78743 4.08663 8.77223 4.24205C8.75702 4.39747 8.70375 4.54675 8.61713 4.67668C8.5305 4.80661 8.41319 4.91319 8.27557 4.987C8.13796 5.06081 7.98427 5.09956 7.82811 5.09984H1.17578" stroke="#8A8A8A" stroke-width="0.68424" stroke-linecap="round" stroke-linejoin="round"/>
</g>
</g>
<defs>
<clipPath id="clip0_1025_14068">
<rect width="9.1232" height="9.1232" fill="white" transform="translate(0.414062 0.538231)"/>
</clipPath>
<clipPath id="clip1_1025_14068">
<rect width="9.1232" height="9.1232" fill="white" transform="translate(0.414062 0.538231)"/>
</clipPath>
</defs>
</svg>
