<svg width="8" height="8" viewBox="0 0 8 8" fill="none" xmlns="http://www.w3.org/2000/svg">
<g clip-path="url(#clip0_1025_14053)">
<path d="M3.96655 0.823228C4.06394 0.589078 4.39564 0.589078 4.49303 0.823228L5.06784 2.20523C5.10889 2.30394 5.20172 2.37138 5.30829 2.37993L6.80027 2.49954C7.05306 2.5198 7.15556 2.83527 6.96296 3.00025L5.82623 3.97398C5.74504 4.04353 5.70958 4.15266 5.73438 4.25665L6.08168 5.71258C6.14052 5.95925 5.87217 6.15422 5.65575 6.02203L4.3784 5.24183C4.28716 5.18611 4.17242 5.18611 4.08118 5.24183L2.80384 6.02203C2.58742 6.15422 2.31907 5.95925 2.37791 5.71258L2.7252 4.25665C2.75 4.15266 2.71455 4.04353 2.63335 3.97398L1.49662 3.00025C1.30402 2.83527 1.40652 2.5198 1.65931 2.49954L3.15129 2.37993C3.25786 2.37138 3.35069 2.30394 3.39175 2.20523L3.96655 0.823228Z" fill="#FDB022"/>
</g>
<defs>
<clipPath id="clip0_1025_14053">
<rect width="6.8424" height="6.8424" fill="white" transform="translate(0.808594 0.190327)"/>
</clipPath>
</defs>
</svg>
