<svg width="11" height="10" viewBox="0 0 11 10" fill="none" xmlns="http://www.w3.org/2000/svg">
<g clip-path="url(#clip0_1025_14069)">
<path d="M1.70312 8.52095V7.76068C1.94388 7.76068 2.12444 7.69733 2.24481 7.57061C2.36519 7.4439 2.60277 7.38055 2.95756 7.38055C3.31236 7.38055 3.55627 7.4439 3.68932 7.57061C3.82237 7.69733 4.00293 7.76068 4.23101 7.76068C4.45909 7.76068 4.63965 7.69733 4.7727 7.57061C4.90575 7.4439 5.14967 7.38055 5.50446 7.38055C5.85925 7.38055 6.10317 7.4439 6.23621 7.57061C6.36926 7.69733 6.54982 7.76068 6.7779 7.76068C7.00598 7.76068 7.18654 7.69733 7.31959 7.57061C7.45264 7.4439 7.69656 7.38055 8.05135 7.38055C8.40614 7.38055 8.64372 7.4439 8.7641 7.57061C8.88447 7.69733 9.06504 7.76068 9.30579 7.76068V8.52095C8.93199 8.52095 8.68655 8.45759 8.56947 8.33088C8.45239 8.20417 8.27968 8.14081 8.05135 8.14081C7.82301 8.14081 7.64245 8.20417 7.50966 8.33088C7.37686 8.45759 7.13295 8.52095 6.7779 8.52095C6.42286 8.52095 6.17894 8.45759 6.04615 8.33088C5.91335 8.20417 5.73279 8.14081 5.50446 8.14081C5.27612 8.14081 5.09556 8.20417 4.96277 8.33088C4.82997 8.45759 4.58605 8.52095 4.23101 8.52095C3.87597 8.52095 3.63205 8.45759 3.49925 8.33088C3.36646 8.20417 3.1859 8.14081 2.95756 8.14081C2.72923 8.14081 2.55652 8.20417 2.43944 8.33088C2.32236 8.45759 2.07692 8.52095 1.70312 8.52095ZM1.70312 6.81035V6.05008C1.94388 6.05008 2.12444 5.98673 2.24481 5.86002C2.36519 5.7333 2.60277 5.66995 2.95756 5.66995C3.31236 5.66995 3.55792 5.7333 3.69426 5.86002C3.8306 5.98673 4.00952 6.05008 4.23101 6.05008C4.45909 6.05008 4.63965 5.98673 4.7727 5.86002C4.90575 5.7333 5.14967 5.66995 5.50446 5.66995C5.85925 5.66995 6.10317 5.7333 6.23621 5.86002C6.36926 5.98673 6.54982 6.05008 6.7779 6.05008C7.00598 6.05008 7.18654 5.98673 7.31959 5.86002C7.45264 5.7333 7.69656 5.66995 8.05135 5.66995C8.40614 5.66995 8.64372 5.7333 8.7641 5.86002C8.88447 5.98673 9.06504 6.05008 9.30579 6.05008V6.81035C8.93199 6.81035 8.68655 6.74699 8.56947 6.62028C8.45239 6.49357 8.27968 6.43022 8.05135 6.43022C7.82301 6.43022 7.64714 6.49357 7.52372 6.62028C7.40031 6.74699 7.1517 6.81035 6.7779 6.81035C6.41678 6.81035 6.17134 6.74699 6.04158 6.62028C5.91183 6.49357 5.73279 6.43022 5.50446 6.43022C5.2637 6.43022 5.08479 6.49357 4.96771 6.62028C4.85063 6.74699 4.60506 6.81035 4.23101 6.81035C3.85696 6.81035 3.60823 6.74699 3.48481 6.62028C3.36139 6.49357 3.18564 6.43022 2.95756 6.43022C2.72948 6.43022 2.5569 6.49357 2.43982 6.62028C2.32274 6.74699 2.07718 6.81035 1.70312 6.81035ZM3.56578 4.87167L4.82972 3.60773L4.44959 3.22759C4.24051 3.01852 4.01877 2.86647 3.78435 2.77143C3.54994 2.6764 3.26167 2.62888 2.91955 2.62888V1.67855C3.39472 1.67855 3.78752 1.73088 4.09796 1.83555C4.40841 1.94021 4.71251 2.1413 5.01028 2.43882L7.44313 4.87167C7.33543 4.94136 7.23089 4.99686 7.12952 5.03817C7.02816 5.07948 6.91095 5.1 6.7779 5.09975C6.54982 5.09975 6.36926 5.03639 6.23621 4.90968C6.10317 4.78297 5.85925 4.71962 5.50446 4.71962C5.14967 4.71962 4.90575 4.78297 4.7727 4.90968C4.63965 5.03639 4.45909 5.09975 4.23101 5.09975C4.09796 5.09975 3.98076 5.07922 3.87939 5.03817C3.77802 4.99711 3.67348 4.94161 3.56578 4.87167ZM7.29108 1.67855C7.55717 1.67855 7.78209 1.77206 7.96582 1.95909C8.14955 2.14611 8.24141 2.36938 8.24141 2.62888C8.24141 2.89498 8.14955 3.11989 7.96582 3.30362C7.78209 3.48735 7.55717 3.57922 7.29108 3.57922C7.02499 3.57922 6.80008 3.48735 6.61635 3.30362C6.43261 3.11989 6.34075 2.89498 6.34075 2.62888C6.34075 2.36913 6.43261 2.14573 6.61635 1.95871C6.80008 1.77168 7.02499 1.6783 7.29108 1.67855Z" fill="#8A8A8A"/>
</g>
<defs>
<clipPath id="clip0_1025_14069">
<rect width="9.12319" height="9.12319" fill="white" transform="translate(0.941406 0.538231)"/>
</clipPath>
</defs>
</svg>
