<svg width="7" height="8" viewBox="0 0 7 8" fill="none" xmlns="http://www.w3.org/2000/svg">
<g clip-path="url(#clip0_1025_14061)">
<path d="M3.28296 1.61953C3.38035 1.38538 3.71205 1.38538 3.80944 1.61953L4.38424 3.00153C4.4253 3.10024 4.51813 3.16769 4.6247 3.17623L6.11668 3.29585C6.36947 3.31611 6.47197 3.63158 6.27937 3.79655L5.14264 4.77029C5.06144 4.83984 5.02599 4.94897 5.05079 5.05296L5.39808 6.50888C5.45692 6.75556 5.18857 6.95053 4.97215 6.81834L3.69481 6.03814C3.60357 5.98241 3.48883 5.98241 3.39759 6.03814L2.12024 6.81834C1.90382 6.95053 1.63547 6.75556 1.69431 6.50888L2.0416 5.05296C2.06641 4.94897 2.03095 4.83984 1.94976 4.77029L0.813025 3.79655C0.62043 3.63158 0.72293 3.31611 0.975715 3.29585L2.4677 3.17623C2.57427 3.16769 2.6671 3.10024 2.70815 3.00153L3.28296 1.61953Z" fill="#FDB022"/>
</g>
<defs>
<clipPath id="clip0_1025_14061">
<rect width="6.8424" height="6.8424" fill="white" transform="translate(0.125 0.986633)"/>
</clipPath>
</defs>
</svg>
