<svg width="8" height="8" viewBox="0 0 8 8" fill="none" xmlns="http://www.w3.org/2000/svg">
<g clip-path="url(#clip0_1025_14055)">
<path d="M3.65405 0.823228C3.75144 0.589078 4.08314 0.589078 4.18053 0.823228L4.75534 2.20523C4.79639 2.30394 4.88922 2.37138 4.99579 2.37993L6.48777 2.49954C6.74056 2.5198 6.84306 2.83527 6.65046 3.00025L5.51373 3.97398C5.43254 4.04353 5.39708 4.15266 5.42188 4.25665L5.76918 5.71258C5.82802 5.95925 5.55967 6.15422 5.34325 6.02203L4.0659 5.24183C3.97466 5.18611 3.85992 5.18611 3.76868 5.24183L2.49134 6.02203C2.27492 6.15422 2.00657 5.95925 2.06541 5.71258L2.4127 4.25665C2.4375 4.15266 2.40205 4.04353 2.32085 3.97398L1.18412 3.00025C0.991524 2.83527 1.09402 2.5198 1.34681 2.49954L2.83879 2.37993C2.94536 2.37138 3.03819 2.30394 3.07925 2.20523L3.65405 0.823228Z" fill="#FDB022"/>
</g>
<defs>
<clipPath id="clip0_1025_14055">
<rect width="6.8424" height="6.8424" fill="white" transform="translate(0.496094 0.190327)"/>
</clipPath>
</defs>
</svg>
