<svg xmlns="http://www.w3.org/2000/svg" xmlns:xlink="http://www.w3.org/1999/xlink" width="500" zoomAndPan="magnify" viewBox="0 0 375 374.999991" height="500" preserveAspectRatio="xMidYMid meet" version="1.0"><defs><g/><clipPath id="f544cfc7d0"><path d="M 191 179 L 247 179 L 247 254 L 191 254 Z M 191 179 " clip-rule="nonzero"/></clipPath><clipPath id="ec5f995f12"><path d="M 190.261719 192.625 L 215.300781 179.011719 L 249.691406 242.265625 L 224.652344 255.878906 Z M 190.261719 192.625 " clip-rule="nonzero"/></clipPath><clipPath id="dafcdde2ee"><path d="M 183.976562 181.0625 L 209.011719 167.449219 L 249.851562 242.5625 L 224.816406 256.175781 Z M 183.976562 181.0625 " clip-rule="nonzero"/></clipPath></defs><g fill="#004aad" fill-opacity="1"><g transform="translate(76.276196, 211.149746)"><g><path d="M 10.234375 -0.453125 C 9.015625 -0.742188 8.082031 -1.039062 7.4375 -1.34375 C 6.789062 -1.65625 6.398438 -2.015625 6.265625 -2.421875 C 6.128906 -2.835938 6.269531 -3.289062 6.6875 -3.78125 C 6.8125 -3.925781 7.117188 -3.929688 7.609375 -3.796875 C 8.097656 -3.660156 8.59375 -3.46875 9.09375 -3.21875 C 10.164062 -2.75 11.363281 -2.738281 12.6875 -3.1875 C 13.257812 -3.375 13.976562 -3.726562 14.84375 -4.25 C 16.019531 -5.082031 16.984375 -6.03125 17.734375 -7.09375 C 18.484375 -8.15625 19.125 -9.40625 19.65625 -10.84375 C 19.976562 -11.800781 20.125 -12.78125 20.09375 -13.78125 C 20.070312 -14.789062 19.921875 -15.707031 19.640625 -16.53125 C 19.296875 -17.539062 18.859375 -18.222656 18.328125 -18.578125 C 16.492188 -19.859375 14.40625 -20.101562 12.0625 -19.3125 C 11.050781 -18.976562 10.144531 -18.53125 9.34375 -17.96875 L 6.796875 -16.484375 C 6.734375 -16.421875 6.597656 -16.332031 6.390625 -16.21875 C 6.191406 -16.101562 6.078125 -15.300781 6.046875 -13.8125 C 6.023438 -12.320312 6.003906 -10.375 5.984375 -7.96875 C 5.953125 -5.8125 5.878906 -4.285156 5.765625 -3.390625 C 5.648438 -2.492188 5.4375 -1.988281 5.125 -1.875 C 4.800781 -1.769531 4.300781 -1.992188 3.625 -2.546875 C 3.09375 -3.003906 2.757812 -3.4375 2.625 -3.84375 C 2.476562 -4.25 2.46875 -4.738281 2.59375 -5.3125 C 2.65625 -5.644531 2.691406 -5.96875 2.703125 -6.28125 C 2.722656 -6.601562 2.707031 -7.039062 2.65625 -7.59375 C 2.644531 -8.957031 2.800781 -12.421875 3.125 -17.984375 C 3.457031 -23.546875 3.753906 -27.757812 4.015625 -30.625 C 4.203125 -32.695312 4.125 -33.722656 3.78125 -33.703125 C 3.75 -33.804688 3.65625 -33.9375 3.5 -34.09375 C 3.34375 -34.25 3.265625 -34.378906 3.265625 -34.484375 C 3.191406 -34.671875 3.53125 -35.101562 4.28125 -35.78125 C 5.039062 -36.457031 5.640625 -36.835938 6.078125 -36.921875 L 6.359375 -37.015625 C 6.773438 -37.148438 6.957031 -37.296875 6.90625 -37.453125 C 6.96875 -37.472656 7.25 -37.601562 7.75 -37.84375 C 8.25 -38.082031 8.804688 -38.269531 9.421875 -38.40625 C 11.609375 -38.9375 13.457031 -38.875 14.96875 -38.21875 C 16.476562 -37.570312 17.515625 -36.375 18.078125 -34.625 C 18.316406 -33.832031 18.15625 -32.488281 17.59375 -30.59375 C 17.039062 -28.695312 16.394531 -27.078125 15.65625 -25.734375 C 15.289062 -25.117188 14.863281 -24.457031 14.375 -23.75 C 13.894531 -23.039062 13.582031 -22.585938 13.4375 -22.390625 L 14.765625 -22.390625 C 16.503906 -22.335938 17.960938 -22.046875 19.140625 -21.515625 C 20.316406 -20.984375 21.316406 -20.078125 22.140625 -18.796875 C 22.316406 -18.515625 22.445312 -18.242188 22.53125 -17.984375 C 22.757812 -17.296875 22.90625 -16.46875 22.96875 -15.5 C 23.03125 -14.53125 23.03125 -13.671875 22.96875 -12.921875 C 22.84375 -12.660156 22.753906 -12.398438 22.703125 -12.140625 C 22.648438 -11.878906 22.617188 -11.707031 22.609375 -11.625 C 22.628906 -11.488281 22.507812 -10.910156 22.25 -9.890625 C 22 -8.878906 21.753906 -8.050781 21.515625 -7.40625 C 20.390625 -5.519531 19.285156 -4.144531 18.203125 -3.28125 C 17.078125 -2.226562 15.679688 -1.421875 14.015625 -0.859375 C 12.460938 -0.335938 11.203125 -0.203125 10.234375 -0.453125 Z M 6.421875 -19.453125 C 6.742188 -19.640625 7.398438 -20.015625 8.390625 -20.578125 C 9.378906 -21.140625 10.054688 -21.566406 10.421875 -21.859375 C 10.460938 -21.910156 10.617188 -22.082031 10.890625 -22.375 C 11.171875 -22.664062 11.425781 -23.039062 11.65625 -23.5 C 12.1875 -24.445312 12.769531 -25.796875 13.40625 -27.546875 C 14.050781 -29.296875 14.460938 -30.722656 14.640625 -31.828125 C 14.992188 -33.398438 15.070312 -34.484375 14.875 -35.078125 C 14.738281 -35.484375 14.4375 -35.804688 13.96875 -36.046875 C 13.382812 -36.398438 12.320312 -36.316406 10.78125 -35.796875 C 9.769531 -35.460938 8.929688 -35.078125 8.265625 -34.640625 C 7.859375 -34.367188 7.582031 -34.109375 7.4375 -33.859375 C 7.300781 -33.617188 7.289062 -33.328125 7.40625 -32.984375 C 7.5625 -32.515625 7.472656 -31.9375 7.140625 -31.25 C 7.160156 -31.050781 7.144531 -30.84375 7.09375 -30.625 C 7.050781 -30.414062 7.019531 -30.289062 7 -30.25 C 7.03125 -30.164062 6.992188 -29.628906 6.890625 -28.640625 C 6.722656 -27.492188 6.628906 -26.226562 6.609375 -24.84375 C 6.367188 -21.59375 6.304688 -19.796875 6.421875 -19.453125 Z M 6.421875 -19.453125 "/></g></g></g><g fill="#004aad" fill-opacity="1"><g transform="translate(100.521683, 202.981731)"><g><path d="M 8.609375 -1.84375 C 7.222656 -2.320312 6.269531 -2.75 5.75 -3.125 C 5.226562 -3.5 4.820312 -4.035156 4.53125 -4.734375 C 4.445312 -4.878906 4.332031 -5.160156 4.1875 -5.578125 C 3.894531 -6.453125 3.601562 -7.582031 3.3125 -8.96875 C 3.019531 -10.351562 2.816406 -11.46875 2.703125 -12.3125 C 2.796875 -12.476562 2.804688 -12.6875 2.734375 -12.9375 C 2.660156 -13.195312 2.601562 -13.351562 2.5625 -13.40625 C 2.53125 -13.507812 2.503906 -13.851562 2.484375 -14.4375 C 2.460938 -15.738281 2.394531 -16.804688 2.28125 -17.640625 C 2.25 -20.523438 2.382812 -22.878906 2.6875 -24.703125 C 3 -26.523438 3.425781 -28.285156 3.96875 -29.984375 C 4.863281 -31.835938 5.585938 -33.210938 6.140625 -34.109375 C 6.703125 -35.015625 7.378906 -35.847656 8.171875 -36.609375 C 9.160156 -37.753906 9.925781 -38.421875 10.46875 -38.609375 C 10.5625 -38.628906 10.710938 -38.644531 10.921875 -38.65625 C 12.816406 -38.875 14.382812 -38.597656 15.625 -37.828125 C 16.875 -37.066406 18.070312 -35.648438 19.21875 -33.578125 C 20.15625 -31.742188 20.789062 -30.335938 21.125 -29.359375 C 21.65625 -27.785156 21.90625 -26.097656 21.875 -24.296875 C 21.851562 -22.503906 21.503906 -20.140625 20.828125 -17.203125 C 20.253906 -13.273438 19.144531 -9.910156 17.5 -7.109375 C 15.863281 -4.304688 14.023438 -2.5625 11.984375 -1.875 C 10.878906 -1.5 9.753906 -1.488281 8.609375 -1.84375 Z M 11.1875 -4.234375 C 12.207031 -4.734375 13.078125 -5.5 13.796875 -6.53125 C 14.523438 -7.5625 15.328125 -9.140625 16.203125 -11.265625 C 16.953125 -13.097656 17.460938 -14.460938 17.734375 -15.359375 C 18.015625 -16.265625 18.1875 -17.289062 18.25 -18.4375 C 18.320312 -19.59375 18.3125 -21.316406 18.21875 -23.609375 C 18.113281 -25.046875 17.988281 -26.15625 17.84375 -26.9375 C 17.707031 -27.71875 17.460938 -28.625 17.109375 -29.65625 L 16.03125 -32.71875 C 15.820312 -33.238281 15.523438 -33.757812 15.140625 -34.28125 C 14.753906 -34.8125 14.390625 -35.175781 14.046875 -35.375 C 13.378906 -35.75 12.664062 -35.8125 11.90625 -35.5625 C 11.4375 -35.394531 11.015625 -35.128906 10.640625 -34.765625 C 10.140625 -34.304688 9.507812 -33.269531 8.75 -31.65625 C 7.988281 -30.050781 7.351562 -28.453125 6.84375 -26.859375 C 6.34375 -25.273438 6.15625 -24.289062 6.28125 -23.90625 C 6.289062 -23.875 6.304688 -23.773438 6.328125 -23.609375 C 6.359375 -23.441406 6.347656 -23.273438 6.296875 -23.109375 C 5.953125 -22.359375 5.738281 -21.003906 5.65625 -19.046875 C 5.570312 -17.085938 5.617188 -15.007812 5.796875 -12.8125 C 5.984375 -10.625 6.273438 -8.84375 6.671875 -7.46875 L 7.109375 -5.828125 C 7.203125 -5.546875 7.300781 -5.332031 7.40625 -5.1875 C 7.507812 -5.039062 7.671875 -4.890625 7.890625 -4.734375 C 8.117188 -4.585938 8.335938 -4.425781 8.546875 -4.25 C 8.773438 -4.050781 9.09375 -3.929688 9.5 -3.890625 C 9.90625 -3.859375 10.296875 -3.90625 10.671875 -4.03125 C 10.898438 -4.101562 11.070312 -4.171875 11.1875 -4.234375 Z M 11.1875 -4.234375 "/></g></g></g><g fill="#004aad" fill-opacity="1"><g transform="translate(124.009499, 195.068967)"><g><path d="M 8.609375 -1.84375 C 7.222656 -2.320312 6.269531 -2.75 5.75 -3.125 C 5.226562 -3.5 4.820312 -4.035156 4.53125 -4.734375 C 4.445312 -4.878906 4.332031 -5.160156 4.1875 -5.578125 C 3.894531 -6.453125 3.601562 -7.582031 3.3125 -8.96875 C 3.019531 -10.351562 2.816406 -11.46875 2.703125 -12.3125 C 2.796875 -12.476562 2.804688 -12.6875 2.734375 -12.9375 C 2.660156 -13.195312 2.601562 -13.351562 2.5625 -13.40625 C 2.53125 -13.507812 2.503906 -13.851562 2.484375 -14.4375 C 2.460938 -15.738281 2.394531 -16.804688 2.28125 -17.640625 C 2.25 -20.523438 2.382812 -22.878906 2.6875 -24.703125 C 3 -26.523438 3.425781 -28.285156 3.96875 -29.984375 C 4.863281 -31.835938 5.585938 -33.210938 6.140625 -34.109375 C 6.703125 -35.015625 7.378906 -35.847656 8.171875 -36.609375 C 9.160156 -37.753906 9.925781 -38.421875 10.46875 -38.609375 C 10.5625 -38.628906 10.710938 -38.644531 10.921875 -38.65625 C 12.816406 -38.875 14.382812 -38.597656 15.625 -37.828125 C 16.875 -37.066406 18.070312 -35.648438 19.21875 -33.578125 C 20.15625 -31.742188 20.789062 -30.335938 21.125 -29.359375 C 21.65625 -27.785156 21.90625 -26.097656 21.875 -24.296875 C 21.851562 -22.503906 21.503906 -20.140625 20.828125 -17.203125 C 20.253906 -13.273438 19.144531 -9.910156 17.5 -7.109375 C 15.863281 -4.304688 14.023438 -2.5625 11.984375 -1.875 C 10.878906 -1.5 9.753906 -1.488281 8.609375 -1.84375 Z M 11.1875 -4.234375 C 12.207031 -4.734375 13.078125 -5.5 13.796875 -6.53125 C 14.523438 -7.5625 15.328125 -9.140625 16.203125 -11.265625 C 16.953125 -13.097656 17.460938 -14.460938 17.734375 -15.359375 C 18.015625 -16.265625 18.1875 -17.289062 18.25 -18.4375 C 18.320312 -19.59375 18.3125 -21.316406 18.21875 -23.609375 C 18.113281 -25.046875 17.988281 -26.15625 17.84375 -26.9375 C 17.707031 -27.71875 17.460938 -28.625 17.109375 -29.65625 L 16.03125 -32.71875 C 15.820312 -33.238281 15.523438 -33.757812 15.140625 -34.28125 C 14.753906 -34.8125 14.390625 -35.175781 14.046875 -35.375 C 13.378906 -35.75 12.664062 -35.8125 11.90625 -35.5625 C 11.4375 -35.394531 11.015625 -35.128906 10.640625 -34.765625 C 10.140625 -34.304688 9.507812 -33.269531 8.75 -31.65625 C 7.988281 -30.050781 7.351562 -28.453125 6.84375 -26.859375 C 6.34375 -25.273438 6.15625 -24.289062 6.28125 -23.90625 C 6.289062 -23.875 6.304688 -23.773438 6.328125 -23.609375 C 6.359375 -23.441406 6.347656 -23.273438 6.296875 -23.109375 C 5.953125 -22.359375 5.738281 -21.003906 5.65625 -19.046875 C 5.570312 -17.085938 5.617188 -15.007812 5.796875 -12.8125 C 5.984375 -10.625 6.273438 -8.84375 6.671875 -7.46875 L 7.109375 -5.828125 C 7.203125 -5.546875 7.300781 -5.332031 7.40625 -5.1875 C 7.507812 -5.039062 7.671875 -4.890625 7.890625 -4.734375 C 8.117188 -4.585938 8.335938 -4.425781 8.546875 -4.25 C 8.773438 -4.050781 9.09375 -3.929688 9.5 -3.890625 C 9.90625 -3.859375 10.296875 -3.90625 10.671875 -4.03125 C 10.898438 -4.101562 11.070312 -4.171875 11.1875 -4.234375 Z M 11.1875 -4.234375 "/></g></g></g><g fill="#004aad" fill-opacity="1"><g transform="translate(147.497315, 187.156202)"><g><path d="M 22.328125 -39.21875 C 22.503906 -38.9375 22.53125 -38.640625 22.40625 -38.328125 C 22.28125 -38.023438 21.9375 -37.566406 21.375 -36.953125 C 20.175781 -35.773438 19.539062 -34.976562 19.46875 -34.5625 C 19.351562 -34.382812 19.085938 -34 18.671875 -33.40625 C 18.253906 -32.8125 17.738281 -32.070312 17.125 -31.1875 C 16.175781 -29.957031 15.367188 -28.828125 14.703125 -27.796875 C 14.046875 -26.765625 13.644531 -26.007812 13.5 -25.53125 C 13.40625 -25.5 13.300781 -25.410156 13.1875 -25.265625 C 13.082031 -25.128906 12.972656 -25.054688 12.859375 -25.046875 C 12.816406 -25.003906 12.707031 -24.863281 12.53125 -24.625 C 12.363281 -24.394531 12.257812 -24.203125 12.21875 -24.046875 C 12.195312 -23.765625 12.117188 -23.472656 11.984375 -23.171875 C 11.859375 -22.867188 11.65625 -22.679688 11.375 -22.609375 C 10.882812 -22.085938 9.992188 -20.820312 8.703125 -18.8125 C 9.734375 -16.445312 11.0625 -14.519531 12.6875 -13.03125 C 14.289062 -11.3125 15.726562 -10.140625 17 -9.515625 C 17.894531 -9.015625 18.703125 -8.65625 19.421875 -8.4375 C 20.148438 -8.226562 20.671875 -8.179688 20.984375 -8.296875 C 21.316406 -8.296875 21.789062 -8.203125 22.40625 -8.015625 C 23.03125 -7.835938 23.390625 -7.644531 23.484375 -7.4375 C 23.535156 -7.382812 23.59375 -7.265625 23.65625 -7.078125 C 23.820312 -6.597656 23.863281 -6.222656 23.78125 -5.953125 C 23.738281 -5.691406 23.6875 -5.488281 23.625 -5.34375 C 23.5625 -5.195312 23.421875 -5.085938 23.203125 -5.015625 C 22.859375 -4.898438 22.390625 -4.890625 21.796875 -4.984375 C 21.296875 -4.773438 20.265625 -4.953125 18.703125 -5.515625 C 17.148438 -6.078125 15.90625 -6.65625 14.96875 -7.25 C 13.6875 -8.1875 12.570312 -9.0625 11.625 -9.875 C 10.675781 -10.6875 9.835938 -11.632812 9.109375 -12.71875 C 8.796875 -13.238281 8.273438 -14.007812 7.546875 -15.03125 C 7.117188 -15.5625 6.84375 -15.953125 6.71875 -16.203125 L 6.421875 -17.09375 L 6.34375 -15.484375 C 6.34375 -15.378906 6.316406 -14.789062 6.265625 -13.71875 C 6.222656 -12.644531 6.273438 -10.800781 6.421875 -8.1875 L 6.5 -5.453125 C 6.53125 -2.941406 6.53125 -1.34375 6.5 -0.65625 C 6.46875 0.0195312 6.320312 0.40625 6.0625 0.5 C 5.9375 0.539062 5.75 0.519531 5.5 0.4375 C 5.25 0.363281 5.066406 0.3125 4.953125 0.28125 C 4.648438 0.207031 4.429688 0.125 4.296875 0.03125 C 4.160156 -0.0625 4.0625 -0.203125 4 -0.390625 C 3.914062 -0.617188 3.859375 -1.039062 3.828125 -1.65625 C 3.648438 -2.0625 3.546875 -2.46875 3.515625 -2.875 C 3.484375 -3.289062 3.457031 -3.523438 3.4375 -3.578125 C 3.65625 -3.648438 3.679688 -3.941406 3.515625 -4.453125 C 3.421875 -4.703125 3.378906 -5.300781 3.390625 -6.25 L 3.296875 -7.859375 L 3.421875 -9.4375 C 3.460938 -10.4375 3.472656 -10.96875 3.453125 -11.03125 C 3.316406 -11.445312 3.347656 -12.035156 3.546875 -12.796875 C 3.535156 -13.210938 3.503906 -13.65625 3.453125 -14.125 C 3.398438 -14.601562 3.328125 -14.988281 3.234375 -15.28125 C 3.242188 -15.457031 3.296875 -15.878906 3.390625 -16.546875 C 3.484375 -17.210938 3.492188 -17.847656 3.421875 -18.453125 C 3.410156 -18.617188 3.410156 -18.8125 3.421875 -19.03125 C 3.441406 -19.25 3.453125 -19.515625 3.453125 -19.828125 L 3.578125 -24.625 L 3.75 -26.46875 C 3.75 -26.644531 3.796875 -27.203125 3.890625 -28.140625 C 3.984375 -29.085938 4.09375 -29.582031 4.21875 -29.625 L 4.03125 -30.171875 C 3.988281 -30.285156 4.023438 -30.75 4.140625 -31.5625 L 4.3125 -32.890625 C 4.445312 -33.347656 4.515625 -33.804688 4.515625 -34.265625 C 4.515625 -34.722656 4.507812 -35.023438 4.5 -35.171875 C 4.519531 -35.242188 4.546875 -35.375 4.578125 -35.5625 C 4.617188 -35.75 4.679688 -35.929688 4.765625 -36.109375 C 5.023438 -36.472656 5.300781 -36.703125 5.59375 -36.796875 C 6.039062 -36.953125 6.523438 -36.765625 7.046875 -36.234375 C 7.421875 -35.867188 7.664062 -35.515625 7.78125 -35.171875 C 7.882812 -34.847656 7.863281 -34.421875 7.71875 -33.890625 C 7.425781 -31.210938 7.144531 -28.476562 6.875 -25.6875 C 6.601562 -22.894531 6.535156 -21.304688 6.671875 -20.921875 L 7.890625 -22.640625 C 8.421875 -23.742188 9.363281 -25.273438 10.71875 -27.234375 L 14.9375 -33.9375 C 15.675781 -34.675781 16.484375 -35.722656 17.359375 -37.078125 C 17.617188 -37.367188 17.816406 -37.625 17.953125 -37.84375 C 18.085938 -38.0625 18.207031 -38.226562 18.3125 -38.34375 C 18.445312 -38.5625 18.734375 -38.960938 19.171875 -39.546875 C 19.609375 -40.128906 19.90625 -40.4375 20.0625 -40.46875 C 20.351562 -40.738281 20.785156 -40.707031 21.359375 -40.375 C 21.941406 -40.039062 22.265625 -39.65625 22.328125 -39.21875 Z M 22.328125 -39.21875 "/></g></g></g><g fill="#004aad" fill-opacity="1"><g transform="translate(170.890426, 179.275343)"><g/></g></g><g fill="#004aad" fill-opacity="1"><g transform="translate(182.350203, 175.414681)"><g><path d="M 4.015625 1.921875 C 3.390625 1.597656 3.015625 1.25 2.890625 0.875 C 2.816406 0.65625 2.765625 0.332031 2.734375 -0.09375 C 2.710938 -0.53125 2.695312 -0.867188 2.6875 -1.109375 C 2.59375 -2.304688 2.613281 -3.492188 2.75 -4.671875 C 2.800781 -5.359375 2.828125 -6.101562 2.828125 -6.90625 C 2.835938 -7.71875 2.78125 -8.578125 2.65625 -9.484375 C 2.789062 -11.160156 2.875 -12.765625 2.90625 -14.296875 C 2.9375 -15.828125 2.953125 -16.804688 2.953125 -17.234375 C 2.921875 -17.398438 3.003906 -18.289062 3.203125 -19.90625 C 3.398438 -21.132812 3.554688 -22.300781 3.671875 -23.40625 C 3.679688 -23.882812 3.6875 -25.175781 3.6875 -27.28125 C 3.644531 -28.851562 3.648438 -30.125 3.703125 -31.09375 C 3.765625 -32.070312 3.921875 -33.070312 4.171875 -34.09375 C 4.421875 -35.238281 4.941406 -35.941406 5.734375 -36.203125 C 6.109375 -36.328125 6.488281 -36.320312 6.875 -36.1875 C 7.257812 -36.0625 7.609375 -35.785156 7.921875 -35.359375 C 8.367188 -34.847656 8.804688 -34.179688 9.234375 -33.359375 C 9.671875 -32.546875 10.273438 -31.125 11.046875 -29.09375 C 11.285156 -28.46875 11.613281 -27.535156 12.03125 -26.296875 L 13.546875 -21.796875 C 14.085938 -20.191406 14.5625 -18.878906 14.96875 -17.859375 C 15.382812 -16.847656 15.832031 -16 16.3125 -15.3125 C 17.050781 -13.945312 17.925781 -12.488281 18.9375 -10.9375 C 19.945312 -9.394531 20.578125 -8.671875 20.828125 -8.765625 C 21.203125 -8.890625 21.453125 -10.226562 21.578125 -12.78125 C 21.703125 -15.34375 21.519531 -19.597656 21.03125 -25.546875 C 21.007812 -26.242188 20.921875 -27.234375 20.765625 -28.515625 C 20.609375 -29.796875 20.410156 -31.023438 20.171875 -32.203125 C 20.078125 -33.617188 19.957031 -35.085938 19.8125 -36.609375 C 19.664062 -38.128906 19.570312 -38.953125 19.53125 -39.078125 C 19.476562 -39.234375 19.429688 -39.390625 19.390625 -39.546875 C 19.359375 -39.710938 19.285156 -39.898438 19.171875 -40.109375 C 19.304688 -40.148438 19.375 -40.398438 19.375 -40.859375 C 19.382812 -41.316406 19.332031 -41.71875 19.21875 -42.0625 C 18.90625 -42.976562 18.898438 -43.738281 19.203125 -44.34375 C 19.210938 -44.59375 19.410156 -44.78125 19.796875 -44.90625 C 20.171875 -45.03125 20.570312 -45.050781 21 -44.96875 C 21.4375 -44.894531 21.769531 -44.734375 22 -44.484375 C 22.300781 -43.859375 22.664062 -41.289062 23.09375 -36.78125 C 23.226562 -36.40625 23.394531 -35.195312 23.59375 -33.15625 C 23.664062 -31.988281 23.785156 -30.890625 23.953125 -29.859375 C 24.148438 -28.898438 24.269531 -28.054688 24.3125 -27.328125 C 24.363281 -26.609375 24.320312 -26.242188 24.1875 -26.234375 C 24.757812 -20.234375 24.816406 -14.585938 24.359375 -9.296875 C 24.171875 -6.804688 23.519531 -5.378906 22.40625 -5.015625 C 21.65625 -4.753906 20.710938 -5.003906 19.578125 -5.765625 C 18.359375 -6.578125 17.390625 -7.492188 16.671875 -8.515625 C 15.960938 -9.546875 14.859375 -11.390625 13.359375 -14.046875 C 12.316406 -15.347656 11.46875 -16.976562 10.8125 -18.9375 C 10.425781 -20.070312 10.0625 -21.421875 9.71875 -22.984375 L 8.8125 -26.328125 C 8.34375 -27.578125 8.003906 -28.4375 7.796875 -28.90625 C 7.585938 -29.382812 7.414062 -29.601562 7.28125 -29.5625 C 7.15625 -29.519531 7.0625 -29.171875 7 -28.515625 C 6.945312 -27.859375 6.910156 -26.773438 6.890625 -25.265625 C 6.804688 -23.835938 6.671875 -21.925781 6.484375 -19.53125 L 6.28125 -16.109375 C 6.101562 -14.773438 6.066406 -13.472656 6.171875 -12.203125 C 5.992188 -8.316406 5.953125 -4.785156 6.046875 -1.609375 L 6.078125 -0.140625 C 6.023438 1.273438 5.773438 2.054688 5.328125 2.203125 C 5.015625 2.304688 4.578125 2.210938 4.015625 1.921875 Z M 4.015625 1.921875 "/></g></g></g><g fill="#004aad" fill-opacity="1"><g transform="translate(209.152835, 166.385194)"><g><path d="M 8.609375 -1.84375 C 7.222656 -2.320312 6.269531 -2.75 5.75 -3.125 C 5.226562 -3.5 4.820312 -4.035156 4.53125 -4.734375 C 4.445312 -4.878906 4.332031 -5.160156 4.1875 -5.578125 C 3.894531 -6.453125 3.601562 -7.582031 3.3125 -8.96875 C 3.019531 -10.351562 2.816406 -11.46875 2.703125 -12.3125 C 2.796875 -12.476562 2.804688 -12.6875 2.734375 -12.9375 C 2.660156 -13.195312 2.601562 -13.351562 2.5625 -13.40625 C 2.53125 -13.507812 2.503906 -13.851562 2.484375 -14.4375 C 2.460938 -15.738281 2.394531 -16.804688 2.28125 -17.640625 C 2.25 -20.523438 2.382812 -22.878906 2.6875 -24.703125 C 3 -26.523438 3.425781 -28.285156 3.96875 -29.984375 C 4.863281 -31.835938 5.585938 -33.210938 6.140625 -34.109375 C 6.703125 -35.015625 7.378906 -35.847656 8.171875 -36.609375 C 9.160156 -37.753906 9.925781 -38.421875 10.46875 -38.609375 C 10.5625 -38.628906 10.710938 -38.644531 10.921875 -38.65625 C 12.816406 -38.875 14.382812 -38.597656 15.625 -37.828125 C 16.875 -37.066406 18.070312 -35.648438 19.21875 -33.578125 C 20.15625 -31.742188 20.789062 -30.335938 21.125 -29.359375 C 21.65625 -27.785156 21.90625 -26.097656 21.875 -24.296875 C 21.851562 -22.503906 21.503906 -20.140625 20.828125 -17.203125 C 20.253906 -13.273438 19.144531 -9.910156 17.5 -7.109375 C 15.863281 -4.304688 14.023438 -2.5625 11.984375 -1.875 C 10.878906 -1.5 9.753906 -1.488281 8.609375 -1.84375 Z M 11.1875 -4.234375 C 12.207031 -4.734375 13.078125 -5.5 13.796875 -6.53125 C 14.523438 -7.5625 15.328125 -9.140625 16.203125 -11.265625 C 16.953125 -13.097656 17.460938 -14.460938 17.734375 -15.359375 C 18.015625 -16.265625 18.1875 -17.289062 18.25 -18.4375 C 18.320312 -19.59375 18.3125 -21.316406 18.21875 -23.609375 C 18.113281 -25.046875 17.988281 -26.15625 17.84375 -26.9375 C 17.707031 -27.71875 17.460938 -28.625 17.109375 -29.65625 L 16.03125 -32.71875 C 15.820312 -33.238281 15.523438 -33.757812 15.140625 -34.28125 C 14.753906 -34.8125 14.390625 -35.175781 14.046875 -35.375 C 13.378906 -35.75 12.664062 -35.8125 11.90625 -35.5625 C 11.4375 -35.394531 11.015625 -35.128906 10.640625 -34.765625 C 10.140625 -34.304688 9.507812 -33.269531 8.75 -31.65625 C 7.988281 -30.050781 7.351562 -28.453125 6.84375 -26.859375 C 6.34375 -25.273438 6.15625 -24.289062 6.28125 -23.90625 C 6.289062 -23.875 6.304688 -23.773438 6.328125 -23.609375 C 6.359375 -23.441406 6.347656 -23.273438 6.296875 -23.109375 C 5.953125 -22.359375 5.738281 -21.003906 5.65625 -19.046875 C 5.570312 -17.085938 5.617188 -15.007812 5.796875 -12.8125 C 5.984375 -10.625 6.273438 -8.84375 6.671875 -7.46875 L 7.109375 -5.828125 C 7.203125 -5.546875 7.300781 -5.332031 7.40625 -5.1875 C 7.507812 -5.039062 7.671875 -4.890625 7.890625 -4.734375 C 8.117188 -4.585938 8.335938 -4.425781 8.546875 -4.25 C 8.773438 -4.050781 9.09375 -3.929688 9.5 -3.890625 C 9.90625 -3.859375 10.296875 -3.90625 10.671875 -4.03125 C 10.898438 -4.101562 11.070312 -4.171875 11.1875 -4.234375 Z M 11.1875 -4.234375 "/></g></g></g><g fill="#004aad" fill-opacity="1"><g transform="translate(232.640651, 158.47243)"><g><path d="M 24.4375 -5.4375 C 24.039062 -5.257812 23.640625 -5.21875 23.234375 -5.3125 C 22.828125 -5.414062 22.515625 -5.601562 22.296875 -5.875 C 22.035156 -6 21.726562 -6.210938 21.375 -6.515625 C 21.03125 -6.816406 20.769531 -7.128906 20.59375 -7.453125 C 19.945312 -8.929688 19.503906 -10.019531 19.265625 -10.71875 C 18.972656 -11.59375 18.625 -12.804688 18.21875 -14.359375 C 17.820312 -15.835938 17.539062 -17.265625 17.375 -18.640625 C 17.207031 -20.015625 17.050781 -21.710938 16.90625 -23.734375 C 16.882812 -24.398438 16.847656 -24.957031 16.796875 -25.40625 C 16.753906 -25.863281 16.6875 -26.078125 16.59375 -26.046875 C 16.445312 -25.960938 16.300781 -25.460938 16.15625 -24.546875 C 16.007812 -23.640625 15.875 -22.675781 15.75 -21.65625 C 15.675781 -21.25 15.617188 -20.816406 15.578125 -20.359375 C 15.546875 -19.910156 15.492188 -19.476562 15.421875 -19.0625 C 15.191406 -16.800781 14.5625 -13.285156 13.53125 -8.515625 C 13.363281 -8.066406 13.15625 -7.378906 12.90625 -6.453125 C 12.425781 -4.648438 11.972656 -3.351562 11.546875 -2.5625 C 11.003906 -1.539062 10.335938 -0.894531 9.546875 -0.625 C 8.972656 -0.425781 8.4375 -0.457031 7.9375 -0.71875 C 7.34375 -1.09375 6.96875 -1.515625 6.8125 -1.984375 C 6.769531 -2.109375 6.734375 -2.34375 6.703125 -2.6875 C 6.328125 -3.4375 5.863281 -5.078125 5.3125 -7.609375 C 4.757812 -10.148438 4.347656 -12.289062 4.078125 -14.03125 C 3.796875 -15.625 3.445312 -18.28125 3.03125 -22 L 2.34375 -27.484375 C 2.375 -28.023438 2.359375 -29.070312 2.296875 -30.625 L 2.171875 -32.328125 C 2.023438 -32.910156 2.015625 -33.367188 2.140625 -33.703125 C 2.273438 -34.046875 2.5 -34.273438 2.8125 -34.390625 C 3.257812 -34.535156 3.707031 -34.457031 4.15625 -34.15625 C 4.851562 -33.757812 5.335938 -33.164062 5.609375 -32.375 C 5.816406 -31.75 5.890625 -31.050781 5.828125 -30.28125 C 5.585938 -26.34375 5.992188 -21.382812 7.046875 -15.40625 C 7.359375 -13.4375 7.738281 -11.335938 8.1875 -9.109375 C 8.644531 -6.890625 8.941406 -5.785156 9.078125 -5.796875 C 9.347656 -5.828125 9.625 -6.144531 9.90625 -6.75 C 10.195312 -7.351562 10.390625 -8.085938 10.484375 -8.953125 C 11.421875 -13.253906 12.390625 -18.679688 13.390625 -25.234375 C 13.421875 -25.359375 13.675781 -26.890625 14.15625 -29.828125 L 14.578125 -32.328125 C 14.617188 -32.554688 14.664062 -32.8125 14.71875 -33.09375 C 14.78125 -33.382812 14.847656 -33.679688 14.921875 -33.984375 C 15.191406 -35.503906 15.414062 -36.648438 15.59375 -37.421875 C 15.769531 -38.191406 15.953125 -38.660156 16.140625 -38.828125 C 16.679688 -38.972656 17.164062 -38.988281 17.59375 -38.875 C 18.03125 -38.757812 18.46875 -38.457031 18.90625 -37.96875 C 18.988281 -37.820312 19.050781 -37.550781 19.09375 -37.15625 C 19.144531 -36.769531 19.160156 -36.398438 19.140625 -36.046875 C 19.140625 -35.828125 19.148438 -35.296875 19.171875 -34.453125 C 19.191406 -33.617188 19.25 -32.796875 19.34375 -31.984375 C 19.28125 -30.210938 19.351562 -28.535156 19.5625 -26.953125 C 19.71875 -25.742188 19.851562 -24.554688 19.96875 -23.390625 C 20.25 -20.785156 20.519531 -18.644531 20.78125 -16.96875 C 21.039062 -15.300781 21.367188 -13.828125 21.765625 -12.546875 C 22.285156 -10.929688 22.742188 -9.878906 23.140625 -9.390625 C 23.359375 -9.109375 23.65625 -9.03125 24.03125 -9.15625 C 24.3125 -9.25 24.507812 -9.429688 24.625 -9.703125 C 25.144531 -11.222656 25.550781 -12.539062 25.84375 -13.65625 C 26.132812 -14.769531 26.414062 -16.078125 26.6875 -17.578125 C 27.382812 -21.828125 28.003906 -27.539062 28.546875 -34.71875 C 28.578125 -37.96875 28.625 -40.09375 28.6875 -41.09375 C 28.757812 -42.101562 28.988281 -42.816406 29.375 -43.234375 C 29.519531 -43.421875 29.6875 -43.546875 29.875 -43.609375 C 30.21875 -43.722656 30.578125 -43.703125 30.953125 -43.546875 C 31.128906 -43.460938 31.316406 -43.300781 31.515625 -43.0625 C 31.710938 -42.820312 31.859375 -42.515625 31.953125 -42.140625 C 32.003906 -40.921875 31.960938 -38.609375 31.828125 -35.203125 C 31.691406 -31.804688 31.539062 -29.328125 31.375 -27.765625 C 31.3125 -27.492188 31.191406 -26.984375 31.015625 -26.234375 C 31.003906 -26.109375 30.953125 -25.828125 30.859375 -25.390625 C 30.773438 -24.960938 30.765625 -24.65625 30.828125 -24.46875 C 30.941406 -24.15625 30.671875 -22.226562 30.015625 -18.6875 C 29.359375 -15.15625 28.8125 -12.742188 28.375 -11.453125 C 27.769531 -9.773438 27.0625 -8.382812 26.25 -7.28125 C 25.445312 -6.1875 24.84375 -5.570312 24.4375 -5.4375 Z M 24.4375 -5.4375 "/></g></g></g><g fill="#004aad" fill-opacity="1"><g transform="translate(266.735867, 146.986159)"><g><path d="M 6.609375 -11.203125 C 6.046875 -10.867188 5.515625 -10.878906 5.015625 -11.234375 C 4.515625 -11.585938 4.109375 -12.222656 3.796875 -13.140625 C 3.523438 -13.960938 3.347656 -14.960938 3.265625 -16.140625 C 3.410156 -17.171875 3.410156 -17.90625 3.265625 -18.34375 C 3.242188 -18.925781 3.265625 -19.695312 3.328125 -20.65625 C 3.398438 -21.613281 3.460938 -22.347656 3.515625 -22.859375 C 3.648438 -22.910156 3.75 -23.070312 3.8125 -23.34375 C 3.882812 -23.613281 3.882812 -23.859375 3.8125 -24.078125 C 3.71875 -24.359375 3.671875 -24.664062 3.671875 -25 C 3.679688 -25.34375 3.726562 -25.59375 3.8125 -25.75 C 3.78125 -25.851562 3.789062 -26.039062 3.84375 -26.3125 C 3.894531 -26.59375 3.90625 -26.785156 3.875 -26.890625 C 3.851562 -26.941406 3.851562 -27.050781 3.875 -27.21875 C 3.90625 -27.394531 3.90625 -27.523438 3.875 -27.609375 C 4.125 -28.753906 4.34375 -30.816406 4.53125 -33.796875 C 4.726562 -36.785156 4.773438 -38.488281 4.671875 -38.90625 C 4.585938 -39.476562 4.800781 -39.800781 5.3125 -39.875 C 5.425781 -40.039062 5.65625 -40.179688 6 -40.296875 L 6.921875 -39.765625 C 7.203125 -39.617188 7.40625 -39.4375 7.53125 -39.21875 C 7.664062 -39.007812 7.816406 -38.664062 7.984375 -38.1875 C 8.097656 -37.695312 8.125 -37.132812 8.0625 -36.5 C 8 -35.863281 7.894531 -35.1875 7.75 -34.46875 C 7.601562 -33.75 7.507812 -33.238281 7.46875 -32.9375 L 7.21875 -31.59375 C 7.019531 -30.539062 6.945312 -29.9375 7 -29.78125 C 7.039062 -29.664062 7.035156 -29.414062 6.984375 -29.03125 C 6.941406 -28.644531 6.914062 -28.320312 6.90625 -28.0625 C 6.78125 -27.488281 6.660156 -26.785156 6.546875 -25.953125 C 6.441406 -25.128906 6.410156 -24.65625 6.453125 -24.53125 C 6.429688 -24.457031 6.425781 -24.332031 6.4375 -24.15625 C 6.445312 -23.988281 6.410156 -23.820312 6.328125 -23.65625 C 6.222656 -23.625 6.179688 -23.53125 6.203125 -23.375 C 6.222656 -23.21875 6.242188 -23.113281 6.265625 -23.0625 C 6.316406 -22.894531 6.34375 -22.546875 6.34375 -22.015625 C 6.34375 -21.484375 6.300781 -20.882812 6.21875 -20.21875 C 6.164062 -16.800781 6.316406 -14.4375 6.671875 -13.125 C 6.847656 -12.332031 6.9375 -11.863281 6.9375 -11.71875 C 6.9375 -11.582031 6.828125 -11.410156 6.609375 -11.203125 Z M 6.609375 -2.75 C 6.085938 -2.332031 5.671875 -2.070312 5.359375 -1.96875 C 4.941406 -1.820312 4.40625 -1.847656 3.75 -2.046875 C 3.144531 -2.347656 2.769531 -2.722656 2.625 -3.171875 C 2.394531 -3.859375 2.695312 -4.742188 3.53125 -5.828125 C 4.03125 -6.421875 4.421875 -6.765625 4.703125 -6.859375 C 4.859375 -6.910156 5.273438 -6.925781 5.953125 -6.90625 C 6.972656 -6.6875 7.597656 -6.25 7.828125 -5.59375 C 7.953125 -5.21875 7.910156 -4.78125 7.703125 -4.28125 C 7.503906 -3.789062 7.140625 -3.28125 6.609375 -2.75 Z M 6.609375 -2.75 "/></g></g></g><g clip-path="url(#f544cfc7d0)"><g clip-path="url(#ec5f995f12)"><g clip-path="url(#dafcdde2ee)"><path fill="#004aad" d="M 238.59375 225.15625 C 239.648438 230.015625 241.429688 234.667969 243.917969 238.957031 C 233.300781 236.347656 223.339844 231.175781 214.984375 224.140625 C 206.269531 216.800781 199.003906 207.3125 194.859375 196.652344 C 192.617188 190.875 191.304688 184.320312 193.6875 178.371094 C 193.996094 177.589844 193.171875 176.160156 192.691406 177.355469 C 190.515625 182.796875 191.023438 188.8125 192.679688 194.320312 C 194.386719 200 197.210938 205.398438 200.488281 210.320312 C 207.136719 220.304688 216.257812 228.597656 226.789062 234.324219 C 231.917969 237.113281 237.371094 239.253906 243.015625 240.710938 C 237.398438 243.625 232.273438 247.449219 227.878906 252.015625 C 227.558594 252.355469 227.484375 252.921875 227.632812 253.355469 C 227.742188 253.667969 228.101562 254.070312 228.429688 253.730469 C 233.339844 248.621094 239.136719 244.476562 245.5625 241.488281 C 245.640625 241.453125 245.703125 241.398438 245.757812 241.328125 C 246.28125 241.226562 246.253906 239.964844 246.054688 239.660156 C 243.066406 235.082031 240.902344 230.007812 239.742188 224.664062 C 239.46875 223.398438 238.378906 224.15625 238.59375 225.15625 Z M 238.59375 225.15625 " fill-opacity="1" fill-rule="nonzero"/></g></g></g></svg>