<svg xmlns="http://www.w3.org/2000/svg" xmlns:xlink="http://www.w3.org/1999/xlink" width="500" zoomAndPan="magnify" viewBox="0 0 375 374.999991" height="500" preserveAspectRatio="xMidYMid meet" version="1.0"><defs><g/><clipPath id="af5c53769c"><path d="M 194 199 L 250 199 L 250 275 L 194 275 Z M 194 199 " clip-rule="nonzero"/></clipPath><clipPath id="aa8d57f3de"><path d="M 193.5 213.011719 L 218.539062 199.398438 L 252.929688 262.65625 L 227.890625 276.269531 Z M 193.5 213.011719 " clip-rule="nonzero"/></clipPath><clipPath id="287f6d0078"><path d="M 187.214844 201.449219 L 212.253906 187.835938 L 253.09375 262.953125 L 228.054688 276.566406 Z M 187.214844 201.449219 " clip-rule="nonzero"/></clipPath></defs><g fill="#004aad" fill-opacity="1"><g transform="translate(91.762186, 161.967008)"><g><path d="M 21.15625 -37.71875 C 21.226562 -37.613281 21.289062 -37.476562 21.34375 -37.3125 C 21.382812 -37.1875 21.378906 -37.070312 21.328125 -36.96875 C 21.273438 -36.863281 21.207031 -36.773438 21.125 -36.703125 C 21.039062 -36.640625 20.988281 -36.585938 20.96875 -36.546875 C 20.34375 -36.097656 19.804688 -35.800781 19.359375 -35.65625 C 19.046875 -35.539062 18.660156 -35.492188 18.203125 -35.515625 C 17.796875 -35.691406 17.347656 -35.765625 16.859375 -35.734375 C 16.378906 -35.710938 15.429688 -35.519531 14.015625 -35.15625 C 13.128906 -34.75 12.335938 -34.425781 11.640625 -34.1875 C 11.816406 -32.945312 11.800781 -31.785156 11.59375 -30.703125 C 11.675781 -30.054688 11.6875 -29.460938 11.625 -28.921875 C 11.601562 -28.203125 11.625 -27.800781 11.6875 -27.71875 C 11.644531 -27.5625 11.617188 -26.664062 11.609375 -25.03125 C 11.597656 -23.394531 11.601562 -21.8125 11.625 -20.28125 C 11.644531 -19.1875 11.648438 -18.394531 11.640625 -17.90625 C 11.585938 -17.53125 11.554688 -16.960938 11.546875 -16.203125 C 11.546875 -15.453125 11.546875 -14.914062 11.546875 -14.59375 L 11.453125 -10.9375 C 11.359375 -10.375 11.300781 -9.515625 11.28125 -8.359375 C 11.269531 -7.210938 11.289062 -6.191406 11.34375 -5.296875 L 11.4375 -3.484375 C 11.476562 -2.859375 11.488281 -2.382812 11.46875 -2.0625 C 11.445312 -1.738281 11.410156 -1.550781 11.359375 -1.5 C 11.304688 -1.457031 11.148438 -1.40625 10.890625 -1.34375 C 10.628906 -1.25 10.28125 -1.347656 9.84375 -1.640625 C 9.414062 -1.941406 9.140625 -2.285156 9.015625 -2.671875 C 8.785156 -3.359375 8.632812 -4.609375 8.5625 -6.421875 C 8.5 -8.234375 8.523438 -9.703125 8.640625 -10.828125 C 8.578125 -11.429688 8.539062 -11.925781 8.53125 -12.3125 C 8.53125 -12.695312 8.519531 -12.972656 8.5 -13.140625 C 8.539062 -13.304688 8.570312 -13.703125 8.59375 -14.328125 C 8.613281 -14.953125 8.613281 -15.519531 8.59375 -16.03125 C 8.476562 -16.625 8.378906 -20.128906 8.296875 -26.546875 L 8.296875 -27.640625 C 8.429688 -28.210938 8.5 -28.90625 8.5 -29.71875 C 8.695312 -29.945312 8.710938 -30.3125 8.546875 -30.8125 C 8.515625 -30.914062 8.523438 -31.066406 8.578125 -31.265625 C 8.640625 -31.460938 8.664062 -31.59375 8.65625 -31.65625 C 8.675781 -31.738281 8.6875 -31.910156 8.6875 -32.171875 C 8.695312 -32.441406 8.742188 -32.660156 8.828125 -32.828125 L 8.8125 -32.875 L 8.078125 -32.578125 L 5.828125 -31.5625 L 4.8125 -31.09375 C 3.03125 -30.320312 2.007812 -29.863281 1.75 -29.71875 C 0.820312 -29.320312 0.132812 -29.132812 -0.3125 -29.15625 C -0.757812 -29.175781 -1 -29.453125 -1.03125 -29.984375 C -1.0625 -30.398438 -0.957031 -30.75 -0.71875 -31.03125 C -0.488281 -31.320312 -0.0703125 -31.625 0.53125 -31.9375 C 0.789062 -32.09375 1.3125 -32.367188 2.09375 -32.765625 L 3.296875 -33.4375 L 4.84375 -34.1875 C 6.570312 -35.082031 8.453125 -35.921875 10.484375 -36.703125 C 11.328125 -37.023438 12.03125 -37.304688 12.59375 -37.546875 C 13.164062 -37.796875 13.539062 -37.96875 13.71875 -38.0625 C 14.164062 -38.175781 14.90625 -38.332031 15.9375 -38.53125 C 16.976562 -38.738281 17.75 -38.84375 18.25 -38.84375 C 19 -38.914062 19.582031 -38.867188 20 -38.703125 C 20.425781 -38.535156 20.8125 -38.207031 21.15625 -37.71875 Z M 21.15625 -37.71875 "/></g></g></g><g fill="#004aad" fill-opacity="1"><g transform="translate(113.450528, 154.660465)"><g><path d="M 14.15625 -38.15625 C 17.53125 -37.425781 19.570312 -36.003906 20.28125 -33.890625 C 20.539062 -33.128906 20.632812 -32.265625 20.5625 -31.296875 C 20.488281 -29.859375 19.710938 -27.929688 18.234375 -25.515625 C 16.765625 -23.109375 15.273438 -21.234375 13.765625 -19.890625 C 13.179688 -19.335938 12.476562 -18.75 11.65625 -18.125 C 10.84375 -17.5 10.050781 -16.894531 9.28125 -16.3125 C 8.695312 -15.945312 8.085938 -15.671875 7.453125 -15.484375 L 7.5625 -15.421875 C 8.84375 -14.054688 10.910156 -12.570312 13.765625 -10.96875 C 15.117188 -10.164062 16.894531 -9.316406 19.09375 -8.421875 C 21.300781 -7.523438 23.125 -6.984375 24.5625 -6.796875 C 24.726562 -6.710938 24.851562 -6.546875 24.9375 -6.296875 C 25.03125 -6.003906 25.046875 -5.664062 24.984375 -5.28125 C 24.929688 -4.894531 24.84375 -4.664062 24.71875 -4.59375 C 24.664062 -4.539062 24.597656 -4.476562 24.515625 -4.40625 C 24.441406 -4.34375 24.34375 -4.285156 24.21875 -4.234375 C 23.769531 -4.085938 23.039062 -4.15625 22.03125 -4.4375 C 20.25 -4.800781 18.460938 -5.34375 16.671875 -6.0625 C 14.890625 -6.78125 12.863281 -7.8125 10.59375 -9.15625 C 9.5625 -9.757812 8.722656 -10.316406 8.078125 -10.828125 C 7.441406 -11.335938 6.695312 -12.0625 5.84375 -13 L 5.859375 -12.671875 C 5.992188 -9.128906 5.953125 -4.492188 5.734375 1.234375 C 5.703125 1.660156 5.53125 1.925781 5.21875 2.03125 C 4.863281 2.144531 4.367188 2.085938 3.734375 1.859375 C 3.640625 1.804688 3.488281 1.726562 3.28125 1.625 C 3.070312 1.519531 2.921875 1.421875 2.828125 1.328125 C 2.734375 1.242188 2.664062 1.140625 2.625 1.015625 C 2.519531 0.722656 2.53125 -0.0664062 2.65625 -1.359375 L 2.78125 -2.828125 C 2.59375 -4.035156 2.609375 -5.503906 2.828125 -7.234375 C 2.796875 -8.054688 2.992188 -11.707031 3.421875 -18.1875 L 3.578125 -20.5625 L 3.6875 -21.96875 C 3.800781 -24.40625 4.050781 -27.460938 4.4375 -31.140625 C 4.4375 -31.660156 4.414062 -31.988281 4.375 -32.125 C 4.226562 -32.53125 3.890625 -32.644531 3.359375 -32.46875 C 2.867188 -32.757812 2.566406 -33.082031 2.453125 -33.4375 C 2.335938 -33.78125 2.421875 -34.066406 2.703125 -34.296875 L 4.8125 -36.125 C 5.832031 -36.75 6.867188 -37.234375 7.921875 -37.578125 C 10.023438 -38.296875 12.101562 -38.488281 14.15625 -38.15625 Z M 11.515625 -21.5625 C 13.429688 -23.351562 15.023438 -25.335938 16.296875 -27.515625 C 17.578125 -29.691406 17.921875 -31.5 17.328125 -32.9375 C 17.128906 -33.539062 16.597656 -34.066406 15.734375 -34.515625 C 14.878906 -34.972656 14.09375 -35.1875 13.375 -35.15625 C 11.289062 -34.9375 9.921875 -34.710938 9.265625 -34.484375 C 8.691406 -34.296875 8.28125 -34.03125 8.03125 -33.6875 C 7.78125 -33.34375 7.675781 -32.894531 7.71875 -32.34375 C 7.75 -32.25 7.703125 -31.71875 7.578125 -30.75 C 7.328125 -28.46875 7.195312 -26.914062 7.1875 -26.09375 L 6.84375 -23.515625 C 6.507812 -21.140625 6.328125 -19.664062 6.296875 -19.09375 C 6.265625 -18.53125 6.359375 -18.195312 6.578125 -18.09375 C 7.835938 -18.613281 9.484375 -19.769531 11.515625 -21.5625 Z M 11.515625 -21.5625 "/></g></g></g><g fill="#004aad" fill-opacity="1"><g transform="translate(137.033047, 146.715796)"><g><path d="M 22.109375 -40.046875 C 22.328125 -39.796875 22.46875 -39.523438 22.53125 -39.234375 C 22.570312 -39.035156 22.492188 -38.753906 22.296875 -38.390625 C 22.109375 -38.023438 21.984375 -37.78125 21.921875 -37.65625 C 21.421875 -36.8125 20.675781 -35.347656 19.6875 -33.265625 C 18.707031 -31.179688 17.960938 -29.441406 17.453125 -28.046875 C 16.679688 -26.148438 15.960938 -24.460938 15.296875 -22.984375 C 14.628906 -21.515625 14.140625 -20.46875 13.828125 -19.84375 C 13.816406 -19.769531 13.609375 -19.332031 13.203125 -18.53125 C 13.265625 -17.3125 13.359375 -16.113281 13.484375 -14.9375 L 13.578125 -11.53125 C 13.578125 -11 13.601562 -10.171875 13.65625 -9.046875 C 13.71875 -7.921875 13.734375 -7.09375 13.703125 -6.5625 C 13.742188 -6.164062 13.773438 -5.765625 13.796875 -5.359375 C 13.828125 -4.960938 13.851562 -4.578125 13.875 -4.203125 C 13.9375 -3.410156 13.972656 -2.753906 13.984375 -2.234375 C 14.003906 -1.710938 13.972656 -1.359375 13.890625 -1.171875 C 13.804688 -0.992188 13.632812 -0.90625 13.375 -0.90625 C 13.21875 -0.90625 12.640625 -1.046875 11.640625 -1.328125 C 11.242188 -1.554688 11.003906 -1.796875 10.921875 -2.046875 C 10.847656 -2.265625 10.796875 -2.722656 10.765625 -3.421875 L 10.6875 -4.96875 C 10.457031 -5.738281 10.300781 -6.6875 10.21875 -7.8125 C 10.132812 -8.945312 10.171875 -9.910156 10.328125 -10.703125 C 10.171875 -11.179688 10.078125 -11.96875 10.046875 -13.0625 C 10.023438 -14.164062 10.050781 -15.195312 10.125 -16.15625 L 10.15625 -18.71875 L 9.015625 -19.4375 C 7.960938 -20.238281 7.125 -20.984375 6.5 -21.671875 C 5.882812 -22.367188 5.3125 -23.257812 4.78125 -24.34375 C 4.007812 -25.488281 3.390625 -26.753906 2.921875 -28.140625 C 2.773438 -28.578125 2.382812 -29.820312 1.75 -31.875 C 1.320312 -33.238281 1.160156 -34.234375 1.265625 -34.859375 C 1.378906 -35.492188 1.4375 -35.863281 1.4375 -35.96875 C 1.5625 -36.21875 1.6875 -36.367188 1.8125 -36.421875 C 2.15625 -36.535156 2.597656 -36.242188 3.140625 -35.546875 C 3.679688 -34.847656 4.113281 -33.953125 4.4375 -32.859375 C 6.957031 -26.015625 9.054688 -22.382812 10.734375 -21.96875 C 11.015625 -21.988281 11.1875 -22.007812 11.25 -22.03125 C 11.601562 -22.15625 11.914062 -22.460938 12.1875 -22.953125 C 12.457031 -23.441406 12.960938 -24.519531 13.703125 -26.1875 L 14.359375 -27.671875 C 14.679688 -28.390625 15.515625 -30.351562 16.859375 -33.5625 C 17.617188 -35.488281 18.242188 -37.003906 18.734375 -38.109375 C 19.222656 -39.222656 19.640625 -39.984375 19.984375 -40.390625 C 20.023438 -40.566406 20.109375 -40.726562 20.234375 -40.875 C 20.359375 -41.03125 20.472656 -41.144531 20.578125 -41.21875 C 20.679688 -41.289062 20.75 -41.332031 20.78125 -41.34375 C 20.914062 -41.34375 21.035156 -41.285156 21.140625 -41.171875 C 21.253906 -41.054688 21.398438 -40.875 21.578125 -40.625 C 21.753906 -40.382812 21.929688 -40.191406 22.109375 -40.046875 Z M 22.109375 -40.046875 "/></g></g></g><g fill="#004aad" fill-opacity="1"><g transform="translate(160.899699, 138.675406)"><g/></g></g><g fill="#004aad" fill-opacity="1"><g transform="translate(172.359475, 134.814744)"><g><path d="M 8.609375 -1.84375 C 7.222656 -2.320312 6.269531 -2.75 5.75 -3.125 C 5.226562 -3.5 4.820312 -4.035156 4.53125 -4.734375 C 4.445312 -4.878906 4.332031 -5.160156 4.1875 -5.578125 C 3.894531 -6.453125 3.601562 -7.582031 3.3125 -8.96875 C 3.019531 -10.351562 2.816406 -11.46875 2.703125 -12.3125 C 2.796875 -12.476562 2.804688 -12.6875 2.734375 -12.9375 C 2.660156 -13.195312 2.601562 -13.351562 2.5625 -13.40625 C 2.53125 -13.507812 2.503906 -13.851562 2.484375 -14.4375 C 2.460938 -15.738281 2.394531 -16.804688 2.28125 -17.640625 C 2.25 -20.523438 2.382812 -22.878906 2.6875 -24.703125 C 3 -26.523438 3.425781 -28.285156 3.96875 -29.984375 C 4.863281 -31.835938 5.585938 -33.210938 6.140625 -34.109375 C 6.703125 -35.015625 7.378906 -35.847656 8.171875 -36.609375 C 9.160156 -37.753906 9.925781 -38.421875 10.46875 -38.609375 C 10.5625 -38.628906 10.710938 -38.644531 10.921875 -38.65625 C 12.816406 -38.875 14.382812 -38.597656 15.625 -37.828125 C 16.875 -37.066406 18.070312 -35.648438 19.21875 -33.578125 C 20.15625 -31.742188 20.789062 -30.335938 21.125 -29.359375 C 21.65625 -27.785156 21.90625 -26.097656 21.875 -24.296875 C 21.851562 -22.503906 21.503906 -20.140625 20.828125 -17.203125 C 20.253906 -13.273438 19.144531 -9.910156 17.5 -7.109375 C 15.863281 -4.304688 14.023438 -2.5625 11.984375 -1.875 C 10.878906 -1.5 9.753906 -1.488281 8.609375 -1.84375 Z M 11.1875 -4.234375 C 12.207031 -4.734375 13.078125 -5.5 13.796875 -6.53125 C 14.523438 -7.5625 15.328125 -9.140625 16.203125 -11.265625 C 16.953125 -13.097656 17.460938 -14.460938 17.734375 -15.359375 C 18.015625 -16.265625 18.1875 -17.289062 18.25 -18.4375 C 18.320312 -19.59375 18.3125 -21.316406 18.21875 -23.609375 C 18.113281 -25.046875 17.988281 -26.15625 17.84375 -26.9375 C 17.707031 -27.71875 17.460938 -28.625 17.109375 -29.65625 L 16.03125 -32.71875 C 15.820312 -33.238281 15.523438 -33.757812 15.140625 -34.28125 C 14.753906 -34.8125 14.390625 -35.175781 14.046875 -35.375 C 13.378906 -35.75 12.664062 -35.8125 11.90625 -35.5625 C 11.4375 -35.394531 11.015625 -35.128906 10.640625 -34.765625 C 10.140625 -34.304688 9.507812 -33.269531 8.75 -31.65625 C 7.988281 -30.050781 7.351562 -28.453125 6.84375 -26.859375 C 6.34375 -25.273438 6.15625 -24.289062 6.28125 -23.90625 C 6.289062 -23.875 6.304688 -23.773438 6.328125 -23.609375 C 6.359375 -23.441406 6.347656 -23.273438 6.296875 -23.109375 C 5.953125 -22.359375 5.738281 -21.003906 5.65625 -19.046875 C 5.570312 -17.085938 5.617188 -15.007812 5.796875 -12.8125 C 5.984375 -10.625 6.273438 -8.84375 6.671875 -7.46875 L 7.109375 -5.828125 C 7.203125 -5.546875 7.300781 -5.332031 7.40625 -5.1875 C 7.507812 -5.039062 7.671875 -4.890625 7.890625 -4.734375 C 8.117188 -4.585938 8.335938 -4.425781 8.546875 -4.25 C 8.773438 -4.050781 9.09375 -3.929688 9.5 -3.890625 C 9.90625 -3.859375 10.296875 -3.90625 10.671875 -4.03125 C 10.898438 -4.101562 11.070312 -4.171875 11.1875 -4.234375 Z M 11.1875 -4.234375 "/></g></g></g><g fill="#004aad" fill-opacity="1"><g transform="translate(195.847291, 126.90198)"><g><path d="M 11.25 -1.0625 C 9.507812 -1.101562 8.0625 -1.609375 6.90625 -2.578125 C 5.757812 -3.546875 4.816406 -5.128906 4.078125 -7.328125 C 3.410156 -9.296875 2.863281 -11.960938 2.4375 -15.328125 C 2.132812 -17.785156 2.015625 -20.8125 2.078125 -24.40625 C 2.148438 -28.007812 2.4375 -31.070312 2.9375 -33.59375 C 3.21875 -35.019531 3.484375 -35.984375 3.734375 -36.484375 C 3.992188 -36.992188 4.320312 -37.28125 4.71875 -37.34375 C 5.257812 -37.382812 5.734375 -37.273438 6.140625 -37.015625 C 6.546875 -36.753906 6.816406 -36.414062 6.953125 -36 C 7.179688 -35.34375 7.050781 -34.695312 6.5625 -34.0625 C 6.394531 -33.6875 6.234375 -33.007812 6.078125 -32.03125 C 5.921875 -31.050781 5.816406 -30.421875 5.765625 -30.140625 L 5.328125 -27.65625 C 5.296875 -24.125 5.304688 -21.414062 5.359375 -19.53125 C 5.421875 -17.65625 5.613281 -15.710938 5.9375 -13.703125 C 6.207031 -11.441406 6.453125 -9.796875 6.671875 -8.765625 C 6.898438 -7.734375 7.109375 -6.929688 7.296875 -6.359375 C 7.492188 -5.796875 7.617188 -5.429688 7.671875 -5.265625 C 7.828125 -5.109375 8.035156 -4.90625 8.296875 -4.65625 C 8.554688 -4.414062 8.773438 -4.242188 8.953125 -4.140625 C 9.128906 -4.035156 9.300781 -3.992188 9.46875 -4.015625 C 9.832031 -3.972656 10.25 -4.03125 10.71875 -4.1875 C 11.570312 -4.46875 12.363281 -5.035156 13.09375 -5.890625 C 13.132812 -6.179688 13.25 -6.4375 13.4375 -6.65625 C 13.632812 -6.882812 13.757812 -7.019531 13.8125 -7.0625 C 13.894531 -7 13.957031 -6.976562 14 -7 C 14.09375 -7.03125 14.132812 -7.164062 14.125 -7.40625 L 14.109375 -7.4375 C 14.054688 -7.601562 14.125 -7.875 14.3125 -8.25 C 14.570312 -8.476562 14.925781 -9.140625 15.375 -10.234375 C 15.820312 -11.328125 16.195312 -12.4375 16.5 -13.5625 C 16.800781 -14.695312 16.921875 -15.359375 16.859375 -15.546875 C 16.804688 -15.703125 16.835938 -15.90625 16.953125 -16.15625 C 17.066406 -16.40625 17.144531 -16.570312 17.1875 -16.65625 C 17.332031 -16.9375 17.566406 -18.082031 17.890625 -20.09375 C 18.210938 -22.113281 18.484375 -24.039062 18.703125 -25.875 C 18.648438 -27.582031 18.570312 -29.976562 18.46875 -33.0625 C 18.363281 -36.15625 18.257812 -38.128906 18.15625 -38.984375 C 18.0625 -39.410156 18.03125 -39.785156 18.0625 -40.109375 C 18.101562 -40.441406 18.125 -40.660156 18.125 -40.765625 C 18.332031 -40.898438 18.703125 -40.921875 19.234375 -40.828125 C 19.765625 -40.742188 20.101562 -40.695312 20.25 -40.6875 C 20.46875 -40.550781 20.640625 -40.304688 20.765625 -39.953125 C 20.890625 -39.578125 21.015625 -38.738281 21.140625 -37.4375 C 21.191406 -36.75 21.304688 -35.734375 21.484375 -34.390625 C 21.648438 -32.234375 21.679688 -30.15625 21.578125 -28.15625 C 21.484375 -26.15625 21.300781 -23.71875 21.03125 -20.84375 C 21.007812 -20.519531 20.972656 -20.164062 20.921875 -19.78125 C 20.867188 -19.394531 20.832031 -18.972656 20.8125 -18.515625 L 20.921875 -18.234375 C 20.617188 -17.890625 20.425781 -17.453125 20.34375 -16.921875 C 20.3125 -16.742188 20.265625 -16.492188 20.203125 -16.171875 C 20.148438 -15.859375 20.0625 -15.625 19.9375 -15.46875 C 19.945312 -15.15625 19.941406 -14.890625 19.921875 -14.671875 C 19.898438 -14.460938 19.890625 -14.316406 19.890625 -14.234375 C 19.921875 -14.035156 19.832031 -13.816406 19.625 -13.578125 C 19.425781 -13.335938 19.300781 -13.1875 19.25 -13.125 C 19.144531 -13.03125 19.097656 -12.859375 19.109375 -12.609375 C 19.128906 -12.367188 19.117188 -12.203125 19.078125 -12.109375 C 18.503906 -10.066406 17.742188 -8.117188 16.796875 -6.265625 C 15.847656 -4.421875 14.835938 -3.070312 13.765625 -2.21875 C 13.210938 -1.75 12.703125 -1.429688 12.234375 -1.265625 C 11.816406 -1.128906 11.488281 -1.0625 11.25 -1.0625 Z M 11.25 -1.0625 "/></g></g></g><g fill="#004aad" fill-opacity="1"><g transform="translate(218.672139, 119.212561)"><g><path d="M 14.15625 -38.15625 C 17.53125 -37.425781 19.570312 -36.003906 20.28125 -33.890625 C 20.539062 -33.128906 20.632812 -32.265625 20.5625 -31.296875 C 20.488281 -29.859375 19.710938 -27.929688 18.234375 -25.515625 C 16.765625 -23.109375 15.273438 -21.234375 13.765625 -19.890625 C 13.179688 -19.335938 12.476562 -18.75 11.65625 -18.125 C 10.84375 -17.5 10.050781 -16.894531 9.28125 -16.3125 C 8.695312 -15.945312 8.085938 -15.671875 7.453125 -15.484375 L 7.5625 -15.421875 C 8.84375 -14.054688 10.910156 -12.570312 13.765625 -10.96875 C 15.117188 -10.164062 16.894531 -9.316406 19.09375 -8.421875 C 21.300781 -7.523438 23.125 -6.984375 24.5625 -6.796875 C 24.726562 -6.710938 24.851562 -6.546875 24.9375 -6.296875 C 25.03125 -6.003906 25.046875 -5.664062 24.984375 -5.28125 C 24.929688 -4.894531 24.84375 -4.664062 24.71875 -4.59375 C 24.664062 -4.539062 24.597656 -4.476562 24.515625 -4.40625 C 24.441406 -4.34375 24.34375 -4.285156 24.21875 -4.234375 C 23.769531 -4.085938 23.039062 -4.15625 22.03125 -4.4375 C 20.25 -4.800781 18.460938 -5.34375 16.671875 -6.0625 C 14.890625 -6.78125 12.863281 -7.8125 10.59375 -9.15625 C 9.5625 -9.757812 8.722656 -10.316406 8.078125 -10.828125 C 7.441406 -11.335938 6.695312 -12.0625 5.84375 -13 L 5.859375 -12.671875 C 5.992188 -9.128906 5.953125 -4.492188 5.734375 1.234375 C 5.703125 1.660156 5.53125 1.925781 5.21875 2.03125 C 4.863281 2.144531 4.367188 2.085938 3.734375 1.859375 C 3.640625 1.804688 3.488281 1.726562 3.28125 1.625 C 3.070312 1.519531 2.921875 1.421875 2.828125 1.328125 C 2.734375 1.242188 2.664062 1.140625 2.625 1.015625 C 2.519531 0.722656 2.53125 -0.0664062 2.65625 -1.359375 L 2.78125 -2.828125 C 2.59375 -4.035156 2.609375 -5.503906 2.828125 -7.234375 C 2.796875 -8.054688 2.992188 -11.707031 3.421875 -18.1875 L 3.578125 -20.5625 L 3.6875 -21.96875 C 3.800781 -24.40625 4.050781 -27.460938 4.4375 -31.140625 C 4.4375 -31.660156 4.414062 -31.988281 4.375 -32.125 C 4.226562 -32.53125 3.890625 -32.644531 3.359375 -32.46875 C 2.867188 -32.757812 2.566406 -33.082031 2.453125 -33.4375 C 2.335938 -33.78125 2.421875 -34.066406 2.703125 -34.296875 L 4.8125 -36.125 C 5.832031 -36.75 6.867188 -37.234375 7.921875 -37.578125 C 10.023438 -38.296875 12.101562 -38.488281 14.15625 -38.15625 Z M 11.515625 -21.5625 C 13.429688 -23.351562 15.023438 -25.335938 16.296875 -27.515625 C 17.578125 -29.691406 17.921875 -31.5 17.328125 -32.9375 C 17.128906 -33.539062 16.597656 -34.066406 15.734375 -34.515625 C 14.878906 -34.972656 14.09375 -35.1875 13.375 -35.15625 C 11.289062 -34.9375 9.921875 -34.710938 9.265625 -34.484375 C 8.691406 -34.296875 8.28125 -34.03125 8.03125 -33.6875 C 7.78125 -33.34375 7.675781 -32.894531 7.71875 -32.34375 C 7.75 -32.25 7.703125 -31.71875 7.578125 -30.75 C 7.328125 -28.46875 7.195312 -26.914062 7.1875 -26.09375 L 6.84375 -23.515625 C 6.507812 -21.140625 6.328125 -19.664062 6.296875 -19.09375 C 6.265625 -18.53125 6.359375 -18.195312 6.578125 -18.09375 C 7.835938 -18.613281 9.484375 -19.769531 11.515625 -21.5625 Z M 11.515625 -21.5625 "/></g></g></g><g fill="#004aad" fill-opacity="1"><g transform="translate(136.451699, 220.389726)"><g><path d="M 10.234375 -0.453125 C 9.015625 -0.742188 8.082031 -1.039062 7.4375 -1.34375 C 6.789062 -1.65625 6.398438 -2.015625 6.265625 -2.421875 C 6.128906 -2.835938 6.269531 -3.289062 6.6875 -3.78125 C 6.8125 -3.925781 7.117188 -3.929688 7.609375 -3.796875 C 8.097656 -3.660156 8.59375 -3.46875 9.09375 -3.21875 C 10.164062 -2.75 11.363281 -2.738281 12.6875 -3.1875 C 13.257812 -3.375 13.976562 -3.726562 14.84375 -4.25 C 16.019531 -5.082031 16.984375 -6.03125 17.734375 -7.09375 C 18.484375 -8.15625 19.125 -9.40625 19.65625 -10.84375 C 19.976562 -11.800781 20.125 -12.78125 20.09375 -13.78125 C 20.070312 -14.789062 19.921875 -15.707031 19.640625 -16.53125 C 19.296875 -17.539062 18.859375 -18.222656 18.328125 -18.578125 C 16.492188 -19.859375 14.40625 -20.101562 12.0625 -19.3125 C 11.050781 -18.976562 10.144531 -18.53125 9.34375 -17.96875 L 6.796875 -16.484375 C 6.734375 -16.421875 6.597656 -16.332031 6.390625 -16.21875 C 6.191406 -16.101562 6.078125 -15.300781 6.046875 -13.8125 C 6.023438 -12.320312 6.003906 -10.375 5.984375 -7.96875 C 5.953125 -5.8125 5.878906 -4.285156 5.765625 -3.390625 C 5.648438 -2.492188 5.4375 -1.988281 5.125 -1.875 C 4.800781 -1.769531 4.300781 -1.992188 3.625 -2.546875 C 3.09375 -3.003906 2.757812 -3.4375 2.625 -3.84375 C 2.476562 -4.25 2.46875 -4.738281 2.59375 -5.3125 C 2.65625 -5.644531 2.691406 -5.96875 2.703125 -6.28125 C 2.722656 -6.601562 2.707031 -7.039062 2.65625 -7.59375 C 2.644531 -8.957031 2.800781 -12.421875 3.125 -17.984375 C 3.457031 -23.546875 3.753906 -27.757812 4.015625 -30.625 C 4.203125 -32.695312 4.125 -33.722656 3.78125 -33.703125 C 3.75 -33.804688 3.65625 -33.9375 3.5 -34.09375 C 3.34375 -34.25 3.265625 -34.378906 3.265625 -34.484375 C 3.191406 -34.671875 3.53125 -35.101562 4.28125 -35.78125 C 5.039062 -36.457031 5.640625 -36.835938 6.078125 -36.921875 L 6.359375 -37.015625 C 6.773438 -37.148438 6.957031 -37.296875 6.90625 -37.453125 C 6.96875 -37.472656 7.25 -37.601562 7.75 -37.84375 C 8.25 -38.082031 8.804688 -38.269531 9.421875 -38.40625 C 11.609375 -38.9375 13.457031 -38.875 14.96875 -38.21875 C 16.476562 -37.570312 17.515625 -36.375 18.078125 -34.625 C 18.316406 -33.832031 18.15625 -32.488281 17.59375 -30.59375 C 17.039062 -28.695312 16.394531 -27.078125 15.65625 -25.734375 C 15.289062 -25.117188 14.863281 -24.457031 14.375 -23.75 C 13.894531 -23.039062 13.582031 -22.585938 13.4375 -22.390625 L 14.765625 -22.390625 C 16.503906 -22.335938 17.960938 -22.046875 19.140625 -21.515625 C 20.316406 -20.984375 21.316406 -20.078125 22.140625 -18.796875 C 22.316406 -18.515625 22.445312 -18.242188 22.53125 -17.984375 C 22.757812 -17.296875 22.90625 -16.46875 22.96875 -15.5 C 23.03125 -14.53125 23.03125 -13.671875 22.96875 -12.921875 C 22.84375 -12.660156 22.753906 -12.398438 22.703125 -12.140625 C 22.648438 -11.878906 22.617188 -11.707031 22.609375 -11.625 C 22.628906 -11.488281 22.507812 -10.910156 22.25 -9.890625 C 22 -8.878906 21.753906 -8.050781 21.515625 -7.40625 C 20.390625 -5.519531 19.285156 -4.144531 18.203125 -3.28125 C 17.078125 -2.226562 15.679688 -1.421875 14.015625 -0.859375 C 12.460938 -0.335938 11.203125 -0.203125 10.234375 -0.453125 Z M 6.421875 -19.453125 C 6.742188 -19.640625 7.398438 -20.015625 8.390625 -20.578125 C 9.378906 -21.140625 10.054688 -21.566406 10.421875 -21.859375 C 10.460938 -21.910156 10.617188 -22.082031 10.890625 -22.375 C 11.171875 -22.664062 11.425781 -23.039062 11.65625 -23.5 C 12.1875 -24.445312 12.769531 -25.796875 13.40625 -27.546875 C 14.050781 -29.296875 14.460938 -30.722656 14.640625 -31.828125 C 14.992188 -33.398438 15.070312 -34.484375 14.875 -35.078125 C 14.738281 -35.484375 14.4375 -35.804688 13.96875 -36.046875 C 13.382812 -36.398438 12.320312 -36.316406 10.78125 -35.796875 C 9.769531 -35.460938 8.929688 -35.078125 8.265625 -34.640625 C 7.859375 -34.367188 7.582031 -34.109375 7.4375 -33.859375 C 7.300781 -33.617188 7.289062 -33.328125 7.40625 -32.984375 C 7.5625 -32.515625 7.472656 -31.9375 7.140625 -31.25 C 7.160156 -31.050781 7.144531 -30.84375 7.09375 -30.625 C 7.050781 -30.414062 7.019531 -30.289062 7 -30.25 C 7.03125 -30.164062 6.992188 -29.628906 6.890625 -28.640625 C 6.722656 -27.492188 6.628906 -26.226562 6.609375 -24.84375 C 6.367188 -21.59375 6.304688 -19.796875 6.421875 -19.453125 Z M 6.421875 -19.453125 "/></g></g></g><g fill="#004aad" fill-opacity="1"><g transform="translate(160.697186, 212.221711)"><g><path d="M 12.234375 -2.84375 C 11.523438 -2.644531 10.816406 -2.601562 10.109375 -2.71875 C 9.398438 -2.832031 8.566406 -3.0625 7.609375 -3.40625 L 6.4375 -3.75 C 5.675781 -4.132812 5.039062 -4.578125 4.53125 -5.078125 C 4.03125 -5.585938 3.519531 -6.300781 3 -7.21875 C 2.800781 -7.582031 2.65625 -7.910156 2.5625 -8.203125 C 2.257812 -9.109375 2.054688 -10.238281 1.953125 -11.59375 C 1.847656 -12.957031 1.847656 -14.09375 1.953125 -15 C 2.085938 -16.914062 2.71875 -20.117188 3.84375 -24.609375 C 3.925781 -24.773438 3.984375 -24.890625 4.015625 -24.953125 C 4.046875 -25.015625 4.046875 -25.050781 4.015625 -25.0625 C 3.992188 -25.082031 3.984375 -25.09375 3.984375 -25.09375 C 3.910156 -25.300781 4.046875 -26.429688 4.390625 -28.484375 C 4.734375 -29.222656 4.832031 -29.800781 4.6875 -30.21875 C 4.613281 -30.4375 4.507812 -30.59375 4.375 -30.6875 C 4.195312 -30.800781 4.359375 -31.285156 4.859375 -32.140625 C 5.359375 -33.003906 6.046875 -33.914062 6.921875 -34.875 C 7.546875 -35.820312 8.269531 -36.4375 9.09375 -36.71875 C 9.34375 -36.800781 9.570312 -36.832031 9.78125 -36.8125 C 9.988281 -36.789062 10.132812 -36.707031 10.21875 -36.5625 C 10.28125 -36.375 10.882812 -36.648438 12.03125 -37.390625 C 12.5625 -37.703125 12.941406 -37.914062 13.171875 -38.03125 C 13.253906 -38.238281 13.535156 -38.484375 14.015625 -38.765625 C 14.492188 -39.046875 15.1875 -39.414062 16.09375 -39.875 C 16.625 -40.007812 17.148438 -40.179688 17.671875 -40.390625 C 18.191406 -40.609375 18.523438 -40.753906 18.671875 -40.828125 C 18.898438 -41.015625 19.191406 -41.070312 19.546875 -41 C 19.898438 -40.9375 20.269531 -40.6875 20.65625 -40.25 C 20.84375 -40.0625 20.96875 -39.875 21.03125 -39.6875 C 21.144531 -39.332031 21.019531 -38.976562 20.65625 -38.625 C 20.289062 -38.28125 19.617188 -37.867188 18.640625 -37.390625 C 17.617188 -36.921875 17 -36.625 16.78125 -36.5 C 15.101562 -35.726562 13.367188 -34.8125 11.578125 -33.75 C 10.429688 -33.082031 9.644531 -32.46875 9.21875 -31.90625 C 8.800781 -31.34375 8.414062 -30.40625 8.0625 -29.09375 C 7.894531 -28.863281 7.75 -28.363281 7.625 -27.59375 C 7.5 -26.832031 7.382812 -26.050781 7.28125 -25.25 C 7.21875 -25.070312 7.15625 -24.867188 7.09375 -24.640625 C 7.03125 -24.410156 6.941406 -24.15625 6.828125 -23.875 C 6.328125 -22.332031 5.992188 -21.226562 5.828125 -20.5625 C 5.671875 -19.894531 5.664062 -19.515625 5.8125 -19.421875 C 5.90625 -19.421875 6.097656 -19.429688 6.390625 -19.453125 C 6.679688 -19.484375 6.925781 -19.519531 7.125 -19.5625 C 7.363281 -19.8125 7.722656 -20.046875 8.203125 -20.265625 C 8.691406 -20.492188 9.03125 -20.679688 9.21875 -20.828125 C 13.8125 -23.816406 16.421875 -25.46875 17.046875 -25.78125 C 17.273438 -26.070312 17.507812 -26.257812 17.75 -26.34375 C 18.320312 -26.53125 18.957031 -26.316406 19.65625 -25.703125 C 19.8125 -25.546875 19.914062 -25.390625 19.96875 -25.234375 C 20.070312 -24.953125 19.941406 -24.609375 19.578125 -24.203125 C 19.222656 -23.804688 18.488281 -23.21875 17.375 -22.4375 C 16.269531 -21.65625 14.929688 -20.738281 13.359375 -19.6875 L 11.984375 -18.75 C 10.128906 -17.457031 8.632812 -16.617188 7.5 -16.234375 C 6.519531 -15.910156 5.957031 -16.023438 5.8125 -16.578125 C 5.445312 -16.617188 5.207031 -16.144531 5.09375 -15.15625 C 4.988281 -14.175781 5.003906 -13.015625 5.140625 -11.671875 C 5.273438 -10.328125 5.484375 -9.226562 5.765625 -8.375 C 5.921875 -7.925781 6.085938 -7.597656 6.265625 -7.390625 C 6.816406 -6.691406 7.375 -6.207031 7.9375 -5.9375 C 8.5 -5.675781 9.335938 -5.570312 10.453125 -5.625 C 10.679688 -5.664062 10.960938 -5.726562 11.296875 -5.8125 C 11.640625 -5.894531 12.035156 -6.007812 12.484375 -6.15625 C 13.109375 -6.363281 13.695312 -6.703125 14.25 -7.171875 C 15.769531 -8.003906 17.046875 -8.785156 18.078125 -9.515625 C 19.109375 -10.242188 19.722656 -10.726562 19.921875 -10.96875 C 20.078125 -11.144531 20.210938 -11.269531 20.328125 -11.34375 C 20.453125 -11.414062 20.578125 -11.472656 20.703125 -11.515625 L 20.6875 -11.40625 C 20.6875 -11.40625 20.6875 -11.394531 20.6875 -11.375 C 20.695312 -11.363281 20.71875 -11.363281 20.75 -11.375 C 20.832031 -11.40625 21.023438 -11.765625 21.328125 -12.453125 C 21.710938 -13.085938 22.300781 -13.765625 23.09375 -14.484375 C 23.882812 -15.210938 24.335938 -15.46875 24.453125 -15.25 C 24.578125 -15.082031 24.664062 -14.929688 24.71875 -14.796875 C 24.914062 -14.210938 24.785156 -13.375 24.328125 -12.28125 C 23.867188 -11.1875 23.125 -10.066406 22.09375 -8.921875 C 20.832031 -7.578125 19.3125 -6.382812 17.53125 -5.34375 C 15.757812 -4.3125 13.992188 -3.476562 12.234375 -2.84375 Z M 12.234375 -2.84375 "/></g></g></g><g fill="#004aad" fill-opacity="1"><g transform="translate(186.647443, 203.47938)"><g><path d="M 21.15625 -37.71875 C 21.226562 -37.613281 21.289062 -37.476562 21.34375 -37.3125 C 21.382812 -37.1875 21.378906 -37.070312 21.328125 -36.96875 C 21.273438 -36.863281 21.207031 -36.773438 21.125 -36.703125 C 21.039062 -36.640625 20.988281 -36.585938 20.96875 -36.546875 C 20.34375 -36.097656 19.804688 -35.800781 19.359375 -35.65625 C 19.046875 -35.539062 18.660156 -35.492188 18.203125 -35.515625 C 17.796875 -35.691406 17.347656 -35.765625 16.859375 -35.734375 C 16.378906 -35.710938 15.429688 -35.519531 14.015625 -35.15625 C 13.128906 -34.75 12.335938 -34.425781 11.640625 -34.1875 C 11.816406 -32.945312 11.800781 -31.785156 11.59375 -30.703125 C 11.675781 -30.054688 11.6875 -29.460938 11.625 -28.921875 C 11.601562 -28.203125 11.625 -27.800781 11.6875 -27.71875 C 11.644531 -27.5625 11.617188 -26.664062 11.609375 -25.03125 C 11.597656 -23.394531 11.601562 -21.8125 11.625 -20.28125 C 11.644531 -19.1875 11.648438 -18.394531 11.640625 -17.90625 C 11.585938 -17.53125 11.554688 -16.960938 11.546875 -16.203125 C 11.546875 -15.453125 11.546875 -14.914062 11.546875 -14.59375 L 11.453125 -10.9375 C 11.359375 -10.375 11.300781 -9.515625 11.28125 -8.359375 C 11.269531 -7.210938 11.289062 -6.191406 11.34375 -5.296875 L 11.4375 -3.484375 C 11.476562 -2.859375 11.488281 -2.382812 11.46875 -2.0625 C 11.445312 -1.738281 11.410156 -1.550781 11.359375 -1.5 C 11.304688 -1.457031 11.148438 -1.40625 10.890625 -1.34375 C 10.628906 -1.25 10.28125 -1.347656 9.84375 -1.640625 C 9.414062 -1.941406 9.140625 -2.285156 9.015625 -2.671875 C 8.785156 -3.359375 8.632812 -4.609375 8.5625 -6.421875 C 8.5 -8.234375 8.523438 -9.703125 8.640625 -10.828125 C 8.578125 -11.429688 8.539062 -11.925781 8.53125 -12.3125 C 8.53125 -12.695312 8.519531 -12.972656 8.5 -13.140625 C 8.539062 -13.304688 8.570312 -13.703125 8.59375 -14.328125 C 8.613281 -14.953125 8.613281 -15.519531 8.59375 -16.03125 C 8.476562 -16.625 8.378906 -20.128906 8.296875 -26.546875 L 8.296875 -27.640625 C 8.429688 -28.210938 8.5 -28.90625 8.5 -29.71875 C 8.695312 -29.945312 8.710938 -30.3125 8.546875 -30.8125 C 8.515625 -30.914062 8.523438 -31.066406 8.578125 -31.265625 C 8.640625 -31.460938 8.664062 -31.59375 8.65625 -31.65625 C 8.675781 -31.738281 8.6875 -31.910156 8.6875 -32.171875 C 8.695312 -32.441406 8.742188 -32.660156 8.828125 -32.828125 L 8.8125 -32.875 L 8.078125 -32.578125 L 5.828125 -31.5625 L 4.8125 -31.09375 C 3.03125 -30.320312 2.007812 -29.863281 1.75 -29.71875 C 0.820312 -29.320312 0.132812 -29.132812 -0.3125 -29.15625 C -0.757812 -29.175781 -1 -29.453125 -1.03125 -29.984375 C -1.0625 -30.398438 -0.957031 -30.75 -0.71875 -31.03125 C -0.488281 -31.320312 -0.0703125 -31.625 0.53125 -31.9375 C 0.789062 -32.09375 1.3125 -32.367188 2.09375 -32.765625 L 3.296875 -33.4375 L 4.84375 -34.1875 C 6.570312 -35.082031 8.453125 -35.921875 10.484375 -36.703125 C 11.328125 -37.023438 12.03125 -37.304688 12.59375 -37.546875 C 13.164062 -37.796875 13.539062 -37.96875 13.71875 -38.0625 C 14.164062 -38.175781 14.90625 -38.332031 15.9375 -38.53125 C 16.976562 -38.738281 17.75 -38.84375 18.25 -38.84375 C 19 -38.914062 19.582031 -38.867188 20 -38.703125 C 20.425781 -38.535156 20.8125 -38.207031 21.15625 -37.71875 Z M 21.15625 -37.71875 "/></g></g></g><g fill="#004aad" fill-opacity="1"><g transform="translate(208.335784, 196.172837)"><g><path d="M 3.796875 0.453125 C 3.378906 0.378906 3.070312 0.285156 2.875 0.171875 C 2.6875 0.0664062 2.550781 -0.109375 2.46875 -0.359375 C 2.363281 -0.671875 2.34375 -1.164062 2.40625 -1.84375 C 2.476562 -2.519531 2.628906 -3.601562 2.859375 -5.09375 C 2.921875 -5.5625 3.046875 -6.40625 3.234375 -7.625 C 3.878906 -11.75 4.148438 -13.96875 4.046875 -14.28125 C 3.992188 -14.332031 3.945312 -14.421875 3.90625 -14.546875 C 3.789062 -14.859375 3.941406 -15.234375 4.359375 -15.671875 C 4.859375 -16.628906 5.203125 -17.601562 5.390625 -18.59375 C 5.472656 -19.394531 5.617188 -20.367188 5.828125 -21.515625 C 6.046875 -22.660156 6.328125 -24.023438 6.671875 -25.609375 C 6.816406 -26.390625 7.054688 -27.546875 7.390625 -29.078125 C 7.859375 -31.554688 8.597656 -34.335938 9.609375 -37.421875 C 10.003906 -38.628906 10.441406 -39.300781 10.921875 -39.4375 C 11.523438 -39.632812 12.285156 -39.582031 13.203125 -39.28125 C 14.128906 -38.976562 14.859375 -38.53125 15.390625 -37.9375 C 15.585938 -37.75 15.804688 -37.296875 16.046875 -36.578125 C 16.378906 -35.585938 16.832031 -33.894531 17.40625 -31.5 C 17.46875 -31.0625 17.617188 -30.390625 17.859375 -29.484375 C 18.234375 -28.035156 18.601562 -26.472656 18.96875 -24.796875 C 19.8125 -21.140625 20.488281 -18.289062 21 -16.25 C 21.519531 -14.207031 22.070312 -12.320312 22.65625 -10.59375 C 22.945312 -9.707031 23.179688 -9.0625 23.359375 -8.65625 L 23.46875 -8.34375 L 23.78125 -7.234375 C 23.65625 -6.984375 23.398438 -6.789062 23.015625 -6.65625 C 22.578125 -6.507812 22.117188 -6.460938 21.640625 -6.515625 C 21.160156 -6.578125 20.84375 -6.742188 20.6875 -7.015625 C 20.644531 -7.035156 20.585938 -7.050781 20.515625 -7.0625 C 20.441406 -7.070312 20.363281 -7.203125 20.28125 -7.453125 L 19.96875 -8.515625 L 19.21875 -11.21875 L 16.875 -18.96875 L 16.265625 -18.71875 C 15.640625 -18.507812 14.28125 -17.910156 12.1875 -16.921875 C 10.09375 -15.941406 8.800781 -15.273438 8.3125 -14.921875 C 8.03125 -14.828125 7.75 -14.523438 7.46875 -14.015625 C 7.1875 -13.503906 6.984375 -12.890625 6.859375 -12.171875 C 6.878906 -11.816406 6.8125 -11.289062 6.65625 -10.59375 C 6.5 -9.90625 6.4375 -9.507812 6.46875 -9.40625 C 6.320312 -9.21875 6.210938 -8.992188 6.140625 -8.734375 C 6.066406 -8.484375 6.03125 -8.316406 6.03125 -8.234375 C 6.144531 -7.890625 6.117188 -6.898438 5.953125 -5.265625 C 5.785156 -3.628906 5.539062 -2.226562 5.21875 -1.0625 L 4.75 0.765625 Z M 8.46875 -18.109375 C 8.644531 -18.191406 9.03125 -18.394531 9.625 -18.71875 C 10.21875 -19.039062 10.757812 -19.300781 11.25 -19.5 C 13.34375 -20.8125 14.644531 -21.550781 15.15625 -21.71875 C 15.375 -21.789062 15.59375 -21.8125 15.8125 -21.78125 C 15.957031 -21.675781 16.085938 -21.617188 16.203125 -21.609375 C 16.328125 -21.609375 16.410156 -21.617188 16.453125 -21.640625 C 16.441406 -21.847656 16.054688 -23.625 15.296875 -26.96875 C 14.546875 -30.320312 14.003906 -32.535156 13.671875 -33.609375 L 13.015625 -36.03125 C 12.828125 -35.96875 12.539062 -35.460938 12.15625 -34.515625 C 11.769531 -33.578125 11.382812 -32.398438 11 -30.984375 C 10.613281 -29.578125 10.320312 -28.175781 10.125 -26.78125 C 10 -26.101562 9.867188 -25.46875 9.734375 -24.875 C 9.597656 -24.28125 9.472656 -23.960938 9.359375 -23.921875 C 9.203125 -23.628906 8.960938 -22.601562 8.640625 -20.84375 C 8.328125 -19.082031 8.269531 -18.171875 8.46875 -18.109375 Z M 8.46875 -18.109375 "/></g></g></g><g fill="#004aad" fill-opacity="1"><g transform="translate(232.107731, 188.164352)"><g><path d="M 6.609375 -11.203125 C 6.046875 -10.867188 5.515625 -10.878906 5.015625 -11.234375 C 4.515625 -11.585938 4.109375 -12.222656 3.796875 -13.140625 C 3.523438 -13.960938 3.347656 -14.960938 3.265625 -16.140625 C 3.410156 -17.171875 3.410156 -17.90625 3.265625 -18.34375 C 3.242188 -18.925781 3.265625 -19.695312 3.328125 -20.65625 C 3.398438 -21.613281 3.460938 -22.347656 3.515625 -22.859375 C 3.648438 -22.910156 3.75 -23.070312 3.8125 -23.34375 C 3.882812 -23.613281 3.882812 -23.859375 3.8125 -24.078125 C 3.71875 -24.359375 3.671875 -24.664062 3.671875 -25 C 3.679688 -25.34375 3.726562 -25.59375 3.8125 -25.75 C 3.78125 -25.851562 3.789062 -26.039062 3.84375 -26.3125 C 3.894531 -26.59375 3.90625 -26.785156 3.875 -26.890625 C 3.851562 -26.941406 3.851562 -27.050781 3.875 -27.21875 C 3.90625 -27.394531 3.90625 -27.523438 3.875 -27.609375 C 4.125 -28.753906 4.34375 -30.816406 4.53125 -33.796875 C 4.726562 -36.785156 4.773438 -38.488281 4.671875 -38.90625 C 4.585938 -39.476562 4.800781 -39.800781 5.3125 -39.875 C 5.425781 -40.039062 5.65625 -40.179688 6 -40.296875 L 6.921875 -39.765625 C 7.203125 -39.617188 7.40625 -39.4375 7.53125 -39.21875 C 7.664062 -39.007812 7.816406 -38.664062 7.984375 -38.1875 C 8.097656 -37.695312 8.125 -37.132812 8.0625 -36.5 C 8 -35.863281 7.894531 -35.1875 7.75 -34.46875 C 7.601562 -33.75 7.507812 -33.238281 7.46875 -32.9375 L 7.21875 -31.59375 C 7.019531 -30.539062 6.945312 -29.9375 7 -29.78125 C 7.039062 -29.664062 7.035156 -29.414062 6.984375 -29.03125 C 6.941406 -28.644531 6.914062 -28.320312 6.90625 -28.0625 C 6.78125 -27.488281 6.660156 -26.785156 6.546875 -25.953125 C 6.441406 -25.128906 6.410156 -24.65625 6.453125 -24.53125 C 6.429688 -24.457031 6.425781 -24.332031 6.4375 -24.15625 C 6.445312 -23.988281 6.410156 -23.820312 6.328125 -23.65625 C 6.222656 -23.625 6.179688 -23.53125 6.203125 -23.375 C 6.222656 -23.21875 6.242188 -23.113281 6.265625 -23.0625 C 6.316406 -22.894531 6.34375 -22.546875 6.34375 -22.015625 C 6.34375 -21.484375 6.300781 -20.882812 6.21875 -20.21875 C 6.164062 -16.800781 6.316406 -14.4375 6.671875 -13.125 C 6.847656 -12.332031 6.9375 -11.863281 6.9375 -11.71875 C 6.9375 -11.582031 6.828125 -11.410156 6.609375 -11.203125 Z M 6.609375 -2.75 C 6.085938 -2.332031 5.671875 -2.070312 5.359375 -1.96875 C 4.941406 -1.820312 4.40625 -1.847656 3.75 -2.046875 C 3.144531 -2.347656 2.769531 -2.722656 2.625 -3.171875 C 2.394531 -3.859375 2.695312 -4.742188 3.53125 -5.828125 C 4.03125 -6.421875 4.421875 -6.765625 4.703125 -6.859375 C 4.859375 -6.910156 5.273438 -6.925781 5.953125 -6.90625 C 6.972656 -6.6875 7.597656 -6.25 7.828125 -5.59375 C 7.953125 -5.21875 7.910156 -4.78125 7.703125 -4.28125 C 7.503906 -3.789062 7.140625 -3.28125 6.609375 -2.75 Z M 6.609375 -2.75 "/></g></g></g><g clip-path="url(#af5c53769c)"><g clip-path="url(#aa8d57f3de)"><g clip-path="url(#287f6d0078)"><path fill="#004aad" d="M 241.832031 245.546875 C 242.890625 250.40625 244.667969 255.058594 247.15625 259.34375 C 236.539062 256.734375 226.582031 251.566406 218.222656 244.527344 C 209.507812 237.191406 202.246094 227.703125 198.101562 217.042969 C 195.855469 211.261719 194.542969 204.710938 196.925781 198.761719 C 197.238281 197.980469 196.410156 196.550781 195.933594 197.742188 C 193.757812 203.183594 194.261719 209.199219 195.917969 214.707031 C 197.628906 220.386719 200.449219 225.789062 203.730469 230.710938 C 210.375 240.691406 219.496094 248.988281 230.03125 254.714844 C 235.15625 257.5 240.613281 259.644531 246.257812 261.097656 C 240.636719 264.015625 235.515625 267.835938 231.121094 272.40625 C 230.796875 272.742188 230.726562 273.3125 230.871094 273.746094 C 230.980469 274.058594 231.339844 274.460938 231.671875 274.117188 C 236.578125 269.007812 242.378906 264.863281 248.804688 261.878906 C 248.878906 261.839844 248.945312 261.785156 249 261.71875 C 249.519531 261.617188 249.492188 260.351562 249.292969 260.046875 C 246.308594 255.46875 244.144531 250.398438 242.984375 245.050781 C 242.707031 243.785156 241.617188 244.542969 241.832031 245.546875 Z M 241.832031 245.546875 " fill-opacity="1" fill-rule="nonzero"/></g></g></g></svg>