<svg width="24" height="24" viewBox="0 0 24 24" fill="none" xmlns="http://www.w3.org/2000/svg">
<path d="M11.4328 2.37679C11.6426 1.8744 12.3574 1.8744 12.5672 2.37679L14.8891 7.93536C14.9775 8.14715 15.1776 8.29186 15.4072 8.31019L21.4339 8.79128C21.9786 8.83477 22.1995 9.51162 21.7845 9.86559L17.1928 13.7821C17.0178 13.9313 16.9414 14.1654 16.9948 14.3886L18.3977 20.2445C18.5245 20.7737 17.9462 21.192 17.4799 20.9084L12.3202 17.7704C12.1236 17.6508 11.8764 17.6508 11.6798 17.7704L6.52009 20.9084C6.05376 21.192 5.47552 20.7737 5.60231 20.2445L7.00515 14.3886C7.0586 14.1654 6.9822 13.9313 6.80724 13.7821L2.21554 9.86559C1.80054 9.51162 2.02141 8.83477 2.5661 8.79128L8.59279 8.31019C8.82242 8.29186 9.02245 8.14715 9.11092 7.93536L11.4328 2.37679Z" stroke="#0F172A" stroke-width="1.5" stroke-linecap="round" stroke-linejoin="round"/>
</svg>
