<svg xmlns="http://www.w3.org/2000/svg" xmlns:xlink="http://www.w3.org/1999/xlink" width="2048" zoomAndPan="magnify" viewBox="0 0 1536 1151.999944" height="1536" preserveAspectRatio="xMidYMid meet" version="1.2"><defs><clipPath id="37f01a9916"><path d="M 447 279 L 545 279 L 545 421 L 447 421 Z M 447 279 "/></clipPath><clipPath id="58a81b58a4"><path d="M 237.503906 -327.839844 L 1717.542969 91.320312 L 1298.382812 1571.359375 L -181.65625 1152.199219 Z M 237.503906 -327.839844 "/></clipPath><clipPath id="49ff28945f"><path d="M 237.503906 -327.839844 L 1717.542969 91.320312 L 1311.871094 1523.734375 L -168.167969 1104.574219 Z M 237.503906 -327.839844 "/></clipPath><clipPath id="9691f5e6ae"><path d="M 237.503906 -327.839844 L 1717.542969 91.320312 L 1298.382812 1571.359375 L -181.65625 1152.199219 Z M 237.503906 -327.839844 "/></clipPath><clipPath id="5bf6f0c81a"><path d="M 521 269 L 631 269 L 631 424 L 521 424 Z M 521 269 "/></clipPath><clipPath id="b33ad01c18"><path d="M 237.503906 -327.839844 L 1717.542969 91.320312 L 1298.382812 1571.359375 L -181.65625 1152.199219 Z M 237.503906 -327.839844 "/></clipPath><clipPath id="e963338d8c"><path d="M 237.503906 -327.839844 L 1717.542969 91.320312 L 1311.871094 1523.734375 L -168.167969 1104.574219 Z M 237.503906 -327.839844 "/></clipPath><clipPath id="7ddc564228"><path d="M 237.503906 -327.839844 L 1717.542969 91.320312 L 1298.382812 1571.359375 L -181.65625 1152.199219 Z M 237.503906 -327.839844 "/></clipPath><clipPath id="264212ad6f"><path d="M 656 262 L 748 262 L 748 416 L 656 416 Z M 656 262 "/></clipPath><clipPath id="1bd1589560"><path d="M 237.503906 -327.839844 L 1717.542969 91.320312 L 1298.382812 1571.359375 L -181.65625 1152.199219 Z M 237.503906 -327.839844 "/></clipPath><clipPath id="73ed03e972"><path d="M 237.503906 -327.839844 L 1717.542969 91.320312 L 1311.871094 1523.734375 L -168.167969 1104.574219 Z M 237.503906 -327.839844 "/></clipPath><clipPath id="69fd7382ad"><path d="M 237.503906 -327.839844 L 1717.542969 91.320312 L 1298.382812 1571.359375 L -181.65625 1152.199219 Z M 237.503906 -327.839844 "/></clipPath><clipPath id="6628c5d5a5"><path d="M 789 256 L 884 256 L 884 403 L 789 403 Z M 789 256 "/></clipPath><clipPath id="e08bfaee1f"><path d="M 237.503906 -327.839844 L 1717.542969 91.320312 L 1298.382812 1571.359375 L -181.65625 1152.199219 Z M 237.503906 -327.839844 "/></clipPath><clipPath id="aca394666e"><path d="M 237.503906 -327.839844 L 1717.542969 91.320312 L 1311.871094 1523.734375 L -168.167969 1104.574219 Z M 237.503906 -327.839844 "/></clipPath><clipPath id="7a5b75c198"><path d="M 237.503906 -327.839844 L 1717.542969 91.320312 L 1298.382812 1571.359375 L -181.65625 1152.199219 Z M 237.503906 -327.839844 "/></clipPath><clipPath id="3dcc429093"><path d="M 892 249 L 996 249 L 996 401 L 892 401 Z M 892 249 "/></clipPath><clipPath id="67fa51d601"><path d="M 237.503906 -327.839844 L 1717.542969 91.320312 L 1298.382812 1571.359375 L -181.65625 1152.199219 Z M 237.503906 -327.839844 "/></clipPath><clipPath id="48d4dc9b1e"><path d="M 237.503906 -327.839844 L 1717.542969 91.320312 L 1311.871094 1523.734375 L -168.167969 1104.574219 Z M 237.503906 -327.839844 "/></clipPath><clipPath id="38cf8f1497"><path d="M 237.503906 -327.839844 L 1717.542969 91.320312 L 1298.382812 1571.359375 L -181.65625 1152.199219 Z M 237.503906 -327.839844 "/></clipPath><clipPath id="c45354968d"><path d="M 976 247 L 1086 247 L 1086 401 L 976 401 Z M 976 247 "/></clipPath><clipPath id="661f503190"><path d="M 237.503906 -327.839844 L 1717.542969 91.320312 L 1298.382812 1571.359375 L -181.65625 1152.199219 Z M 237.503906 -327.839844 "/></clipPath><clipPath id="b593134e47"><path d="M 237.503906 -327.839844 L 1717.542969 91.320312 L 1311.871094 1523.734375 L -168.167969 1104.574219 Z M 237.503906 -327.839844 "/></clipPath><clipPath id="d68be58982"><path d="M 237.503906 -327.839844 L 1717.542969 91.320312 L 1298.382812 1571.359375 L -181.65625 1152.199219 Z M 237.503906 -327.839844 "/></clipPath><clipPath id="28ec7538c7"><path d="M 544 553 L 640 553 L 640 707 L 544 707 Z M 544 553 "/></clipPath><clipPath id="2eb8a824b6"><path d="M 237.503906 -327.839844 L 1717.542969 91.320312 L 1298.382812 1571.359375 L -181.65625 1152.199219 Z M 237.503906 -327.839844 "/></clipPath><clipPath id="8d672af6ec"><path d="M 237.503906 -327.839844 L 1717.542969 91.320312 L 1311.871094 1523.734375 L -168.167969 1104.574219 Z M 237.503906 -327.839844 "/></clipPath><clipPath id="fcd6d4a459"><path d="M 237.503906 -327.839844 L 1717.542969 91.320312 L 1298.382812 1571.359375 L -181.65625 1152.199219 Z M 237.503906 -327.839844 "/></clipPath><clipPath id="c7a369d7e3"><path d="M 653 548 L 762 548 L 762 692 L 653 692 Z M 653 548 "/></clipPath><clipPath id="6931c5fc12"><path d="M 237.503906 -327.839844 L 1717.542969 91.320312 L 1298.382812 1571.359375 L -181.65625 1152.199219 Z M 237.503906 -327.839844 "/></clipPath><clipPath id="eed061e122"><path d="M 237.503906 -327.839844 L 1717.542969 91.320312 L 1311.871094 1523.734375 L -168.167969 1104.574219 Z M 237.503906 -327.839844 "/></clipPath><clipPath id="4028577656"><path d="M 237.503906 -327.839844 L 1717.542969 91.320312 L 1298.382812 1571.359375 L -181.65625 1152.199219 Z M 237.503906 -327.839844 "/></clipPath><clipPath id="79edb5556c"><path d="M 776 548 L 873 548 L 873 691 L 776 691 Z M 776 548 "/></clipPath><clipPath id="ced3702545"><path d="M 237.503906 -327.839844 L 1717.542969 91.320312 L 1298.382812 1571.359375 L -181.65625 1152.199219 Z M 237.503906 -327.839844 "/></clipPath><clipPath id="a2b9170dad"><path d="M 237.503906 -327.839844 L 1717.542969 91.320312 L 1311.871094 1523.734375 L -168.167969 1104.574219 Z M 237.503906 -327.839844 "/></clipPath><clipPath id="f63e628bf4"><path d="M 237.503906 -327.839844 L 1717.542969 91.320312 L 1298.382812 1571.359375 L -181.65625 1152.199219 Z M 237.503906 -327.839844 "/></clipPath><clipPath id="59251c58e2"><path d="M 850 535 L 945 535 L 945 688 L 850 688 Z M 850 535 "/></clipPath><clipPath id="41445ff846"><path d="M 237.503906 -327.839844 L 1717.542969 91.320312 L 1298.382812 1571.359375 L -181.65625 1152.199219 Z M 237.503906 -327.839844 "/></clipPath><clipPath id="1ad3113e5f"><path d="M 237.503906 -327.839844 L 1717.542969 91.320312 L 1311.871094 1523.734375 L -168.167969 1104.574219 Z M 237.503906 -327.839844 "/></clipPath><clipPath id="47575e93ee"><path d="M 237.503906 -327.839844 L 1717.542969 91.320312 L 1298.382812 1571.359375 L -181.65625 1152.199219 Z M 237.503906 -327.839844 "/></clipPath><clipPath id="ce0ed62556"><path d="M 957 521 L 1018 521 L 1018 673 L 957 673 Z M 957 521 "/></clipPath><clipPath id="4708c4d444"><path d="M 237.503906 -327.839844 L 1717.542969 91.320312 L 1298.382812 1571.359375 L -181.65625 1152.199219 Z M 237.503906 -327.839844 "/></clipPath><clipPath id="4e23af5a02"><path d="M 237.503906 -327.839844 L 1717.542969 91.320312 L 1311.871094 1523.734375 L -168.167969 1104.574219 Z M 237.503906 -327.839844 "/></clipPath><clipPath id="0a2c649799"><path d="M 237.503906 -327.839844 L 1717.542969 91.320312 L 1298.382812 1571.359375 L -181.65625 1152.199219 Z M 237.503906 -327.839844 "/></clipPath><clipPath id="6e1b06c62a"><path d="M 770 703 L 931 703 L 931 1014 L 770 1014 Z M 770 703 "/></clipPath><clipPath id="bb99b2dbb7"><path d="M 237.503906 -327.839844 L 1717.542969 91.320312 L 1298.382812 1571.359375 L -181.65625 1152.199219 Z M 237.503906 -327.839844 "/></clipPath><clipPath id="bb7e601f0b"><path d="M 237.503906 -327.839844 L 1717.542969 91.320312 L 1311.871094 1523.734375 L -168.167969 1104.574219 Z M 237.503906 -327.839844 "/></clipPath><clipPath id="96475960b9"><path d="M 237.503906 -327.839844 L 1717.542969 91.320312 L 1298.382812 1571.359375 L -181.65625 1152.199219 Z M 237.503906 -327.839844 "/></clipPath><clipPath id="e79769ac2e"><path d="M 780.742188 674.414062 L 1001.761719 737.007812 L 916.8125 1036.964844 L 695.792969 974.367188 Z M 780.742188 674.414062 "/></clipPath><clipPath id="c07601ee3b"><path d="M 763.109375 729.15625 L 877.148438 703.414062 L 942.171875 991.519531 L 828.132812 1017.261719 Z M 763.109375 729.15625 "/></clipPath><clipPath id="151d71a21a"><path d="M 766.527344 619.226562 L 1030.960938 694.117188 L 930.363281 1049.328125 L 665.929688 974.4375 Z M 766.527344 619.226562 "/></clipPath><clipPath id="7b65eb1846"><path d="M 751.226562 676.496094 L 865.265625 650.753906 L 942.488281 992.875 L 828.449219 1018.617188 Z M 751.226562 676.496094 "/></clipPath></defs><g id="8152dbcac7"><g clip-rule="nonzero" clip-path="url(#37f01a9916)"><g clip-rule="nonzero" clip-path="url(#58a81b58a4)"><g clip-rule="nonzero" clip-path="url(#49ff28945f)"><g clip-rule="nonzero" clip-path="url(#9691f5e6ae)"><path style=" stroke:none;fill-rule:nonzero;fill:#004aad;fill-opacity:1;" d="M 544.289062 288.757812 C 544.445312 289.25 544.539062 289.859375 544.574219 290.570312 C 544.585938 291.105469 544.441406 291.5625 544.128906 291.90625 C 543.792969 292.261719 543.429688 292.542969 543.027344 292.730469 C 542.621094 292.878906 542.359375 293.039062 542.238281 293.171875 C 539.269531 294.246094 536.808594 294.816406 534.890625 294.886719 C 533.527344 295 531.945312 294.753906 530.167969 294.148438 C 528.761719 293.003906 527.074219 292.207031 525.109375 291.785156 C 523.1875 291.339844 519.226562 291.035156 513.242188 290.886719 C 509.285156 291.5 505.792969 291.894531 502.785156 292.058594 C 502.089844 297.15625 500.730469 301.71875 498.703125 305.757812 C 498.304688 308.40625 497.6875 310.765625 496.835938 312.820312 C 495.941406 315.632812 495.582031 317.246094 495.738281 317.640625 C 495.394531 318.207031 494.28125 321.722656 492.425781 328.160156 C 490.550781 334.605469 488.796875 340.855469 487.179688 346.925781 C 486.03125 351.261719 485.164062 354.398438 484.585938 356.316406 C 483.949219 357.734375 483.191406 359.949219 482.3125 362.933594 C 481.472656 365.890625 480.871094 368.019531 480.511719 369.285156 L 476.054688 383.609375 C 475.058594 385.726562 473.867188 389.050781 472.496094 393.59375 C 471.167969 398.113281 470.105469 402.15625 469.320312 405.75 L 467.664062 413.007812 C 467.121094 415.519531 466.632812 417.414062 466.199219 418.65625 C 465.742188 419.90625 465.394531 420.609375 465.136719 420.753906 C 464.875 420.859375 464.199219 420.886719 463.113281 420.84375 C 461.976562 420.921875 460.710938 420.148438 459.3125 418.503906 C 457.953125 416.835938 457.257812 415.171875 457.195312 413.507812 C 457.054688 410.535156 457.851562 405.433594 459.601562 398.199219 C 461.378906 390.976562 463.113281 385.207031 464.832031 380.898438 C 465.257812 378.453125 465.660156 376.453125 466.0625 374.917969 C 466.488281 373.40625 466.753906 372.296875 466.863281 371.613281 C 467.199219 371.007812 467.769531 369.472656 468.5625 367.03125 C 469.335938 364.585938 469.96875 362.351562 470.464844 360.308594 C 470.664062 357.835938 474.195312 343.898438 481.046875 318.476562 L 482.269531 314.160156 C 483.429688 312.054688 484.484375 309.390625 485.394531 306.183594 C 486.417969 305.507812 486.890625 304.074219 486.800781 301.917969 C 486.792969 301.484375 486.992188 300.890625 487.429688 300.164062 C 487.894531 299.464844 488.136719 298.964844 488.175781 298.710938 C 488.34375 298.410156 488.582031 297.742188 488.875 296.710938 C 489.207031 295.65625 489.636719 294.84375 490.164062 294.277344 L 490.15625 294.074219 L 486.925781 294.425781 L 476.910156 295.921875 L 472.378906 296.636719 C 464.480469 297.695312 459.933594 298.355469 458.753906 298.636719 C 454.636719 299.171875 451.714844 299.144531 449.984375 298.554688 C 448.25 297.976562 447.601562 296.613281 448.074219 294.480469 C 448.414062 292.8125 449.222656 291.542969 450.476562 290.699219 C 451.710938 289.816406 453.699219 289.082031 456.421875 288.519531 C 457.613281 288.191406 459.988281 287.695312 463.515625 286.996094 L 469.015625 285.691406 L 475.957031 284.460938 C 483.773438 282.859375 492.140625 281.648438 501.03125 280.835938 C 504.722656 280.515625 507.808594 280.191406 510.300781 279.863281 C 512.832031 279.515625 514.503906 279.253906 515.316406 279.085938 C 517.203125 279.136719 520.304688 279.347656 524.597656 279.714844 C 528.929688 280.058594 532.101562 280.507812 534.074219 281.066406 C 537.113281 281.628906 539.359375 282.464844 540.824219 283.578125 C 542.316406 284.71875 543.476562 286.445312 544.289062 288.757812 Z M 544.289062 288.757812 "/></g></g></g></g><g clip-rule="nonzero" clip-path="url(#5bf6f0c81a)"><g clip-rule="nonzero" clip-path="url(#b33ad01c18)"><g clip-rule="nonzero" clip-path="url(#e963338d8c)"><g clip-rule="nonzero" clip-path="url(#7ddc564228)"><path style=" stroke:none;fill-rule:nonzero;fill:#004aad;fill-opacity:1;" d="M 610.914062 274.609375 C 623.417969 281.265625 629.878906 289.15625 630.320312 298.292969 C 630.488281 301.585938 629.890625 305.097656 628.53125 308.84375 C 626.632812 314.433594 621.40625 321.179688 612.882812 329.058594 C 604.394531 336.914062 596.410156 342.644531 588.957031 346.265625 C 586.023438 347.796875 582.59375 349.324219 578.65625 350.875 C 574.753906 352.433594 570.945312 353.9375 567.257812 355.375 C 564.535156 356.167969 561.824219 356.566406 559.117188 356.597656 L 559.480469 356.96875 C 563.007812 363.796875 569.503906 371.964844 578.984375 381.476562 C 583.417969 386.164062 589.484375 391.496094 597.167969 397.484375 C 604.871094 403.496094 611.46875 407.664062 616.933594 410.011719 C 617.484375 410.53125 617.796875 411.320312 617.855469 412.402344 C 617.898438 413.664062 617.578125 415.023438 616.90625 416.464844 C 616.257812 417.929688 615.660156 418.742188 615.085938 418.878906 C 614.8125 419.035156 614.480469 419.207031 614.078125 419.394531 C 613.714844 419.558594 613.261719 419.679688 612.710938 419.738281 C 610.773438 419.824219 607.96875 418.730469 604.304688 416.492188 C 597.683594 413.066406 591.226562 408.925781 584.96875 404.089844 C 578.742188 399.261719 571.894531 392.925781 564.4375 385.085938 C 561.042969 381.558594 558.351562 378.414062 556.378906 375.675781 C 554.433594 372.957031 552.300781 369.257812 549.988281 364.605469 L 549.683594 365.917969 C 546.246094 380.050781 540.910156 398.304688 533.644531 420.664062 C 533.046875 422.308594 532.070312 423.164062 530.71875 423.230469 C 529.191406 423.28125 527.296875 422.496094 525.054688 420.894531 C 524.746094 420.574219 524.230469 420.09375 523.527344 419.460938 C 522.8125 418.808594 522.335938 418.257812 522.070312 417.785156 C 521.796875 417.339844 521.632812 416.859375 521.617188 416.324219 C 521.53125 415.050781 522.457031 411.949219 524.398438 406.984375 L 526.53125 401.328125 C 527.140625 396.355469 528.84375 390.574219 531.640625 383.988281 C 532.4375 380.71875 537.289062 366.519531 546.226562 341.421875 L 549.5 332.226562 L 551.503906 326.796875 C 554.675781 317.304688 559.074219 305.527344 564.714844 291.4375 C 565.296875 289.386719 565.570312 288.0625 565.570312 287.480469 C 565.4375 285.710938 564.238281 284.890625 561.945312 284.988281 C 560.324219 283.296875 559.5 281.683594 559.449219 280.152344 C 559.371094 278.664062 560.03125 277.636719 561.398438 277.039062 L 571.765625 272.183594 C 576.488281 270.855469 581.117188 270.101562 585.664062 269.921875 C 594.761719 269.4375 603.175781 271.003906 610.914062 274.609375 Z M 581.945312 337.148438 C 591.5 332.230469 600.007812 326.179688 607.46875 319 C 614.957031 311.84375 618.335938 305.089844 617.601562 298.753906 C 617.484375 296.15625 615.980469 293.480469 613.074219 290.742188 C 610.207031 287.984375 607.351562 286.257812 604.476562 285.578125 C 596 284.109375 590.351562 283.476562 587.507812 283.636719 C 585.03125 283.734375 583.117188 284.324219 581.746094 285.402344 C 580.375 286.476562 579.457031 288.132812 579.011719 290.355469 C 579.027344 290.761719 578.25 292.804688 576.675781 296.488281 C 573.136719 305.210938 570.875 311.199219 569.929688 314.429688 L 565.6875 324.21875 C 561.707031 333.21875 559.347656 338.84375 558.589844 341.058594 C 557.835938 343.246094 557.832031 344.675781 558.582031 345.320312 C 564.125 344.675781 571.925781 341.957031 581.945312 337.148438 Z M 581.945312 337.148438 "/></g></g></g></g><g clip-rule="nonzero" clip-path="url(#264212ad6f)"><g clip-rule="nonzero" clip-path="url(#1bd1589560)"><g clip-rule="nonzero" clip-path="url(#73ed03e972)"><g clip-rule="nonzero" clip-path="url(#69fd7382ad)"><path style=" stroke:none;fill-rule:nonzero;fill:#004aad;fill-opacity:1;" d="M 746.371094 271.042969 C 746.957031 272.273438 747.207031 273.507812 747.128906 274.71875 C 747.0625 275.550781 746.4375 276.574219 745.261719 277.789062 C 744.109375 279.027344 743.347656 279.84375 742.960938 280.265625 C 740.042969 283.039062 735.460938 287.984375 729.234375 295.097656 C 723.03125 302.234375 718.144531 308.261719 714.582031 313.199219 C 709.40625 319.828125 704.683594 325.683594 700.414062 330.769531 C 696.136719 335.820312 693.039062 339.40625 691.105469 341.523438 C 690.976562 341.800781 689.671875 343.296875 687.171875 346.003906 C 686.054688 350.882812 685.085938 355.722656 684.265625 360.503906 L 680.828125 374.050781 C 680.234375 376.148438 679.402344 379.441406 678.359375 383.941406 C 677.347656 388.453125 676.484375 391.738281 675.765625 393.800781 C 675.476562 395.417969 675.152344 397.023438 674.792969 398.652344 C 674.46875 400.261719 674.136719 401.796875 673.808594 403.304688 C 673.167969 406.503906 672.574219 409.132812 672.039062 411.199219 C 671.53125 413.285156 671.015625 414.636719 670.480469 415.285156 C 669.941406 415.898438 669.167969 416.046875 668.148438 415.757812 C 667.53125 415.582031 665.410156 414.382812 661.777344 412.152344 C 660.457031 410.816406 659.789062 409.59375 659.742188 408.515625 C 659.695312 407.566406 660.003906 405.707031 660.664062 402.914062 L 662.082031 396.71875 C 662.035156 393.425781 662.480469 389.503906 663.414062 384.972656 C 664.339844 380.40625 665.570312 376.640625 667.074219 373.6875 C 666.992188 371.628906 667.503906 368.410156 668.601562 364.058594 C 669.742188 359.6875 671 355.648438 672.367188 351.9375 L 675.355469 341.859375 L 671.65625 337.746094 C 668.390625 333.40625 665.925781 329.527344 664.226562 326.117188 C 662.566406 322.683594 661.3125 318.53125 660.429688 313.648438 C 658.65625 308.269531 657.636719 302.582031 657.335938 296.585938 C 657.238281 294.691406 657.085938 289.355469 656.882812 280.539062 C 656.710938 274.675781 657.195312 270.566406 658.308594 268.21875 C 659.460938 265.847656 660.109375 264.445312 660.226562 264.03125 C 661 263.183594 661.660156 262.738281 662.214844 262.660156 C 663.695312 262.597656 665.109375 264.25 666.476562 267.601562 C 667.824219 270.960938 668.535156 274.976562 668.589844 279.65625 C 670.886719 309.484375 675.105469 326.164062 681.269531 329.675781 C 682.402344 329.914062 683.101562 330.03125 683.375 330.007812 C 684.902344 329.90625 686.476562 329.054688 688.105469 327.417969 C 689.714844 325.789062 692.910156 322.097656 697.703125 316.34375 L 701.953125 311.21875 C 704.019531 308.742188 709.511719 301.9375 718.402344 290.765625 C 723.546875 284.011719 727.707031 278.730469 730.886719 274.917969 C 734.058594 271.066406 736.558594 268.527344 738.371094 267.308594 C 738.71875 266.660156 739.238281 266.125 739.898438 265.675781 C 740.566406 265.199219 741.140625 264.878906 741.640625 264.707031 C 742.117188 264.542969 742.445312 264.449219 742.582031 264.4375 C 743.105469 264.585938 743.515625 264.953125 743.804688 265.519531 C 744.121094 266.109375 744.492188 266.980469 744.921875 268.167969 C 745.34375 269.320312 745.824219 270.269531 746.371094 271.042969 Z M 746.371094 271.042969 "/></g></g></g></g><g clip-rule="nonzero" clip-path="url(#6628c5d5a5)"><g clip-rule="nonzero" clip-path="url(#e08bfaee1f)"><g clip-rule="nonzero" clip-path="url(#aca394666e)"><g clip-rule="nonzero" clip-path="url(#7a5b75c198)"><path style=" stroke:none;fill-rule:nonzero;fill:#004aad;fill-opacity:1;" d="M 803.117188 399.246094 C 798.175781 395.816406 794.894531 393.054688 793.261719 390.992188 C 791.617188 388.929688 790.613281 386.363281 790.253906 383.28125 C 790.074219 382.613281 789.941406 381.375 789.839844 379.566406 C 789.660156 375.785156 789.765625 371 790.175781 365.207031 C 790.566406 359.421875 791.011719 354.785156 791.507812 351.328125 C 792.0625 350.785156 792.328125 349.960938 792.328125 348.894531 C 792.324219 347.796875 792.269531 347.113281 792.175781 346.851562 C 792.164062 346.417969 792.441406 345.03125 793.019531 342.695312 C 794.382812 337.535156 795.3125 333.253906 795.796875 329.828125 C 798.898438 318.414062 802.054688 309.265625 805.296875 302.40625 C 808.5625 295.570312 812.214844 289.09375 816.257812 282.996094 C 821.855469 276.6875 826.246094 272.066406 829.4375 269.140625 C 832.671875 266.195312 836.269531 263.664062 840.25 261.546875 C 845.429688 258.132812 849.199219 256.351562 851.550781 256.21875 C 851.941406 256.246094 852.546875 256.351562 853.390625 256.542969 C 861.113281 257.796875 866.984375 260.640625 871.027344 265.066406 C 875.109375 269.46875 878.242188 276.402344 880.460938 285.855469 C 882.109375 294.152344 883.035156 300.410156 883.269531 304.636719 C 883.605469 311.445312 882.707031 318.386719 880.570312 325.457031 C 878.472656 332.507812 874.460938 341.445312 868.507812 352.285156 C 861.851562 367.152344 853.714844 379.1875 844.09375 388.402344 C 834.496094 397.640625 825.289062 402.460938 816.472656 402.894531 C 811.691406 403.140625 807.238281 401.929688 803.117188 399.246094 Z M 815.964844 392.691406 C 820.546875 391.859375 824.839844 389.8125 828.832031 386.542969 C 832.851562 383.285156 837.789062 377.957031 843.617188 370.550781 C 848.625 364.15625 852.15625 359.34375 854.238281 356.101562 C 856.363281 352.839844 858.183594 348.992188 859.714844 344.53125 C 861.285156 340.046875 863.179688 333.238281 865.371094 324.082031 C 866.5625 318.292969 867.308594 313.773438 867.613281 310.53125 C 867.945312 307.292969 867.988281 303.441406 867.753906 298.976562 L 866.921875 285.6875 C 866.667969 283.398438 866.078125 281.019531 865.152344 278.523438 C 864.21875 275.996094 863.191406 274.15625 862.058594 272.984375 C 859.839844 270.757812 857.089844 269.710938 853.820312 269.851562 C 851.78125 269.992188 849.820312 270.566406 847.933594 271.582031 C 845.445312 272.84375 841.789062 276.222656 836.996094 281.742188 C 832.195312 287.226562 827.894531 292.820312 824.109375 298.542969 C 820.363281 304.242188 818.523438 307.917969 818.589844 309.570312 C 818.585938 309.699219 818.53125 310.121094 818.441406 310.792969 C 818.378906 311.492188 818.144531 312.140625 817.761719 312.730469 C 815.566406 315.308594 813.203125 320.417969 810.691406 328.050781 C 808.160156 335.691406 806.023438 343.945312 804.277344 352.8125 C 802.570312 361.65625 801.722656 369.007812 801.757812 374.878906 L 801.648438 381.84375 C 801.707031 383.058594 801.851562 384.015625 802.105469 384.703125 C 802.339844 385.40625 802.824219 386.171875 803.511719 387.035156 C 804.238281 387.875 804.921875 388.75 805.558594 389.679688 C 806.230469 390.71875 807.359375 391.554688 808.917969 392.164062 C 810.488281 392.742188 812.082031 392.992188 813.703125 392.917969 C 814.675781 392.894531 815.433594 392.808594 815.964844 392.691406 Z M 815.964844 392.691406 "/></g></g></g></g><g clip-rule="nonzero" clip-path="url(#3dcc429093)"><g clip-rule="nonzero" clip-path="url(#67fa51d601)"><g clip-rule="nonzero" clip-path="url(#48d4dc9b1e)"><g clip-rule="nonzero" clip-path="url(#38cf8f1497)"><path style=" stroke:none;fill-rule:nonzero;fill:#004aad;fill-opacity:1;" d="M 914.210938 400.304688 C 907.378906 398.203125 902.242188 394.585938 898.761719 389.46875 C 895.3125 384.363281 893.363281 377.066406 892.910156 367.558594 C 892.472656 359.042969 893.292969 347.917969 895.375 334.152344 C 896.917969 324.113281 899.839844 312.035156 904.105469 297.921875 C 908.40625 283.785156 912.972656 272.019531 917.765625 262.621094 C 920.46875 257.308594 922.597656 253.796875 924.140625 252.101562 C 925.726562 250.386719 927.34375 249.613281 928.988281 249.8125 C 931.160156 250.261719 932.917969 251.222656 934.234375 252.695312 C 935.542969 254.183594 936.226562 255.824219 936.304688 257.613281 C 936.464844 260.457031 935.230469 262.871094 932.597656 264.824219 C 931.515625 266.113281 930.121094 268.617188 928.414062 272.296875 C 926.703125 275.992188 925.582031 278.359375 925.066406 279.410156 L 920.5625 288.726562 C 916.492188 302.628906 913.496094 313.335938 911.605469 320.828125 C 909.757812 328.300781 908.335938 336.191406 907.375 344.476562 C 905.910156 353.707031 905.042969 360.472656 904.753906 364.785156 C 904.492188 369.109375 904.425781 372.519531 904.53125 374.980469 C 904.671875 377.417969 904.753906 379.007812 904.789062 379.71875 C 905.230469 380.507812 905.820312 381.542969 906.574219 382.820312 C 907.320312 384.066406 907.992188 384.988281 908.585938 385.589844 C 909.164062 386.203125 909.792969 386.5625 910.480469 386.660156 C 911.867188 387.234375 913.582031 387.472656 915.609375 387.378906 C 919.28125 387.21875 923.046875 385.871094 926.882812 383.3125 C 927.363281 382.214844 928.113281 381.328125 929.097656 380.671875 C 930.121094 379.996094 930.765625 379.597656 931.03125 379.488281 C 931.285156 379.828125 931.503906 379.988281 931.703125 379.945312 C 932.105469 379.925781 932.410156 379.445312 932.648438 378.480469 L 932.621094 378.339844 C 932.589844 377.632812 933.171875 376.632812 934.332031 375.363281 C 935.601562 374.753906 937.75 372.53125 940.742188 368.71875 C 943.722656 364.898438 946.445312 360.9375 948.902344 356.839844 C 951.355469 352.703125 952.578125 350.21875 952.539062 349.410156 C 952.5 348.730469 952.847656 347.964844 953.589844 347.109375 C 954.316406 346.25 954.808594 345.6875 955.074219 345.398438 C 955.960938 344.449219 958.164062 340.195312 961.691406 332.617188 C 965.214844 325.003906 968.445312 317.707031 971.363281 310.707031 C 973.054688 303.910156 975.421875 294.371094 978.46875 282.078125 C 981.511719 269.75 983.300781 261.847656 983.855469 258.355469 C 983.960938 256.570312 984.257812 255.054688 984.742188 253.8125 C 985.269531 252.542969 985.605469 251.707031 985.722656 251.292969 C 986.6875 251 988.179688 251.320312 990.171875 252.285156 C 992.171875 253.21875 993.445312 253.777344 994.023438 253.976562 C 994.734375 254.757812 995.136719 255.921875 995.238281 257.449219 C 995.3125 259.070312 994.867188 262.523438 993.90625 267.796875 C 993.335938 270.566406 992.648438 274.703125 991.855469 280.207031 C 990.09375 288.902344 987.894531 297.136719 985.257812 304.917969 C 982.652344 312.707031 979.203125 322.121094 974.925781 333.167969 C 974.472656 334.421875 973.933594 335.785156 973.308594 337.238281 C 972.660156 338.703125 972.046875 340.328125 971.460938 342.109375 L 971.578125 343.34375 C 969.992188 344.359375 968.746094 345.871094 967.828125 347.878906 C 967.503906 348.550781 967.039062 349.484375 966.4375 350.679688 C 965.871094 351.851562 965.269531 352.679688 964.601562 353.15625 C 964.28125 354.398438 963.972656 355.445312 963.648438 356.285156 C 963.320312 357.09375 963.128906 357.652344 963.035156 357.976562 C 962.9375 358.796875 962.339844 359.5625 961.253906 360.269531 C 960.199219 361.003906 959.539062 361.449219 959.269531 361.640625 C 958.746094 361.890625 958.371094 362.519531 958.136719 363.519531 C 957.941406 364.496094 957.714844 365.128906 957.453125 365.457031 C 952.90625 372.878906 947.71875 379.71875 941.917969 385.96875 C 936.113281 392.1875 930.609375 396.390625 925.433594 398.554688 C 922.71875 399.785156 920.355469 400.480469 918.324219 400.605469 C 916.519531 400.675781 915.152344 400.570312 914.210938 400.304688 Z M 914.210938 400.304688 "/></g></g></g></g><g clip-rule="nonzero" clip-path="url(#c45354968d)"><g clip-rule="nonzero" clip-path="url(#661f503190)"><g clip-rule="nonzero" clip-path="url(#b593134e47)"><g clip-rule="nonzero" clip-path="url(#d68be58982)"><path style=" stroke:none;fill-rule:nonzero;fill:#004aad;fill-opacity:1;" d="M 1065.824219 252.316406 C 1078.328125 258.972656 1084.785156 266.863281 1085.230469 276 C 1085.394531 279.292969 1084.800781 282.804688 1083.441406 286.550781 C 1081.539062 292.140625 1076.316406 298.890625 1067.789062 306.765625 C 1059.300781 314.621094 1051.316406 320.355469 1043.863281 323.972656 C 1040.933594 325.507812 1037.5 327.03125 1033.566406 328.582031 C 1029.660156 330.140625 1025.855469 331.644531 1022.167969 333.082031 C 1019.441406 333.875 1016.734375 334.273438 1014.023438 334.304688 L 1014.386719 334.675781 C 1017.914062 341.503906 1024.414062 349.671875 1033.890625 359.183594 C 1038.328125 363.871094 1044.394531 369.203125 1052.074219 375.191406 C 1059.78125 381.203125 1066.378906 385.371094 1071.839844 387.71875 C 1072.394531 388.242188 1072.703125 389.027344 1072.761719 390.109375 C 1072.804688 391.371094 1072.488281 392.730469 1071.8125 394.171875 C 1071.164062 395.636719 1070.566406 396.449219 1069.996094 396.589844 C 1069.71875 396.742188 1069.386719 396.914062 1068.984375 397.101562 C 1068.621094 397.265625 1068.171875 397.386719 1067.621094 397.449219 C 1065.683594 397.53125 1062.878906 396.4375 1059.214844 394.199219 C 1052.589844 390.777344 1046.136719 386.632812 1039.878906 381.796875 C 1033.652344 376.96875 1026.800781 370.632812 1019.347656 362.792969 C 1015.949219 359.265625 1013.257812 356.121094 1011.289062 353.382812 C 1009.34375 350.667969 1007.210938 346.964844 1004.898438 342.3125 L 1004.589844 343.625 C 1001.15625 357.757812 995.820312 376.011719 988.554688 398.371094 C 987.953125 400.015625 986.980469 400.871094 985.628906 400.9375 C 984.097656 400.988281 982.207031 400.203125 979.960938 398.601562 C 979.652344 398.28125 979.140625 397.800781 978.4375 397.167969 C 977.722656 396.519531 977.246094 395.964844 976.980469 395.492188 C 976.707031 395.046875 976.542969 394.566406 976.527344 394.03125 C 976.4375 392.757812 977.367188 389.65625 979.304688 384.691406 L 981.441406 379.035156 C 982.050781 374.0625 983.753906 368.28125 986.550781 361.699219 C 987.34375 358.425781 992.195312 344.226562 1001.136719 319.132812 L 1004.40625 309.933594 L 1006.410156 304.503906 C 1009.582031 295.011719 1013.984375 283.234375 1019.625 269.144531 C 1020.203125 267.09375 1020.476562 265.773438 1020.476562 265.1875 C 1020.34375 263.417969 1019.144531 262.597656 1016.851562 262.695312 C 1015.234375 261.007812 1014.410156 259.390625 1014.359375 257.859375 C 1014.28125 256.371094 1014.9375 255.34375 1016.304688 254.75 L 1026.675781 249.890625 C 1031.398438 248.5625 1036.023438 247.808594 1040.570312 247.632812 C 1049.667969 247.144531 1058.085938 248.710938 1065.824219 252.316406 Z M 1036.851562 314.859375 C 1046.40625 309.9375 1054.914062 303.886719 1062.378906 296.707031 C 1069.867188 289.550781 1073.246094 282.796875 1072.507812 276.460938 C 1072.394531 273.863281 1070.886719 271.1875 1067.980469 268.449219 C 1065.117188 265.691406 1062.257812 263.964844 1059.386719 263.285156 C 1050.910156 261.816406 1045.257812 261.183594 1042.417969 261.34375 C 1039.941406 261.441406 1038.023438 262.03125 1036.652344 263.109375 C 1035.28125 264.1875 1034.363281 265.839844 1033.917969 268.0625 C 1033.9375 268.46875 1033.160156 270.511719 1031.582031 274.195312 C 1028.046875 282.921875 1025.785156 288.90625 1024.835938 292.136719 L 1020.597656 301.925781 C 1016.617188 310.925781 1014.257812 316.550781 1013.496094 318.769531 C 1012.746094 320.953125 1012.738281 322.382812 1013.488281 323.03125 C 1019.035156 322.386719 1026.832031 319.664062 1036.851562 314.859375 Z M 1036.851562 314.859375 "/></g></g></g></g><g clip-rule="nonzero" clip-path="url(#28ec7538c7)"><g clip-rule="nonzero" clip-path="url(#2eb8a824b6)"><g clip-rule="nonzero" clip-path="url(#8d672af6ec)"><g clip-rule="nonzero" clip-path="url(#fcd6d4a459)"><path style=" stroke:none;fill-rule:nonzero;fill:#004aad;fill-opacity:1;" d="M 570.605469 704.160156 C 566.117188 701.65625 562.765625 699.441406 560.558594 697.519531 C 558.351562 695.5625 557.210938 693.707031 557.140625 691.953125 C 557.0625 690.167969 558.125 688.535156 560.324219 687.058594 C 560.980469 686.628906 562.1875 686.953125 563.980469 688.027344 C 565.753906 689.113281 567.5 690.425781 569.191406 691.96875 C 572.894531 695.015625 577.613281 696.402344 583.34375 696.109375 C 585.800781 696.007812 589.03125 695.421875 593.039062 694.328125 C 598.609375 692.359375 603.480469 689.691406 607.628906 686.335938 C 611.773438 682.980469 615.699219 678.761719 619.402344 673.683594 C 621.738281 670.261719 623.417969 666.558594 624.414062 662.578125 C 625.449219 658.574219 625.886719 654.785156 625.699219 651.21875 C 625.46875 646.855469 624.507812 643.667969 622.808594 641.671875 C 616.992188 634.5625 609.03125 631.277344 598.898438 631.769531 C 594.53125 631.964844 590.457031 632.710938 586.667969 634.035156 L 574.957031 637.046875 C 574.640625 637.222656 574 637.425781 573.054688 637.640625 C 572.136719 637.878906 570.796875 640.914062 569.007812 646.753906 C 567.25 652.617188 564.996094 660.273438 562.230469 669.746094 C 559.695312 678.222656 557.695312 684.167969 556.25 687.570312 C 554.78125 690.988281 553.386719 692.738281 552.027344 692.835938 C 550.628906 692.890625 548.90625 691.453125 546.859375 688.507812 C 545.273438 686.113281 544.429688 684.023438 544.359375 682.273438 C 544.230469 680.503906 544.746094 678.566406 545.878906 676.441406 C 546.496094 675.199219 547 673.960938 547.394531 672.738281 C 547.828125 671.496094 548.257812 669.753906 548.675781 667.507812 C 550.152344 662.113281 554.644531 648.613281 562.140625 627.023438 C 569.667969 605.4375 575.546875 589.152344 579.785156 578.128906 C 582.839844 570.167969 583.679688 566.023438 582.300781 565.71875 C 582.289062 565.28125 582.070312 564.652344 581.625 563.859375 C 581.183594 563.070312 581.019531 562.472656 581.136719 562.058594 C 581.054688 561.234375 582.875 559.917969 586.597656 558.074219 C 590.34375 556.253906 593.140625 555.429688 594.964844 555.582031 L 596.179688 555.523438 C 597.960938 555.464844 598.851562 555.082031 598.824219 554.410156 C 599.09375 554.402344 600.347656 554.207031 602.59375 553.8125 C 604.832031 553.429688 607.230469 553.308594 609.820312 553.460938 C 619.046875 553.808594 626.269531 556.121094 631.503906 560.398438 C 636.726562 564.644531 639.492188 570.523438 639.757812 578.058594 C 639.8125 581.457031 637.675781 586.578125 633.339844 593.429688 C 629.027344 600.300781 624.675781 605.964844 620.261719 610.441406 C 618.121094 612.464844 615.703125 614.597656 612.984375 616.839844 C 610.296875 619.109375 608.554688 620.550781 607.765625 621.160156 L 613.007812 622.644531 C 619.808594 624.800781 625.234375 627.570312 629.296875 630.988281 C 633.34375 634.398438 636.277344 639.09375 638.097656 645.070312 C 638.476562 646.375 638.679688 647.601562 638.730469 648.714844 C 638.859375 651.679688 638.519531 655.113281 637.683594 659.007812 C 636.847656 662.902344 635.886719 666.292969 634.800781 669.183594 C 634.015625 670.078125 633.367188 671.007812 632.878906 671.96875 C 632.371094 672.941406 632.054688 673.585938 631.933594 673.898438 C 631.855469 674.460938 630.734375 676.609375 628.574219 680.34375 C 626.457031 684.058594 624.5625 687.050781 622.898438 689.328125 C 616.351562 695.515625 610.449219 699.707031 605.214844 701.90625 C 599.597656 704.8125 593.179688 706.421875 585.980469 706.785156 C 579.261719 707.113281 574.148438 706.230469 570.605469 704.160156 Z M 576.792969 624.910156 C 578.269531 624.527344 581.277344 623.78125 585.820312 622.671875 C 590.351562 621.554688 593.492188 620.628906 595.269531 619.882812 C 595.480469 619.726562 596.289062 619.222656 597.695312 618.375 C 599.128906 617.546875 600.550781 616.351562 601.976562 614.789062 C 605.128906 611.652344 608.9375 606.96875 613.40625 600.773438 C 617.90625 594.585938 621.117188 589.417969 623.0625 585.253906 C 626.207031 579.449219 627.730469 575.253906 627.621094 572.691406 C 627.535156 570.933594 626.707031 569.332031 625.128906 567.855469 C 623.207031 565.8125 618.921875 564.949219 612.269531 565.277344 C 607.898438 565.472656 604.15625 566.046875 601.046875 567.03125 C 599.136719 567.65625 597.753906 568.363281 596.90625 569.1875 C 596.09375 569.992188 595.726562 571.117188 595.804688 572.605469 C 595.898438 574.628906 594.894531 576.8125 592.816406 579.152344 C 592.671875 579.960938 592.378906 580.761719 591.933594 581.566406 C 591.527344 582.351562 591.265625 582.8125 591.144531 582.945312 C 591.171875 583.316406 590.417969 585.386719 588.914062 589.171875 C 586.96875 593.519531 585.183594 598.410156 583.558594 603.84375 C 578.972656 616.402344 576.714844 623.421875 576.792969 624.910156 Z M 576.792969 624.910156 "/></g></g></g></g><g clip-rule="nonzero" clip-path="url(#c7a369d7e3)"><g clip-rule="nonzero" clip-path="url(#6931c5fc12)"><g clip-rule="nonzero" clip-path="url(#eed061e122)"><g clip-rule="nonzero" clip-path="url(#4028577656)"><path style=" stroke:none;fill-rule:nonzero;fill:#004aad;fill-opacity:1;" d="M 685.992188 691.824219 C 682.960938 691.816406 680.125 691.195312 677.464844 689.941406 C 674.785156 688.699219 671.757812 686.859375 668.367188 684.433594 L 664.125 681.769531 C 661.546875 679.40625 659.53125 676.9375 658.085938 674.394531 C 656.679688 671.832031 655.460938 668.4375 654.433594 664.234375 C 654.054688 662.578125 653.851562 661.121094 653.808594 659.859375 C 653.617188 655.945312 654.078125 651.261719 655.191406 645.796875 C 656.300781 640.300781 657.570312 635.8125 659 632.355469 C 661.664062 624.949219 667.742188 613.011719 677.203125 596.542969 C 677.710938 595.984375 678.074219 595.589844 678.265625 595.375 C 678.460938 595.164062 678.5 595.027344 678.386719 594.945312 C 678.316406 594.839844 678.300781 594.785156 678.300781 594.785156 C 678.238281 593.886719 680.039062 589.582031 683.691406 581.859375 C 685.875 579.328125 686.90625 577.15625 686.804688 575.34375 C 686.753906 574.398438 686.511719 573.664062 686.09375 573.144531 C 685.511719 572.5 686.699219 570.769531 689.628906 567.953125 C 692.570312 565.105469 696.300781 562.28125 700.828125 559.464844 C 704.351562 556.433594 707.890625 554.804688 711.460938 554.617188 C 712.539062 554.570312 713.46875 554.703125 714.277344 555.015625 C 715.070312 555.339844 715.546875 555.824219 715.726562 556.492188 C 715.761719 557.300781 718.441406 556.894531 723.804688 555.25 C 726.25 554.609375 727.980469 554.199219 729.023438 553.996094 C 729.578125 553.269531 730.960938 552.613281 733.171875 552.039062 C 735.367188 551.460938 738.523438 550.789062 742.613281 549.984375 C 744.859375 550.054688 747.117188 549.960938 749.417969 549.710938 C 751.714844 549.429688 753.1875 549.230469 753.855469 549.105469 C 754.960938 548.617188 756.175781 548.730469 757.5 549.402344 C 758.820312 550.042969 760.003906 551.445312 761.042969 553.605469 C 761.570312 554.554688 761.855469 555.433594 761.890625 556.242188 C 761.941406 557.773438 761.050781 559.035156 759.226562 560.015625 C 757.390625 560.964844 754.277344 561.847656 749.890625 562.636719 C 745.328125 563.34375 742.558594 563.824219 741.554688 564.074219 C 734.0625 565.246094 726.195312 566.917969 717.945312 569.109375 C 712.667969 570.464844 708.882812 572.007812 706.574219 573.75 C 704.296875 575.503906 701.722656 578.769531 698.867188 583.558594 C 697.945312 584.28125 696.816406 586.089844 695.464844 588.988281 C 694.117188 591.855469 692.78125 594.808594 691.488281 597.855469 C 691.039062 598.496094 690.566406 599.226562 690.066406 600.050781 C 689.5625 600.890625 688.921875 601.792969 688.160156 602.777344 C 684.464844 608.304688 681.902344 612.292969 680.511719 614.730469 C 679.148438 617.191406 678.695312 618.679688 679.175781 619.214844 C 679.546875 619.320312 680.308594 619.503906 681.492188 619.738281 C 682.667969 619.9375 683.679688 620.074219 684.511719 620.128906 C 685.734375 619.40625 687.414062 618.882812 689.554688 618.558594 C 691.734375 618.210938 693.285156 617.847656 694.191406 617.472656 C 715.660156 610.8125 727.808594 607.207031 730.625 606.675781 C 731.839844 605.785156 732.976562 605.308594 734.027344 605.238281 C 736.488281 605.136719 738.761719 606.695312 740.835938 609.898438 C 741.277344 610.691406 741.503906 611.421875 741.542969 612.097656 C 741.628906 613.320312 740.738281 614.535156 738.847656 615.730469 C 737 616.90625 733.449219 618.398438 728.179688 620.238281 C 722.945312 622.085938 716.628906 624.210938 709.257812 626.601562 L 702.785156 628.765625 C 694.015625 631.796875 687.171875 633.4375 682.273438 633.683594 C 678.039062 633.867188 675.945312 632.789062 675.996094 630.4375 C 674.589844 629.875 673.121094 631.472656 671.570312 635.246094 C 670.058594 639 668.824219 643.597656 667.859375 649.050781 C 666.882812 654.503906 666.484375 659.085938 666.640625 662.761719 C 666.757812 664.710938 667.039062 666.1875 667.515625 667.207031 C 668.90625 670.582031 670.570312 673.117188 672.488281 674.8125 C 674.417969 676.472656 677.597656 677.824219 682.070312 678.855469 C 683.007812 678.953125 684.1875 679.023438 685.609375 679.058594 C 687.058594 679.121094 688.742188 679.113281 690.679688 679.03125 C 693.378906 678.910156 696.070312 678.226562 698.785156 676.996094 C 705.710938 675.410156 711.625 673.753906 716.511719 672.023438 C 721.394531 670.308594 724.355469 669.082031 725.414062 668.347656 C 726.226562 667.828125 726.890625 667.484375 727.4375 667.324219 C 728.007812 667.183594 728.566406 667.09375 729.109375 667.0625 L 728.925781 667.476562 C 728.925781 667.476562 728.910156 667.523438 728.890625 667.601562 C 728.90625 667.65625 729 667.683594 729.136719 667.671875 C 729.496094 667.640625 730.652344 666.433594 732.621094 664.0625 C 734.839844 661.992188 737.929688 659.96875 741.863281 658.019531 C 745.789062 656.035156 747.863281 655.523438 748.082031 656.515625 C 748.386719 657.320312 748.558594 658.015625 748.625 658.601562 C 748.742188 661.132812 747.296875 664.289062 744.269531 668.09375 C 741.230469 671.894531 737.046875 675.492188 731.695312 678.855469 C 725.214844 682.75 717.882812 685.769531 709.691406 687.878906 C 701.539062 689.964844 693.636719 691.292969 685.992188 691.824219 Z M 685.992188 691.824219 "/></g></g></g></g><g clip-rule="nonzero" clip-path="url(#79edb5556c)"><g clip-rule="nonzero" clip-path="url(#ced3702545)"><g clip-rule="nonzero" clip-path="url(#a2b9170dad)"><g clip-rule="nonzero" clip-path="url(#f63e628bf4)"><path style=" stroke:none;fill-rule:nonzero;fill:#004aad;fill-opacity:1;" d="M 872.375 558.65625 C 872.535156 559.148438 872.628906 559.757812 872.664062 560.46875 C 872.675781 561.003906 872.53125 561.464844 872.21875 561.808594 C 871.882812 562.164062 871.519531 562.441406 871.117188 562.628906 C 870.710938 562.777344 870.449219 562.9375 870.328125 563.070312 C 867.359375 564.144531 864.898438 564.714844 862.980469 564.785156 C 861.613281 564.898438 860.035156 564.652344 858.257812 564.050781 C 856.851562 562.902344 855.160156 562.105469 853.199219 561.683594 C 851.277344 561.238281 847.316406 560.933594 841.332031 560.785156 C 837.375 561.398438 833.882812 561.792969 830.875 561.957031 C 830.179688 567.054688 828.820312 571.617188 826.792969 575.65625 C 826.394531 578.304688 825.777344 580.664062 824.925781 582.71875 C 824.03125 585.53125 823.671875 587.144531 823.828125 587.539062 C 823.484375 588.109375 822.371094 591.621094 820.515625 598.058594 C 818.640625 604.503906 816.886719 610.753906 815.269531 616.824219 C 814.121094 621.160156 813.25 624.296875 812.675781 626.214844 C 812.039062 627.632812 811.28125 629.847656 810.402344 632.832031 C 809.5625 635.792969 808.960938 637.917969 808.601562 639.183594 L 804.144531 653.507812 C 803.148438 655.625 801.957031 658.949219 800.585938 663.492188 C 799.253906 668.011719 798.191406 672.058594 797.410156 675.648438 L 795.753906 682.90625 C 795.207031 685.417969 794.722656 687.3125 794.289062 688.554688 C 793.832031 689.808594 793.484375 690.507812 793.226562 690.652344 C 792.964844 690.761719 792.289062 690.785156 791.203125 690.746094 C 790.0625 690.820312 788.800781 690.046875 787.402344 688.402344 C 786.042969 686.734375 785.347656 685.074219 785.285156 683.40625 C 785.144531 680.4375 785.941406 675.332031 787.691406 668.101562 C 789.46875 660.875 791.203125 655.105469 792.921875 650.796875 C 793.347656 648.351562 793.75 646.351562 794.152344 644.816406 C 794.578125 643.304688 794.84375 642.199219 794.953125 641.511719 C 795.289062 640.910156 795.859375 639.371094 796.648438 636.929688 C 797.425781 634.484375 798.058594 632.25 798.554688 630.207031 C 798.753906 627.734375 802.285156 613.796875 809.136719 588.375 L 810.359375 584.058594 C 811.519531 581.953125 812.574219 579.289062 813.484375 576.082031 C 814.507812 575.40625 814.980469 573.976562 814.890625 571.816406 C 814.882812 571.382812 815.082031 570.789062 815.519531 570.066406 C 815.984375 569.363281 816.226562 568.867188 816.265625 568.609375 C 816.433594 568.308594 816.671875 567.644531 816.964844 566.609375 C 817.296875 565.554688 817.726562 564.746094 818.253906 564.175781 L 818.246094 563.976562 L 815.015625 564.324219 L 805 565.820312 L 800.464844 566.535156 C 792.570312 567.59375 788.023438 568.253906 786.84375 568.539062 C 782.726562 569.070312 779.804688 569.042969 778.074219 568.453125 C 776.339844 567.878906 775.691406 566.511719 776.164062 564.378906 C 776.503906 562.710938 777.3125 561.441406 778.566406 560.597656 C 779.800781 559.714844 781.789062 558.980469 784.511719 558.417969 C 785.703125 558.089844 788.078125 557.597656 791.605469 556.898438 L 797.105469 555.589844 L 804.046875 554.359375 C 811.863281 552.757812 820.230469 551.546875 829.121094 550.734375 C 832.808594 550.414062 835.898438 550.089844 838.390625 549.761719 C 840.921875 549.414062 842.59375 549.152344 843.40625 548.984375 C 845.292969 549.035156 848.394531 549.25 852.6875 549.613281 C 857.019531 549.960938 860.191406 550.40625 862.164062 550.964844 C 865.203125 551.527344 867.449219 552.363281 868.914062 553.476562 C 870.40625 554.617188 871.566406 556.34375 872.375 558.65625 Z M 872.375 558.65625 "/></g></g></g></g><g clip-rule="nonzero" clip-path="url(#59251c58e2)"><g clip-rule="nonzero" clip-path="url(#41445ff846)"><g clip-rule="nonzero" clip-path="url(#1ad3113e5f)"><g clip-rule="nonzero" clip-path="url(#47575e93ee)"><path style=" stroke:none;fill-rule:nonzero;fill:#004aad;fill-opacity:1;" d="M 854.960938 685.3125 C 853.394531 684.550781 852.28125 683.835938 851.636719 683.171875 C 851.015625 682.546875 850.671875 681.699219 850.628906 680.621094 C 850.5625 679.269531 851.035156 677.304688 852.042969 674.691406 C 853.074219 672.105469 854.882812 668.003906 857.460938 662.371094 C 858.234375 660.59375 859.667969 657.402344 861.773438 652.800781 C 868.925781 637.242188 872.46875 628.785156 872.417969 627.4375 C 872.257812 627.175781 872.175781 626.769531 872.160156 626.234375 C 872.046875 624.867188 873.066406 623.558594 875.207031 622.300781 C 878.25 619.082031 880.691406 615.625 882.542969 611.921875 C 883.761719 608.851562 885.417969 605.175781 887.535156 600.878906 C 889.675781 596.605469 892.3125 591.539062 895.441406 585.664062 C 896.882812 582.742188 899.117188 578.445312 902.15625 572.777344 C 906.773438 563.527344 912.796875 553.375 920.238281 542.324219 C 923.144531 538.003906 925.621094 535.839844 927.671875 535.835938 C 930.265625 535.738281 933.214844 536.789062 936.5 539.003906 C 939.8125 541.242188 942.199219 543.816406 943.632812 546.753906 C 944.191406 547.710938 944.550781 549.742188 944.703125 552.851562 C 944.902344 557.136719 944.800781 564.320312 944.390625 574.414062 C 944.148438 576.210938 943.984375 579.027344 943.925781 582.875 C 943.785156 589.011719 943.488281 595.589844 943.066406 602.613281 C 942.308594 617.988281 941.789062 630 941.527344 638.617188 C 941.296875 647.261719 941.359375 655.324219 941.742188 662.792969 C 941.894531 666.617188 942.097656 669.421875 942.351562 671.226562 L 942.433594 672.582031 L 942.429688 677.308594 C 941.65625 678.15625 940.421875 678.640625 938.761719 678.734375 C 936.867188 678.832031 934.996094 678.5 933.175781 677.753906 C 931.351562 676.96875 930.285156 675.96875 929.972656 674.714844 C 929.824219 674.589844 929.613281 674.460938 929.347656 674.335938 C 929.0625 674.222656 928.902344 673.613281 928.859375 672.535156 L 928.8125 667.992188 L 928.875 656.484375 L 928.289062 623.277344 L 925.601562 623.582031 C 922.902344 623.714844 916.867188 624.554688 907.5 626.117188 C 898.140625 627.644531 892.289062 628.835938 889.96875 629.679688 C 888.753906 629.734375 887.304688 630.621094 885.625 632.3125 C 883.945312 634.015625 882.457031 636.210938 881.160156 638.90625 C 880.839844 640.332031 879.988281 642.339844 878.59375 644.910156 C 877.210938 647.449219 876.519531 648.949219 876.527344 649.386719 C 875.734375 649.960938 875.046875 650.730469 874.480469 651.671875 C 873.910156 652.574219 873.582031 653.199219 873.492188 653.523438 C 873.554688 655.003906 872.335938 658.890625 869.863281 665.152344 C 867.371094 671.421875 864.832031 676.683594 862.269531 680.917969 L 858.375 687.609375 Z M 894.148438 617.273438 C 894.933594 617.144531 896.6875 616.777344 899.394531 616.160156 C 902.09375 615.558594 904.515625 615.128906 906.679688 614.894531 C 916.410156 612.054688 922.371094 610.59375 924.578125 610.503906 C 925.519531 610.46875 926.410156 610.621094 927.238281 610.988281 C 927.691406 611.566406 928.132812 611.941406 928.585938 612.105469 C 929.082031 612.242188 929.414062 612.304688 929.609375 612.261719 C 929.792969 611.429688 930.253906 603.984375 931 589.9375 C 931.789062 575.871094 932.121094 566.523438 932.011719 561.914062 L 932.128906 551.621094 C 931.316406 551.65625 929.609375 553.339844 927.042969 556.640625 C 924.46875 559.910156 921.621094 564.132812 918.53125 569.285156 C 915.433594 574.40625 912.710938 579.613281 910.378906 584.898438 C 909.125 587.441406 907.894531 589.789062 906.707031 591.984375 C 905.503906 594.175781 904.652344 595.300781 904.160156 595.328125 C 903.21875 596.308594 901.113281 600.09375 897.882812 606.671875 C 894.679688 613.277344 893.433594 616.804688 894.148438 617.273438 Z M 894.148438 617.273438 "/></g></g></g></g><g clip-rule="nonzero" clip-path="url(#ce0ed62556)"><g clip-rule="nonzero" clip-path="url(#4708c4d444)"><g clip-rule="nonzero" clip-path="url(#4e23af5a02)"><g clip-rule="nonzero" clip-path="url(#0a2c649799)"><path style=" stroke:none;fill-rule:nonzero;fill:#004aad;fill-opacity:1;" d="M 981.867188 637.414062 C 979.269531 638.113281 977.1875 637.472656 975.609375 635.511719 C 974.03125 633.5625 973.136719 630.597656 972.929688 626.625 C 972.769531 623.082031 973.191406 618.9375 974.1875 614.191406 C 975.910156 610.28125 976.730469 607.382812 976.648438 605.496094 C 977.207031 603.171875 978.160156 600.160156 979.480469 596.4375 C 980.828125 592.738281 981.894531 589.910156 982.683594 587.953125 C 983.265625 587.902344 983.84375 587.382812 984.398438 586.371094 C 984.976562 585.386719 985.25 584.417969 985.21875 583.472656 C 985.164062 582.257812 985.316406 581.003906 985.691406 579.679688 C 986.109375 578.332031 986.574219 577.394531 987.085938 576.875 C 987.078125 576.441406 987.316406 575.707031 987.839844 574.691406 C 988.351562 573.636719 988.613281 572.894531 988.609375 572.445312 C 988.574219 572.21875 988.695312 571.785156 988.976562 571.148438 C 989.292969 570.488281 989.4375 569.980469 989.410156 569.605469 C 991.675781 565.367188 994.847656 557.472656 998.917969 545.917969 C 1003.027344 534.34375 1005.117188 527.675781 1005.183594 525.910156 C 1005.480469 523.566406 1006.691406 522.523438 1008.796875 522.804688 C 1009.425781 522.28125 1010.492188 521.984375 1011.980469 521.90625 L 1015.023438 525.035156 C 1015.96875 525.933594 1016.570312 526.871094 1016.820312 527.875 C 1017.105469 528.855469 1017.324219 530.382812 1017.453125 532.449219 C 1017.351562 534.519531 1016.832031 536.769531 1015.875 539.199219 C 1014.917969 541.640625 1013.746094 544.191406 1012.371094 546.867188 C 1010.984375 549.535156 1010.042969 551.453125 1009.550781 552.59375 L 1007.0625 557.617188 C 1005.097656 561.558594 1004.132812 563.851562 1004.171875 564.527344 C 1004.195312 565.035156 1003.902344 566.015625 1003.273438 567.46875 C 1002.671875 568.949219 1002.199219 570.199219 1001.882812 571.207031 C 1000.746094 573.332031 999.484375 575.972656 998.105469 579.128906 C 996.769531 582.265625 996.117188 584.097656 996.144531 584.636719 C 995.972656 584.902344 995.816406 585.394531 995.664062 586.101562 C 995.507812 586.773438 995.183594 587.394531 994.675781 587.949219 C 994.222656 587.957031 993.949219 588.277344 993.867188 588.921875 C 993.769531 589.558594 993.730469 589.996094 993.765625 590.222656 C 993.777344 590.945312 993.496094 592.347656 992.902344 594.445312 C 992.308594 596.539062 991.46875 598.867188 990.402344 601.394531 C 986.363281 614.824219 984.324219 624.320312 984.261719 629.898438 C 984.066406 633.226562 983.898438 635.175781 983.738281 635.746094 C 983.582031 636.285156 982.960938 636.84375 981.867188 637.414062 Z M 972.417969 670.777344 C 969.882812 671.84375 967.957031 672.414062 966.609375 672.464844 C 964.792969 672.582031 962.714844 671.875 960.34375 670.355469 C 958.292969 668.492188 957.230469 666.59375 957.164062 664.660156 C 957.023438 661.6875 959.195312 658.539062 963.707031 655.1875 C 966.347656 653.402344 968.273438 652.484375 969.488281 652.429688 C 970.160156 652.402344 971.8125 652.804688 974.472656 653.640625 C 978.25 655.644531 980.230469 658.070312 980.40625 660.917969 C 980.480469 662.535156 979.820312 664.214844 978.445312 665.957031 C 977.109375 667.675781 975.105469 669.273438 972.417969 670.777344 Z M 972.417969 670.777344 "/></g></g></g></g><g clip-rule="nonzero" clip-path="url(#6e1b06c62a)"><g clip-rule="nonzero" clip-path="url(#bb99b2dbb7)"><g clip-rule="nonzero" clip-path="url(#bb7e601f0b)"><g clip-rule="nonzero" clip-path="url(#96475960b9)"><g clip-rule="nonzero" clip-path="url(#e79769ac2e)"><g clip-rule="nonzero" clip-path="url(#c07601ee3b)"><g clip-rule="nonzero" clip-path="url(#151d71a21a)"><g clip-rule="nonzero" clip-path="url(#7b65eb1846)"><path style=" stroke:none;fill-rule:nonzero;fill:#004aad;fill-opacity:1;" d="M 917.496094 911.589844 C 916.242188 931.949219 918.058594 952.300781 923.089844 971.992188 C 884.101562 949.828125 850.578125 918.300781 825.457031 881.175781 C 799.261719 842.480469 781.207031 796.914062 776.761719 750.210938 C 774.359375 724.882812 776.503906 697.5625 792.558594 676.742188 C 794.664062 674.007812 792.992188 667.441406 789.78125 671.609375 C 775.109375 690.65625 770.375 714.960938 770.757812 738.550781 C 771.160156 762.878906 776.253906 787.351562 783.703125 810.445312 C 798.769531 857.265625 825.496094 900.203125 860.675781 934.582031 C 877.789062 951.304688 896.929688 965.867188 917.582031 977.910156 C 892.136719 983.144531 867.652344 992.5 845.199219 1005.625 C 843.546875 1006.585938 842.628906 1008.761719 842.714844 1010.632812 C 842.796875 1011.988281 843.765625 1013.976562 845.460938 1012.992188 C 870.535156 998.3125 898.0625 988.4375 926.761719 983.839844 C 927.097656 983.769531 927.421875 983.628906 927.710938 983.425781 C 929.875 983.605469 931.179688 978.582031 930.734375 977.15625 C 924.074219 955.75 921.199219 933.320312 922.597656 910.917969 C 922.917969 905.613281 917.769531 907.386719 917.496094 911.589844 Z M 917.496094 911.589844 "/></g></g></g></g></g></g></g></g></g></svg>