<svg width="15" height="16" viewBox="0 0 15 16" fill="none" xmlns="http://www.w3.org/2000/svg">
<path d="M4.56923 13.9501H2.79918C2.48621 13.9501 2.18606 13.8258 1.96477 13.6045C1.74347 13.3832 1.61914 13.083 1.61914 12.77V8.63992C1.61914 8.32695 1.74347 8.0268 1.96477 7.8055C2.18606 7.5842 2.48621 7.45988 2.79918 7.45988H4.56923M8.69935 6.27984V3.91977C8.69935 3.45033 8.51287 3.00011 8.18092 2.66816C7.84897 2.33621 7.39875 2.14972 6.9293 2.14972L4.56923 7.45988V13.9501H11.2246C11.5092 13.9533 11.7854 13.8536 12.0022 13.6692C12.2191 13.4849 12.362 13.2284 12.4047 12.947L13.2189 7.63689C13.2446 7.46776 13.2332 7.29508 13.1855 7.1308C13.1378 6.96652 13.0549 6.81457 12.9427 6.68549C12.8304 6.55641 12.6915 6.45327 12.5354 6.38323C12.3793 6.31318 12.2099 6.27791 12.0389 6.27984H8.69935Z" stroke="#021430" stroke-width="1.18004" stroke-linecap="round" stroke-linejoin="round"/>
</svg>
