<svg width="15" height="15" viewBox="0 0 15 15" fill="none" xmlns="http://www.w3.org/2000/svg">
<g clip-path="url(#clip0_64_48222)">
<path d="M10.249 1.18893H11.8243C12.1582 1.18303 12.4827 1.29994 12.7361 1.51747C12.9896 1.735 13.1543 2.038 13.1991 2.36897V6.49909C13.1543 6.83006 12.9896 7.13307 12.7361 7.3506C12.4827 7.56813 12.1582 7.68504 11.8243 7.67913H10.249M6.11884 8.85917V11.2192C6.11884 11.6887 6.30532 12.1389 6.63727 12.4709C6.96922 12.8028 7.41944 12.9893 7.88889 12.9893L10.249 7.67913V1.18893H3.59356C3.30898 1.18572 3.03282 1.28546 2.81597 1.46978C2.59912 1.6541 2.4562 1.91058 2.41352 2.19196L1.5993 7.50212C1.57363 7.67125 1.58504 7.84393 1.63273 8.00821C1.68042 8.17249 1.76326 8.32444 1.87551 8.45352C1.98776 8.5826 2.12673 8.68574 2.28279 8.75578C2.43886 8.82583 2.60828 8.8611 2.77934 8.85917H6.11884Z" stroke="#021430" stroke-width="1.18004" stroke-linecap="round" stroke-linejoin="round"/>
</g>
<defs>
<clipPath id="clip0_64_48222">
<rect width="14.1604" height="14.1604" fill="white" transform="translate(0.21875 0.00891113)"/>
</clipPath>
</defs>
</svg>
